<svg width="201" height="53" viewBox="0 0 201 53" fill="none" xmlns="http://www.w3.org/2000/svg">
<path d="M82.3413 31.9526C82.3413 34.4365 81.7583 36.2614 80.5924 37.4273C79.4265 38.5932 77.6269 39.1762 75.1937 39.1762C72.7858 39.1762 70.2258 39.0495 67.5138 38.796V33.6634C69.4908 33.7902 71.5185 33.8535 73.5969 33.8535C74.1798 33.8535 74.636 33.6888 74.9655 33.3593C75.3204 33.0044 75.4978 32.5355 75.4978 31.9526V17.5053H70.5553V12.1826H82.3413V31.9526Z" fill="#D4D8E1"/>
<path d="M99.4484 38.796H85.7615V33.4733H89.1832V17.5053H85.7615V12.1826H99.4484V17.5053H96.0267V33.4733H99.4484V38.796Z" fill="#D4D8E1"/>
<path d="M125.679 38.2257C119.748 38.8594 114.298 39.1762 109.33 39.1762C106.846 39.1762 105.022 38.5932 103.856 37.4273C102.69 36.2614 102.107 34.4365 102.107 31.9526V19.7864C102.107 17.1251 102.702 15.1988 103.894 14.0075C105.11 12.7909 107.049 12.1826 109.711 12.1826H123.397V17.5053H111.231C109.711 17.5053 108.95 18.2657 108.95 19.7864V31.9526C108.95 32.5355 109.115 33.0044 109.444 33.3593C109.799 33.6888 110.268 33.8535 110.851 33.8535C113.766 33.8535 116.427 33.7902 118.835 33.6634V28.1507H113.893V23.5884H125.679V38.2257Z" fill="#D4D8E1"/>
<path d="M152.299 38.2257C146.368 38.8594 140.919 39.1762 135.951 39.1762C133.467 39.1762 131.642 38.5932 130.476 37.4273C129.311 36.2614 128.728 34.4365 128.728 31.9526V19.7864C128.728 17.1251 129.323 15.1988 130.514 14.0075C131.731 12.7909 133.67 12.1826 136.331 12.1826H150.018V17.5053H137.852C136.331 17.5053 135.571 18.2657 135.571 19.7864V31.9526C135.571 32.5355 135.736 33.0044 136.065 33.3593C136.42 33.6888 136.889 33.8535 137.472 33.8535C140.387 33.8535 143.048 33.7902 145.456 33.6634V28.1507H140.513V23.5884H152.299V38.2257Z" fill="#D4D8E1"/>
<path d="M162.952 33.4733H176.829V38.796H156.109V12.1826H162.952V33.4733Z" fill="#D4D8E1"/>
<path d="M200.6 38.796H179.499V12.1826H200.6V17.5053H186.343V22.6379H197.559V27.9606H186.343V33.4733H200.6V38.796Z" fill="#D4D8E1"/>
<g clip-path="url(#clip0_68_119)">
<path fill-rule="evenodd" clip-rule="evenodd" d="M3.49284 9.25537C4.26462 9.25871 5.0038 9.5668 5.54953 10.1125C6.09527 10.6583 6.40339 11.3975 6.40673 12.1693C6.42717 12.926 6.74218 13.6448 7.28463 14.1728C7.82707 14.7008 8.55413 14.9962 9.3111 14.9962C10.0681 14.9962 10.7951 14.7008 11.3376 14.1728C11.88 13.6448 12.195 12.926 12.2155 12.1693V3.097C12.2188 2.32522 12.5268 1.58599 13.0726 1.04025C13.6183 0.494514 14.3576 0.186451 15.1294 0.183105C15.8982 0.19035 16.6331 0.500272 17.175 1.04571C17.7169 1.59115 18.0219 2.32816 18.0241 3.097V22.1443C18.0136 22.5323 18.081 22.9185 18.2223 23.28C18.3635 23.6416 18.5758 23.9711 18.8465 24.2493C19.1173 24.5274 19.4409 24.7485 19.7985 24.8995C20.1561 25.0504 20.5403 25.1282 20.9285 25.1282C21.3166 25.1282 21.7009 25.0504 22.0585 24.8995C22.416 24.7485 22.7398 24.5274 23.0105 24.2493C23.2813 23.9711 23.4935 23.6416 23.6347 23.28C23.776 22.9185 23.8433 22.5323 23.8329 22.1443V12.1693C23.8362 11.3975 24.1443 10.6583 24.6901 10.1125C25.2358 9.5668 25.975 9.25871 26.7468 9.25537C27.5156 9.26261 28.2505 9.57256 28.7924 10.118C29.3343 10.6634 29.6394 11.4004 29.6416 12.1693V22.1443C29.6416 22.9143 29.9475 23.6528 30.492 24.1973C31.0365 24.7417 31.7748 25.0476 32.5448 25.0476C33.3148 25.0476 34.0533 24.7417 34.5978 24.1973C35.1423 23.6528 35.4482 22.9143 35.4482 22.1443V3.097C35.4515 2.32485 35.7599 1.5853 36.3061 1.0395C36.8523 0.493704 37.592 0.185894 38.3642 0.183105C39.1338 0.18703 39.8705 0.495948 40.4128 1.04217C40.955 1.58838 41.2586 2.32733 41.2569 3.097V12.1693C41.2774 12.926 41.5923 13.6448 42.1347 14.1728C42.6772 14.7008 43.4042 14.9962 44.1612 14.9962C44.9182 14.9962 45.6453 14.7008 46.1878 14.1728C46.7302 13.6448 47.0451 12.926 47.0656 12.1693C47.0689 11.3971 47.3773 10.6576 47.9235 10.1118C48.4697 9.56599 49.2095 9.25815 49.9816 9.25537C50.7513 9.25929 51.488 9.56823 52.0303 10.1145C52.5725 10.6607 52.876 11.3996 52.8743 12.1693V40.4944C52.8715 41.2608 52.5658 41.9949 52.024 42.5368C51.4821 43.0787 50.748 43.3843 49.9816 43.3871C49.2128 43.3855 48.4755 43.0809 47.9297 42.5395C47.3839 41.998 47.0734 41.2632 47.0656 40.4944C47.0761 40.1064 47.0088 39.7203 46.8675 39.3587C46.7263 38.9972 46.514 38.6676 46.2432 38.3895C45.9725 38.1113 45.6488 37.8902 45.2912 37.7393C44.9336 37.5883 44.5494 37.5106 44.1612 37.5106C43.7731 37.5106 43.3889 37.5883 43.0313 37.7393C42.6738 37.8902 42.35 38.1113 42.0793 38.3895C41.8085 38.6676 41.5962 38.9972 41.455 39.3587C41.3137 39.7203 41.2465 40.1064 41.2569 40.4944V49.5561C41.2575 49.9362 41.183 50.3127 41.0379 50.6641C40.8927 51.0154 40.6797 51.3346 40.411 51.6035C40.1423 51.8724 39.8232 52.0857 39.472 52.2311C39.1207 52.3765 38.7443 52.4512 38.3642 52.4509C37.5943 52.4521 36.8554 52.148 36.3092 51.6055C35.7631 51.0629 35.4542 50.326 35.4503 49.5561V30.4833C35.4503 29.7133 35.1445 28.9749 34.6 28.4304C34.0555 27.8859 33.317 27.5801 32.547 27.5801C31.777 27.5801 31.0385 27.8859 30.4941 28.4304C29.9496 28.9749 29.6437 29.7133 29.6437 30.4833V40.4796C29.637 41.2451 29.3299 41.9773 28.7883 42.5184C28.2468 43.0596 27.5144 43.3662 26.7489 43.3723C25.9805 43.3701 25.2437 43.0653 24.6983 42.5239C24.153 41.9825 23.8428 41.248 23.835 40.4796V30.4833C23.8146 29.7266 23.4996 29.0078 22.9571 28.4798C22.4147 27.9518 21.6876 27.6564 20.9307 27.6564C20.1737 27.6564 19.4465 27.9518 18.9041 28.4798C18.3616 29.0078 18.0467 29.7266 18.0263 30.4833V49.5561C18.0241 50.3232 17.7183 51.0582 17.1759 51.6006C16.6335 52.143 15.8985 52.4487 15.1314 52.4509C14.3614 52.4526 13.6222 52.1488 13.0759 51.6061C12.5296 51.0634 12.2209 50.3261 12.2175 49.5561V40.4859C12.228 40.0979 12.1606 39.7118 12.0194 39.3502C11.8781 38.9887 11.666 38.6591 11.3952 38.381C11.1245 38.1028 10.8007 37.8818 10.4431 37.7308C10.0855 37.5798 9.70132 37.5021 9.31317 37.5021C8.92503 37.5021 8.5408 37.5798 8.18321 37.7308C7.82562 37.8818 7.50196 38.1028 7.23123 38.381C6.9605 38.6591 6.7482 38.9887 6.60696 39.3502C6.46571 39.7118 6.39832 40.0979 6.4088 40.4859C6.401 41.2544 6.09088 41.9888 5.5455 42.5302C5.00012 43.0717 4.26339 43.3765 3.49491 43.3786C2.7294 43.3726 1.997 43.0659 1.45549 42.5248C0.913984 41.9837 0.606806 41.2514 0.600159 40.4859V12.1693C0.602355 11.4004 0.907418 10.6634 1.44929 10.118C1.99115 9.57256 2.7261 9.26261 3.49491 9.25537H3.49284ZM12.2155 20.5231C12.226 20.1351 12.1586 19.7489 12.0173 19.3874C11.8761 19.0259 11.6638 18.6963 11.393 18.4182C11.1223 18.14 10.7987 17.919 10.4411 17.768C10.0835 17.617 9.69925 17.5393 9.3111 17.5393C8.92296 17.5393 8.53873 17.617 8.18114 17.768C7.82355 17.919 7.49979 18.14 7.22906 18.4182C6.95833 18.6963 6.74613 19.0259 6.60489 19.3874C6.46364 19.7489 6.39625 20.1351 6.40673 20.5231V32.1405C6.42717 32.8973 6.74218 33.6161 7.28463 34.1441C7.82707 34.6721 8.55413 34.9675 9.3111 34.9675C10.0681 34.9675 10.7951 34.6721 11.3376 34.1441C11.88 33.6161 12.195 32.8973 12.2155 32.1405V20.5231ZM41.2484 32.1405V20.5231C41.238 20.1351 41.3053 19.7489 41.4465 19.3874C41.5877 19.0259 41.8 18.6963 42.0708 18.4182C42.3415 18.14 42.6653 17.919 43.0229 17.768C43.3805 17.617 43.7647 17.5393 44.1528 17.5393C44.541 17.5393 44.9251 17.617 45.2827 17.768C45.6403 17.919 45.964 18.14 46.2348 18.4182C46.5055 18.6963 46.7178 19.0259 46.859 19.3874C47.0003 19.7489 47.0676 20.1351 47.0571 20.5231V32.1405C47.0366 32.8973 46.7217 33.6161 46.1793 34.1441C45.6369 34.6721 44.9098 34.9675 44.1528 34.9675C43.3958 34.9675 42.6687 34.6721 42.1262 34.1441C41.5838 33.6161 41.2689 32.8973 41.2484 32.1405Z" fill="#D4D8E1"/>
</g>
<defs>
<clipPath id="clip0_68_119">
<rect width="52.2763" height="52.2763" fill="white" transform="translate(0.600037 0.183105)"/>
</clipPath>
</defs>
</svg>
