<svg width="200" height="51" viewBox="0 0 200 51" fill="none" xmlns="http://www.w3.org/2000/svg">
<g clip-path="url(#clip0_68_124)">
<path d="M44.9323 3.34174C45.222 3.44376 45.4744 3.63037 45.6569 3.87744C45.8394 4.1245 45.9436 4.42064 45.956 4.72755C46.1134 6.36655 46.1805 8.01297 46.157 9.65934C46.1396 10.4146 46.1223 11.1699 46.072 11.9251C45.7879 11.8073 45.5195 11.6896 45.2336 11.5787C44.513 11.2946 43.808 11.0261 43.0856 10.7732C43.103 10.3886 43.1203 10.0196 43.1203 9.63335C43.1359 8.40863 43.103 7.16659 43.0025 5.90896C41.828 5.53999 40.6033 5.20393 39.3647 4.90251C37.8057 4.53354 36.2466 4.2304 34.6668 4.01214C33.7781 3.89607 32.9224 3.79386 32.1013 3.71071C31.2802 3.62756 30.4054 3.57733 29.5167 3.53748C28.8238 3.52016 28.1742 3.50457 27.4709 3.50457L26.4472 3.52017C26.1441 3.52017 25.7924 3.53748 25.4234 3.53748C24.5347 3.57213 23.679 3.63796 22.8389 3.71071C21.9987 3.78347 21.162 3.89607 20.2734 4.01214C18.7143 4.2304 17.1362 4.53181 15.5754 4.90251C14.3334 5.20393 13.126 5.53999 11.9377 5.90896C11.7332 8.66652 11.8064 11.4376 12.156 14.1806C12.3415 15.715 12.6103 17.2382 12.9615 18.7434C13.1624 19.5991 13.398 20.4548 13.6544 21.2759L13.6717 21.3435L13.6873 21.4111L13.7046 21.4786L13.7375 21.5445L13.7548 21.612L13.7721 21.6796L13.7894 21.7471L13.8552 21.9307V21.9481L13.8726 22.0139L13.9904 22.3326L14.006 22.4002L14.1082 22.6687L14.1238 22.7189C14.6419 24.2212 15.2416 25.6941 15.9202 27.131L15.9531 27.1813L15.9704 27.2332L15.986 27.2661L16.0206 27.3164L16.0362 27.3666L16.0536 27.4169L16.0865 27.4498C16.3394 27.9694 16.6062 28.4891 16.8764 29.0088C17.0773 29.3449 17.2609 29.7017 17.4462 30.0153C17.6645 30.4021 17.8661 30.7376 18.0508 31.0217C18.6208 31.945 19.2236 32.851 19.8628 33.7241C20.502 34.5971 21.1534 35.4355 21.8757 36.274C22.1448 36.5927 22.4468 36.9282 22.7817 37.2804C23.1004 37.6269 23.4018 37.9733 23.6877 38.2695C24.4256 39.0248 25.1965 39.7472 25.9691 40.4505L26.2878 40.719C26.0695 40.8922 25.8513 41.0654 25.6174 41.2387C25.0129 41.6908 24.3927 42.1273 23.7708 42.5638C20.4188 39.5589 17.535 36.0697 15.2151 32.2118V32.1945L15.1978 32.1789L15.1805 32.1616C15.0471 31.9433 14.9293 31.725 14.8115 31.5414C14.6105 31.1724 14.3923 30.8017 14.2086 30.4501C13.6543 29.4436 13.1503 28.4043 12.6652 27.3129C12.1802 26.2216 11.7593 25.1493 11.373 24.0753C10.8334 22.5571 10.3742 21.0115 9.99747 19.4449C8.85777 14.6251 8.51783 9.65073 8.9911 4.72063C9.00529 4.41325 9.11212 4.11737 9.29763 3.87187C9.48314 3.62638 9.73864 3.44278 10.0305 3.3452C11.6242 2.8082 13.2525 2.33875 14.8964 1.93513C16.5074 1.56616 18.1669 1.24223 19.8628 0.996244C20.7289 0.87845 21.6402 0.777979 22.5964 0.69483C23.5197 0.609949 24.4256 0.544122 25.3143 0.509476C25.6504 0.509476 26.0072 0.492158 26.3883 0.492158L27.4796 0.476562L28.5692 0.492158C28.9555 0.492158 29.3245 0.509476 29.6432 0.509476C30.5492 0.544122 31.4552 0.609949 32.3785 0.69483C33.3347 0.777979 34.2406 0.87845 35.0964 0.996244C36.8061 1.24742 38.4674 1.56616 40.0784 1.93513C41.7068 2.33875 43.3334 2.80127 44.9444 3.3452L44.9323 3.34174ZM35.0999 33.7258C35.7044 32.8701 36.3124 31.9935 36.8616 31.091C37.0511 30.7506 37.362 30.4942 37.7322 30.3729C38.1024 30.2515 38.5047 30.2741 38.8589 30.4362C41.7742 31.8297 44.4207 33.7268 46.6766 36.0401C46.9406 36.2834 47.1104 36.6119 47.1563 36.9679C47.2022 37.324 47.1214 37.6848 46.9279 37.9872C46.4584 38.7251 45.9387 39.496 45.419 40.2513C44.8994 41.0065 44.3277 41.7445 43.7751 42.4495C43.3715 42.9692 42.9349 43.5062 42.4655 44.0432C42.0636 44.5126 41.6098 45.0323 41.1074 45.5867C40.4024 46.3592 39.7216 47.0625 39.0287 47.7503H39.0113C38.3409 48.4224 37.6256 49.0772 36.8807 49.7302C36.6609 49.9443 36.3821 50.0876 36.0801 50.1416C35.7781 50.1957 35.4668 50.158 35.1865 50.0334C32.9782 49.0197 30.8521 47.8358 28.8273 46.4926C29.0958 46.2917 29.3643 46.0908 29.6328 45.8725C30.2027 45.4186 30.7744 44.9665 31.3097 44.4867C32.678 45.3564 34.0956 46.1459 35.5554 46.8512C36.0075 46.432 36.4441 46.0128 36.8979 45.5763C37.6012 44.8833 38.256 44.2182 38.8606 43.546C39.2625 43.1268 39.6817 42.6245 40.1529 42.0875C40.5548 41.6007 40.974 41.0966 41.3776 40.5613C41.9302 39.8892 42.4343 39.2015 42.921 38.4965C43.1895 38.15 43.4408 37.7585 43.6919 37.3895C42.9368 36.6656 42.1291 35.9986 41.2754 35.394C40.4668 34.8076 39.6209 34.2747 38.7429 33.7985C38.3566 34.3858 37.9546 34.9574 37.551 35.51C36.8477 36.4836 36.1254 37.3895 35.3874 38.2626C35.0514 38.6472 34.7326 39.0005 34.4312 39.3366C34.2961 39.5098 34.1454 39.6554 33.9947 39.8217L33.9773 39.839L33.9618 39.8563L33.9444 39.8719L33.9271 39.8892L33.9115 39.9065L33.8942 39.9239L33.8769 39.9395L33.844 39.9741V39.9897C32.242 41.677 30.5209 43.247 28.6939 44.6876C25.9331 46.8075 22.938 48.6035 19.7676 50.0403C19.4794 50.1696 19.1583 50.2067 18.8482 50.1465C18.5381 50.0864 18.2542 49.9319 18.0353 49.7043C17.2956 49.0668 16.6079 48.412 15.9202 47.7572C15.2273 47.0868 14.5448 46.3714 13.8415 45.5936C13.3218 45.0392 12.8696 44.5196 12.466 44.0501C12.0138 43.5131 11.5773 42.9761 11.1581 42.4564C10.6038 41.7358 10.0668 41.0135 9.52981 40.2582C8.99281 39.5029 8.49045 38.732 8.02101 37.9941C7.6503 37.4069 7.26568 36.7815 6.87938 36.1319C6.53293 35.4944 6.17435 34.857 5.84002 34.2264C5.40522 33.4209 5.00163 32.5981 4.61533 31.777C4.22904 30.9559 3.89472 30.1313 3.54307 29.2756C2.90559 27.7165 2.35128 26.1229 1.86451 24.4945C1.37774 22.8662 0.975851 21.224 0.651916 19.5627C0.588856 19.2568 0.62288 18.9387 0.749272 18.653C0.875664 18.3673 1.08809 18.1282 1.35692 17.969C3.31018 16.5806 5.36857 15.3464 7.51342 14.2776C7.59657 15.0831 7.69875 15.8713 7.83213 16.6595C7.86505 16.928 7.91529 17.1964 7.96552 17.4649C6.54163 18.2097 5.16376 19.0392 3.83928 19.949C4.10778 21.2067 4.42651 22.4314 4.77816 23.6232C5.23201 25.1666 5.76908 26.6754 6.35632 28.1271C6.67506 28.9153 7.00937 29.7035 7.37834 30.4916C7.74732 31.2798 8.11799 32.0507 8.51988 32.7904C8.83862 33.4123 9.17472 34.0029 9.51078 34.6023C9.84511 35.1566 10.2037 35.7439 10.583 36.364C11.0542 37.102 11.5236 37.8243 12.0104 38.4947C12.4972 39.1651 13.0169 39.8806 13.5539 40.5596C13.9731 41.0949 14.375 41.599 14.7942 42.0857C15.2481 42.6227 15.6846 43.1251 16.0691 43.5443C16.691 44.2164 17.3441 44.8868 18.0492 45.5745C18.4857 46.0111 18.9395 46.4303 19.3743 46.8339C21.8987 45.6196 24.2934 44.1523 26.5216 42.4547C29.7874 39.9782 32.6754 37.0394 35.0947 33.731L35.0999 33.7258ZM53.5728 17.9621C53.8408 18.123 54.0532 18.3617 54.182 18.6464C54.3107 18.9312 54.3497 19.2484 54.2935 19.5558C53.9574 21.2171 53.5555 22.861 53.0687 24.4876C52.5819 26.1142 52.0294 27.7096 51.4075 29.2686C51.3444 29.4242 51.2534 29.5669 51.1389 29.6896C50.8757 29.9948 50.503 30.184 50.1013 30.2164C49.6997 30.2489 49.3014 30.1218 48.9927 29.8628C47.8591 28.876 46.6593 27.9679 45.4017 27.1449C44.166 26.3366 42.8765 25.6137 41.5422 24.9813C41.1922 24.8234 40.9139 24.5404 40.762 24.1878C40.61 23.8352 40.5955 23.4386 40.7211 23.0758C41.2229 21.664 41.6428 20.2244 41.9787 18.7641C42.1294 18.1942 42.2472 17.6226 42.365 17.0319C42.7513 17.1826 43.1203 17.335 43.5066 17.5013C44.0765 17.7542 44.6464 18.021 45.2163 18.2912C45.1332 18.6931 45.0431 19.0794 44.9478 19.4657C44.6811 20.59 44.3779 21.7177 44.0263 22.8211C45.0657 23.3581 46.0894 23.961 47.0785 24.5984C47.8338 25.1025 48.5891 25.6378 49.3114 26.1921C49.6128 25.3537 49.8986 24.498 50.1498 23.6266C50.5188 22.4348 50.8202 21.2015 51.106 19.9525C48.9044 18.4471 46.5611 17.1603 44.1094 16.1103C42.5994 15.4577 41.0534 14.8915 39.4791 14.4144C38.0404 13.9799 36.5783 13.6272 35.0999 13.3577C34.0605 13.1741 32.9865 13.0234 31.8951 12.9056C30.8038 12.7878 29.7316 12.7203 28.6575 12.6873L28.0547 12.67H26.8803L26.293 12.6873C25.219 12.7203 24.1276 12.7878 23.0536 12.9056C21.9796 13.0234 20.89 13.1741 19.8334 13.3577C18.3731 13.6262 16.9144 13.9952 15.4541 14.4144C14.8998 14.5876 14.3472 14.7609 13.7929 14.9514C13.7427 14.6327 13.6924 14.3313 13.6595 14.0125C13.559 13.2919 13.4863 12.5869 13.4413 11.8645C17.9678 10.368 22.7052 9.60763 27.4727 9.61256C33.3698 9.62065 39.2095 10.7713 44.669 13.0009C47.8175 14.3128 50.8064 15.979 53.578 17.9673L53.5728 17.9621ZM25.6209 31.2331C25.3697 30.9143 25.1514 30.6285 24.9505 30.3773C23.3541 28.1918 21.9985 25.8401 20.9074 23.3633C20.7567 23.029 20.6043 22.693 20.4709 22.3569C20.3375 22.0208 20.2353 21.7367 20.1244 21.418C20.0764 21.3072 20.0426 21.1908 20.0239 21.0715C19.9882 20.8743 19.9921 20.6718 20.0353 20.476C20.0786 20.2803 20.1605 20.0951 20.2761 19.9313C20.3917 19.7674 20.5388 19.6283 20.7087 19.5219C20.8787 19.4155 21.0681 19.344 21.266 19.3116C21.5847 19.244 21.9588 19.1938 22.3399 19.1383L23.4295 18.9859C24.1016 18.9201 24.7721 18.8698 25.4598 18.8127C26.1475 18.7555 26.8456 18.7624 27.4744 18.7624C28.1032 18.7624 28.7822 18.778 29.5029 18.8127C30.1958 18.8629 30.8628 18.9131 31.5176 18.9859L32.6071 19.1383C33.0107 19.1886 33.3624 19.2388 33.6985 19.3116C33.7841 19.3253 33.8682 19.3474 33.9496 19.3774C34.3293 19.5144 34.6394 19.796 34.8124 20.1607C34.9853 20.5254 35.0071 20.9437 34.8729 21.3244C34.7378 21.6709 34.6044 22.0278 34.4693 22.3638C34.3342 22.6999 34.2008 23.0359 34.0501 23.3703C33.5051 24.6048 32.8944 25.8093 32.2208 26.9786C31.544 28.1563 30.7991 29.2934 29.9896 30.3842C29.7379 30.718 29.5202 31.0032 29.3366 31.24C29.0508 31.5864 28.8325 31.8775 28.6437 32.0784C28.5846 32.1534 28.5165 32.2209 28.441 32.2793C28.2887 32.4077 28.1122 32.5045 27.9221 32.5639C27.7319 32.6234 27.5319 32.6444 27.3336 32.6257C27.1352 32.607 26.9425 32.5489 26.7668 32.455C26.5912 32.361 26.436 32.233 26.3103 32.0784C26.0592 31.7926 25.8409 31.5241 25.6174 31.24L25.6209 31.2331Z" fill="#D4D8E1"/>
</g>
<path d="M70.5888 22.2855C71.6621 20.6159 73.5503 19.7811 76.2534 19.7811V23.329C75.9354 23.2693 75.6472 23.2395 75.3888 23.2395C73.9379 23.2395 72.805 23.6669 71.9901 24.5215C71.1752 25.3563 70.7677 26.5687 70.7677 28.1588V35.8805H67.041V19.96H70.5888V22.2855Z" fill="#D4D8E1"/>
<path d="M94.2357 28.0097C94.2357 28.2681 94.2159 28.6358 94.1761 29.1128H81.6842C81.9028 30.2855 82.4693 31.2197 83.3836 31.9153C84.3177 32.5911 85.4705 32.929 86.8419 32.929C88.591 32.929 90.032 32.3526 91.1649 31.1998L93.1624 33.4954C92.4469 34.3501 91.5426 34.9961 90.4494 35.4333C89.3562 35.8706 88.1239 36.0892 86.7525 36.0892C85.0034 36.0892 83.4631 35.7414 82.1314 35.0457C80.7997 34.3501 79.7662 33.3861 79.0308 32.1538C78.3152 30.9016 77.9575 29.4905 77.9575 27.9203C77.9575 26.37 78.3053 24.9787 79.001 23.7464C79.7165 22.4942 80.7003 21.5203 81.9525 20.8246C83.2047 20.129 84.6159 19.7811 86.186 19.7811C87.7364 19.7811 89.1177 20.129 90.3301 20.8246C91.5624 21.5004 92.5165 22.4644 93.1923 23.7166C93.8879 24.9489 94.2357 26.3799 94.2357 28.0097ZM86.186 22.7625C84.9935 22.7625 83.9798 23.1203 83.1451 23.8358C82.3301 24.5315 81.8333 25.4656 81.6544 26.6383H90.6879C90.5289 25.4855 90.042 24.5513 89.227 23.8358C88.4121 23.1203 87.3985 22.7625 86.186 22.7625Z" fill="#D4D8E1"/>
<path d="M102.735 36.0892C101.443 36.0892 100.181 35.9203 98.9484 35.5824C97.7161 35.2445 96.7322 34.8172 95.9968 34.3004L97.4279 31.4681C98.1434 31.9451 98.9981 32.3327 99.9919 32.6308C101.006 32.9091 101.999 33.0482 102.973 33.0482C105.199 33.0482 106.312 32.4619 106.312 31.2892C106.312 30.7327 106.024 30.3451 105.448 30.1265C104.891 29.9079 103.987 29.6992 102.735 29.5004C101.423 29.3016 100.35 29.0731 99.5149 28.8147C98.6999 28.5563 97.9844 28.1091 97.3683 27.4731C96.772 26.8172 96.4739 25.9128 96.4739 24.76C96.4739 23.2495 97.0999 22.047 98.3521 21.1526C99.6242 20.2383 101.333 19.7811 103.48 19.7811C104.573 19.7811 105.666 19.9103 106.76 20.1687C107.853 20.4072 108.747 20.7352 109.443 21.1526L108.012 23.9849C106.66 23.1898 105.14 22.7923 103.45 22.7923C102.357 22.7923 101.522 22.9613 100.946 23.2992C100.389 23.6172 100.111 24.0445 100.111 24.5812C100.111 25.1774 100.409 25.6048 101.006 25.8631C101.622 26.1016 102.566 26.3302 103.838 26.5489C105.11 26.7476 106.153 26.9762 106.968 27.2346C107.783 27.493 108.479 27.9302 109.055 28.5464C109.652 29.1625 109.95 30.0371 109.95 31.17C109.95 32.6607 109.304 33.8532 108.012 34.7476C106.72 35.642 104.961 36.0892 102.735 36.0892Z" fill="#D4D8E1"/>
<path d="M128.125 28.0097C128.125 28.2681 128.106 28.6358 128.066 29.1128H115.574C115.793 30.2855 116.359 31.2197 117.273 31.9153C118.207 32.5911 119.36 32.929 120.732 32.929C122.481 32.929 123.922 32.3526 125.055 31.1998L127.052 33.4954C126.337 34.3501 125.432 34.9961 124.339 35.4333C123.246 35.8706 122.014 36.0892 120.642 36.0892C118.893 36.0892 117.353 35.7414 116.021 35.0457C114.689 34.3501 113.656 33.3861 112.921 32.1538C112.205 30.9016 111.847 29.4905 111.847 27.9203C111.847 26.37 112.195 24.9787 112.891 23.7464C113.606 22.4942 114.59 21.5203 115.842 20.8246C117.094 20.129 118.506 19.7811 120.076 19.7811C121.626 19.7811 123.007 20.129 124.22 20.8246C125.452 21.5004 126.406 22.4644 127.082 23.7166C127.778 24.9489 128.125 26.3799 128.125 28.0097ZM120.076 22.7625C118.883 22.7625 117.87 23.1203 117.035 23.8358C116.22 24.5315 115.723 25.4656 115.544 26.6383H124.578C124.419 25.4855 123.932 24.5513 123.117 23.8358C122.302 23.1203 121.288 22.7625 120.076 22.7625Z" fill="#D4D8E1"/>
<path d="M139.01 36.0892C137.36 36.0892 135.879 35.7414 134.567 35.0457C133.256 34.3501 132.232 33.3861 131.497 32.1538C130.761 30.9016 130.393 29.4905 130.393 27.9203C130.393 26.3501 130.761 24.9489 131.497 23.7166C132.232 22.4843 133.246 21.5203 134.538 20.8246C135.849 20.129 137.34 19.7811 139.01 19.7811C140.58 19.7811 141.951 20.0992 143.124 20.7352C144.316 21.3712 145.211 22.2855 145.807 23.478L142.945 25.1476C142.488 24.4122 141.911 23.8656 141.216 23.5079C140.54 23.1302 139.795 22.9414 138.98 22.9414C137.588 22.9414 136.436 23.3985 135.521 24.3128C134.607 25.2072 134.15 26.4097 134.15 27.9203C134.15 29.4308 134.597 30.6433 135.492 31.5575C136.406 32.452 137.569 32.8992 138.98 32.8992C139.795 32.8992 140.54 32.7203 141.216 32.3625C141.911 31.9849 142.488 31.4284 142.945 30.693L145.807 32.3625C145.191 33.5551 144.287 34.4793 143.094 35.1352C141.921 35.7712 140.56 36.0892 139.01 36.0892Z" fill="#D4D8E1"/>
<path d="M164.442 19.96V35.8805H160.894V33.8532C160.298 34.5687 159.553 35.1252 158.658 35.5228C157.764 35.9004 156.8 36.0892 155.766 36.0892C153.64 36.0892 151.96 35.5029 150.728 34.3302C149.516 33.1377 148.909 31.3787 148.909 29.0532V19.96H152.636V28.5464C152.636 29.9774 152.954 31.0507 153.59 31.7662C154.246 32.4619 155.17 32.8097 156.363 32.8097C157.694 32.8097 158.748 32.4023 159.523 31.5874C160.318 30.7526 160.716 29.56 160.716 28.0097V19.96H164.442Z" fill="#D4D8E1"/>
<path d="M172.87 22.2855C173.943 20.6159 175.831 19.7811 178.534 19.7811V23.329C178.216 23.2693 177.928 23.2395 177.67 23.2395C176.219 23.2395 175.086 23.6669 174.271 24.5215C173.456 25.3563 173.048 26.5687 173.048 28.1588V35.8805H169.322V19.96H172.87V22.2855Z" fill="#D4D8E1"/>
<path d="M190.52 19.7811C192.071 19.7811 193.452 20.119 194.664 20.7948C195.897 21.4706 196.861 22.4246 197.556 23.6569C198.252 24.8892 198.6 26.3103 198.6 27.9203C198.6 29.5302 198.252 30.9613 197.556 32.2134C196.861 33.4457 195.897 34.3998 194.664 35.0756C193.452 35.7513 192.071 36.0892 190.52 36.0892C189.427 36.0892 188.423 35.9004 187.509 35.5228C186.615 35.1451 185.86 34.5787 185.243 33.8234V35.8805H181.696V13.7588H185.422V21.8979C186.058 21.2023 186.804 20.6756 187.658 20.3178C188.533 19.96 189.487 19.7811 190.52 19.7811ZM190.103 32.8992C191.474 32.8992 192.597 32.442 193.472 31.5277C194.366 30.6134 194.814 29.411 194.814 27.9203C194.814 26.4296 194.366 25.2271 193.472 24.3128C192.597 23.3985 191.474 22.9414 190.103 22.9414C189.209 22.9414 188.404 23.1501 187.688 23.5675C186.973 23.965 186.406 24.5414 185.989 25.2967C185.571 26.052 185.363 26.9265 185.363 27.9203C185.363 28.9141 185.571 29.7886 185.989 30.5439C186.406 31.2992 186.973 31.8855 187.688 32.3029C188.404 32.7004 189.209 32.8992 190.103 32.8992Z" fill="#D4D8E1"/>
<defs>
<clipPath id="clip0_68_124">
<rect width="54.6584" height="49.6894" fill="white" transform="translate(0 0.476562)"/>
</clipPath>
</defs>
</svg>
