<svg width="201" height="57" viewBox="0 0 201 57" fill="none" xmlns="http://www.w3.org/2000/svg">
<path d="M68.9237 18.8848C68.9237 29.0804 79.884 30.4568 79.884 37.7977C79.884 40.3466 78.7625 41.2642 76.9783 41.2642C75.194 41.2642 74.0725 40.3466 74.0725 37.7977V35.2488H68.7708V37.4409C68.7708 43.1504 71.6255 46.413 77.1312 46.413C82.6368 46.413 85.4916 43.1504 85.4916 37.4409C85.4916 27.2452 74.5313 25.8688 74.5313 18.5279C74.5313 15.979 75.5509 15.0104 77.3351 15.0104C79.1193 15.0104 80.1389 15.979 80.1389 18.5279V20.0063H85.4406V18.8848C85.4406 13.1752 82.6368 9.9126 77.1822 9.9126C71.7275 9.9126 68.9237 13.1752 68.9237 18.8848Z" fill="#D4D8E1"/>
<path d="M93.6067 46.0052H99.2143V34.1783L106.3 10.3204H100.948L96.6654 26.5825L92.3832 10.3204H86.5207L93.6067 34.1783V46.0052Z" fill="#D4D8E1"/>
<path d="M116.317 10.3204H108.517V46.0052H113.411V20.771L117.591 46.0052H122.893L126.767 20.4141V46.0052H132.069V10.3204H124.269L120.446 35.6566L116.317 10.3204Z" fill="#D4D8E1"/>
<path d="M134.517 15.4183H140.379V46.0052H145.987V15.4183H151.849V10.3204H134.517V15.4183Z" fill="#D4D8E1"/>
<path d="M171.754 46.0052C171.193 44.6798 171.142 43.4053 171.142 41.6721V36.1664C171.142 32.445 170.224 29.7431 167.42 28.5706C169.918 27.3981 171.091 25.0022 171.091 21.3317V18.5279C171.091 13.0223 168.593 10.3204 162.781 10.3204H154.319V46.0052H159.927V31.4764H161.864C164.413 31.4764 165.534 32.6999 165.534 36.0135V41.6211C165.534 44.5268 165.738 45.0876 166.044 46.0052H171.754ZM162.629 15.4183C164.617 15.4183 165.483 16.5398 165.483 19.0887V22.6062C165.483 25.461 164.209 26.3786 162.119 26.3786H159.927V15.4183H162.629Z" fill="#D4D8E1"/>
<path d="M174.83 46.0052H180.437V10.3204H174.83V46.0052Z" fill="#D4D8E1"/>
<path d="M195.498 32.6999V37.7977C195.498 40.3466 194.376 41.2642 192.592 41.2642C190.808 41.2642 189.686 40.3466 189.686 37.7977V18.5279C189.686 15.979 190.808 15.0104 192.592 15.0104C194.376 15.0104 195.498 15.979 195.498 18.5279V22.3513H200.8V18.8848C200.8 13.1752 197.945 9.9126 192.439 9.9126C186.934 9.9126 184.079 13.1752 184.079 18.8848V37.4409C184.079 43.1504 186.934 46.413 192.439 46.413C197.945 46.413 200.8 43.1504 200.8 37.4409V32.6999H195.498Z" fill="#D4D8E1"/>
<g clip-path="url(#clip0_68_136)">
<path fill-rule="evenodd" clip-rule="evenodd" d="M20.0674 17.9578L17.0032 23.2554L14.0875 18.1979L17.1365 12.9002H38.4337L42.9558 5.05675H12.6107L6.63089 15.429C11.1167 23.1785 15.5956 30.928 20.0674 38.6775H29.1115C26.84 34.7456 24.5697 30.8143 22.3008 26.8837L21.6719 25.7955H42.3993L51.3138 41.231L42.3993 56.6418H9.69513L0.872167 41.0824L5.30272 33.3875L8.23735 38.4431L6.64996 41.212L12.6298 51.5842H39.4666L45.4654 41.212L39.4856 30.8397H30.4416C32.3599 34.1809 34.2795 37.5214 36.2003 40.8613L36.4176 41.2063L34.9598 43.735H17.1518C11.7614 34.414 6.37807 25.1 1.00169 15.793L0.799683 15.4233L9.69513 -0.012207H51.7369L41.3722 17.9578H20.0674Z" fill="#D4D8E1"/>
</g>
<defs>
<clipPath id="clip0_68_136">
<rect width="50.939" height="56.6425" fill="white" transform="translate(0.799805)"/>
</clipPath>
</defs>
</svg>
