<svg width="201" height="48" viewBox="0 0 201 48" fill="none" xmlns="http://www.w3.org/2000/svg">
<g clip-path="url(#clip0_68_114)">
<path fill-rule="evenodd" clip-rule="evenodd" d="M5.04057 44.8445L9.16714 42.4785L10.8239 41.5278L12.4505 40.5901L15.0027 39.1274L19.056 36.8131L23.1135 39.1274L25.6614 40.5901L27.2878 41.5278L28.949 42.4785L32.9892 44.8101L34.2177 45.507L35.4159 46.191L37.847 47.5847V25.1897L32.9892 22.3978V39.2651L29.7016 37.3723L24.8567 34.602L23.0096 33.5265L21.4871 32.6662V4.85508H16.6291V33.3286L13.2551 35.2687L8.41457 38.0606L5.04057 39.9835V22.4322L0.19986 25.2068V47.6192L2.61367 46.2254L3.825 45.5414L5.04057 44.8445ZM29.6974 33.5093V-0.169434H24.8524V30.739L29.6974 33.5093ZM13.2595 31.3842V9.87529H8.4188V34.1761L13.2595 31.3842Z" fill="#D4D8E1"/>
</g>
<path d="M58.3718 34.3214H62.6031L66.5035 20.8956H66.6639L70.5743 34.3214H74.8056L80.6813 13.7866H75.9386L72.5396 28.0847H72.3591L68.6191 13.7866H64.5583L60.8083 28.0547H60.6378L57.2388 13.7866H52.4961L58.3718 34.3214Z" fill="#D4D8E1"/>
<path d="M83.005 34.3214H96.882V30.7418H87.3466V25.8387H96.13V22.2592H87.3466V17.3662H96.8419V13.7866H83.005V34.3214Z" fill="#D4D8E1"/>
<path d="M100.294 34.3214H113.439V30.7418H104.635V13.7866H100.294V34.3214Z" fill="#D4D8E1"/>
<path d="M112.491 13.7866L119.981 27.062V34.3214H124.293V27.062L131.783 13.7866H126.92L122.237 22.6302H122.037L117.354 13.7866H112.491Z" fill="#D4D8E1"/>
<path d="M134.668 17.3662H140.954V34.3214H145.246V17.3662H151.533V13.7866H134.668V17.3662Z" fill="#D4D8E1"/>
<path d="M158.652 13.7866H154.31V34.3214H158.652V13.7866Z" fill="#D4D8E1"/>
<path d="M180.342 20.9758C179.771 16.2331 176.181 13.5059 171.428 13.5059C166.004 13.5059 161.863 17.3361 161.863 24.054C161.863 30.7519 165.934 34.6021 171.428 34.6021C176.692 34.6021 179.871 31.1028 180.342 27.3227L175.95 27.3027C175.539 29.4985 173.815 30.7619 171.498 30.7619C168.38 30.7619 166.264 28.4457 166.264 24.054C166.264 19.7826 168.35 17.3461 171.529 17.3461C173.905 17.3461 175.619 18.7198 175.95 20.9758H180.342Z" fill="#D4D8E1"/>
<path d="M194.595 19.6924H198.756C198.696 16.0326 195.688 13.5059 191.116 13.5059C186.614 13.5059 183.315 15.9925 183.335 19.7224C183.325 22.7505 185.461 24.4851 188.93 25.3174L191.166 25.8789C193.402 26.4203 194.645 27.062 194.655 28.4457C194.645 29.9497 193.221 30.9724 191.015 30.9724C188.759 30.9724 187.135 29.9297 186.995 27.8742H182.794C182.904 32.316 186.082 34.6121 191.066 34.6121C196.079 34.6121 199.027 32.2158 199.037 28.4557C199.027 25.0366 196.45 23.2218 192.88 22.4196L191.036 21.9785C189.251 21.5674 187.757 20.9056 187.787 19.4317C187.787 18.1081 188.96 17.1355 191.086 17.1355C193.161 17.1355 194.435 18.0781 194.595 19.6924Z" fill="#D4D8E1"/>
<defs>
<clipPath id="clip0_68_114">
<rect width="37.6471" height="47.0588" fill="white" transform="translate(0.200012 0.791992)"/>
</clipPath>
</defs>
</svg>
