<svg width="201" height="53" viewBox="0 0 201 53" fill="none" xmlns="http://www.w3.org/2000/svg">
<g clip-path="url(#clip0_67_4244)">
<path fill-rule="evenodd" clip-rule="evenodd" d="M29.5957 51.5555C35.2742 50.8925 40.5629 48.3325 44.6054 44.29C48.648 40.2474 51.2079 34.9588 51.8709 29.2803H42.3273C41.7254 32.4317 40.1892 35.3293 37.9187 37.5961C35.6481 39.863 32.7481 41.3944 29.5957 41.9912V51.5555Z" fill="#D4D8E1"/>
<path fill-rule="evenodd" clip-rule="evenodd" d="M38.0732 3.6356L38.1333 3.59628C44.3086 0.0479839 49.3019 -0.995427 51.6267 1.33146C58.2037 7.90636 39.6569 28.3577 34.1626 33.852C30.8585 37.1658 27.3569 40.2768 23.6771 43.1678V51.55C20.7187 51.2141 17.8442 50.3517 15.1894 49.0036L15.1294 49.043C8.954 52.5913 3.96285 53.6346 1.63596 51.3202C-1.55212 48.1321 2.17828 40.7933 3.94207 37.7646C2.60233 35.1065 1.74048 32.2335 1.39579 29.2769H10.96C11.3782 31.4967 12.2629 33.6025 13.5555 35.455C14.8481 37.3075 16.5191 38.8646 18.4582 40.0232C17.3548 40.8244 16.2328 41.5862 15.0693 42.3004C13.3655 43.3831 11.6018 44.4058 9.77589 45.327C8.34689 44.0616 7.06874 42.6354 5.96677 41.0769C4.0415 44.7867 3.39975 47.5131 4.42242 48.5296C8.81328 52.8769 28.5628 34.736 31.8109 31.4878C35.269 28.0343 38.5036 24.364 41.4952 20.4993C40.5094 17.98 38.8992 15.7529 36.8157 14.0273C34.7323 12.3016 32.2442 11.1343 29.5855 10.6349V1.07061C32.5445 1.40353 35.4195 2.26605 38.0732 3.61695V3.6356ZM47.2958 11.5561C49.2211 7.84635 49.8629 5.11992 48.8402 4.10346C47.8175 3.087 45.1139 3.74326 41.4021 5.66853C43.684 7.28794 45.6764 9.28046 47.2958 11.5623V11.5561Z" fill="#D4D8E1"/>
<path fill-rule="evenodd" clip-rule="evenodd" d="M23.6812 1.08936C18.0025 1.75276 12.7139 4.31315 8.67136 8.35607C4.62881 12.399 2.06888 17.6879 1.40601 23.3666H10.9703C11.5641 20.2148 13.0948 17.3154 15.3626 15.0473C17.6303 12.7792 20.5295 11.2479 23.6812 10.6536V1.08936Z" fill="#D4D8E1"/>
</g>
<path d="M96.1705 32.3952C96.1705 33.5008 95.9593 34.5442 95.537 35.5255C95.1271 36.4944 94.5557 37.3452 93.8228 38.0781C93.1024 38.7986 92.2515 39.37 91.2702 39.7923C90.3013 40.2022 89.2641 40.4072 88.1586 40.4072C87.1648 40.4072 86.2084 40.2333 85.2892 39.8855C84.3824 39.5376 83.5626 39.0284 82.8297 38.3576C82.0968 39.0284 81.2708 39.5376 80.3516 39.8855C79.4324 40.2333 78.4759 40.4072 77.4822 40.4072C76.3767 40.4072 75.3333 40.2022 74.352 39.7923C73.3831 39.37 72.5322 38.7986 71.7993 38.0781C71.0789 37.3452 70.5075 36.4944 70.0851 35.5255C69.6752 34.5442 69.4703 33.5008 69.4703 32.3952V13.3157H74.8178V32.3952C74.8178 32.7679 74.8861 33.1219 75.0227 33.4573C75.1594 33.7802 75.3457 34.0659 75.5817 34.3144C75.8301 34.5504 76.1158 34.7367 76.4388 34.8733C76.7617 35.01 77.1096 35.0783 77.4822 35.0783C77.8548 35.0783 78.2027 35.01 78.5256 34.8733C78.8486 34.7367 79.1281 34.5504 79.3641 34.3144C79.6125 34.0659 79.805 33.7802 79.9417 33.4573C80.0783 33.1219 80.1466 32.7679 80.1466 32.3952V13.3157H85.4941V32.3952C85.4941 32.7679 85.5624 33.1219 85.6991 33.4573C85.8357 33.7802 86.022 34.0659 86.2581 34.3144C86.5065 34.5504 86.7922 34.7367 87.1151 34.8733C87.4381 35.01 87.7859 35.0783 88.1586 35.0783C88.5312 35.0783 88.879 35.01 89.202 34.8733C89.5249 34.7367 89.8044 34.5504 90.0404 34.3144C90.2889 34.0659 90.4814 33.7802 90.618 33.4573C90.7671 33.1219 90.8416 32.7679 90.8416 32.3952V13.3157H96.1705V32.3952Z" fill="#D4D8E1"/>
<path d="M106.418 14.6572C106.418 15.1292 106.325 15.5702 106.139 15.9801C105.965 16.39 105.723 16.7502 105.412 17.0608C105.102 17.3589 104.735 17.6011 104.313 17.7874C103.903 17.9613 103.462 18.0483 102.99 18.0483C102.518 18.0483 102.071 17.9613 101.648 17.7874C101.238 17.6011 100.878 17.3589 100.568 17.0608C100.27 16.7502 100.027 16.39 99.8411 15.9801C99.6672 15.5702 99.5802 15.1292 99.5802 14.6572C99.5802 14.1976 99.6672 13.7629 99.8411 13.3529C100.027 12.9306 100.27 12.5704 100.568 12.2723C100.878 11.9617 101.238 11.7195 101.648 11.5456C102.071 11.3593 102.518 11.2661 102.99 11.2661C103.462 11.2661 103.903 11.3593 104.313 11.5456C104.735 11.7195 105.102 11.9617 105.412 12.2723C105.723 12.5704 105.965 12.9306 106.139 13.3529C106.325 13.7629 106.418 14.1976 106.418 14.6572ZM105.543 40.0345H100.419V20.0792H105.543V40.0345Z" fill="#D4D8E1"/>
<path d="M120.393 40.0345H108.766V34.9665H120.393C120.74 34.9665 121.039 34.8423 121.287 34.5939C121.535 34.3454 121.66 34.0473 121.66 33.6995C121.66 33.3393 121.535 33.1033 121.287 32.9915C121.039 32.8797 120.74 32.8238 120.393 32.8238H115.101C114.219 32.8238 113.393 32.6561 112.623 32.3207C111.853 31.9853 111.182 31.5319 110.611 30.9605C110.039 30.3767 109.586 29.6998 109.25 28.9296C108.927 28.1595 108.766 27.3334 108.766 26.4515C108.766 25.5696 108.927 24.7435 109.25 23.9734C109.586 23.2033 110.039 22.5325 110.611 21.9611C111.182 21.3897 111.853 20.9425 112.623 20.6196C113.393 20.2842 114.219 20.1165 115.101 20.1165H125.405V25.1845H115.101C114.753 25.1845 114.455 25.3087 114.207 25.5572C113.958 25.8056 113.834 26.1037 113.834 26.4515C113.834 26.8117 113.958 27.1223 114.207 27.3831C114.455 27.6316 114.753 27.7558 115.101 27.7558H120.393C121.262 27.7558 122.082 27.9048 122.852 28.2029C123.622 28.4886 124.293 28.8923 124.864 29.4141C125.436 29.9358 125.889 30.5631 126.225 31.2959C126.56 32.0288 126.728 32.83 126.728 33.6995C126.728 34.5814 126.56 35.4075 126.225 36.1776C125.889 36.9353 125.436 37.6061 124.864 38.1899C124.293 38.7613 123.622 39.2147 122.852 39.5501C122.082 39.873 121.262 40.0345 120.393 40.0345Z" fill="#D4D8E1"/>
<path d="M134.535 40.0345H129.448V12.1418H134.535V20.955C135.143 20.4954 135.771 20.1724 136.416 19.9861C137.062 19.7873 137.721 19.688 138.391 19.688C139.621 19.688 140.776 19.924 141.857 20.396C142.938 20.8556 143.876 21.4953 144.671 22.3151C145.478 23.1225 146.111 24.0728 146.571 25.1659C147.043 26.2465 147.279 27.4018 147.279 28.6315V40.0345H142.155V28.6315H142.192C142.192 28.1098 142.093 27.6191 141.894 27.1595C141.696 26.6875 141.422 26.2776 141.075 25.9298C140.727 25.582 140.323 25.3087 139.863 25.11C139.404 24.9112 138.913 24.8119 138.391 24.8119C137.857 24.8119 137.354 24.9112 136.882 25.11C136.41 25.3087 136 25.582 135.653 25.9298C135.305 26.2776 135.031 26.6875 134.833 27.1595C134.634 27.6191 134.535 28.1098 134.535 28.6315V40.0345Z" fill="#D4D8E1"/>
<path d="M158.85 35.1528C159.049 35.2149 159.247 35.2584 159.446 35.2833C159.645 35.2957 159.844 35.3019 160.042 35.3019C160.539 35.3019 161.017 35.2336 161.477 35.0969C161.937 34.9603 162.365 34.7678 162.763 34.5193C163.173 34.2585 163.533 33.9479 163.843 33.5877C164.166 33.2151 164.427 32.8051 164.626 32.358L168.352 36.1031C167.88 36.7738 167.334 37.3763 166.713 37.9104C166.104 38.4445 165.439 38.8979 164.719 39.2706C164.011 39.6432 163.259 39.9227 162.465 40.109C161.682 40.3078 160.875 40.4072 160.042 40.4072C158.639 40.4072 157.316 40.1463 156.074 39.6246C154.844 39.1029 153.763 38.3762 152.832 37.4446C151.912 36.513 151.186 35.4075 150.652 34.128C150.117 32.8362 149.85 31.4201 149.85 29.8799C149.85 28.3023 150.117 26.8614 150.652 25.5572C151.186 24.2529 151.912 23.1412 152.832 22.222C153.763 21.3028 154.844 20.5885 156.074 20.0792C157.316 19.5699 158.639 19.3153 160.042 19.3153C160.875 19.3153 161.688 19.4147 162.483 19.6134C163.278 19.8122 164.03 20.0979 164.738 20.4705C165.458 20.8432 166.129 21.3028 166.75 21.8493C167.371 22.3834 167.918 22.9859 168.39 23.6566L158.85 35.1528ZM161.458 24.6628C161.222 24.5758 160.986 24.5199 160.75 24.4951C160.527 24.4703 160.291 24.4578 160.042 24.4578C159.347 24.4578 158.688 24.5883 158.067 24.8491C157.459 25.0976 156.924 25.4578 156.465 25.9298C156.018 26.4018 155.664 26.9732 155.403 27.644C155.142 28.3023 155.012 29.0476 155.012 29.8799C155.012 30.0662 155.018 30.2774 155.03 30.5134C155.055 30.7494 155.086 30.9916 155.123 31.24C155.173 31.476 155.229 31.7058 155.291 31.9294C155.353 32.153 155.434 32.3518 155.533 32.5257L161.458 24.6628Z" fill="#D4D8E1"/>
<path d="M176.085 40.0345H170.961V12.1418H176.085V40.0345Z" fill="#D4D8E1"/>
<path d="M185.103 47.6365H179.979V20.0792H181.209L183.24 22.4828C183.699 22.0481 184.202 21.6381 184.749 21.2531C185.295 20.868 185.861 20.5388 186.444 20.2656C187.041 19.9799 187.655 19.7563 188.289 19.5948C188.922 19.4333 189.562 19.3526 190.208 19.3526C191.612 19.3526 192.928 19.6072 194.158 20.1165C195.4 20.6134 196.481 21.3214 197.4 22.2406C198.332 23.1598 199.065 24.2715 199.599 25.5758C200.133 26.8676 200.4 28.3023 200.4 29.8799C200.4 31.5195 200.133 32.9977 199.599 34.3144C199.065 35.6186 198.332 36.7304 197.4 37.6496C196.481 38.5563 195.4 39.252 194.158 39.7364C192.928 40.2208 191.612 40.4631 190.208 40.4631C189.761 40.4631 189.314 40.4134 188.867 40.314C188.432 40.2146 187.997 40.0842 187.562 39.9227C187.14 39.7488 186.718 39.5563 186.295 39.3451C185.885 39.1339 185.488 38.9166 185.103 38.693V47.6365ZM195.295 29.8799C195.295 29.0352 195.158 28.2775 194.885 27.6067C194.624 26.9359 194.264 26.3708 193.804 25.9112C193.345 25.4391 192.804 25.0789 192.183 24.8305C191.562 24.5821 190.904 24.4578 190.208 24.4578C189.513 24.4578 188.854 24.5821 188.233 24.8305C187.624 25.0789 187.09 25.4391 186.631 25.9112C186.171 26.3708 185.805 26.9359 185.531 27.6067C185.271 28.2775 185.14 29.0352 185.14 29.8799C185.14 30.6873 185.271 31.4264 185.531 32.0971C185.805 32.7679 186.171 33.3393 186.631 33.8113C187.09 34.2833 187.624 34.6498 188.233 34.9106C188.854 35.1715 189.513 35.3019 190.208 35.3019C190.904 35.3019 191.562 35.1715 192.183 34.9106C192.804 34.6498 193.345 34.2833 193.804 33.8113C194.264 33.3393 194.624 32.7679 194.885 32.0971C195.158 31.4264 195.295 30.6873 195.295 29.8799Z" fill="#D4D8E1"/>
<defs>
<clipPath id="clip0_67_4244">
<rect width="52.6241" height="52.4688" fill="white" transform="translate(0.399902 0.0869141)"/>
</clipPath>
</defs>
</svg>
