<svg width="250" height="272" viewBox="0 0 250 272" fill="none" xmlns="http://www.w3.org/2000/svg">
<path d="M126.065 0.119446C125.526 0.176216 123.482 0.374908 121.524 0.545219C114.484 1.1413 103.896 3.27019 97.4814 5.39907C88.824 8.23758 79.9962 13.7159 75.8236 18.8252L74.1205 20.8973V45.2801C74.1205 61.0906 74.234 70.0036 74.4043 70.6848C74.9437 72.615 76.8455 73.4098 78.6053 72.5015C79.0311 72.2744 80.7058 70.9403 82.3522 69.4926C92.1734 60.9487 103.045 56.5206 119.111 54.5337C124.447 53.8808 142.018 53.7957 147.496 54.3918C164.413 56.2368 175.739 60.6933 185.475 69.3223C187.15 70.8267 188.91 72.246 189.364 72.4731C191.209 73.4098 193.082 72.6434 193.622 70.6848C193.792 70.0036 193.906 61.0906 193.906 45.2801V20.9257L192.316 18.9955C189.591 15.6745 184.113 11.5303 179.145 9.03237C170.034 4.46236 157.005 1.28323 142.812 0.232986C139.321 -0.0224838 128.45 -0.0792542 126.065 0.119446ZM140.428 6.59125C145.623 8.26597 150.76 13.0063 153.4 18.5981L154.308 20.5283V26.3473V32.1662L153.4 34.068C149.625 42.0726 142.16 47.0684 134.013 47.0684C130.862 47.0684 127.797 46.302 124.646 44.7408C122.687 43.7757 121.722 43.0377 119.537 40.8237C117.237 38.5529 116.613 37.7013 115.478 35.4305C113.916 32.3082 113.576 30.6902 113.576 26.035C113.576 21.8624 113.888 20.1877 115.165 17.6047C117.919 11.956 123.17 7.69827 129.301 6.13708C132.282 5.39907 137.334 5.59777 140.428 6.59125Z" fill="#0073B4"/>
<path d="M132.338 10.111C130.891 10.8206 130.664 11.8141 130.635 17.4343L130.607 22.2882L125.725 22.4301C119.054 22.6288 118.032 23.0546 117.635 25.9215C117.408 27.6246 117.919 28.7316 119.196 29.3561C120.048 29.7818 121.211 29.8954 125.441 29.9805L130.607 30.0941V35.4021C130.607 39.745 130.692 40.8237 131.061 41.3346C132.14 42.8958 134.808 43.3215 136.114 42.101C136.511 41.732 136.994 41.0791 137.136 40.6817C137.306 40.256 137.419 37.7013 137.419 34.9763V30.0373H141.819C146.531 30.0373 148.688 29.7251 149.682 28.9019C150.221 28.4761 150.335 28.1071 150.335 26.6879C150.335 23.1681 149.341 22.6288 142.33 22.4301L137.476 22.3166L137.363 16.9802C137.277 11.7573 137.249 11.6154 136.596 10.9058C136 10.2529 134.467 9.60004 133.587 9.60004C133.445 9.60004 132.878 9.82712 132.338 10.111Z" fill="#0073B4"/>
<path d="M123.369 58.4508C113.86 59.1037 104.266 61.5732 96.4029 65.4051C91.3503 67.8463 87.4899 70.5712 83.7431 74.2897C80.0247 78.0081 79.2299 79.2571 79.2299 81.4711C79.2299 83.7419 78.8041 84.8489 77.4132 86.183C74.9437 88.5674 74.0354 91.9736 74.0354 98.7293C74.0354 109.629 77.8958 119.848 85.4178 128.903C88.3131 132.366 88.824 133.274 90.3284 137.333C94.4443 148.602 101.313 157.685 110.17 163.618C118.401 169.096 126.803 171.168 137.845 170.515C143.692 170.146 147.553 169.153 152.889 166.598C164.357 161.12 172.702 151.44 177.896 137.475C179.316 133.643 180.252 132.11 183.205 128.619C187.831 123.197 192.316 114.341 193.48 108.21C194.076 105.229 194.331 96.572 193.934 93.3361C193.537 90.1002 192.77 88.3403 190.954 86.325C189.449 84.6786 189.08 83.6852 189.08 81.4711C189.08 79.4274 188.456 78.3204 185.617 75.4251C176.25 65.8593 165.322 61.0055 148.206 58.7914C144.26 58.3089 128.733 58.0818 123.369 58.4508Z" fill="#0073B4"/>
<path d="M85.9004 153.172C85.2759 153.399 79.6557 155.727 73.4109 158.281C34.6937 174.177 26.0362 179.74 15.846 195.239C10.3676 203.584 5.45701 215.108 2.70366 225.951C0.88701 233.246 0.0354573 239.463 0.00707219 246.076C-0.049698 252.321 0.0638422 252.463 7.1885 255.103C30.8049 263.845 62.0285 268.728 107.615 270.8C117.692 271.254 150.789 271.254 160.695 270.771C192.969 269.295 217.238 266.485 237.704 261.944C245.85 260.127 255.87 257.118 262.456 254.507C267.962 252.321 268.019 252.208 268.019 245.736C267.934 227.711 259.56 203.697 248.547 189.845C244.261 184.481 237.307 178.435 231.516 175.085C223.909 170.686 209.745 164.327 189.903 156.379C181.615 153.087 179.798 152.462 179.458 152.803C179.316 152.973 178.01 157.486 176.591 162.88C168.416 193.791 162.313 210.737 151.896 231.43C143.465 248.148 137.135 259.02 134.978 260.439C134.297 260.893 134.183 260.865 133.332 260.411C131.714 259.559 129.67 256.494 124.731 247.609C113.207 226.888 106.139 211.106 99.8659 191.974C96.9138 183.005 92.0883 165.832 89.8743 156.436C89.4769 154.762 89.0228 153.257 88.8524 153.03C88.4267 152.547 87.3196 152.604 85.9004 153.172Z" fill="#0073B4"/>
<path d="M123.397 180.478C121.694 180.706 121.24 181.018 121.24 182.096C121.24 182.863 122.347 189.278 123.596 195.665L124.532 200.49H134.013H143.494L144.572 194.955C146.19 186.666 146.871 182.267 146.673 181.529C146.588 181.131 146.219 180.734 145.878 180.62C144.97 180.308 125.441 180.195 123.397 180.478Z" fill="#0073B4"/>
<path d="M126.832 205.429C126.236 205.542 125.64 205.77 125.498 205.911C125.1 206.309 124.022 210.34 122.233 217.862L120.615 224.731L123.454 230.351C126.009 235.432 129.642 242.102 132.509 247.041C133.105 248.063 133.729 248.886 133.9 248.886C134.467 248.886 141.45 236.539 145.623 228.222L147.383 224.731L145.765 217.862C143.437 207.813 142.813 205.911 141.876 205.599C140.996 205.287 128.137 205.173 126.832 205.429Z" fill="#0073B4"/>
</svg>
