<svg width="282" height="374" viewBox="0 0 282 374" fill="none" xmlns="http://www.w3.org/2000/svg">
<path d="M102.878 44.6708C101.469 50.0793 102.693 55.5824 108.309 68.3448C118.285 91.1262 132.071 125.987 132.436 129.512C133.309 137.779 123.938 137.771 119.596 129.356C118.478 127.188 112.73 119.176 106.985 111.485C101.241 103.794 93.0044 91.8995 88.6831 85.0886C84.3617 78.2776 79.0777 71.479 76.8114 69.9037C73.4429 67.4442 72.0936 67.3332 68.0118 69.439C55.9154 75.6797 66.9317 93.0612 71.2261 100.714C83.0382 121.418 106.558 154.486 108.727 153.367C109.62 152.906 110.439 151.677 110.427 150.714C110.766 146.988 115.852 143.072 120.661 142.69C125.853 142.11 128.626 143.101 134.651 147.58C138.085 150.167 138.875 151.697 140.099 157.2C141.388 162.831 142.309 164.616 146.92 168.856C153.348 174.742 154.099 178.39 151.192 187.154C148.461 194.697 143.042 197.655 134.486 196.096C129.339 195.199 126.842 195.681 120.975 198.708C114.469 202.064 113.124 202.274 106.937 200.3C97.9779 197.334 93.8459 190.264 96.2472 182.083C97.6641 177.317 97.4628 176.613 94.485 174.598C86.8431 169.177 78.2128 166.849 67.4341 167.244C55.9478 167.52 50.0682 169.585 45.4464 174.713C43.3557 176.922 43.1824 178.464 44.761 181.524C46.4055 184.712 49.3135 186.279 58.466 189.306C64.8461 191.342 70.395 193.645 70.7897 194.41C71.1186 195.048 73.644 196.812 76.4204 198.124C81.9734 200.748 90.5063 210.714 95.4397 220.276C98.2024 225.631 100.214 227.338 109.522 232.545C115.597 235.868 121.223 239.261 122.26 240.018C123.296 240.775 128.467 243.596 133.826 246.158C139.186 248.721 146.881 253.307 150.834 256.272C158.677 262.396 180.197 350.112 196.967 346.303C206.697 344.189 247.136 308.317 251.251 303.772C252.897 301.954 225.754 231.503 224.929 227.086C224.309 223.693 224.298 217.725 225.024 214.122C225.622 210.585 225.898 207.052 225.504 206.287C225.109 205.522 224.67 201.228 224.421 196.675C224.172 192.122 221.638 179.385 218.869 168.383C213.61 148.172 212.398 133.299 214.919 124.411C218.219 112.837 220.182 99.3044 221.259 87.2387C222.094 76.9605 221.667 73.6291 219.102 68.6566C216.602 63.8116 215.303 62.5448 212.608 62.6435C206.894 62.5243 203.992 66.6043 202.392 77.2774C200.965 86.4081 197.249 102.37 192.647 119.435C191.42 123.943 189.971 126.143 187.605 126.879C183.26 128.475 180.645 124.658 180.673 116.572C180.629 113.043 179.57 105.356 178.342 99.5325C177.048 93.5811 175.266 84.4916 174.367 79.3052C173.595 74.053 172.375 68.8708 171.718 67.5958C171.126 66.4483 170.037 61.521 169.335 56.7171C167.718 45.4436 165.354 41.1744 160.2 39.6362C155.498 38.3489 151.54 40.0681 149.601 44.1358C148.098 47.1712 149.135 58.2596 151.372 62.5946C152.095 63.9971 152.801 69.1218 153.116 73.8023C153.304 78.5486 154.185 87.4572 155.162 93.7335C156.011 100.076 156.597 105.908 156.288 106.874C156.045 107.968 156.325 109.761 156.982 111.036C158.232 113.459 156.608 122.207 154.822 123.128C153.419 123.852 149.534 116.009 146.399 106.488C144.997 102.206 138.503 85.8615 131.951 70.0309C120.639 43.0955 119.586 41.0554 115.967 39.0483C111.442 36.5395 104.225 39.4556 102.878 44.6708ZM165.951 145.638C177.12 145.688 184.252 151.372 181.641 158.207C178.162 167.429 162.992 170.896 151.817 165.2L145.161 161.691L147.463 155.822C150.259 148.407 155.168 145.713 165.951 145.638ZM178.883 173.836C190.41 176.769 196.714 183.041 194.939 189.93C192.978 197.399 179.006 199.119 168.406 193.287C161.554 189.396 159.597 186.854 159.598 181.849C159.632 179.41 161.027 178.044 166.002 175.478C171.232 172.78 173.346 172.496 178.883 173.836ZM132.068 202.993C138.44 204.388 142.335 207.867 146.479 215.9C149.965 222.657 150.376 224.705 149.013 228.637C147.16 234.436 143.72 236.534 138.306 234.807C129.993 232.154 122.11 222.822 122.145 215.377C122.227 206.456 125.955 201.788 132.068 202.993ZM163.591 198.354C165.59 199.098 168.301 200.283 169.527 200.78C170.753 201.278 173.866 203.869 176.465 206.403C180.882 210.581 181.343 211.474 181.534 216.541C181.726 221.608 181.096 222.579 176.887 224.75C172.805 226.856 171.007 226.815 165.841 224.314C157.19 220.383 151.071 213.53 150.029 207.127C148.846 199.826 156.233 195.047 163.591 198.354Z" fill="#03486E"/>
</svg>
