<svg width="194" height="396" viewBox="0 0 194 396" fill="none" xmlns="http://www.w3.org/2000/svg">
<path d="M130.081 174.492C143.581 176.998 154.687 185.524 160.708 198.014C163.887 204.633 165.27 212.711 164.485 220.115C164.036 224.416 162.428 231.147 160.82 235.448C154.388 252.687 137.111 270.787 110.223 288.438C100.388 294.908 85.0932 303.696 83.6348 303.696C83.373 303.696 80.7927 302.387 77.8758 300.816C43.3966 281.969 18.1542 259.905 8.91733 240.496C6.67356 235.747 5.51429 232.381 4.16803 226.473C2.89656 220.863 2.74698 213.422 3.83146 208.336C7.27191 191.657 20.7719 178.456 37.4132 175.577C42.1251 174.754 50.8384 175.016 55.0267 176.138C66.5821 179.204 76.3799 187.207 81.952 198.052L83.2234 200.52L84.3827 197.977C89.0198 188.104 98.2941 179.765 108.69 176.1C114.636 174.006 123.761 173.333 130.081 174.492Z" fill="#0073B4"/>
<path d="M85.2244 25L61.2244 123M61.2244 123L4.22437 32M61.2244 123L43.2244 64" stroke="#0073B4" stroke-width="4"/>
<path d="M92.6642 76.2964L121.734 195M121.734 195L190.776 84.7752M121.734 195L143.537 123.536" stroke="#0073B4" stroke-width="4"/>
<path d="M8.90892 231L81.9747 391M81.9747 391L156.631 236.429M81.9747 391L84.0241 286.245" stroke="#0073B4" stroke-width="4"/>
<path d="M171.182 48.7614C179.849 50.37 186.979 55.8439 190.845 63.8627C192.885 68.1122 193.774 73.298 193.269 78.0517C192.981 80.8126 191.949 85.1341 190.917 87.8951C186.787 98.963 175.695 110.583 158.433 121.915C152.119 126.068 142.3 131.71 141.363 131.71C141.195 131.71 139.539 130.87 137.666 129.862C115.53 117.762 99.3246 103.597 93.3945 91.1362C91.954 88.0872 91.2098 85.9264 90.3454 82.1331C89.5292 78.5318 89.4331 73.7542 90.1294 70.489C92.3381 59.7813 101.005 51.3063 111.689 49.4577C114.714 48.9295 120.308 49.0975 122.997 49.8178C130.415 51.7865 136.706 56.9243 140.283 63.8867L141.099 65.4713L141.843 63.8387C144.821 57.5005 150.775 52.1466 157.449 49.7938C161.266 48.4493 167.124 48.0172 171.182 48.7614Z" fill="#0073B4"/>
<path d="M68.7754 0.305443C76.0877 1.66257 82.1036 6.28084 85.3648 13.0462C87.0865 16.6315 87.8359 21.0067 87.4106 25.0173C87.1675 27.3467 86.2965 30.9927 85.4255 33.3221C81.9416 42.6599 72.5835 52.4636 58.0197 62.0243C52.6924 65.5285 44.4079 70.2886 43.6179 70.2886C43.4762 70.2886 42.0785 69.5796 40.4986 68.7289C21.8229 58.5201 8.15037 46.5693 3.14723 36.0566C1.9319 33.4841 1.30398 31.6611 0.574774 28.4607C-0.113916 25.4224 -0.194938 21.3915 0.392475 18.6368C2.25599 9.60276 9.56826 2.45254 18.582 0.892853C21.1342 0.447227 25.8538 0.58902 28.1224 1.19669C34.3814 2.85764 39.6884 7.19235 42.7064 13.0665L43.3951 14.4033L44.0231 13.026C46.5348 7.67848 51.5581 3.16148 57.1892 1.17644C60.4098 0.0421219 65.3522 -0.322479 68.7754 0.305443Z" fill="#0073B4"/>
</svg>
