<svg width="312" height="278" viewBox="0 0 312 278" fill="none" xmlns="http://www.w3.org/2000/svg">
<path fill-rule="evenodd" clip-rule="evenodd" d="M85.2331 0.247223C86.689 0.168518 87.8524 0.105591 88.3733 0.0740356C92.1257 -0.14859 120.587 0.169434 125.421 0.519226C163.39 3.03146 184.156 8.50107 188.798 17.1826C189.466 18.4546 189.498 18.8998 189.593 30.2524C189.689 42.6545 189.625 43.4177 188.258 45.453C187.654 46.3434 187.399 47.3292 187.081 50.1912C186.541 54.7386 186.541 69.2713 187.049 74.7728C188.226 87.3021 190.675 101.39 194.999 120.883L195.572 123.395L204.476 123.332C237.23 122.982 267.917 129.596 281.591 139.995C285.566 143.016 288.301 146.514 289.319 149.853C289.529 150.546 291.847 157.59 295.109 167.506L295.119 167.537L295.12 167.54C296.796 172.632 298.72 178.479 300.735 184.611L311.579 217.46L311.229 219.146C309.957 225.092 303.438 231.421 293.23 236.604C291.386 237.558 289.701 238.385 289.478 238.449C289.16 238.544 289.383 239.307 290.273 241.247C292.213 245.508 292.785 248.338 292.594 252.663C292.404 257.211 291.863 259.214 289.764 263.507C288.333 266.496 287.793 267.196 284.931 270.058C282.068 272.92 281.337 273.461 278.38 274.892C273.61 277.245 271.829 277.658 266.455 277.658C262.607 277.658 261.589 277.531 258.918 276.8C257.233 276.323 254.911 275.528 253.766 274.987C247.82 272.316 240.696 266.337 233.541 258.133L229.948 253.967H168.478H107.04L104.242 257.211C96.5777 266.083 88.6277 272.697 82.5856 275.241C77.911 277.213 75.7486 277.658 70.5651 277.658C66.4311 277.658 65.4771 277.563 63.4101 276.927C51.803 273.27 44.33 263.38 44.33 251.614C44.33 247.098 45.0296 244.745 48.4004 237.972C48.464 237.844 47.5418 237.749 46.3334 237.749C38.9239 237.749 29.9245 235.364 23.0238 231.643C14.6604 227.096 7.6643 220.386 4.03908 213.39C0.795452 207.157 0.000446282 202.164 0.000446282 187.664C-0.0313539 169.442 1.62226 158.121 9.47691 122.473C14.9784 97.4145 16.9818 85.4576 17.9358 72.0697C18.3174 66.3139 18.3492 57.7914 17.9358 52.9896C17.8629 52.0716 17.7901 51.1068 17.7264 50.2636C17.6511 49.2666 17.5886 48.4396 17.5542 48.0606C17.5224 47.2656 17.1408 46.3116 16.632 45.5802C15.1692 43.545 15.0102 42.0503 15.1374 29.9344L15.1381 29.8499C15.2328 18.994 15.2347 18.7688 15.996 17.3098C20.3208 8.5647 43.2806 2.58624 80.2642 0.519226C81.9527 0.42453 83.7038 0.329865 85.1678 0.250702L85.2008 0.248962L85.2331 0.247223ZM163.263 13.9389C152.037 11.5857 138.49 9.9957 122.241 9.10529C117.089 8.81909 89.2319 8.75549 84.8753 8.97809C68.2119 9.9321 59.6895 10.7907 49.736 12.4761C37.2703 14.6067 27.603 17.5005 24.9318 19.9492C23.8824 20.935 23.8824 20.9668 24.4866 21.412C24.8046 21.6982 26.1084 22.366 27.3486 22.9702L29.6065 24.0196L35.1397 22.1434C44.5208 18.9316 52.4708 17.119 62.4561 15.8788C66.2403 15.4017 69.3885 15.3063 80.2642 15.3063C95.3057 15.3381 104.019 15.7833 105.482 16.6737C108.598 18.4864 108.535 22.366 105.355 24.2104C104.178 24.91 103.892 24.91 93.7793 24.3694C85.9883 23.956 72.2824 23.956 67.3851 24.3694C60.5799 24.9418 53.1068 26.1502 48.1778 27.5176L46.1108 28.09L49.1 28.5988C66.0813 31.5244 89.8361 32.8919 113.082 32.3195C134.897 31.7471 153.182 29.68 166.793 26.2774C173.153 24.6874 178.909 22.366 180.276 20.8714L180.912 20.1718L179.958 19.4086C177.986 17.8185 171.149 15.5926 163.263 13.9389ZM97.1183 62.1163C68.8479 61.6711 43.8212 58.6182 30.3379 53.9754C28.8433 53.4666 27.4122 52.9578 27.1578 52.8624C26.7444 52.7034 26.6808 53.88 26.6808 62.4343C26.6808 80.5604 24.9 93.2487 17.904 125.335C10.3673 159.807 8.93631 169.665 8.90451 187.028C8.87271 203.468 9.69952 207.221 14.883 213.803C19.3668 219.464 27.2214 224.615 35.1079 227.064C38.0971 227.986 42.9944 228.845 45.4112 228.845C46.7468 228.845 46.9058 228.781 46.715 228.272C44.7752 223.407 44.5208 222.04 44.5208 217.715C44.5208 212.881 44.9342 210.846 46.7468 206.966C49.577 200.797 54.9512 195.773 61.1841 193.451C65.0319 191.988 67.8939 191.543 71.9326 191.734C81.4408 192.147 88.6595 196.122 99.0582 206.68L102.461 210.146L106.945 196.663C109.425 189.254 111.428 183.116 111.428 183.021C111.428 182.894 110.824 182.576 110.093 182.258C108.376 181.59 104.878 179.268 103.733 178.06L102.842 177.138L100.871 179.014C94.0337 185.406 83.2852 186.328 75.4624 181.208C71.074 178.346 67.5759 173.481 66.4311 168.711C65.2863 163.813 66.2085 157.263 68.8161 151.666C74.254 139.995 88.0871 130.232 101.125 128.833C108.058 128.07 119.061 132.427 126.724 138.946L128.855 140.726L130.254 139.677C139.508 132.586 160.051 126.575 182.152 124.477C184.601 124.222 186.286 123.936 186.382 123.713C186.445 123.523 185.873 120.342 185.078 116.717C179.958 93.0261 178.082 78.3026 178.114 61.8301V52.7034L176.492 53.3394C161.609 58.9998 129.078 62.5933 97.1183 62.1163ZM270.589 143.334C260.222 138.246 246.007 134.812 227.499 132.935C221.871 132.363 199.547 132.077 191.724 132.49C167.937 133.699 145.614 139.391 135.66 146.768C130.063 150.902 129.173 153.892 132.289 157.74L132.989 158.566L135.946 156.34C145.741 148.963 162.849 143.97 185.364 141.871C192.678 141.203 205.716 140.758 207.115 141.14C209.278 141.744 210.741 144.193 210.2 146.323C210.073 146.768 209.532 147.659 208.928 148.295C207.91 149.408 207.815 149.44 204.73 149.694C203.013 149.821 199.928 149.949 197.893 149.98C181.802 150.044 160.051 154.083 148.19 159.234C145.518 160.411 140.907 163.05 140.526 163.654C140.43 163.782 142.116 164.64 144.246 165.562L148.126 167.184L151.942 165.912C161.482 162.732 174.711 160.284 188.226 159.202C194.999 158.63 205.939 158.344 207.115 158.662C209.278 159.234 210.741 161.683 210.2 163.782C209.946 164.831 208.483 166.516 207.529 166.866C207.115 167.025 203.236 167.311 198.943 167.47C190.77 167.82 183.551 168.393 177.668 169.219C172.485 169.919 165.171 171.382 165.171 171.668C165.171 171.795 165.298 171.922 165.457 171.922C165.616 171.922 167.874 172.272 170.45 172.717C181.103 174.466 189.275 175.102 203.967 175.325C217.196 175.516 224.923 175.102 235.767 173.64C260.254 170.364 278.984 162.7 281.273 155.068C282.355 151.411 278.507 147.214 270.589 143.334ZM84.6208 205.408C81.2818 203.055 79.2784 202.037 76.2892 201.179C72.9502 200.193 69.1659 200.066 66.3357 200.861C63.1875 201.719 61.1205 202.864 58.5765 205.281C56.1278 207.57 54.188 210.973 53.552 214.121C52.9796 216.856 53.2976 220.958 54.2516 223.343C55.619 226.746 58.6719 230.626 62.4243 233.71L63.5373 234.632L62.1063 235.777C61.3431 236.413 59.7531 237.844 58.5765 238.957C50.0222 247.13 51.9302 261.313 62.3289 266.751C69.3885 270.471 77.0524 269.358 85.0979 263.475C88.3733 261.058 96.7367 252.663 100.139 248.338L102.683 245.095H168.51L234.336 245.063L236.626 247.861C244.099 256.924 251.604 263.889 256.819 266.56C259.459 267.896 263.561 268.913 266.423 268.913C271.479 268.913 275.104 267.419 278.729 263.825C283.595 258.991 285.153 252.886 283.118 246.717C282.068 243.537 279.143 239.403 276.185 236.89L273.61 234.728L275.136 233.456C280.033 229.354 281.846 227 283.181 223.121C284.104 220.45 284.167 215.87 283.34 213.104C281.083 205.44 274.532 200.511 266.614 200.447C259.458 200.384 253.83 203.436 245.276 211.959C242.541 214.694 238.916 218.605 237.23 220.64L234.146 224.393H168.573H103.001L100.139 220.799C96.1961 215.902 88.0553 207.825 84.6208 205.408ZM99.2808 82.532C96.9912 83.4542 95.7192 84.3446 93.9383 86.2844C92.0621 88.3196 90.8219 90.641 89.7407 94.0119C89.1047 96.0789 89.0093 97.0329 89.0411 100.849C89.0411 104.76 89.1683 105.619 89.8997 107.845C91.5215 112.774 94.4154 116.463 98.0724 118.275C99.885 119.166 100.426 119.293 102.842 119.293C105.259 119.293 105.8 119.198 107.676 118.244C111.428 116.399 114.672 111.947 116.071 106.732C116.835 103.87 116.835 97.4781 116.071 94.6479C114.672 89.4326 111.428 84.9806 107.74 83.168C105.068 81.8324 101.602 81.578 99.2808 82.532ZM51.2624 103.807C52.598 99.9269 55.0149 97.1603 58.1313 95.9201C59.4351 95.4113 60.3255 95.2841 62.6469 95.3795C65.2863 95.4749 65.7951 95.5703 68.0211 96.6833C74.4448 99.8633 79.342 107.718 79.819 115.7C80.2642 122.569 77.4976 128.261 72.6958 130.519C71.1376 131.25 70.4698 131.377 68.0211 131.377C65.3817 131.377 64.9683 131.282 62.7741 130.233C58.4493 128.166 55.4283 125.049 53.075 120.247C51.0716 116.24 50.5628 114.014 50.531 109.594C50.531 106.605 50.6582 105.556 51.2624 103.807ZM139.54 95.8563C131.717 98.623 125.739 107.781 125.739 117.003C125.739 125.208 130.063 130.996 136.551 131.473C144.978 132.077 153.532 123.236 154.995 112.424C155.981 105.333 153.15 98.6866 148.094 96.2061C145.995 95.1885 141.861 95.0295 139.54 95.8563ZM220.079 194.374C218.78 191.678 216.382 189.838 213.469 189.297C212.105 189.047 210.135 189.192 208.852 189.644C206.608 190.435 204.606 192.235 203.606 194.366L203.355 194.915L203.081 194.382C201.878 192.041 199.764 190.314 197.27 189.652C196.366 189.41 194.485 189.353 193.468 189.531C189.876 190.152 186.963 193.002 186.22 196.601C185.986 197.699 186.018 199.305 186.293 200.516C186.583 201.791 186.834 202.518 187.318 203.543C189.311 207.732 194.76 212.494 202.201 216.562C202.831 216.901 203.388 217.183 203.444 217.183C203.759 217.183 207.06 215.286 209.183 213.89C214.986 210.08 218.715 206.174 220.103 202.453C220.45 201.525 220.797 200.072 220.894 199.144C221.064 197.546 220.765 195.802 220.079 194.374Z" fill="#0073B4"/>
</svg>
