<svg width="227" height="224" viewBox="0 0 227 224" fill="none" xmlns="http://www.w3.org/2000/svg">
<path fill-rule="evenodd" clip-rule="evenodd" d="M179.358 0.232758C190.638 2.22334 193.735 4.32452 193.735 10.0751C193.735 13.7245 191.523 15.3833 189.864 12.7292C188.537 10.6281 182.013 11.5128 179.58 14.1669C176.483 17.3739 176.483 20.8022 179.469 25.6681C182.123 29.8704 181.238 31.861 176.483 33.0775C174.05 33.741 173.718 34.294 174.271 36.8375C174.603 38.4963 175.488 44.0257 176.262 49.2234C177.015 55.0394 177.302 57.2569 176.704 59.2025C176.335 60.4015 175.631 61.4972 174.493 63.2681C169.848 70.2352 166.088 70.5669 164.54 64.1528C163.655 60.5034 161.885 60.614 160.337 64.374C156.135 74.6587 152.817 81.294 151.711 81.294C151.048 81.294 149.5 79.5246 148.283 77.4234C146.956 75.3222 145.629 73.5528 145.187 73.5528C144.744 73.5528 142.422 75.5434 140.1 78.0869C132.469 85.8281 129.704 86.0493 129.594 78.861C129.594 74.5481 128.045 74.2163 123.401 77.4234C121.078 78.9716 118.203 80.1881 116.876 79.9669C114.885 79.6352 114.664 78.861 114.664 71.2305C114.775 63.7104 115.217 61.7199 118.867 54.421C122.958 46.2375 132.137 36.174 137.998 33.5198C140.431 32.3034 142.864 28.3222 142.864 25.2257C142.864 16.821 150.937 6.31511 159.784 2.99745C165.977 0.67511 174.824 -0.541367 179.358 0.232758ZM171.617 9.96452C173.166 11.8445 175.598 12.1763 176.483 10.6281C176.926 10.0751 176.151 9.85393 174.935 10.1857C173.497 10.5175 172.502 10.0751 172.06 8.96922C171.617 7.97394 171.064 7.31041 170.733 7.64217C170.401 7.97394 170.843 8.96922 171.617 9.96452ZM189.754 15.9362C194.73 21.4657 194.067 30.8657 188.206 36.5057L184.888 39.7127V35.8421C184.888 33.6304 183.671 29.428 182.123 26.4421C179.137 20.4704 178.695 17.1527 180.686 15.1621C182.676 13.1715 187.653 13.6139 189.754 15.9362ZM159.784 113.143C167.857 100.979 176.041 79.7457 176.041 71.1198C176.041 69.0186 175.93 69.0186 172.834 71.2304C168.963 73.9951 166.42 74.1057 163.766 71.7834C161.996 70.2351 161.775 70.3457 160.558 74.1057C158.9 79.1928 153.26 85.7175 150.605 85.7175C149.5 85.7175 147.509 84.3904 146.293 82.8422L144.081 79.9669L139.325 83.9481C132.358 89.9198 129.041 89.3669 124.617 81.5151C124.507 81.4045 122.627 82.0681 120.304 82.9528C117.31 84.2252 114.975 84.2818 113.161 83.0882C113.148 83.1094 113.136 83.1305 113.123 83.1513C112.182 84.7196 112.495 85.0332 115.632 85.5559C120.65 86.3923 126.401 90.1561 127.132 93.1881C128.805 99.7747 123.473 104.689 112.705 106.152C109.15 106.675 102.354 108.139 97.8585 109.289C95.7463 109.817 93.7002 110.301 92.0239 110.67C91.6917 111.044 91.3489 111.427 90.9984 111.816C88.1143 114.978 85.4527 118.751 83.3625 122.523C86.8242 123 91.858 123.35 98.7994 123.662C122.456 124.609 133.726 126.9 142.044 133.506C148.653 127.329 155.329 119.851 159.784 113.143ZM169.737 105.292C170.18 105.623 170.511 108.056 170.511 110.6C170.511 115.023 170.733 115.355 174.05 116.019C177.368 116.682 184.888 122.654 184.888 124.534C184.888 125.087 182.455 125.087 179.469 124.755C172.281 123.981 167.194 125.861 161.775 131.28L157.241 135.703V131.391C157.241 129.068 158.015 126.082 158.9 124.755C160.005 123.207 160.116 122.212 159.342 121.99C158.678 121.769 160.558 117.899 163.544 113.033C166.641 108.388 169.406 104.849 169.737 105.292ZM97.9035 76.9381C100.022 78.9643 100.851 82.8326 99.6534 84.7667C98.8245 86.1482 99.1008 86.4245 101.864 86.885C106.285 87.6218 111.35 90.9375 111.995 93.6084C113.469 99.4108 108.771 103.74 99.285 105.029C96.1535 105.489 90.167 106.779 86.2066 107.792C82.1542 108.805 78.378 109.634 77.6412 109.634C76.9965 109.634 73.5888 110.923 70.181 112.489L63.8261 115.252L64.4708 119.397C64.5246 119.733 64.5725 120.043 64.6168 120.329C64.8782 122.019 65.0114 122.881 65.4753 123.491C65.958 124.127 66.7986 124.49 68.5139 125.232C68.6916 125.309 68.8788 125.39 69.0758 125.475C71.2863 126.488 76.8123 127.041 87.0355 127.502C112.363 128.515 121.573 131.278 129.586 140.488C133.27 144.54 138.152 153.566 138.152 156.053C138.152 156.79 138.704 159.645 139.441 162.408C140.178 165.079 141.007 170.421 141.375 174.289C142.02 181.104 142.112 181.289 144.783 181.841C146.257 182.118 148.743 183.683 150.217 185.249C152.519 187.644 152.888 188.841 152.888 193.078C152.888 196.209 152.335 198.972 151.414 200.446C148.191 205.327 141.191 206.709 133.547 204.038C131.336 203.301 129.402 202.748 129.218 202.932C128.665 203.577 128.665 207.814 129.31 212.879C130.599 222.734 125.718 224.484 103.798 221.629C93.1142 220.247 90.5354 220.247 72.5757 221.537C45.1295 223.563 39.4193 222.55 41.6297 216.379C43.748 210.393 55.8133 206.064 75.0624 204.59C80.128 204.13 82.9831 203.761 81.3253 203.669C77.0886 203.485 66.5891 197.683 62.5367 193.354C50.2872 180.091 61.7998 158.263 79.2069 161.763C81.6937 162.316 83.812 162.5 83.812 162.132C83.812 160.658 78.6543 159.369 73.0362 159.369C68.0627 159.369 66.3128 159.829 63.0892 161.855C60.8788 163.329 58.0237 166.184 56.6422 168.394C54.3396 171.986 54.1554 173 54.3396 180.368C54.3565 180.993 54.3731 181.577 54.3886 182.124C54.5362 187.334 54.5875 189.145 53.923 190.639C53.5687 191.435 53.0109 192.14 52.1558 193.222C52.0306 193.38 51.899 193.546 51.7608 193.722C50.3793 195.472 48.4452 198.327 47.4321 199.985C46.4189 201.643 44.9453 203.946 44.2085 205.051C43.4717 206.064 41.7218 208.551 40.4324 210.577C39.0509 212.511 36.1957 216.195 34.0774 218.59L30.2092 223.01L18.5123 222.734L6.90759 222.458L6.63129 219.05C6.35498 216.287 6.81548 215.09 8.84171 213.248C10.1311 212.05 12.802 210.761 14.6441 210.485C16.4861 210.208 19.4333 209.656 21.1833 209.287L24.4068 208.643L24.9594 201.275C25.2357 197.13 26.433 190.959 27.6303 187.459C30.1171 179.907 30.4855 166.552 28.275 158.54L26.9856 153.474L19.8938 152.277C15.9335 151.632 11.9731 150.619 11.0521 150.158C10.1311 149.606 8.5654 149.237 7.64439 149.237C6.63127 149.237 4.60506 147.856 2.94724 146.198C0.184204 143.343 0 142.698 0 136.712C0 131.186 0.460495 129.344 3.13142 124.186C8.28909 114.055 12.6179 109.081 21.1833 103.371C26.1567 100.148 26.433 100.055 36.0115 99.8713L45.7742 99.595L52.9581 92.6874C60.6505 84.9951 87.9329 66.9675 97.9035 76.9381ZM19.5254 119.12C18.1439 120.226 18.0518 123.818 19.3412 126.304C21.6438 130.541 30.0249 126.304 28.8276 121.607C27.8145 117.923 22.8411 116.634 19.5254 119.12ZM132.533 215.297C139.002 216.511 146.27 217.057 149.355 216.246L152.386 215.518L149.476 211.638C148.149 209.903 147.23 208.21 146.774 206.832C143.804 207.271 140.404 206.851 136.869 205.516C134.607 204.701 132.627 204.09 132.439 204.294C131.873 205.007 131.873 209.693 132.533 215.297ZM149.144 206.268C150.712 209.685 158.684 215.779 164.996 218.065C170.088 219.883 174.817 220.611 182.334 220.611C193.004 220.611 195.186 219.035 186.699 217.458C180.879 216.488 177.969 213.821 177.969 209.577C177.969 205.94 181.364 202.909 188.881 199.999C191.185 199.029 196.399 196.24 200.521 193.815C204.522 191.39 209.736 188.965 212.04 188.48L216.162 187.51L212.888 186.419C207.432 184.6 209.008 183.024 215.313 183.873C220.891 184.479 221.376 184.358 224.043 180.599C225.619 178.417 226.832 175.143 226.832 173.324C226.832 165.322 205.735 142.527 194.337 138.284C186.578 135.374 185.971 135.252 187.063 136.95C187.426 137.556 187.548 138.647 187.184 139.254C186.82 139.739 184.274 138.162 181.606 135.616C177.605 131.736 175.787 130.887 171.907 130.887C168.148 130.887 167.057 131.372 166.451 133.434C164.996 137.92 168.269 146.407 172.755 150.166C175.18 152.106 176.393 153.924 175.665 154.409C173.604 155.743 166.329 148.226 164.874 143.376C163.541 138.89 163.177 138.647 158.327 138.647C156.949 138.618 155.628 138.589 154.363 138.562L154.297 138.56C145.608 138.372 139.513 138.239 135.018 138.222C138.279 143.178 141.582 150.197 141.582 152.434C141.582 153.249 142.148 156.408 142.902 159.464C143.656 162.419 144.504 168.328 144.881 172.607C145.541 180.147 145.635 180.351 148.369 180.962C149.877 181.268 152.422 183 153.93 184.732C156.287 187.381 156.664 188.705 156.664 193.392C156.664 196.856 156.098 199.913 155.156 201.543C153.762 203.825 151.677 205.415 149.144 206.268ZM199.915 161.199C201.612 161.199 202.219 160.351 202.219 158.168C202.219 155.986 201.612 155.137 199.794 155.137C197.126 155.137 195.429 157.804 196.762 159.987C197.126 160.593 198.581 161.199 199.915 161.199Z" fill="#03486E"/>
</svg>
