<svg width="263" height="351" viewBox="0 0 263 351" fill="none" xmlns="http://www.w3.org/2000/svg">
<path fill-rule="evenodd" clip-rule="evenodd" d="M109.854 142.508C114.943 138.906 121.09 136.59 127.551 135.876C134.04 135.132 142.56 136.676 148.649 139.735C152.308 141.593 155.196 143.881 169.204 155.888C176.186 161.894 189.758 173.546 200.941 183.147L204.654 186.334C209.422 190.428 214.583 194.858 219.398 198.99C226.418 205.016 232.702 210.409 235.958 213.208C239.011 215.818 242.633 218.935 245.86 221.713C248.465 223.956 250.813 225.977 252.397 227.33C255.999 230.418 259.372 233.563 260.058 234.477C261.516 236.421 262.374 238.537 262.774 241.253C263.66 247.257 260.001 253.717 254.055 256.605L251.853 257.663H240.418H228.954V292.798C228.954 325.759 228.976 329.296 228.005 332.536C227.867 332.999 227.707 333.457 227.525 333.994C224.38 343.142 217.09 349.432 208.313 350.575C206.655 350.804 183.784 350.861 131.039 350.804C58.5723 350.706 54.7389 350.882 51.8086 349.34C51.3263 349.087 50.8685 348.787 50.1332 348.431C45.3303 346.115 41.7568 342.399 39.1266 336.996C37.6686 333.994 37.0111 331.764 36.5536 328.248C36.4107 326.99 36.2678 312.095 36.2678 291.912V257.72L24.3464 257.577C11.4244 257.463 11.1099 257.434 7.73647 255.776C5.4208 254.632 2.76207 251.888 1.56136 249.401C-0.611368 244.855 -0.525603 240.624 1.87583 236.021L3.24808 233.391L17.428 221.298C27.4818 212.723 40.7583 201.382 53.9459 190.107V139.967C53.9459 138.31 55.2891 136.967 56.9459 136.967H80.0957C81.7526 136.967 83.0957 138.31 83.0957 139.967V165.172C89.6749 159.541 95.3029 154.721 99.2768 151.314C104.137 147.14 108.911 143.194 109.854 142.508ZM192.647 242.911C188.044 233.362 179.553 226.844 169.233 224.929C164.401 224.043 157.426 224.557 152.88 226.158C144.933 228.96 137.843 235.335 134.298 242.882L133.411 244.826L132.439 242.94C128.18 234.649 120.69 228.531 111.856 226.187C108.654 225.329 101.993 225.129 98.3905 225.758C85.6686 227.959 75.3482 238.051 72.7181 250.801C71.889 254.689 72.0034 260.379 72.9754 264.667C74.0045 269.184 74.8908 271.757 76.6061 275.388C83.6674 290.225 102.965 307.092 129.323 321.501C131.553 322.701 133.526 323.702 133.726 323.702C134.841 323.702 146.534 316.984 154.052 312.038C174.607 298.544 187.815 284.707 192.732 271.528C193.962 268.24 195.191 263.095 195.534 259.807C196.135 254.146 195.077 247.971 192.647 242.911Z" fill="#0073B4"/>
<path d="M79.7035 90.0386C83.5344 90.7496 86.6862 93.1691 88.3947 96.7135C89.2968 98.5919 89.6894 100.884 89.4666 102.985C89.3392 104.206 88.8829 106.116 88.4266 107.336C86.6013 112.228 81.6985 117.365 74.0685 122.373C71.2775 124.209 66.9372 126.703 66.5233 126.703C66.4491 126.703 65.7168 126.332 64.8891 125.886C55.1048 120.538 47.9417 114.276 45.3205 108.769C44.6838 107.421 44.3548 106.466 43.9728 104.789C43.612 103.197 43.5695 101.086 43.8773 99.6424C44.8536 94.9095 48.6845 91.1634 53.4069 90.3463C54.744 90.1128 57.2166 90.1871 58.4051 90.5055C61.6843 91.3757 64.4646 93.6466 66.0458 96.7241L66.4066 97.4245L66.7356 96.7029C68.0515 93.9013 70.6833 91.5349 73.6334 90.4949C75.3207 89.9006 77.91 89.7096 79.7035 90.0386Z" fill="#0073B4"/>
<path d="M88.2064 41.9652C90.2814 42.3503 91.9886 43.6609 92.914 45.5807C93.4026 46.5981 93.6153 47.8397 93.4946 48.9778C93.4256 49.6388 93.1784 50.6735 92.9313 51.3345C91.9426 53.9843 89.287 56.7663 85.1542 59.4794C83.6425 60.4738 81.2915 61.8246 81.0674 61.8246C81.0271 61.8246 80.6305 61.6234 80.1822 61.382C74.8825 58.485 71.0026 55.0937 69.5829 52.1105C69.238 51.3805 69.0598 50.8631 68.8529 49.9549C68.6574 49.0927 68.6344 47.9489 68.8011 47.1672C69.3299 44.6036 71.405 42.5745 73.9628 42.1319C74.6871 42.0055 76.0264 42.0457 76.6702 42.2181C78.4463 42.6895 79.9523 43.9195 80.8087 45.5865L81.0041 45.9658L81.1823 45.575C81.8951 44.0575 83.3206 42.7757 84.9185 42.2124C85.8325 41.8905 87.235 41.787 88.2064 41.9652Z" fill="#0073B4"/>
<path d="M59.1317 0.0866795C61.2067 0.471796 62.9139 1.78234 63.8393 3.70218C64.3279 4.71957 64.5406 5.96114 64.4199 7.09925C64.3509 7.76027 64.1037 8.79491 63.8566 9.45593C62.8679 12.1058 60.2123 14.8878 56.0795 17.6009C54.5678 18.5953 52.2168 19.946 51.9927 19.946C51.9524 19.946 51.5558 19.7449 51.1075 19.5034C45.8078 16.6065 41.9279 13.2151 40.5082 10.2319C40.1633 9.50192 39.9851 8.98459 39.7782 8.07641C39.5827 7.21421 39.5597 6.07035 39.7264 5.28863C40.2552 2.72501 42.3303 0.695969 44.8881 0.253372C45.6124 0.126915 46.9517 0.167152 47.5954 0.339592C49.3716 0.810928 50.8776 2.041 51.734 3.70792L51.9294 4.08729L52.1076 3.69643C52.8204 2.17895 54.2459 0.89715 55.8438 0.333845C56.7578 0.0119572 58.1603 -0.0915089 59.1317 0.0866795Z" fill="#0073B4"/>
</svg>
