<svg width="308" height="217" viewBox="0 0 308 217" fill="none" xmlns="http://www.w3.org/2000/svg">
<g clip-path="url(#clip0_67_4969)">
<path d="M34.133 2.29059V4.58115L33.0086 3.49614C32.4063 2.89337 31.7638 2.41115 31.6031 2.41115C31.0008 2.41115 31.3622 8.63985 32.1653 12.1761C32.6472 14.1854 33.0488 17.2395 33.0889 18.8871C33.1291 22.7047 32.5267 23.7495 28.5111 27.0045C23.3309 31.1436 20.4396 35.1621 18.6728 40.5871C17.0665 45.57 15.7012 47.298 10.8824 50.6334C6.90691 53.366 0 60.1573 0 61.3628C0 63.4926 4.17627 67.0289 10.0391 69.8821C14.8177 72.2128 17.3476 72.4137 25.66 71.1278C32.6472 70.083 35.2975 69.9624 36.4219 70.7661C36.8636 71.0876 38.6707 73.0567 40.3572 75.1463C42.084 77.236 46.1398 81.6161 49.3924 84.831C54.6128 90.055 55.4962 91.14 57.1426 94.2745C58.1465 96.2435 59.9536 101.026 61.1984 104.883C65.696 119.189 66.2983 120.234 74.691 128.593C80.5137 134.339 81.9593 136.228 84.0876 140.568C87.4206 147.319 91.0748 161.062 93.163 174.765C94.207 181.557 94.97 191.121 94.6086 193.009C94.2472 194.898 92.5205 196.907 89.3883 198.997C84.2884 202.413 82.8428 204.422 83.0837 207.838C83.164 209.204 85.5333 211.374 87.1797 211.615C88.5851 211.856 88.8662 212.097 89.5489 213.665C91.9181 219.049 101.435 217.683 108.021 211.012C111.715 207.275 114.285 201.73 115.851 194.135C116.695 190.036 117.217 181.074 116.895 176.212L116.655 172.194L114.526 169.26C112.157 166.005 110.912 164.799 105.652 160.701C101.315 157.365 99.1463 154.793 97.3393 150.895C94.8496 145.43 93.4842 140.929 91.2355 130.28C90.9544 128.994 90.7937 128.874 87.5009 127.829C80.6743 125.619 76.8595 122.565 75.6548 118.185C75.2934 116.939 74.7713 115.171 74.4099 114.247C73.6068 112.077 73.928 111.233 76.4981 108.5C77.8232 107.094 78.8271 105.567 79.2287 104.321C80.5137 100.584 82.8428 97.6098 85.8947 95.9622C86.7379 95.48 87.1395 94.9978 87.1395 94.3147C87.1395 93.7521 87.6214 91.9035 88.1836 90.1756C88.7458 88.4074 89.3883 86.1169 89.5891 85.0319C90.352 81.0535 92.8819 80.1695 95.8535 82.8619C96.5361 83.5049 96.8574 83.5852 97.5802 83.1834C99.1864 82.3395 100.632 83.103 103.684 86.3982C105.29 88.1261 107.258 90.5373 108.021 91.7428C108.784 92.9082 110.069 94.2745 110.832 94.7165C113.522 96.2837 115.892 98.7752 119.225 103.517C124.204 110.59 125.81 112.318 128.3 113.563C131.191 114.97 134.283 115.171 140.347 114.367C152.635 112.76 170.826 112.599 188.253 113.925C202.027 114.97 208.332 116.376 214.034 119.631C218.652 122.284 226.482 129.557 231.341 135.665C235.196 140.487 237.445 142.457 241.059 144.024C246.32 146.395 254.753 148.283 259.812 148.283C262.222 148.283 266.559 147.721 266.92 147.319C267 147.279 266.799 146.596 266.478 145.832C266.197 145.069 265.796 144.024 265.635 143.461C265.354 142.537 265.394 142.537 266.84 143.783C267.643 144.546 268.928 145.43 269.651 145.752C270.936 146.354 271.136 146.354 274.148 145.31C278.686 143.702 283.585 141.331 287.199 139.001C290.934 136.589 292.982 135.826 295.511 135.826C297.921 135.826 300.892 137.594 301.856 139.644C302.217 140.407 302.659 141.05 302.82 141.05C303.342 141.05 307.157 137.875 307.598 137.072C308.281 135.786 308.08 134.741 306.996 133.857C305.952 133.053 303.663 132.491 295.953 131.084C286.918 129.437 279.971 125.86 273.626 119.551C268.847 114.809 266.799 111.916 260.214 100.664C254.15 90.3363 253.066 88.8093 248.207 83.9871C238.168 73.9408 225.278 68.5158 204.798 65.6224C200.381 65.0197 196.204 64.8991 171.067 64.8991C140.829 64.8589 140.909 64.8589 129.304 62.8898C127.416 62.5684 122.276 61.7647 117.859 61.1217C108.944 59.7956 107.178 59.3134 102.801 56.9826C99.588 55.2948 96.7771 53.165 90.7536 48.0213C80.7145 39.4217 73.4462 34.1976 63.8488 28.7324C56.1789 24.3522 51.8018 21.2178 47.987 17.5208C44.7343 14.306 36.6227 3.85782 35.418 1.32614C35.0566 0.602814 34.655 3.05176e-05 34.4542 3.05176e-05C34.2936 3.05176e-05 34.133 1.04485 34.133 2.29059Z" fill="#03486E"/>
<path d="M92.3598 84.9917C92.3598 85.5543 91.8378 87.6841 91.1552 89.7336C90.5126 91.8232 89.83 94.3549 89.7095 95.3997C89.4686 97.1678 89.308 97.3688 87.5812 98.2528C84.6498 99.7397 82.4412 102.593 81.5176 106.009C81.1964 107.214 80.3932 108.42 78.8673 109.987C76.5382 112.358 76.3776 112.76 77.3012 113.965C77.6224 114.367 77.9035 115.251 77.9035 115.894C77.9035 117.662 79.3893 120.395 81.0357 121.681C83.2042 123.409 85.2522 124.333 89.5489 125.619C91.637 126.222 93.4039 126.784 93.4842 126.825C93.5645 126.865 93.8055 128.231 94.0063 129.879C94.8897 136.348 97.781 145.912 100.471 151.217C101.516 153.266 103.925 155.878 107.178 158.45C112.559 162.63 114.847 164.88 116.735 167.693C117.779 169.26 119.385 171.39 120.309 172.475C121.594 173.881 122.116 174.886 122.437 176.493C123.12 179.869 123.642 186.098 123.883 193.572L124.124 200.484L122.517 201.328C121.634 201.77 120.71 202.493 120.469 202.975C119.867 204.101 120.349 206.03 121.433 206.833C122.196 207.436 122.276 207.677 121.955 208.601C121.353 210.169 122.638 212.218 124.726 212.901C126.533 213.544 130.227 213.343 132.717 212.459C135.608 211.455 135.809 210.892 136.371 201.047C136.773 193.853 137.014 191.884 137.737 190.076C138.219 188.75 138.941 184.972 139.544 180.592C140.066 176.614 140.668 172.636 140.909 171.752C141.672 168.858 142.274 168.617 148.9 168.296C152.153 168.135 155.727 167.813 156.811 167.612C163.557 166.286 169.942 167.974 175.564 172.555C177.652 174.243 182.069 179.547 187.009 186.258C188.133 187.785 189.699 189.674 190.502 190.438C191.265 191.201 192.028 192.286 192.149 192.929C192.711 195.421 190.382 200.323 186.808 204.06C185.282 205.668 184.559 206.11 183.113 206.351C180.503 206.793 179.098 207.637 178.455 209.164C177.652 211.133 177.732 212.057 178.897 213.223C179.901 214.227 180.062 214.267 184.238 214.107C187.49 214.026 188.936 213.785 190.141 213.182C191.787 212.379 194.317 210.048 196.004 207.838C196.847 206.713 197.369 206.472 199.537 206.11C202.589 205.628 203.754 205.065 205.481 203.257C208.091 200.564 211.504 191.643 212.669 184.691C213.231 181.235 213.231 180.632 212.307 173.6L211.384 166.166L212.789 165C216.363 162.067 218.531 159.375 220.379 155.477C221.423 153.307 222.386 151.538 222.547 151.498C222.708 151.498 224.274 152.503 225.96 153.749C239.854 163.755 259.089 165.885 277.441 159.455C279.328 158.812 283.063 157.205 285.713 155.919C296.114 150.895 299.969 147.399 299.969 143.019C299.969 141.653 299.728 141.13 298.563 139.965C297.198 138.599 297.037 138.559 294.788 138.719C292.741 138.88 291.897 139.202 288.885 141.13C283.625 144.426 279.931 146.194 273.947 148.123C262.543 151.9 255.797 151.9 244.553 148.203C237.204 145.792 234.313 143.783 229.534 137.715C227.045 134.5 221.704 129.075 217.287 125.217C209.175 118.145 197.048 115.975 165.645 115.975C152.554 115.975 149.221 116.095 142.154 116.899C137.255 117.421 133.119 117.702 131.914 117.542C126.854 116.859 123.16 113.925 118.02 106.451C114.687 101.588 110.711 97.409 108.543 96.4847C107.86 96.2034 107.057 95.4399 106.736 94.6764C105.893 92.9886 100.592 86.5188 99.5077 85.9562C98.7849 85.5945 98.5439 85.6347 98.1022 86.2375C97.8211 86.6393 97.5802 87.2823 97.5802 87.6841C97.5802 88.8093 96.9377 88.528 95.9739 87.001C95.1306 85.5945 93.3638 83.9871 92.7213 83.9871C92.5205 83.9871 92.3598 84.4291 92.3598 84.9917Z" fill="#03486E"/>
<path d="M222.908 156.602C222.507 157.446 222.547 157.767 222.949 158.129C223.23 158.37 225.197 160.017 227.285 161.786C234.112 167.492 237.084 170.747 238.891 174.484C240.939 178.784 242.264 184.129 242.264 188.268C242.304 192.608 241.581 194.054 238.61 195.782C232.787 199.077 231.02 202.292 233.148 205.547C235.196 208.682 242.344 206.672 247.605 201.489C249.372 199.761 249.853 198.957 250.697 196.264C251.259 194.537 251.982 191.362 252.343 189.272C253.066 185.214 253.99 168.456 253.628 166.929C253.427 166.166 253.026 165.965 251.058 165.764C242.063 164.799 233.389 161.826 226.523 157.365C224.916 156.361 223.591 155.517 223.511 155.517C223.471 155.517 223.19 155.999 222.908 156.602Z" fill="#03486E"/>
<path d="M275.875 162.79C273.425 163.795 266.398 165.201 261.74 165.643L256.64 166.125L259.21 167.653C263.547 170.265 275.433 181.758 280.011 187.785C280.814 188.87 283.344 193.371 285.593 197.832C289.889 206.311 292.419 209.767 294.307 209.767C297.72 209.767 300.25 205.226 299.005 201.328C298.081 198.394 288.123 177.819 285.472 173.439C282.46 168.376 278.043 162.348 277.401 162.388C277.12 162.388 276.437 162.589 275.875 162.79Z" fill="#03486E"/>
</g>
<defs>
<clipPath id="clip0_67_4969">
<rect width="308" height="217" fill="white"/>
</clipPath>
</defs>
</svg>
