<svg width="287" height="290" viewBox="0 0 287 290" fill="none" xmlns="http://www.w3.org/2000/svg">
<path d="M54.7219 83.2308L54.8494 166.462H44.326H33.8026V149.241V132.021H27.1058H20.4091V149.241V166.462H10.2045H0V228.008V289.554H143.501H287.003V183.682V77.8096H249.374H211.744L211.617 64.9264L211.425 52.1069L201.54 48.7905L191.654 45.474L191.463 24.0444L191.335 2.55112H184.32H177.304V21.6209V40.7544L170.607 38.4584L163.911 36.2261V19.3886V2.55112H157.086H150.198L150.389 16.9013C150.517 28.3176 150.389 31.2514 149.752 31.2514C149.305 31.2514 127.812 24.2358 102.045 15.6257C76.279 7.01562 55.0408 0 54.8494 0C54.6581 0 54.5943 37.4379 54.7219 83.2308ZM133.743 40.6268L198.351 62.1839V168.821V275.523H181.131H163.911V264.999V254.476L165.696 253.774C180.046 248.417 187.445 234.003 183.044 219.972C180.684 212.318 175.518 206.451 167.992 203.007C163.018 200.711 154.344 200.2 149.178 201.859C144.522 203.389 140.249 206.196 136.805 209.959C123.539 224.691 130.108 247.715 149.433 254.093C150.389 254.412 150.517 255.496 150.517 264.999V275.523H133.297H116.077V220.992V166.462H92.1598H68.2429V92.7976C68.2429 52.2983 68.4342 19.1335 68.6893 19.1335C69.0082 19.1335 98.2825 28.8278 133.743 40.6268ZM259.578 115.439V125.643H245.866H232.153V115.439V105.234H245.866H259.578V115.439ZM259.578 149.241V159.446H245.866H232.153V149.241V139.037H245.866H259.578V149.241ZM259.578 183.682V193.886H245.866H232.153V183.682V173.477H245.866H259.578V183.682ZM47.8338 200.583V207.28H37.6293H27.4247V200.583V193.886H37.6293H47.8338V200.583ZM88.652 200.583V207.28H78.4474H68.2429V200.583V193.886H78.4474H88.652V200.583ZM259.578 217.484V227.689H245.866H232.153V217.484V207.28H245.866H259.578V217.484ZM47.8338 228.008V234.705H37.6293H27.4247V228.008V221.311H37.6293H47.8338V228.008ZM88.652 228.008V234.705H78.4474H68.2429V228.008V221.311H78.4474H88.652V228.008ZM259.578 251.925V262.129H245.866H232.153V251.925V241.72H245.866H259.578V251.925ZM47.8338 255.433V262.129H37.6293H27.4247V255.433V248.736H37.6293H47.8338V255.433ZM88.652 255.433V262.129H78.4474H68.2429V255.433V248.736H78.4474H88.652V255.433Z" fill="#03486E"/>
<path d="M81.6363 64.0972V70.7939H102.364H123.092V64.0972V57.4005H102.364H81.6363V64.0972Z" fill="#03486E"/>
<path d="M82.0828 84.6339C81.8277 84.8253 81.6363 88.0142 81.6363 91.6496V98.2188H132.978H184.32V91.2031V84.1875H133.424C105.426 84.1875 82.2741 84.3788 82.0828 84.6339Z" fill="#03486E"/>
<path d="M81.6363 118.628V125.643H109.061H136.486V118.628V111.612H109.061H81.6363V118.628Z" fill="#03486E"/>
<path d="M150.453 116.778C150.389 119.712 150.326 122.837 150.262 123.73L150.198 125.325L167.291 125.516L184.32 125.643V118.947V112.25H178.771C175.646 112.25 168.056 112.059 161.87 111.804L150.517 111.421L150.453 116.778Z" fill="#03486E"/>
<path d="M81.7639 145.861L81.9552 152.749L133.169 152.941L184.32 153.068V146.053V139.037H132.978H81.5726L81.7639 145.861Z" fill="#03486E"/>
<path d="M129.47 173.158V179.855L156.895 179.983L184.32 180.174V173.286V166.462H156.895H129.47V173.158Z" fill="#03486E"/>
</svg>
