<svg width="85" height="30" viewBox="0 0 85 30" fill="none" xmlns="http://www.w3.org/2000/svg">
<path d="M29.8032 22.601V12.1472H35.3535C35.4896 12.1472 35.5999 12.0368 35.5999 11.9007V9.84082C35.5999 9.70469 35.4896 9.59434 35.3535 9.59434H27.4421C27.306 9.59434 27.1957 9.70469 27.1957 9.84082V22.601C27.1957 22.7371 27.306 22.8475 27.4421 22.8475H29.5567C29.6928 22.8475 29.8032 22.7371 29.8032 22.601ZM45.7412 12.2201C45.8773 12.2201 45.9877 12.1097 45.9877 11.9736V9.84082C45.9877 9.70469 45.8773 9.59434 45.7412 9.59434H37.4106C37.2745 9.59434 37.1641 9.70469 37.1641 9.84082V22.601C37.1641 22.7371 37.2745 22.8475 37.4106 22.8475H45.7412C45.8773 22.8475 45.9877 22.7371 45.9877 22.601V20.4682C45.9877 20.3321 45.8773 20.2218 45.7412 20.2218H39.7899V17.4882H44.6935C44.8297 17.4882 44.94 17.3779 44.94 17.2417V15.2912C44.94 15.1551 44.8297 15.0448 44.6935 15.0448H39.7899V12.2201H45.7412ZM72.676 9.59434C72.5399 9.59434 72.4295 9.70469 72.4295 9.84082V11.9736C72.4295 12.0203 72.4428 12.0661 72.4679 12.1056L74.2512 14.9172H72.676C72.5399 14.9172 72.4295 15.0275 72.4295 15.1636V22.601C72.4295 22.7371 72.5399 22.8475 72.676 22.8475H74.8088C74.9449 22.8475 75.0553 22.7371 75.0553 22.601V17.5247H76.9233V17.2782C76.9233 17.5247 76.9235 17.5247 76.9236 17.5247L76.924 17.5247L76.925 17.5247L76.9281 17.5246L76.939 17.5245C76.9482 17.5244 76.9614 17.5241 76.9782 17.5237C77.0119 17.5227 77.0602 17.5207 77.1212 17.5169C77.2431 17.5093 77.4158 17.4941 77.6226 17.464C78.0348 17.4038 78.5886 17.2831 79.1458 17.0391C79.7032 16.7952 80.2726 16.424 80.7031 15.8587C81.136 15.2901 81.4171 14.5396 81.4171 13.5595C81.4171 12.5794 81.136 11.8289 80.7031 11.2603C80.2726 10.695 79.7032 10.3239 79.1458 10.0799C78.5886 9.83594 78.0348 9.71518 77.6226 9.65503C77.4158 9.62486 77.2431 9.60971 77.1212 9.60209C77.0602 9.59827 77.0119 9.59634 76.9782 9.59536C76.9614 9.59486 76.9482 9.59461 76.939 9.59448L76.9281 9.59436L76.925 9.59435L76.924 9.59434L76.9236 9.59434C76.9235 9.59434 76.9233 9.59434 76.9233 9.84082V9.59434H72.676ZM76.9233 12.2201L76.9234 12.2201L76.9265 12.2201L76.9412 12.2204C76.9546 12.2207 76.9752 12.2214 77.0019 12.2228C77.0553 12.2257 77.1328 12.2314 77.2263 12.243C77.4144 12.2663 77.6609 12.3125 77.9038 12.4029C78.1479 12.4936 78.375 12.6238 78.5393 12.8072C78.6991 12.9854 78.8096 13.2242 78.8096 13.5595C78.8096 14.0721 78.5511 14.3784 78.2132 14.5776C77.9237 14.7483 77.5836 14.8336 77.3201 14.878L75.6551 12.2201L76.923 12.2201H76.9231L76.9232 12.2201H76.9233Z" fill="url(#paint0_linear_2104_8067)" stroke="url(#paint1_linear_2104_8067)" stroke-width="0.492954" stroke-linejoin="round"/>
<path d="M29.6183 22.601V11.9623H35.3535C35.3875 11.9623 35.4151 11.9347 35.4151 11.9007V9.84082C35.4151 9.80679 35.3875 9.7792 35.3535 9.7792H27.4421C27.4081 9.7792 27.3805 9.80679 27.3805 9.84082V22.601C27.3805 22.635 27.4081 22.6626 27.4421 22.6626H29.5567C29.5907 22.6626 29.6183 22.635 29.6183 22.601ZM45.7412 12.0352C45.7752 12.0352 45.8028 12.0076 45.8028 11.9736V9.84082C45.8028 9.80679 45.7752 9.7792 45.7412 9.7792H37.4106C37.3766 9.7792 37.349 9.80679 37.349 9.84082V22.601C37.349 22.635 37.3766 22.6626 37.4106 22.6626H45.7412C45.7752 22.6626 45.8028 22.635 45.8028 22.601V20.4682C45.8028 20.4342 45.7752 20.4066 45.7412 20.4066H39.605V17.3033H44.6935C44.7276 17.3033 44.7552 17.2758 44.7552 17.2417V15.2912C44.7552 15.2572 44.7276 15.2296 44.6935 15.2296H39.605V12.0352H45.7412ZM72.676 9.7792C72.642 9.7792 72.6144 9.80679 72.6144 9.84082V11.9736C72.6144 11.9853 72.6177 11.9967 72.624 12.0066L74.5874 15.102H72.676C72.642 15.102 72.6144 15.1296 72.6144 15.1636V22.601C72.6144 22.635 72.642 22.6626 72.676 22.6626H74.8088C74.8428 22.6626 74.8704 22.635 74.8704 22.601V17.3398H76.9233V17.2782C76.9233 17.3013 76.9233 17.3157 76.9234 17.3248C76.9234 17.3398 76.9234 17.3398 76.9234 17.3398L76.9236 17.3398L76.9243 17.3398L76.9268 17.3398L76.9364 17.3397C76.9447 17.3396 76.957 17.3393 76.9728 17.3389C77.0046 17.3379 77.0509 17.3361 77.1097 17.3324C77.2273 17.3251 77.3949 17.3104 77.5959 17.2811C77.9976 17.2224 78.5342 17.1051 79.0717 16.8698C79.6092 16.6345 80.1498 16.2802 80.556 15.7467C80.9629 15.2124 81.2323 14.5018 81.2323 13.5595C81.2323 12.6172 80.9629 11.9067 80.556 11.3723C80.1498 10.8388 79.6092 10.4845 79.0717 10.2492C78.5342 10.0139 77.9976 9.89657 77.5959 9.83795C77.3949 9.80862 77.2273 9.79394 77.1097 9.78658C77.0509 9.78291 77.0046 9.78106 76.9728 9.78014C76.957 9.77967 76.9447 9.77944 76.9364 9.77932L76.9268 9.77922L76.9243 9.7792L76.9236 9.7792L76.9234 9.7792C76.9234 9.7792 76.9233 9.7792 76.9233 9.84082V9.7792H72.676ZM77.2279 15.0791L75.3211 12.0352H76.9233L76.9235 12.0352L76.9245 12.0352L76.9287 12.0353L76.9458 12.0356C76.9608 12.036 76.9832 12.0367 77.0117 12.0382C77.0688 12.0413 77.1507 12.0473 77.249 12.0595C77.446 12.0839 77.7076 12.1327 77.9682 12.2296C78.2292 12.3266 78.4859 12.4707 78.677 12.6838C78.8669 12.8956 78.9945 13.1783 78.9945 13.5595C78.9945 14.1525 78.6872 14.5127 78.307 14.7369C77.9412 14.9526 77.5101 15.0401 77.2279 15.0791Z" fill="url(#paint2_linear_2104_8067)" stroke="url(#paint3_linear_2104_8067)" stroke-width="0.123238" stroke-linejoin="round"/>
<path d="M29.6183 22.2368V11.598H35.3535C35.3875 11.598 35.4151 11.5705 35.4151 11.5364V9.47656C35.4151 9.44253 35.3875 9.41494 35.3535 9.41494H27.4421C27.4081 9.41494 27.3805 9.44253 27.3805 9.47656V22.2368C27.3805 22.2708 27.4081 22.2984 27.4421 22.2984H29.5567C29.5907 22.2984 29.6183 22.2708 29.6183 22.2368ZM45.7412 11.671C45.7752 11.671 45.8028 11.6434 45.8028 11.6093V9.47656C45.8028 9.44253 45.7752 9.41494 45.7412 9.41494H37.4106C37.3766 9.41494 37.349 9.44253 37.349 9.47656V22.2368C37.349 22.2708 37.3766 22.2984 37.4106 22.2984H45.7412C45.7752 22.2984 45.8028 22.2708 45.8028 22.2368V20.104C45.8028 20.0699 45.7752 20.0424 45.7412 20.0424H39.605V16.9391H44.6935C44.7276 16.9391 44.7552 16.9115 44.7552 16.8775V14.927C44.7552 14.893 44.7276 14.8654 44.6935 14.8654H39.605V11.671H45.7412ZM72.676 9.41494C72.642 9.41494 72.6144 9.44253 72.6144 9.47656V11.6093C72.6144 11.621 72.6177 11.6325 72.624 11.6423L74.5874 14.7378H72.676C72.642 14.7378 72.6144 14.7654 72.6144 14.7994V22.2368C72.6144 22.2708 72.642 22.2984 72.676 22.2984H74.8088C74.8428 22.2984 74.8704 22.2708 74.8704 22.2368V16.9755H76.9233V16.9139C76.9233 16.937 76.9233 16.9515 76.9234 16.9605C76.9234 16.9755 76.9234 16.9755 76.9234 16.9755L76.9236 16.9755L76.9243 16.9755L76.9268 16.9755L76.9364 16.9754C76.9447 16.9753 76.957 16.9751 76.9728 16.9746C77.0046 16.9737 77.0509 16.9718 77.1097 16.9682C77.2273 16.9608 77.3949 16.9461 77.5959 16.9168C77.9976 16.8582 78.5342 16.7408 79.0717 16.5055C79.6092 16.2702 80.1498 15.916 80.556 15.3824C80.9629 14.8481 81.2323 14.1375 81.2323 13.1952C81.2323 12.253 80.9629 11.5424 80.556 11.0081C80.1498 10.4745 79.6092 10.1203 79.0717 9.88495C78.5342 9.64965 77.9976 9.53231 77.5959 9.47369C77.3949 9.44436 77.2273 9.42968 77.1097 9.42233C77.0509 9.41865 77.0046 9.4168 76.9728 9.41588C76.957 9.41541 76.9447 9.41518 76.9364 9.41506L76.9268 9.41496L76.9243 9.41495L76.9236 9.41494L76.9234 9.41494C76.9234 9.41494 76.9233 9.41494 76.9233 9.47656V9.41494H72.676ZM77.2279 14.7148L75.3211 11.671H76.9233L76.9235 11.671L76.9245 11.671L76.9287 11.671L76.9458 11.6713C76.9608 11.6717 76.9832 11.6725 77.0117 11.674C77.0688 11.677 77.1507 11.6831 77.249 11.6953C77.446 11.7197 77.7076 11.7684 77.9682 11.8653C78.2292 11.9624 78.4859 12.1064 78.677 12.3195C78.8669 12.5313 78.9945 12.8141 78.9945 13.1952C78.9945 13.7882 78.6872 14.1485 78.307 14.3726C77.9412 14.5883 77.5101 14.6759 77.2279 14.7148Z" fill="url(#paint4_linear_2104_8067)" stroke="url(#paint5_linear_2104_8067)" stroke-width="0.123238" stroke-linejoin="round"/>
<path d="M29.5567 11.1717H35.3535V9.11182H27.4421V21.872H29.5567V11.1717Z" fill="url(#paint6_linear_2104_8067)"/>
<path d="M45.7412 11.2446V9.11182H37.4106V21.872H45.7412V19.7392H39.5434V16.695H44.6935V14.7445H39.5434V11.2446H45.7412Z" fill="url(#paint7_linear_2104_8067)"/>
<path d="M76.9233 9.11182H72.676V11.2446L74.6994 14.4346H72.676V21.872H74.8088V16.5492H76.9233C76.9233 16.5492 81.1706 16.5492 81.1706 12.8305C81.1706 9.11182 76.9233 9.11182 76.9233 9.11182ZM77.1968 14.4164L75.2098 11.2446H76.9233C76.9233 11.2446 79.0561 11.2446 79.0561 12.8305C79.0561 14.0701 77.7619 14.3435 77.1968 14.4164Z" fill="url(#paint8_linear_2104_8067)"/>
<path d="M29.5567 11.1717H35.3535V9.11182H27.4421V21.872H29.5567V11.1717Z" stroke="url(#paint9_linear_2104_8067)" stroke-width="0.123238" stroke-linejoin="round"/>
<path d="M45.7412 11.2446V9.11182H37.4106V21.872H45.7412V19.7392H39.5434V16.695H44.6935V14.7445H39.5434V11.2446H45.7412Z" stroke="url(#paint10_linear_2104_8067)" stroke-width="0.123238" stroke-linejoin="round"/>
<path d="M76.9233 9.11182H72.676V11.2446L74.6994 14.4346H72.676V21.872H74.8088V16.5492H76.9233C76.9233 16.5492 81.1706 16.5492 81.1706 12.8305C81.1706 9.11182 76.9233 9.11182 76.9233 9.11182ZM77.1968 14.4164L75.2098 11.2446H76.9233C76.9233 11.2446 79.0561 11.2446 79.0561 12.8305C79.0561 14.0701 77.7619 14.3435 77.1968 14.4164Z" stroke="url(#paint11_linear_2104_8067)" stroke-width="0.123238" stroke-linejoin="round"/>
<path d="M67.7907 22.6993C67.8272 22.7947 67.9188 22.8577 68.0209 22.8577H70.2539C70.3353 22.8577 70.4114 22.8175 70.4573 22.7503C70.5033 22.6832 70.5131 22.5977 70.4836 22.5218L65.5214 9.76174C65.4845 9.66695 65.3932 9.60454 65.2915 9.6046C65.1898 9.60466 65.0986 9.66718 65.0618 9.76202L60.1173 22.5221C60.0879 22.5979 60.0978 22.6834 60.1438 22.7505C60.1897 22.8176 60.2658 22.8577 60.3471 22.8577H62.5801C62.6832 22.8577 62.7754 22.7935 62.8113 22.6968L63.2833 21.4221H67.3019L67.7907 22.6993ZM64.1326 19.1392L65.2916 15.8257L66.4507 19.1392H64.1326Z" fill="url(#paint12_linear_2104_8067)" stroke="url(#paint13_linear_2104_8067)" stroke-width="0.492954" stroke-linejoin="round"/>
<path d="M58.2995 22.8577C58.3808 22.8577 58.457 22.8175 58.5029 22.7503C58.5488 22.6832 58.5587 22.5977 58.5292 22.5218L53.5669 9.76174C53.5301 9.66695 53.4388 9.60454 53.3371 9.6046C53.2354 9.60466 53.1441 9.66718 53.1074 9.76202L48.1628 22.5221C48.1335 22.5979 48.1434 22.6834 48.1893 22.7505C48.2353 22.8176 48.3114 22.8577 48.3927 22.8577H50.6257C50.7288 22.8577 50.821 22.7935 50.8568 22.6968L51.3885 21.2613L51.3885 21.2613L51.3894 21.2587L53.3372 15.8112L55.285 21.2587L55.2849 21.2587L55.2869 21.2638L55.8363 22.6993C55.8728 22.7947 55.9643 22.8577 56.0665 22.8577H58.2995Z" fill="url(#paint14_linear_2104_8067)" stroke="url(#paint15_linear_2104_8067)" stroke-width="0.492954" stroke-linejoin="round"/>
<path d="M67.9633 22.3871C67.9725 22.411 67.9954 22.4267 68.0209 22.4267H70.2539C70.2743 22.4267 70.2933 22.4167 70.3048 22.3999C70.3163 22.3831 70.3187 22.3617 70.3113 22.3428L65.3491 9.58265C65.3399 9.55895 65.317 9.54335 65.2916 9.54336C65.2662 9.54338 65.2434 9.55901 65.2342 9.58272L60.2897 22.3428C60.2823 22.3618 60.2848 22.3831 60.2963 22.3999C60.3078 22.4167 60.3268 22.4267 60.3471 22.4267H62.5801C62.6059 22.4267 62.629 22.4107 62.6379 22.3865L63.1547 20.9912H67.4291L67.9633 22.3871ZM63.8721 19.078L65.2916 15.0197L66.7112 19.078H63.8721Z" fill="url(#paint16_linear_2104_8067)" stroke="url(#paint17_linear_2104_8067)" stroke-width="0.123238" stroke-linejoin="round"/>
<path d="M58.2995 22.4267C58.3198 22.4267 58.3388 22.4167 58.3503 22.3999C58.3618 22.3831 58.3643 22.3617 58.3569 22.3428L53.3946 9.58265C53.3854 9.55895 53.3626 9.54335 53.3372 9.54336C53.3117 9.54338 53.2889 9.55901 53.2798 9.58272L48.3352 22.3428C48.3279 22.3618 48.3303 22.3831 48.3418 22.3999C48.3533 22.4167 48.3723 22.4267 48.3927 22.4267H50.6257C50.6515 22.4267 50.6745 22.4107 50.6835 22.3865L51.2151 20.951L51.2154 20.9503L53.3372 15.0161L55.459 20.9503L55.459 20.9503L55.4595 20.9516L56.0089 22.3871C56.018 22.411 56.0409 22.4267 56.0665 22.4267H58.2995Z" fill="url(#paint18_linear_2104_8067)" stroke="url(#paint19_linear_2104_8067)" stroke-width="0.123238" stroke-linejoin="round"/>
<path d="M67.9633 22.1405C67.9725 22.1644 67.9954 22.1801 68.0209 22.1801H70.2539C70.2743 22.1801 70.2933 22.1701 70.3048 22.1533C70.3163 22.1365 70.3187 22.1151 70.3113 22.0962L65.3491 9.33606C65.3399 9.31237 65.317 9.29676 65.2916 9.29678C65.2662 9.29679 65.2434 9.31243 65.2342 9.33613L60.2897 22.0962C60.2823 22.1152 60.2848 22.1366 60.2963 22.1533C60.3078 22.1701 60.3268 22.1801 60.3471 22.1801H62.5801C62.6059 22.1801 62.629 22.1641 62.6379 22.1399L63.1547 20.7446H67.4291L67.9633 22.1405ZM63.8721 18.8314L65.2916 14.7731L66.7112 18.8314H63.8721Z" fill="url(#paint20_linear_2104_8067)" stroke="url(#paint21_linear_2104_8067)" stroke-width="0.123238" stroke-linejoin="round"/>
<path d="M58.2995 22.1801C58.3198 22.1801 58.3388 22.1701 58.3503 22.1533C58.3618 22.1365 58.3643 22.1151 58.3569 22.0962L53.3946 9.33606C53.3854 9.31237 53.3626 9.29676 53.3372 9.29678C53.3117 9.29679 53.2889 9.31243 53.2798 9.33613L48.3352 22.0962C48.3279 22.1152 48.3303 22.1366 48.3418 22.1533C48.3533 22.1701 48.3723 22.1801 48.3927 22.1801H50.6257C50.6515 22.1801 50.6745 22.1641 50.6835 22.1399L51.2151 20.7044L51.2154 20.7037L53.3372 14.7695L55.459 20.7037L55.459 20.7037L55.4595 20.705L56.0089 22.1405C56.018 22.1644 56.0409 22.1801 56.0665 22.1801H58.2995Z" fill="url(#paint22_linear_2104_8067)" stroke="url(#paint23_linear_2104_8067)" stroke-width="0.123238" stroke-linejoin="round"/>
<path d="M68.0209 21.8719H70.2539L65.2916 9.11182L60.3471 21.8719H62.5801L63.1118 20.4364H67.4715L68.0209 21.8719ZM65.2916 14.3399L66.798 18.6465H63.7852L65.2916 14.3399Z" fill="url(#paint24_linear_2104_8067)" stroke="url(#paint25_linear_2104_8067)" stroke-width="0.123238" stroke-linejoin="round"/>
<path d="M58.2995 21.8719H56.0665L55.5171 20.4364L53.3372 14.3399L51.1574 20.4364L50.6257 21.8719H48.3927L53.3372 9.11182L58.2995 21.8719Z" fill="url(#paint26_linear_2104_8067)" stroke="url(#paint27_linear_2104_8067)" stroke-width="0.123238" stroke-linejoin="round"/>
<mask id="mask0_2104_8067" style="mask-type:alpha" maskUnits="userSpaceOnUse" x="0" y="0" width="35" height="30">
<path d="M18.0305 8.79051L19.7642 4.7982L2.77393 0.285156L0 15.3865L7.19487 25.2805L8.92858 22.3296L18.0305 8.79051Z" fill="#828282"/>
<path d="M21.3246 14.779L21.0645 6.70756H31.3801L34.0673 22.8504L25.052 29.8803L12.656 28.752L14.6498 23.8918L15.8634 23.1975L21.3246 14.779Z" fill="#828282"/>
</mask>
<g mask="url(#mask0_2104_8067)">
<path d="M6.96547 16.7489L7.43811 16.4532L7.3651 15.3666L6.96547 16.7489ZM7.99456 19.7333L8.45709 19.4083L7.99364 18.4836L7.99456 19.7333ZM7.52651 18.7994L7.99364 18.4836L7.6508 17.4954L7.52651 18.7994ZM6.89173 15.6515L7.3651 15.3666L7.43811 14.28L6.89173 15.6515ZM7.18027 17.8014L7.6508 17.4954L7.43811 16.4532L7.18027 17.8014ZM24.8384 17.0046L25.1353 16.7064L25.2254 15.3666L24.8384 17.0046ZM6.96547 14.5541L7.43811 14.28L7.6508 13.2378L6.96547 14.5541ZM24.9293 15.6515L25.2254 15.3666L25.1353 14.0268L24.9293 15.6515ZM24.8384 14.2984L25.1353 14.0268L24.8731 12.7417L24.8384 14.2984ZM7.18027 13.5016L7.6508 13.2378L7.99364 12.2496L7.18027 13.5016ZM24.5735 13.0005L24.8731 12.7417L24.4504 11.5232L24.5735 13.0005ZM24.1466 11.77L24.4504 11.5232L23.8789 10.383L24.1466 11.77ZM7.52651 12.5036L7.99364 12.2496L8.45709 11.3249L7.52651 12.5036ZM23.5694 10.6185L23.8789 10.383L23.1705 9.33294L23.5694 10.6185ZM22.854 9.55793L23.1705 9.33294L22.3368 8.38468L22.854 9.55793ZM7.99456 11.5697L8.45709 11.3249L9.03162 10.4733L7.99456 11.5697ZM22.0121 8.60026L22.3368 8.38468L21.3897 7.55003L22.0121 8.60026ZM21.0555 7.75733L21.3897 7.55003L20.3409 6.84076L21.0555 7.75733ZM8.5748 10.7096L9.03162 10.4733L9.70771 9.70425L8.5748 10.7096ZM19.9963 7.04101L20.3409 6.84076L19.202 6.26862L19.9963 7.04101ZM18.8462 6.4632L19.202 6.26862L17.985 5.84538L18.8462 6.4632ZM9.2576 9.93293L9.70771 9.70425L10.4758 9.02734L9.2576 9.93293ZM17.6171 6.03576L17.985 5.84538L16.7015 5.58281L17.6171 6.03576ZM16.3208 5.77058L16.7015 5.58281L15.3633 5.49268L16.3208 5.77058ZM10.0333 9.2493L10.4758 9.02734L11.3264 8.45212L10.0333 9.2493ZM14.9693 5.67955L15.3633 5.49268L14.0251 5.58281L14.9693 5.67955ZM13.6178 5.77058L14.0251 5.58281L12.7415 5.84538L13.6178 5.77058ZM10.8924 8.66837L11.3264 8.45212L12.25 7.98811L10.8924 8.66837ZM12.3215 6.03576L12.7415 5.84538L11.5245 6.26862L12.3215 6.03576ZM22.0121 22.7027L22.3368 22.3485L23.1705 21.4003L22.0121 22.7027ZM20.681 21.37L21.0188 21.029L20.2507 21.7059L20.681 21.37ZM22.854 21.745L23.1705 21.4003L23.8789 20.3502L22.854 21.745ZM23.5694 20.6845L23.8789 20.3502L24.4504 19.21L23.5694 20.6845ZM24.1466 19.533L24.4504 19.21L24.8731 17.9915L24.1466 19.533ZM19.9053 22.0537L20.2507 21.7059L19.4001 22.2811L19.9053 22.0537ZM24.5735 18.3024L24.8731 17.9915L25.1353 16.7064L24.5735 18.3024ZM8.5748 20.5934L9.03162 20.2599L8.45709 19.4083L8.5748 20.5934ZM9.2576 21.37L9.70771 21.029L9.03162 20.2599L9.2576 21.37ZM19.0462 22.6346L19.4001 22.2811L18.4765 22.7451L19.0462 22.6346ZM10.0333 22.0537L10.4758 21.7059L9.70771 21.029L10.0333 22.0537ZM10.8924 22.6346L11.3264 22.2811L10.4758 21.7059L10.8924 22.6346ZM11.8251 23.1032L12.25 22.7451L11.3264 22.2811L11.8251 23.1032ZM18.1135 23.1032L18.4765 22.7451L17.4895 23.0883L18.1135 23.1032ZM12.822 23.4499L13.237 23.0883L12.25 22.7451L12.822 23.4499ZM13.8732 23.6649L14.278 23.3013L13.237 23.0883L13.8732 23.6649ZM14.9693 23.7387L15.3633 23.3744L14.278 23.3013L14.9693 23.7387ZM17.1166 23.4499L17.4895 23.0883L16.4486 23.3013L17.1166 23.4499ZM16.0654 23.6649L16.4486 23.3013L15.3633 23.3744L16.0654 23.6649ZM10.0333 22.0537L10.8924 22.6346L10.4758 21.7059L10.0333 22.0537ZM7.99456 19.7333L8.5748 20.5934L8.45709 19.4083L7.99456 19.7333ZM14.9693 23.7387L16.0654 23.6649L15.3633 23.3744L14.9693 23.7387ZM7.52651 18.7994L7.99456 19.7333L7.99364 18.4836L7.52651 18.7994ZM7.18027 17.8014L7.52651 18.7994L7.6508 17.4954L7.18027 17.8014ZM13.8732 23.6649L14.9693 23.7387L14.278 23.3013L13.8732 23.6649ZM6.96547 16.7489L7.18027 17.8014L7.43811 16.4532L6.96547 16.7489ZM12.822 23.4499L13.8732 23.6649L13.237 23.0883L12.822 23.4499ZM17.1166 23.4499L18.1135 23.1032L17.4895 23.0883L17.1166 23.4499ZM11.8251 23.1032L12.822 23.4499L12.25 22.7451L11.8251 23.1032ZM10.8924 22.6346L11.8251 23.1032L11.3264 22.2811L10.8924 22.6346ZM16.0654 23.6649L17.1166 23.4499L16.4486 23.3013L16.0654 23.6649ZM18.1135 23.1032L19.0462 22.6346L18.4765 22.7451L18.1135 23.1032ZM9.2576 21.37L10.0333 22.0537L9.70771 21.029L9.2576 21.37ZM8.5748 20.5934L9.2576 21.37L9.03162 20.2599L8.5748 20.5934ZM24.8384 17.0046L24.5735 18.3024L25.1353 16.7064L24.8384 17.0046ZM19.0462 22.6346L19.9053 22.0537L19.4001 22.2811L19.0462 22.6346ZM24.5735 18.3024L24.1466 19.533L24.8731 17.9915L24.5735 18.3024ZM22.854 21.745L22.0121 22.7027L23.1705 21.4003L22.854 21.745ZM19.9053 22.0537L20.681 21.37L20.2507 21.7059L19.9053 22.0537ZM23.5694 20.6845L22.854 21.745L23.8789 20.3502L23.5694 20.6845ZM24.1466 19.533L23.5694 20.6845L24.4504 19.21L24.1466 19.533ZM22.0121 8.60026L22.854 9.55793L22.3368 8.38468L22.0121 8.60026ZM11.8251 8.19976L10.8924 8.66837L12.25 7.98811L11.8251 8.19976ZM8.5748 10.7096L7.99456 11.5697L9.03162 10.4733L8.5748 10.7096ZM21.0555 7.75733L22.0121 8.60026L21.3897 7.55003L21.0555 7.75733ZM24.8384 14.2984L24.9293 15.6515L25.1353 14.0268L24.8384 14.2984ZM24.5735 13.0005L24.8384 14.2984L24.8731 12.7417L24.5735 13.0005ZM19.9963 7.04101L21.0555 7.75733L20.3409 6.84076L19.9963 7.04101ZM9.2576 9.93293L8.5748 10.7096L9.70771 9.70425L9.2576 9.93293ZM18.8462 6.4632L19.9963 7.04101L19.202 6.26862L18.8462 6.4632ZM6.96547 14.5541L6.89173 15.6515L7.43811 14.28L6.96547 14.5541ZM17.6171 6.03576L18.8462 6.4632L17.985 5.84538L17.6171 6.03576ZM10.0333 9.2493L9.2576 9.93293L10.4758 9.02734L10.0333 9.2493ZM16.3208 5.77058L17.6171 6.03576L16.7015 5.58281L16.3208 5.77058ZM6.89173 15.6515L6.96547 16.7489L7.3651 15.3666L6.89173 15.6515ZM14.9693 5.67955L16.3208 5.77058L15.3633 5.49268L14.9693 5.67955ZM10.8924 8.66837L10.0333 9.2493L11.3264 8.45212L10.8924 8.66837ZM13.6178 5.77058L14.9693 5.67955L14.0251 5.58281L13.6178 5.77058ZM24.9293 15.6515L24.8384 17.0046L25.2254 15.3666L24.9293 15.6515ZM7.52651 12.5036L7.18027 13.5016L7.99364 12.2496L7.52651 12.5036ZM12.3215 6.03576L13.6178 5.77058L12.7415 5.84538L12.3215 6.03576ZM11.0924 6.4632L12.3215 6.03576L11.5245 6.26862L11.0924 6.4632ZM24.1466 11.77L24.5735 13.0005L24.4504 11.5232L24.1466 11.77ZM23.5694 10.6185L24.1466 11.77L23.8789 10.383L23.5694 10.6185ZM7.18027 13.5016L6.96547 14.5541L7.6508 13.2378L7.18027 13.5016ZM7.99456 11.5697L7.52651 12.5036L8.45709 11.3249L7.99456 11.5697ZM22.854 9.55793L23.5694 10.6185L23.1705 9.33294L22.854 9.55793ZM20.3364 21.718L20.681 21.37L19.9053 22.0537L20.3364 21.718ZM16.7363 23.8186L17.1166 23.4499L16.0654 23.6649L16.7363 23.8186ZM22.5312 22.0967L22.854 21.745L23.5694 20.6845L22.5312 22.0967ZM23.2538 21.0256L23.5694 20.6845L24.1466 19.533L23.2538 21.0256ZM15.6745 24.0358L16.0654 23.6649L14.9693 23.7387L15.6745 24.0358ZM7.52276 20.0648L7.99456 19.7333L7.52651 18.7994L7.52276 20.0648ZM21.6808 23.064L22.0121 22.7027L22.854 21.745L21.6808 23.064ZM7.05001 19.1216L7.52651 18.7994L7.18027 17.8014L7.05001 19.1216ZM14.5674 24.1104L14.9693 23.7387L13.8732 23.6649L14.5674 24.1104ZM6.70031 18.1135L7.18027 17.8014L6.96547 16.7489L6.70031 18.1135ZM23.8367 19.8625L24.1466 19.533L24.5735 18.3024L23.8367 19.8625ZM17.7431 23.4685L18.1135 23.1032L17.1166 23.4499L17.7431 23.4685ZM13.4604 24.0358L13.8732 23.6649L12.822 23.4499L13.4604 24.0358ZM12.3986 23.8186L12.822 23.4499L11.8251 23.1032L12.3986 23.8186ZM11.3917 23.4685L11.8251 23.1032L10.8924 22.6346L11.3917 23.4685ZM18.6852 22.9952L19.0462 22.6346L18.1135 23.1032L18.6852 22.9952ZM24.2679 18.6196L24.5735 18.3024L24.8384 17.0046L24.2679 18.6196ZM10.4496 22.9952L10.8924 22.6346L10.0333 22.0537L10.4496 22.9952ZM9.58198 22.4084L10.0333 22.0537L9.2576 21.37L9.58198 22.4084ZM8.10881 20.9335L8.5748 20.5934L7.99456 19.7333L8.10881 20.9335ZM8.79846 21.718L9.2576 21.37L8.5748 20.5934L8.79846 21.718ZM19.5529 22.4084L19.9053 22.0537L19.0462 22.6346L19.5529 22.4084ZM24.2679 13.2646L24.5735 13.0005L24.1466 11.77L24.2679 13.2646ZM17.2417 6.22995L17.6171 6.03576L16.3208 5.77058L17.2417 6.22995ZM18.4832 6.66168L18.8462 6.4632L17.6171 6.03576L18.4832 6.66168ZM8.79846 10.1662L9.2576 9.93293L10.0333 9.2493L8.79846 10.1662ZM8.10881 10.9506L8.5748 10.7096L9.2576 9.93293L8.10881 10.9506ZM19.6448 7.24529L19.9963 7.04101L18.8462 6.4632L19.6448 7.24529ZM6.48335 17.0505L6.96547 16.7489L6.89173 15.6515L6.48335 17.0505ZM10.4496 8.88896L10.8924 8.66837L11.8251 8.19976L10.4496 8.88896ZM11.8931 6.22995L12.3215 6.03576L11.0924 6.4632L11.8931 6.22995ZM20.7147 7.96878L21.0555 7.75733L19.9963 7.04101L20.7147 7.96878ZM15.9325 5.96212L16.3208 5.77058L14.9693 5.67955L15.9325 5.96212ZM7.52276 11.8194L7.99456 11.5697L8.5748 10.7096L7.52276 11.8194ZM21.6808 8.82017L22.0121 8.60026L21.0555 7.75733L21.6808 8.82017ZM6.40887 15.9421L6.89173 15.6515L6.96547 14.5541L6.40887 15.9421ZM24.5354 17.3088L24.8384 17.0046L24.9293 15.6515L24.5354 17.3088ZM22.5312 9.78744L22.854 9.55793L22.0121 8.60026L22.5312 9.78744ZM14.5674 5.87018L14.9693 5.67955L13.6178 5.77058L14.5674 5.87018ZM7.05001 12.7626L7.52651 12.5036L7.99456 11.5697L7.05001 12.7626ZM23.2538 10.8586L23.5694 10.6185L22.854 9.55793L23.2538 10.8586ZM13.2024 5.96212L13.6178 5.77058L12.3215 6.03576L13.2024 5.96212ZM9.58198 9.47571L10.0333 9.2493L10.8924 8.66837L9.58198 9.47571ZM23.8367 12.0216L24.1466 11.77L23.5694 10.6185L23.8367 12.0216ZM24.6272 15.9421L24.9293 15.6515L24.8384 14.2984L24.6272 15.9421ZM6.70031 13.7706L7.18027 13.5016L7.52651 12.5036L6.70031 13.7706ZM6.48335 14.8337L6.96547 14.5541L7.18027 13.5016L6.48335 14.8337ZM24.5354 14.5754L24.8384 14.2984L24.5735 13.0005L24.5354 14.5754ZM7.52276 20.0648L8.10881 20.9335L7.99456 19.7333L7.52276 20.0648ZM24.2679 18.6196L23.8367 19.8625L24.5735 18.3024L24.2679 18.6196ZM12.3986 23.8186L13.4604 24.0358L12.822 23.4499L12.3986 23.8186ZM8.10881 20.9335L8.79846 21.718L8.5748 20.5934L8.10881 20.9335ZM17.7431 23.4685L18.6852 22.9952L18.1135 23.1032L17.7431 23.4685ZM10.4496 22.9952L11.3917 23.4685L10.8924 22.6346L10.4496 22.9952ZM15.6745 24.0358L16.7363 23.8186L16.0654 23.6649L15.6745 24.0358ZM24.5354 17.3088L24.2679 18.6196L24.8384 17.0046L24.5354 17.3088ZM13.4604 24.0358L14.5674 24.1104L13.8732 23.6649L13.4604 24.0358ZM23.2538 21.0256L22.5312 22.0967L23.5694 20.6845L23.2538 21.0256ZM6.48335 17.0505L6.70031 18.1135L6.96547 16.7489L6.48335 17.0505ZM11.3917 23.4685L12.3986 23.8186L11.8251 23.1032L11.3917 23.4685ZM8.79846 21.718L9.58198 22.4084L9.2576 21.37L8.79846 21.718ZM16.7363 23.8186L17.7431 23.4685L17.1166 23.4499L16.7363 23.8186ZM6.70031 18.1135L7.05001 19.1216L7.18027 17.8014L6.70031 18.1135ZM19.5529 22.4084L20.3364 21.718L19.9053 22.0537L19.5529 22.4084ZM14.5674 24.1104L15.6745 24.0358L14.9693 23.7387L14.5674 24.1104ZM18.6852 22.9952L19.5529 22.4084L19.0462 22.6346L18.6852 22.9952ZM7.05001 19.1216L7.52276 20.0648L7.52651 18.7994L7.05001 19.1216ZM22.5312 22.0967L21.6808 23.064L22.854 21.745L22.5312 22.0967ZM23.8367 19.8625L23.2538 21.0256L24.1466 19.533L23.8367 19.8625ZM9.58198 22.4084L10.4496 22.9952L10.0333 22.0537L9.58198 22.4084ZM6.40887 15.9421L6.48335 17.0505L6.89173 15.6515L6.40887 15.9421ZM19.6448 7.24529L20.7147 7.96878L19.9963 7.04101L19.6448 7.24529ZM24.2679 13.2646L24.5354 14.5754L24.5735 13.0005L24.2679 13.2646ZM10.4496 8.88896L9.58198 9.47571L10.8924 8.66837L10.4496 8.88896ZM14.5674 5.87018L15.9325 5.96212L14.9693 5.67955L14.5674 5.87018ZM7.52276 11.8194L7.05001 12.7626L7.99456 11.5697L7.52276 11.8194ZM24.5354 14.5754L24.6272 15.9421L24.8384 14.2984L24.5354 14.5754ZM20.7147 7.96878L21.6808 8.82017L21.0555 7.75733L20.7147 7.96878ZM8.79846 10.1662L8.10881 10.9506L9.2576 9.93293L8.79846 10.1662ZM10.6517 6.66168L11.8931 6.22995L11.0924 6.4632L10.6517 6.66168ZM24.6272 15.9421L24.5354 17.3088L24.9293 15.6515L24.6272 15.9421ZM15.9325 5.96212L17.2417 6.22995L16.3208 5.77058L15.9325 5.96212ZM21.6808 8.82017L22.5312 9.78744L22.0121 8.60026L21.6808 8.82017ZM6.48335 14.8337L6.40887 15.9421L6.96547 14.5541L6.48335 14.8337ZM11.3917 8.41565L10.4496 8.88896L11.8251 8.19976L11.3917 8.41565ZM7.05001 12.7626L6.70031 13.7706L7.52651 12.5036L7.05001 12.7626ZM22.5312 9.78744L23.2538 10.8586L22.854 9.55793L22.5312 9.78744ZM17.2417 6.22995L18.4832 6.66168L17.6171 6.03576L17.2417 6.22995ZM11.8931 6.22995L13.2024 5.96212L12.3215 6.03576L11.8931 6.22995ZM6.70031 13.7706L6.48335 14.8337L7.18027 13.5016L6.70031 13.7706ZM23.2538 10.8586L23.8367 12.0216L23.5694 10.6185L23.2538 10.8586ZM9.58198 9.47571L8.79846 10.1662L10.0333 9.2493L9.58198 9.47571ZM18.4832 6.66168L19.6448 7.24529L18.8462 6.4632L18.4832 6.66168ZM8.10881 10.9506L7.52276 11.8194L8.5748 10.7096L8.10881 10.9506ZM23.8367 12.0216L24.2679 13.2646L24.1466 11.77L23.8367 12.0216ZM13.2024 5.96212L14.5674 5.87018L13.6178 5.77058L13.2024 5.96212Z" fill="url(#paint28_linear_2104_8067)"/>
<path d="M7.04999 19.1215L4.50757 15.942L9.49001 24.6388L7.04999 19.1215ZM23.2538 21.0255L23.8367 19.8625L24.2679 18.6195L23.2538 21.0255ZM22.7259 15.942L22.6515 17.0504L24.6272 15.942H22.7259ZM24.6272 15.942L22.4345 13.7706L22.6515 14.8336L24.6272 15.942ZM22.6515 17.0504L22.4345 18.1135L24.6272 15.942L22.6515 17.0504ZM24.6272 15.942L22.0848 12.7625L22.4345 13.7706L24.6272 15.942ZM22.4345 18.1135L22.0848 19.1215L24.6272 15.942L22.4345 18.1135ZM24.6272 15.942L19.6448 7.24523L22.0848 12.7625L24.6272 15.942ZM22.0848 19.1215L21.6121 20.0647L24.6272 15.942L22.0848 19.1215ZM19.6448 7.24523L21.6121 11.8193L22.0848 12.7625L19.6448 7.24523ZM21.6121 20.0647L21.026 20.9334L24.6272 15.942L21.6121 20.0647ZM19.6448 7.24523L21.026 10.9506L21.6121 11.8193L19.6448 7.24523ZM21.026 20.9334L19.6448 24.6388L24.6272 15.942L21.026 20.9334ZM19.6448 7.24523L20.3364 10.1661L21.026 10.9506L19.6448 7.24523ZM21.026 20.9334L20.3364 21.7179L19.6448 24.6388L21.026 20.9334ZM19.6448 7.24523L19.5528 9.47566L20.3364 10.1661L19.6448 7.24523ZM20.3364 21.7179L19.5528 22.4084L19.6448 24.6388L20.3364 21.7179ZM19.6448 7.24523L18.6852 8.8889L19.5528 9.47566L19.6448 7.24523ZM19.5528 22.4084L18.6852 22.9951L19.6448 24.6388L19.5528 22.4084ZM19.6448 7.24523L17.7431 8.41559L18.6852 8.8889L19.6448 7.24523ZM18.6852 22.9951L17.7431 23.4684L19.6448 24.6388L18.6852 22.9951ZM19.6448 7.24523L16.7363 8.06546L17.7431 8.41559L19.6448 7.24523ZM17.7431 23.4684L16.7363 23.8186L19.6448 24.6388L17.7431 23.4684ZM19.6448 7.24523L15.6745 7.84825L16.7363 8.06546L19.6448 7.24523ZM16.7363 23.8186L15.6745 24.0358L19.6448 24.6388L16.7363 23.8186ZM19.6448 7.24523H9.49001L15.6745 7.84825L19.6448 7.24523ZM15.6745 24.0358L14.5674 24.1104L19.6448 24.6388L15.6745 24.0358ZM9.49001 7.24523L14.5674 7.77368L15.6745 7.84825L9.49001 7.24523ZM14.5674 24.1104L13.4603 24.0358L19.6448 24.6388L14.5674 24.1104ZM9.49001 7.24523L13.4603 7.84825L14.5674 7.77368L9.49001 7.24523ZM13.4603 24.0358L9.49001 24.6388H19.6448L13.4603 24.0358ZM9.49001 7.24523L12.3985 8.06546L13.4603 7.84825L9.49001 7.24523ZM13.4603 24.0358L12.3985 23.8186L9.49001 24.6388L13.4603 24.0358ZM9.49001 7.24523L11.3917 8.41559L12.3985 8.06546L9.49001 7.24523ZM12.3985 23.8186L11.3917 23.4684L9.49001 24.6388L12.3985 23.8186ZM9.49001 7.24523L10.4496 8.8889L11.3917 8.41559L9.49001 7.24523ZM11.3917 23.4684L10.4496 22.9951L9.49001 24.6388L11.3917 23.4684ZM9.49001 7.24523L9.58195 9.47566L10.4496 8.8889L9.49001 7.24523ZM10.4496 22.9951L9.58195 22.4084L9.49001 24.6388L10.4496 22.9951ZM9.49001 7.24523L8.79843 10.1661L9.58195 9.47566L9.49001 7.24523ZM9.58195 22.4084L8.79843 21.7179L9.49001 24.6388L9.58195 22.4084ZM9.49001 7.24523L8.10879 10.9506L8.79843 10.1661L9.49001 7.24523ZM8.79843 21.7179L8.10879 20.9334L9.49001 24.6388L8.79843 21.7179ZM9.49001 7.24523L4.50757 15.942L8.10879 10.9506L9.49001 7.24523ZM8.10879 20.9334L7.52273 20.0647L9.49001 24.6388L8.10879 20.9334ZM4.50757 15.942L7.52273 11.8193L8.10879 10.9506L4.50757 15.942ZM7.52273 20.0647L7.04999 19.1215L9.49001 24.6388L7.52273 20.0647ZM4.50757 15.942L7.04999 12.7625L7.52273 11.8193L4.50757 15.942ZM24.6272 15.942L22.6515 14.8336L22.7259 15.942H24.6272ZM24.6272 15.942L23.2538 10.8585L19.6448 7.24523L24.6272 15.942ZM19.6448 7.24523L14.5674 5.87012L9.49001 7.24523H19.6448ZM9.49001 7.24523L5.88103 10.8585L4.50757 15.942L9.49001 7.24523ZM4.50757 15.942L6.70028 13.7706L7.04999 12.7625L4.50757 15.942ZM7.04999 19.1215L6.70028 18.1135L4.50757 15.942L7.04999 19.1215ZM4.50757 15.942L5.88103 21.0255L9.49001 24.6388L4.50757 15.942ZM9.49001 24.6388L14.5674 26.0139L19.6448 24.6388H9.49001ZM19.6448 24.6388L23.2538 21.0255L24.6272 15.942L19.6448 24.6388ZM24.6272 15.942L24.2679 13.2645L23.2538 10.8585L24.6272 15.942ZM23.2538 10.8585L21.6808 8.82011L19.6448 7.24523L23.2538 10.8585ZM19.6448 7.24523L17.2417 6.22989L14.5674 5.87012L19.6448 7.24523ZM14.5674 5.87012L11.8931 6.22989L9.49001 7.24523L14.5674 5.87012ZM9.49001 7.24523L7.45402 8.82011L5.88103 10.8585L9.49001 7.24523ZM5.88103 10.8585L4.86691 13.2645L4.50757 15.942L5.88103 10.8585ZM4.50757 15.942L6.48333 14.8336L6.70028 13.7706L4.50757 15.942ZM6.70028 18.1135L6.48333 17.0504L4.50757 15.942L6.70028 18.1135ZM4.50757 15.942L4.86691 18.6195L5.88103 21.0255L4.50757 15.942ZM5.88103 21.0255L7.45402 23.0639L9.49001 24.6388L5.88103 21.0255ZM9.49001 24.6388L11.8931 25.6541L14.5674 26.0139L9.49001 24.6388ZM14.5674 26.0139L17.2417 25.6541L19.6448 24.6388L14.5674 26.0139ZM19.6448 24.6388L21.6808 23.0639L23.2538 21.0255L19.6448 24.6388ZM23.2538 21.0255L24.2679 18.6195L24.6272 15.942L23.2538 21.0255ZM24.6272 15.942L24.5354 14.5753L24.2679 13.2645L24.6272 15.942ZM24.2679 13.2645L23.8367 12.0216L23.2538 10.8585L24.2679 13.2645ZM23.2538 10.8585L22.5311 9.78738L21.6808 8.82011L23.2538 10.8585ZM21.6808 8.82011L20.7147 7.96872L19.6448 7.24523L21.6808 8.82011ZM19.6448 7.24523L18.4831 6.66162L17.2417 6.22989L19.6448 7.24523ZM17.2417 6.22989L15.9325 5.96206L14.5674 5.87012L17.2417 6.22989ZM14.5674 5.87012L13.2023 5.96206L11.8931 6.22989L14.5674 5.87012ZM11.8931 6.22989L10.6517 6.66162L9.49001 7.24523L11.8931 6.22989ZM9.49001 7.24523L8.42013 7.96872L7.45402 8.82011L9.49001 7.24523ZM7.45402 8.82011L6.60366 9.78738L5.88103 10.8585L7.45402 8.82011ZM5.88103 10.8585L5.29812 12.0216L4.86691 13.2645L5.88103 10.8585ZM4.86691 13.2645L4.5994 14.5753L4.50757 15.942L4.86691 13.2645ZM4.50757 15.942H6.40885L6.48333 14.8336L4.50757 15.942ZM6.48333 17.0504L6.40885 15.942H4.50757L6.48333 17.0504ZM4.50757 15.942L4.5994 17.3087L4.86691 18.6195L4.50757 15.942ZM4.86691 18.6195L5.29812 19.8625L5.88103 21.0255L4.86691 18.6195ZM5.88103 21.0255L6.60366 22.0967L7.45402 23.0639L5.88103 21.0255ZM7.45402 23.0639L8.42013 23.9153L9.49001 24.6388L7.45402 23.0639ZM9.49001 24.6388L10.6517 25.2224L11.8931 25.6541L9.49001 24.6388ZM11.8931 25.6541L13.2023 25.922L14.5674 26.0139L11.8931 25.6541ZM14.5674 26.0139L15.9325 25.922L17.2417 25.6541L14.5674 26.0139ZM17.2417 25.6541L18.4831 25.2224L19.6448 24.6388L17.2417 25.6541ZM19.6448 24.6388L20.7147 23.9153L21.6808 23.0639L19.6448 24.6388ZM21.6808 23.0639L22.5311 22.0967L23.2538 21.0255L21.6808 23.0639ZM24.2679 18.6195L24.5354 17.3087L24.6272 15.942L24.2679 18.6195Z" fill="url(#paint29_linear_2104_8067)"/>
</g>
<path fill-rule="evenodd" clip-rule="evenodd" d="M20.9626 19.6704L20.147 2.80273L18.4073 4.96754L19.113 21.7048C19.5813 21.3436 20.5504 20.3238 20.9626 19.6704Z" fill="url(#paint30_linear_2104_8067)"/>
<path fill-rule="evenodd" clip-rule="evenodd" d="M16.5087 19.8571C16.4706 19.8859 16.4257 19.9026 16.3777 19.9026H16.318H12.6626C12.526 19.9026 12.4133 19.7665 12.4133 19.6003V17.795C12.4133 17.6287 12.5255 17.4927 12.6626 17.4927H16.3777C16.4403 17.4927 16.4978 17.521 16.5417 17.5678C16.5491 17.5721 16.5562 17.5768 16.5631 17.5817L17.9014 18.5408C18.0245 18.629 18.0245 18.7739 17.9014 18.8621L16.542 19.8364C16.5315 19.844 16.5203 19.8508 16.5087 19.8571Z" fill="#B2230C"/>
<path fill-rule="evenodd" clip-rule="evenodd" d="M13.1411 19.8939H12.0491C11.9136 19.8939 11.7998 19.7578 11.7998 19.5916V17.8367C11.7998 17.6704 11.912 17.5365 12.0491 17.5343L14.1421 17.501C14.495 17.4953 13.6775 19.8939 13.1411 19.8939Z" fill="#962212"/>
<path fill-rule="evenodd" clip-rule="evenodd" d="M18.6108 8.94182H17.5188C17.3842 8.94182 17.2417 8.82664 17.2695 8.69217L17.8097 6.07798C17.8375 5.94352 17.922 5.83013 18.0591 5.82834L20.152 5.80079C20.505 5.79612 19.1472 8.94182 18.6108 8.94182Z" fill="#962212"/>
<path fill-rule="evenodd" clip-rule="evenodd" d="M16.3628 4.05573L19.4678 1.64397L19.4679 1.6439C19.7816 1.33178 20.2247 1.56609 20.2293 1.97681L20.273 5.82088L9.98896 26.0077C9.93102 26.1214 9.78877 26.2157 9.67509 26.2157H6.73799C6.62453 26.2157 6.57779 26.122 6.63626 26.0077L17.3916 4.99086L16.3971 4.66954C16.0832 4.56809 16.1428 4.2266 16.3628 4.05573Z" fill="#FC3110"/>
<path fill-rule="evenodd" clip-rule="evenodd" d="M16.34 4.06842L19.4449 1.65666L19.4451 1.65659C19.7587 1.34447 20.2018 1.57878 20.2065 1.9895L20.2501 5.83357L9.9661 26.0204C9.90816 26.1341 9.76591 26.2284 9.65223 26.2284H6.71513C6.60167 26.2284 6.55493 26.1347 6.6134 26.0204L17.3688 5.00356L16.3743 4.68223C16.0603 4.58078 16.12 4.2393 16.34 4.06842Z" fill="#FC3110"/>
<mask id="mask1_2104_8067" style="mask-type:alpha" maskUnits="userSpaceOnUse" x="6" y="1" width="15" height="26">
<path fill-rule="evenodd" clip-rule="evenodd" d="M16.34 4.06842L19.4449 1.65666L19.4451 1.65659C19.7587 1.34447 20.2018 1.57878 20.2065 1.9895L20.2501 5.83357L9.9661 26.0204C9.90816 26.1341 9.76591 26.2284 9.65223 26.2284H6.71513C6.60167 26.2284 6.55493 26.1347 6.6134 26.0204L17.3688 5.00356L16.3743 4.68223C16.0603 4.58078 16.12 4.2393 16.34 4.06842Z" fill="#FC3110"/>
</mask>
<g mask="url(#mask1_2104_8067)">
<path d="M21.0425 3.70884L8.54963 28.105L8.5079 28.0836L21.0007 3.6875L21.0425 3.70884Z" fill="#F8B670"/>
<path d="M21.7765 1.60337L7.27451 29.923L7.23279 29.9017L21.7348 1.58203L21.7765 1.60337Z" fill="#E5097F"/>
<path d="M22.5105 -0.502102L5.99937 31.7411L5.95764 31.7197L22.4688 -0.523438L22.5105 -0.502102Z" fill="#009846"/>
<path d="M23.2446 -2.60806L4.72425 33.5586L4.68253 33.5373L23.2029 -2.62939L23.2446 -2.60806Z" fill="#9089B0"/>
<path d="M23.9786 -4.71353L3.44914 35.3767L3.40741 35.3553L23.9369 -4.73486L23.9786 -4.71353Z" fill="#CB5499"/>
<path d="M24.7127 -6.81948L2.17399 37.1942L2.13226 37.1729L24.6709 -6.84082L24.7127 -6.81948Z" fill="#F08683"/>
<path d="M25.4467 -8.92495L0.898903 39.0123L0.857178 38.9909L25.405 -8.94629L25.4467 -8.92495Z" fill="#A8D4AF"/>
<path d="M26.1807 -11.0309L-0.376273 40.8298L-0.417999 40.8085L26.139 -11.0522L26.1807 -11.0309Z" fill="#F08143"/>
<path d="M26.9148 -13.1364L-1.65136 42.6479L-1.69308 42.6266L26.8731 -13.1577L26.9148 -13.1364Z" fill="#A79ECD"/>
<path d="M27.6488 -15.2418L-2.92651 44.4659L-2.96823 44.4446L27.6071 -15.2632L27.6488 -15.2418Z" fill="#57A7B3"/>
<path d="M28.3829 -17.3478L-4.20162 46.2835L-4.24335 46.2622L28.3412 -17.3691L28.3829 -17.3478Z" fill="#CE82B5"/>
<path d="M29.1169 -19.4533L-5.47674 48.1016L-5.51846 48.0802L29.0752 -19.4746L29.1169 -19.4533Z" fill="#A79ECD"/>
<path d="M29.8509 -21.5592L-6.75188 49.9191L-6.79361 49.8978L29.8092 -21.5806L29.8509 -21.5592Z" fill="#F8B670"/>
<path d="M30.585 -23.6647L-8.02697 51.7372L-8.0687 51.7158L30.5433 -23.686L30.585 -23.6647Z" fill="#A79ECD"/>
</g>
<defs>
<linearGradient id="paint0_linear_2104_8067" x1="52.1248" y1="8.98284" x2="53.7918" y2="25.1295" gradientUnits="userSpaceOnUse">
<stop stop-color="#FC3110"/>
<stop offset="0.979167"/>
</linearGradient>
<linearGradient id="paint1_linear_2104_8067" x1="75.5112" y1="22.601" x2="74.8935" y2="8.18983" gradientUnits="userSpaceOnUse">
<stop stop-color="#6B4500"/>
<stop offset="0.322917" stop-color="#D5B26B"/>
<stop offset="0.546875" stop-color="#F8F9D0"/>
<stop offset="1" stop-color="#997A3D"/>
</linearGradient>
<linearGradient id="paint2_linear_2104_8067" x1="52.1248" y1="8.98284" x2="53.7918" y2="25.1295" gradientUnits="userSpaceOnUse">
<stop stop-color="#FC3110"/>
<stop offset="0.979167"/>
</linearGradient>
<linearGradient id="paint3_linear_2104_8067" x1="75.5328" y1="19.1844" x2="69.8578" y2="1.08716" gradientUnits="userSpaceOnUse">
<stop stop-color="#202020"/>
<stop offset="1" stop-color="#616161"/>
</linearGradient>
<linearGradient id="paint4_linear_2104_8067" x1="52.1248" y1="8.61859" x2="53.7918" y2="24.7652" gradientUnits="userSpaceOnUse">
<stop stop-color="#FC3110"/>
<stop offset="0.979167"/>
</linearGradient>
<linearGradient id="paint5_linear_2104_8067" x1="65.4635" y1="28.7763" x2="33.0811" y2="5.09908" gradientUnits="userSpaceOnUse">
<stop stop-color="#FF0000"/>
<stop offset="1"/>
</linearGradient>
<linearGradient id="paint6_linear_2104_8067" x1="57.3039" y1="7.18905" x2="60.9329" y2="33.2815" gradientUnits="userSpaceOnUse">
<stop stop-color="#FC3110"/>
<stop offset="0.979167"/>
</linearGradient>
<linearGradient id="paint7_linear_2104_8067" x1="57.3039" y1="7.18905" x2="60.9329" y2="33.2815" gradientUnits="userSpaceOnUse">
<stop stop-color="#FC3110"/>
<stop offset="0.979167"/>
</linearGradient>
<linearGradient id="paint8_linear_2104_8067" x1="57.3039" y1="7.18905" x2="60.9329" y2="33.2815" gradientUnits="userSpaceOnUse">
<stop stop-color="#FC3110"/>
<stop offset="0.979167"/>
</linearGradient>
<linearGradient id="paint9_linear_2104_8067" x1="57.3039" y1="7.18905" x2="60.9329" y2="33.2815" gradientUnits="userSpaceOnUse">
<stop stop-color="#FC3110"/>
<stop offset="0.979167"/>
</linearGradient>
<linearGradient id="paint10_linear_2104_8067" x1="57.3039" y1="7.18905" x2="60.9329" y2="33.2815" gradientUnits="userSpaceOnUse">
<stop stop-color="#FC3110"/>
<stop offset="0.979167"/>
</linearGradient>
<linearGradient id="paint11_linear_2104_8067" x1="57.3039" y1="7.18905" x2="60.9329" y2="33.2815" gradientUnits="userSpaceOnUse">
<stop stop-color="#FC3110"/>
<stop offset="0.979167"/>
</linearGradient>
<linearGradient id="paint12_linear_2104_8067" x1="64.8983" y1="8.9931" x2="71.8544" y2="21.417" gradientUnits="userSpaceOnUse">
<stop stop-color="#FC3110"/>
<stop offset="0.979167"/>
</linearGradient>
<linearGradient id="paint13_linear_2104_8067" x1="69.2104" y1="22.6111" x2="66.026" y2="8.91394" gradientUnits="userSpaceOnUse">
<stop stop-color="#6B4500"/>
<stop offset="0.322917" stop-color="#D5B26B"/>
<stop offset="0.546875" stop-color="#F8F9D0"/>
<stop offset="1" stop-color="#997A3D"/>
</linearGradient>
<linearGradient id="paint14_linear_2104_8067" x1="52.9438" y1="8.9931" x2="59.8999" y2="21.417" gradientUnits="userSpaceOnUse">
<stop stop-color="#FC3110"/>
<stop offset="0.979167"/>
</linearGradient>
<linearGradient id="paint15_linear_2104_8067" x1="57.256" y1="22.6111" x2="54.0716" y2="8.91394" gradientUnits="userSpaceOnUse">
<stop stop-color="#6B4500"/>
<stop offset="0.322917" stop-color="#D5B26B"/>
<stop offset="0.546875" stop-color="#F8F9D0"/>
<stop offset="1" stop-color="#997A3D"/>
</linearGradient>
<linearGradient id="paint16_linear_2104_8067" x1="64.8983" y1="8.74701" x2="71.8544" y2="21.1709" gradientUnits="userSpaceOnUse">
<stop stop-color="#FC3110"/>
<stop offset="0.979167"/>
</linearGradient>
<linearGradient id="paint17_linear_2104_8067" x1="69.2144" y1="18.9485" x2="60.5296" y2="13.8419" gradientUnits="userSpaceOnUse">
<stop stop-color="#202020"/>
<stop offset="1" stop-color="#616161"/>
</linearGradient>
<linearGradient id="paint18_linear_2104_8067" x1="52.9438" y1="8.74701" x2="59.8999" y2="21.1709" gradientUnits="userSpaceOnUse">
<stop stop-color="#FC3110"/>
<stop offset="0.979167"/>
</linearGradient>
<linearGradient id="paint19_linear_2104_8067" x1="57.2599" y1="18.9485" x2="48.5751" y2="13.8419" gradientUnits="userSpaceOnUse">
<stop stop-color="#202020"/>
<stop offset="1" stop-color="#616161"/>
</linearGradient>
<linearGradient id="paint20_linear_2104_8067" x1="64.8983" y1="8.50043" x2="71.8544" y2="20.9243" gradientUnits="userSpaceOnUse">
<stop stop-color="#FC3110"/>
<stop offset="0.979167"/>
</linearGradient>
<linearGradient id="paint21_linear_2104_8067" x1="67.3577" y1="28.6581" x2="58.3583" y2="27.4448" gradientUnits="userSpaceOnUse">
<stop stop-color="#FF0000"/>
<stop offset="1"/>
</linearGradient>
<linearGradient id="paint22_linear_2104_8067" x1="52.9438" y1="8.50043" x2="59.8999" y2="20.9243" gradientUnits="userSpaceOnUse">
<stop stop-color="#FC3110"/>
<stop offset="0.979167"/>
</linearGradient>
<linearGradient id="paint23_linear_2104_8067" x1="55.4033" y1="28.6581" x2="46.4038" y2="27.4448" gradientUnits="userSpaceOnUse">
<stop stop-color="#FF0000"/>
<stop offset="1"/>
</linearGradient>
<linearGradient id="paint24_linear_2104_8067" x1="65.8532" y1="7.18906" x2="78.6399" y2="24.1413" gradientUnits="userSpaceOnUse">
<stop stop-color="#FC3110"/>
<stop offset="0.979167"/>
</linearGradient>
<linearGradient id="paint25_linear_2104_8067" x1="65.8532" y1="7.18906" x2="78.6399" y2="24.1413" gradientUnits="userSpaceOnUse">
<stop stop-color="#FC3110"/>
<stop offset="0.979167"/>
</linearGradient>
<linearGradient id="paint26_linear_2104_8067" x1="53.8988" y1="7.18906" x2="66.6855" y2="24.1413" gradientUnits="userSpaceOnUse">
<stop stop-color="#FC3110"/>
<stop offset="0.979167"/>
</linearGradient>
<linearGradient id="paint27_linear_2104_8067" x1="53.8988" y1="7.18906" x2="66.6855" y2="24.1413" gradientUnits="userSpaceOnUse">
<stop stop-color="#FC3110"/>
<stop offset="0.979167"/>
</linearGradient>
<linearGradient id="paint28_linear_2104_8067" x1="23.2434" y1="24.1103" x2="19.5976" y2="3.69627" gradientUnits="userSpaceOnUse">
<stop stop-color="#6B4500"/>
<stop offset="0.322917" stop-color="#D5B26B"/>
<stop offset="0.546875" stop-color="#F8F9D0"/>
<stop offset="1" stop-color="#997A3D"/>
</linearGradient>
<linearGradient id="paint29_linear_2104_8067" x1="22.516" y1="20.6203" x2="7.41874" y2="9.20006" gradientUnits="userSpaceOnUse">
<stop stop-color="#110303"/>
<stop offset="1" stop-color="#616161"/>
</linearGradient>
<linearGradient id="paint30_linear_2104_8067" x1="19.6816" y1="2.80273" x2="19.6816" y2="21.7047" gradientUnits="userSpaceOnUse">
<stop stop-color="#FF0000"/>
<stop offset="1"/>
</linearGradient>
</defs>
</svg>
