<svg width="26" height="33" viewBox="0 0 26 33" fill="none" xmlns="http://www.w3.org/2000/svg">
<path fill-rule="evenodd" clip-rule="evenodd" d="M23.8778 23.4897L20.1824 24.8734C20.0634 24.9148 19.9328 24.9073 19.8189 24.8526C19.705 24.798 19.6166 24.7006 19.5744 24.5815L17.6544 19.7175H8.69432L6.79993 24.6199C6.75769 24.7386 6.67065 24.8357 6.55673 24.8901C6.44281 24.9447 6.31225 24.9519 6.19321 24.9105L2.50554 23.5268C2.44666 23.5068 2.39162 23.4755 2.34554 23.4345C2.29818 23.3934 2.25976 23.3435 2.23288 23.2876C2.20472 23.2316 2.18938 23.1708 2.18554 23.1086C2.18042 23.0464 2.18935 22.9841 2.20983 22.9252L9.66588 2.8982C9.95261 2.20182 10.439 1.60631 11.0649 1.18724C11.6908 0.768166 12.4269 0.544434 13.1795 0.544434C13.9334 0.544434 14.6694 0.768166 15.2954 1.18724C15.9213 1.60631 16.4076 2.20182 16.6944 2.8982L24.1696 22.8881C24.1901 22.9467 24.1991 23.0088 24.1953 23.0709C24.1914 23.1328 24.176 23.1935 24.1478 23.2494C24.1209 23.3052 24.0839 23.3553 24.0365 23.3965C23.9904 23.4377 23.9366 23.4693 23.8778 23.4897ZM13.7657 7.98238L13.1782 6.28637V6.27357L9.80409 15.8736H16.5562L13.7657 7.98238ZM1.65944 28.7044H24.7405C25.0746 28.7048 25.3946 28.8375 25.6301 29.0737C25.8669 29.3099 26 29.63 26 29.9639V31.2849C26 31.6189 25.8669 31.939 25.6301 32.1752C25.3946 32.4113 25.0746 32.5441 24.7405 32.5444H1.65944C1.32536 32.5441 1.00535 32.4113 0.769826 32.1752C0.533025 31.939 0.399902 31.6189 0.399902 31.2849V29.9639C0.399902 29.63 0.533025 29.3099 0.769826 29.0737C1.00535 28.8375 1.32536 28.7048 1.65944 28.7044Z" fill="#FC0018"/>
</svg>
