<svg width="27" height="33" viewBox="0 0 27 33" fill="none" xmlns="http://www.w3.org/2000/svg">
<path fill-rule="evenodd" clip-rule="evenodd" d="M24.2776 23.4897L20.5823 24.8734C20.4633 24.9148 20.3327 24.9073 20.2188 24.8526C20.1049 24.798 20.0165 24.7006 19.9742 24.5815L18.0542 19.7175H9.09419L7.19981 24.6199C7.15756 24.7386 7.07052 24.8357 6.9566 24.8901C6.84268 24.9447 6.71212 24.9519 6.59308 24.9105L2.90541 23.5268C2.84653 23.5068 2.79149 23.4755 2.74541 23.4345C2.69805 23.3934 2.65963 23.3435 2.63275 23.2876C2.60459 23.2316 2.58925 23.1708 2.58541 23.1086C2.58029 23.0464 2.58922 22.9841 2.6097 22.9252L10.0658 2.8982C10.3525 2.20182 10.8388 1.60631 11.4647 1.18724C12.0907 0.768166 12.8267 0.544434 13.5794 0.544434C14.3333 0.544434 15.0693 0.768166 15.6952 1.18724C16.3212 1.60631 16.8075 2.20182 17.0942 2.8982L24.5695 22.8881C24.59 22.9467 24.599 23.0088 24.5951 23.0709C24.5913 23.1328 24.5759 23.1935 24.5477 23.2494C24.5208 23.3052 24.4837 23.3553 24.4364 23.3965C24.3903 23.4377 24.3365 23.4693 24.2776 23.4897ZM14.1656 7.98238L13.578 6.28637V6.27357L10.204 15.8736H16.956L14.1656 7.98238ZM2.05931 28.7044H25.1404C25.4744 28.7048 25.7945 28.8375 26.03 29.0737C26.2668 29.3099 26.3999 29.63 26.3999 29.9639V31.2849C26.3999 31.6189 26.2668 31.939 26.03 32.1752C25.7945 32.4113 25.4744 32.5441 25.1404 32.5444H2.05931C1.72523 32.5441 1.40522 32.4113 1.1697 32.1752C0.932897 31.939 0.799774 31.6189 0.799774 31.2849V29.9639C0.799774 29.63 0.932897 29.3099 1.1697 29.0737C1.40522 28.8375 1.72523 28.7048 2.05931 28.7044Z" fill="#D4D8E1"/>
</svg>
