<svg width="20" height="15" viewBox="0 0 20 15" fill="none" xmlns="http://www.w3.org/2000/svg">
<path fill-rule="evenodd" clip-rule="evenodd" d="M6.8252 9.49927H18C19.0933 9.49927 20 8.5926 20 7.49927C20 6.40594 19.0933 5.49927 18 5.49927H6.82667L8.74667 3.57927C9.52001 2.80594 9.52001 1.52594 8.74667 0.752607C7.97334 -0.0207253 6.69334 -0.0207253 5.92 0.752607L0.586676 6.08594C0.543379 6.12924 0.502234 6.17468 0.463324 6.22199C0.148155 6.59796 0 7.04934 0 7.50073C0 7.85807 0.0928497 8.2154 0.287901 8.53532C0.391081 8.71077 0.521336 8.8666 0.671726 8.99912L5.92 14.2474C6.69333 15.0207 7.97333 15.0207 8.74666 14.2474C9.52 13.4741 9.52 12.1941 8.74666 11.4207L6.8252 9.49927Z" fill="white"/>
</svg>
