<svg width="24" height="12" viewBox="0 0 24 12" fill="none" xmlns="http://www.w3.org/2000/svg">
<g clip-path="url(#clip0_173_20845)">
<path d="M0.750009 5.8548C0.750009 5.51259 0.881704 5.18439 1.11612 4.9424C1.35055 4.70042 1.66849 4.56448 2.00001 4.56448L18.9875 4.56448L17.3625 2.89996C17.1271 2.65699 16.9949 2.32745 16.9949 1.98383C16.9949 1.64022 17.1271 1.31068 17.3625 1.0677C17.5979 0.824732 17.9171 0.688232 18.25 0.688232C18.5829 0.688232 18.9021 0.824732 19.1375 1.0677L22.8875 4.93867C23.061 5.12012 23.1785 5.35054 23.2252 5.60085C23.2719 5.85116 23.2457 6.11014 23.15 6.34512C23.0562 6.58076 22.897 6.78247 22.6923 6.92484C22.4877 7.0672 22.2468 7.14385 22 7.14512L2.00001 7.14512C1.66849 7.14512 1.35055 7.00918 1.11612 6.7672C0.881704 6.52521 0.750009 6.19701 0.750009 5.8548Z" fill="#03486E"/>
<path d="M17 9.7259C16.9991 9.55608 17.0306 9.38774 17.0928 9.23053C17.155 9.07332 17.2467 8.93034 17.3625 8.80977L21.1125 4.9388C21.3479 4.69583 21.6671 4.55933 22 4.55933C22.1648 4.55933 22.328 4.59284 22.4803 4.65795C22.6326 4.72306 22.771 4.81849 22.8875 4.9388C23.0041 5.05911 23.0965 5.20193 23.1596 5.35912C23.2227 5.51631 23.2551 5.68479 23.2551 5.85493C23.2551 6.19854 23.1229 6.52808 22.8875 6.77106L19.1375 10.642C19.0213 10.763 18.8831 10.859 18.7307 10.9245C18.5784 10.99 18.415 11.0237 18.25 11.0237C18.085 11.0237 17.9216 10.99 17.7693 10.9245C17.617 10.859 17.4787 10.763 17.3625 10.642C17.2467 10.5215 17.155 10.3785 17.0928 10.2213C17.0306 10.0641 16.9991 9.89571 17 9.7259Z" fill="#03486E"/>
</g>
</svg>
