<svg width="24" height="11" viewBox="0 0 24 11" fill="none" xmlns="http://www.w3.org/2000/svg">
<g clip-path="url(#clip0_132_43534)">
<path d="M23.2497 5.3548C23.2497 5.01259 23.118 4.68439 22.8836 4.4424C22.6491 4.20042 22.3312 4.06448 21.9997 4.06448L5.01219 4.06448L6.63719 2.39996C6.87257 2.15699 7.0048 1.82745 7.0048 1.48383C7.0048 1.14022 6.87257 0.810677 6.63719 0.567705C6.40181 0.324732 6.08256 0.188232 5.74969 0.188232C5.41681 0.188232 5.09757 0.324732 4.86219 0.567705L1.11219 4.43867C0.938739 4.62012 0.821244 4.85054 0.774526 5.10085C0.727809 5.35116 0.753962 5.61014 0.849686 5.84512C0.943461 6.08076 1.10271 6.28247 1.30736 6.42484C1.51201 6.5672 1.7529 6.64385 1.99969 6.64512L21.9997 6.64512C22.3312 6.64512 22.6491 6.50918 22.8836 6.2672C23.118 6.02521 23.2497 5.69701 23.2497 5.3548Z" fill="#03486E"/>
<path d="M6.99926 9.2259C7.00021 9.05608 6.96867 8.88774 6.90647 8.73053C6.84426 8.57332 6.75261 8.43034 6.63676 8.30977L2.88676 4.4388C2.65138 4.19583 2.33213 4.05933 1.99926 4.05933C1.83443 4.05933 1.67122 4.09284 1.51894 4.15795C1.36667 4.22306 1.2283 4.31849 1.11176 4.4388C0.995207 4.55911 0.902756 4.70193 0.839681 4.85912C0.776606 5.01631 0.744141 5.18479 0.744141 5.35493C0.744141 5.69854 0.876376 6.02808 1.11176 6.27106L4.86176 10.142C4.97796 10.263 5.11621 10.359 5.26853 10.4245C5.42086 10.49 5.58424 10.5237 5.74926 10.5237C5.91427 10.5237 6.07765 10.49 6.22998 10.4245C6.3823 10.359 6.52055 10.263 6.63676 10.142C6.75261 10.0215 6.84426 9.87847 6.90647 9.72126C6.96867 9.56405 7.00021 9.39571 6.99926 9.2259Z" fill="#03486E"/>
</g>
<defs>
<clipPath id="clip0_132_43534">
<rect width="11" height="24" fill="white" transform="matrix(4.37114e-08 1 1 -4.37114e-08 0 0)"/>
</clipPath>
</defs>
</svg>
