<svg width="24" height="11" viewBox="0 0 24 11" fill="none" xmlns="http://www.w3.org/2000/svg">
<g clip-path="url(#clip0_74_195)">
<path d="M0.75007 5.3548C0.75007 5.01259 0.881765 4.68439 1.11619 4.4424C1.35061 4.20042 1.66855 4.06448 2.00007 4.06448L18.9876 4.06448L17.3626 2.39996C17.1272 2.15699 16.995 1.82745 16.995 1.48383C16.995 1.14022 17.1272 0.810677 17.3626 0.567705C17.5979 0.324732 17.9172 0.188232 18.2501 0.188232C18.5829 0.188232 18.9022 0.324732 19.1376 0.567705L22.8876 4.43867C23.061 4.62012 23.1785 4.85054 23.2252 5.10085C23.2719 5.35116 23.2458 5.61014 23.1501 5.84512C23.0563 6.08076 22.897 6.28247 22.6924 6.42484C22.4877 6.5672 22.2469 6.64385 22.0001 6.64512L2.00007 6.64512C1.66855 6.64512 1.35061 6.50918 1.11619 6.2672C0.881765 6.02521 0.75007 5.69701 0.75007 5.3548Z" fill="white"/>
<path d="M17 9.2259C16.9991 9.05608 17.0306 8.88774 17.0928 8.73053C17.155 8.57332 17.2467 8.43034 17.3625 8.30977L21.1125 4.4388C21.3479 4.19583 21.6671 4.05933 22 4.05933C22.1648 4.05933 22.328 4.09284 22.4803 4.15795C22.6326 4.22306 22.771 4.31849 22.8875 4.4388C23.0041 4.55911 23.0965 4.70193 23.1596 4.85912C23.2227 5.01631 23.2551 5.18479 23.2551 5.35493C23.2551 5.69854 23.1229 6.02808 22.8875 6.27106L19.1375 10.142C19.0213 10.263 18.8831 10.359 18.7307 10.4245C18.5784 10.49 18.415 10.5237 18.25 10.5237C18.085 10.5237 17.9216 10.49 17.7693 10.4245C17.617 10.359 17.4787 10.263 17.3625 10.142C17.2467 10.0215 17.155 9.87847 17.0928 9.72126C17.0306 9.56405 16.9991 9.39571 17 9.2259Z" fill="white"/>
</g>
</svg>
