<svg width="20" height="15" viewBox="0 0 20 15" fill="none" xmlns="http://www.w3.org/2000/svg">
<path fill-rule="evenodd" clip-rule="evenodd" d="M13.1748 9.49927H2C0.906666 9.49927 0 8.5926 0 7.49927C0 6.40594 0.906666 5.49927 2 5.49927H13.1733L11.2533 3.57927C10.48 2.80594 10.48 1.52594 11.2533 0.752607C12.0267 -0.0207253 13.3067 -0.0207253 14.08 0.752607L19.4133 6.08594C19.4566 6.12926 19.4978 6.17474 19.5367 6.22208C19.8519 6.59803 20 7.04938 20 7.50073C20 7.85806 19.9072 8.21539 19.7121 8.5353C19.6089 8.71076 19.4787 8.86661 19.3283 8.99913L14.08 14.2474C13.3067 15.0207 12.0267 15.0207 11.2533 14.2474C10.48 13.4741 10.48 12.1941 11.2533 11.4207L13.1748 9.49927Z" fill="white"/>
</svg>
