<svg width="32" height="33" viewBox="0 0 32 33" fill="none" xmlns="http://www.w3.org/2000/svg">
<rect y="0.298828" width="32" height="32" rx="5" fill="#0474B5"/>
<path d="M14.25 26.5488C9.56 26.5488 5.75 22.7388 5.75 18.0488C5.75 13.3588 9.56 9.54883 14.25 9.54883C18.94 9.54883 22.75 13.3588 22.75 18.0488C22.75 22.7388 18.94 26.5488 14.25 26.5488ZM14.25 11.0488C10.39 11.0488 7.25 14.1888 7.25 18.0488C7.25 21.9088 10.39 25.0488 14.25 25.0488C18.11 25.0488 21.25 21.9088 21.25 18.0488C21.25 14.1888 18.11 11.0488 14.25 11.0488Z" fill="white"/>
<path d="M19.9999 13.0488C19.8099 13.0488 19.6199 12.9788 19.4699 12.8288C19.1799 12.5388 19.1799 12.0588 19.4699 11.7688L24.9699 6.26877C25.2599 5.97877 25.7399 5.97877 26.0299 6.26877C26.3199 6.55877 26.3199 7.03877 26.0299 7.32877L20.5299 12.8288C20.3799 12.9788 20.1899 13.0488 19.9999 13.0488Z" fill="white"/>
<path d="M25.5 14.0488C25.09 14.0488 24.75 13.7088 24.75 13.2988V7.54883H19C18.59 7.54883 18.25 7.20883 18.25 6.79883C18.25 6.38883 18.59 6.04883 19 6.04883H25.5C25.91 6.04883 26.25 6.38883 26.25 6.79883V13.2988C26.25 13.7088 25.91 14.0488 25.5 14.0488Z" fill="white"/>
</svg>
