<svg width="27" height="12" viewBox="0 0 27 12" fill="none" xmlns="http://www.w3.org/2000/svg">
<path d="M1.5 3H25.5C25.8978 3 26.2794 2.84196 26.5607 2.56066C26.842 2.27936 27 1.89782 27 1.5C27 1.10218 26.842 0.720644 26.5607 0.43934C26.2794 0.158035 25.8978 0 25.5 0H1.5C1.10217 0 0.720646 0.158035 0.439341 0.43934C0.158035 0.720644 0 1.10218 0 1.5C0 1.89782 0.158035 2.27936 0.439341 2.56066C0.720646 2.84196 1.10217 3 1.5 3ZM11.5 12H25.5C25.8978 12 26.2794 11.842 26.5607 11.5607C26.842 11.2794 27 10.8978 27 10.5C27 10.1022 26.842 9.72064 26.5607 9.43934C26.2794 9.15804 25.8978 9 25.5 9H11.5C11.1022 9 10.7206 9.15804 10.4393 9.43934C10.158 9.72064 10 10.1022 10 10.5C10 10.8978 10.158 11.2794 10.4393 11.5607C10.7206 11.842 11.1022 12 11.5 12Z" fill="#002032"/>
</svg>
