<svg width="20" height="20" viewBox="0 0 20 20" fill="none" xmlns="http://www.w3.org/2000/svg">
<path fill-rule="evenodd" clip-rule="evenodd" d="M10.0147 7.86401L17.4393 0.43934C17.7206 0.158035 18.1022 0 18.5 0C18.8978 0 19.2794 0.158035 19.5607 0.43934C19.842 0.720644 20 1.10218 20 1.5C20 1.89783 19.842 2.27936 19.5607 2.56066L12.136 9.98533L19.5606 17.4099C19.8419 17.6912 19.9999 18.0727 19.9999 18.4706C19.9999 18.8684 19.8419 19.2499 19.5606 19.5312C19.2793 19.8125 18.8977 19.9706 18.4999 19.9706C18.1021 19.9706 17.7205 19.8125 17.4392 19.5312L10.0147 12.1067L2.5901 19.5312C2.30879 19.8125 1.92726 19.9706 1.52944 19.9706C1.13161 19.9706 0.750082 19.8125 0.468779 19.5312C0.187473 19.2499 0.029438 18.8684 0.029438 18.4706C0.029438 18.0727 0.187473 17.6912 0.468779 17.4099L7.89335 9.98533L0.468674 2.56066C0.18737 2.27936 0.029335 1.89783 0.029335 1.5C0.029335 1.10218 0.18737 0.720644 0.468674 0.43934C0.749979 0.158035 1.13151 0 1.52934 0C1.92716 0 2.30869 0.158035 2.58999 0.43934L10.0147 7.86401Z" fill="#002032"/>
</svg>
