<svg width="32" height="32" viewBox="0 0 32 32" fill="none" xmlns="http://www.w3.org/2000/svg">
<g id="Outlined/Cross">
<path id="Union" d="M8.22169 6.80754C7.83117 6.41702 7.198 6.41702 6.80748 6.80754C6.41696 7.19807 6.41696 7.83123 6.80748 8.22176L14.5857 15.9999L6.80748 23.7781C6.41696 24.1686 6.41696 24.8018 6.80748 25.1923C7.19801 25.5828 7.83117 25.5828 8.2217 25.1923L15.9999 17.4141L23.7779 25.1922C24.1685 25.5827 24.8016 25.5827 25.1921 25.1922C25.5827 24.8017 25.5827 24.1685 25.1921 23.778L17.4141 15.9999L25.1923 8.22176C25.5828 7.83123 25.5828 7.19807 25.1923 6.80754C24.8017 6.41702 24.1686 6.41702 23.778 6.80754L15.9999 14.5857L8.22169 6.80754Z" fill="#03486E"/>
</g>
</svg>
