<svg width="32" height="32" viewBox="0 0 32 32" fill="none" xmlns="http://www.w3.org/2000/svg">
<path d="M1.66668 16C1.66668 23.9067 8.09335 30.3334 16 30.3334C23.9067 30.3334 30.3333 23.9067 30.3333 16C30.3333 8.09338 23.9067 1.66671 16 1.66671C8.09335 1.66671 1.66668 8.09338 1.66668 16ZM28.3333 16C28.3333 22.8 22.8 28.3334 16 28.3334C9.20001 28.3334 3.66668 22.8 3.66668 16C3.66668 9.20004 9.20001 3.66671 16 3.66671C22.8 3.66671 28.3333 9.20004 28.3333 16Z" fill="white"/>
<path d="M11.2267 19.7734C11.2267 20.0267 11.32 20.28 11.52 20.48C11.9067 20.8667 12.5467 20.8667 12.9334 20.48L20.48 12.9334C20.8667 12.5467 20.8667 11.9067 20.48 11.52C20.0934 11.1334 19.4534 11.1334 19.0667 11.52L11.52 19.0667C11.32 19.2534 11.2267 19.52 11.2267 19.7734Z" fill="white"/>
<path d="M11.2267 12.2267C11.2267 12.48 11.32 12.7334 11.52 12.9334L19.0667 20.48C19.4534 20.8667 20.0934 20.8667 20.48 20.48C20.8667 20.0934 20.8667 19.4534 20.48 19.0667L12.9334 11.52C12.5467 11.1334 11.9067 11.1334 11.52 11.52C11.32 11.72 11.2267 11.9734 11.2267 12.2267Z" fill="white"/>
</svg>
