<svg width="25" height="25" viewBox="0 0 25 25" fill="none" xmlns="http://www.w3.org/2000/svg">
<path d="M12.5 9.25C12.4 9.25 12.31 9.23 12.21 9.19C11.93 9.08 11.75 8.8 11.75 8.5V2.5C11.75 2.09 12.09 1.75 12.5 1.75C12.91 1.75 13.25 2.09 13.25 2.5V6.69L13.97 5.97C14.26 5.68 14.74 5.68 15.03 5.97C15.32 6.26 15.32 6.74 15.03 7.03L13.03 9.03C12.89 9.17 12.69 9.25 12.5 9.25Z" fill="white"/>
<path d="M12.4999 9.24994C12.3099 9.24994 12.1199 9.17994 11.9699 9.02994L9.96994 7.02994C9.67994 6.73994 9.67994 6.25994 9.96994 5.96994C10.2599 5.67994 10.7399 5.67994 11.0299 5.96994L13.0299 7.96994C13.3199 8.25994 13.3199 8.73994 13.0299 9.02994C12.8799 9.17994 12.6899 9.24994 12.4999 9.24994Z" fill="white"/>
<path d="M16.5 23.25H8.5C2.75 23.25 2.75 20.2 2.75 17.5V16.5C2.75 14.27 2.75 11.75 7.5 11.75C8.69 11.75 9.13 12.04 9.75 12.5C9.78 12.53 9.82 12.55 9.85 12.59L10.87 13.67C11.73 14.58 13.29 14.58 14.15 13.67L15.17 12.59C15.2 12.56 15.23 12.53 15.27 12.5C15.89 12.03 16.33 11.75 17.52 11.75C22.27 11.75 22.27 14.27 22.27 16.5V17.5C22.25 21.32 20.32 23.25 16.5 23.25ZM7.5 13.25C4.25 13.25 4.25 14.27 4.25 16.5V17.5C4.25 20.24 4.25 21.75 8.5 21.75H16.5C19.48 21.75 20.75 20.48 20.75 17.5V16.5C20.75 14.27 20.75 13.25 17.5 13.25C16.78 13.25 16.63 13.34 16.2 13.66L15.23 14.69C14.51 15.45 13.54 15.87 12.5 15.87C11.46 15.87 10.49 15.45 9.77 14.69L8.8 13.66C8.37 13.34 8.22 13.25 7.5 13.25Z" fill="white"/>
<path d="M5.5 13.25C5.09 13.25 4.75 12.91 4.75 12.5V8.49996C4.75 6.55996 4.75 4.14996 8.43 3.79996C8.84 3.75996 9.21 4.05996 9.25 4.47996C9.29 4.88996 8.99 5.25996 8.57 5.29996C6.25 5.50996 6.25 6.44996 6.25 8.49996V12.5C6.25 12.91 5.91 13.25 5.5 13.25Z" fill="white"/>
<path d="M19.4999 13.25C19.0899 13.25 18.7499 12.91 18.7499 12.5V8.49998C18.7499 6.44998 18.7499 5.50998 16.4299 5.28998C16.0199 5.24998 15.7199 4.87998 15.7599 4.46998C15.7999 4.05998 16.1599 3.74998 16.5799 3.79998C20.2599 4.14998 20.2599 6.55998 20.2599 8.49998V12.5C20.2499 12.91 19.9099 13.25 19.4999 13.25Z" fill="white"/>
</svg>
