<svg width="26" height="26" viewBox="0 0 26 26" fill="none" xmlns="http://www.w3.org/2000/svg">
<path d="M13 25.946C20.1686 25.946 26 20.1389 26 13C26 5.8611 20.1686 0.0539338 13 0.0539335C5.83136 0.0539332 2.7889e-06 5.86211 2.4756e-06 13C2.16229e-06 20.1379 5.83136 25.946 13 25.946ZM13 2.05951C19.0569 2.05951 23.9861 6.96718 23.9861 13C23.9861 19.0328 19.0569 23.9405 13 23.9405C6.94205 23.9405 2.01394 19.0328 2.01394 13C2.01394 6.96718 6.94307 2.05951 13 2.05951Z" fill="white"/>
<path d="M7.25019 11.6161L12.2851 16.6301C12.6778 17.0191 13.3122 17.0191 13.7049 16.6301L18.7398 11.6161C19.063 11.2411 19.063 10.6865 18.7398 10.3115C18.3782 9.89128 17.7419 9.84217 17.3199 10.2022L13 14.5041L8.67003 10.2021C8.27729 9.81304 7.64293 9.81304 7.25019 10.2021C6.85948 10.5932 6.85948 11.225 7.25019 11.6161Z" fill="white"/>
</svg>
