<svg width="54" height="52" viewBox="0 0 54 52" fill="none" xmlns="http://www.w3.org/2000/svg">
<path d="M39.5516 23.748C39.5516 30.9267 33.6792 36.7462 26.4352 36.7462C19.1912 36.7462 13.3188 30.9267 13.3188 23.748C13.3188 16.5693 14.8567 7.81074 26.4352 12.5631C36.1027 7.81074 39.5516 16.5693 39.5516 23.748Z" fill="white"/>
<path fill-rule="evenodd" clip-rule="evenodd" d="M1.83647 16.8458C2.22052 -0.461121 20.4813 -3.63264 26.6509 11.3948C32.9815 -2.82738 51.4529 0.245013 51.3043 17.6015C51.2423 25.3568 45.3205 33.9861 40.0058 37.1576C38.8041 37.8761 37.6272 38.5822 36.5618 39.3132C31.2842 42.9183 26.7376 42.9238 26.1677 45.0175C25.5731 42.8619 20.0382 40.4919 14.4509 36.7133C13.5837 36.1187 12.6422 35.5364 11.6759 34.9418C6.27442 31.5597 1.65064 24.9232 1.83647 16.8582V16.8458ZM29.8595 34.0412C31.2347 34.4129 34.3442 33.781 33.7248 30.9192C33.3531 29.222 32.9939 28.7265 32.4983 28.0575C32.1638 27.5991 31.7674 27.054 31.2718 25.9886C30.033 23.3622 29.0419 21.7764 26.7995 21.8508C24.5572 21.9251 23.3183 23.771 22.3149 26.0133C21.9184 26.8929 21.5468 27.4132 21.1999 27.884C20.6796 28.6026 20.2212 29.2344 19.8371 30.9688C19.2177 33.8305 22.3272 34.4376 23.7024 34.0659C25.0775 33.6943 26.7872 33.0749 26.7872 33.0749C26.7872 33.0749 28.4844 33.6819 29.8595 34.0536V34.0412ZM33.8487 16.9696C33.2292 19.1005 31.3586 20.4261 29.6737 19.9429C27.9889 19.4598 27.1092 17.3537 27.7287 15.2229C28.3481 13.092 30.2188 11.7664 31.9037 12.2496C33.5885 12.7327 34.4681 14.8388 33.8487 16.9696ZM32.2134 21.6773C33.0558 19.6332 35.0504 18.5059 36.6733 19.1625C38.2962 19.819 38.9404 22.0119 38.098 24.056C37.2556 26.1001 35.261 27.2274 33.6381 26.5708C32.0152 25.9142 31.371 23.7214 32.2134 21.6773ZM25.858 15.2476C26.4651 17.3661 25.5979 19.4845 23.913 19.9677C22.2282 20.4632 20.3575 19.1377 19.7504 17.0192C19.1434 14.9008 20.0106 12.7823 21.6954 12.2991C23.3803 11.8036 25.251 13.1292 25.858 15.2476ZM21.3734 21.7145C22.2158 23.7586 21.5715 25.9514 19.9486 26.6204C18.3257 27.2894 16.3188 26.1744 15.4888 24.1303C14.6463 22.0862 15.2905 19.8934 16.9134 19.2244C18.5363 18.5554 20.5433 19.6704 21.3734 21.7145Z" fill="#CB1517"/>
<path fill-rule="evenodd" clip-rule="evenodd" d="M52.9898 15.4428C52.99 15.3999 52.99 15.3567 52.99 15.3133C52.9901 11.0799 49.2859 1.55476 38.967 0.496418C36.9182 0.286288 34.3993 0.396022 32.1173 1.08687C30.7455 1.43432 29.7348 1.97353 28.9248 2.61728C27.903 3.35661 27.0605 4.31106 26.5146 5.52391C26.0258 6.60884 26.1436 7.27017 26.468 7.3296C26.5897 7.35212 26.7524 7.08997 26.9081 6.75402C26.8351 6.94979 26.7618 7.14763 26.6943 7.3321C26.3954 8.14801 26.2981 9.14415 26.4989 9.54015C26.6997 9.93614 27.2054 9.56869 27.2993 9.02603C27.3603 8.67394 27.7843 7.70898 28.0746 7.07469C27.9417 7.37306 27.7779 7.75973 27.6241 8.17515C27.2854 9.08993 27.2677 10.2243 27.6419 10.3731C27.9158 10.482 28.0925 9.94105 28.2791 9.3696C28.3475 9.16025 28.4172 8.9468 28.4936 8.75971C28.7782 8.06194 29.5955 6.86745 29.5955 6.86745C29.5955 6.86745 29.0632 7.84659 28.7394 8.55331C28.4161 9.26078 28.4332 10.0249 28.8557 9.99051C29.1278 9.96833 29.2768 9.62776 29.4779 9.16813C29.589 8.91421 29.716 8.62395 29.8885 8.33097C30.3733 7.50645 31.4784 6.80001 31.4784 6.80001C31.4784 6.80001 31.1587 7.82967 31.1834 8.1605C31.2086 8.49208 31.4048 8.80779 31.7547 8.89797C31.9527 8.94899 32.1968 8.51003 32.5224 7.92459C32.7723 7.47517 33.0702 6.93942 33.4321 6.47276C33.9725 5.77582 37.7999 5.44119 41.1876 6.40079C44.9826 8.38038 47.4317 12.4698 47.4317 17.1828C47.4317 23.2794 42.9445 31.3004 34.667 38.1264C32.2716 40.1018 29.5587 41.9771 26.5454 43.6767C23.532 41.9771 20.8461 40.1018 18.4926 38.1264C10.3598 31.3004 6.19485 23.2794 6.19485 17.1828C6.19485 15.1534 6.59889 13.1568 7.3494 11.3622C9.57191 7.16877 14.8969 5.81859 16.2797 7.86616C17.4426 9.58805 20.1495 9.81062 21.1323 9.61041C21.9961 9.43446 22.1845 8.98501 22.2793 8.75893C22.317 8.66895 22.3399 8.61436 22.3846 8.62647C23.458 8.91718 24.017 8.26868 23.8605 7.37419C24.8892 7.82143 25.0904 6.90458 24.8444 6.16663C26.2309 5.13797 23.8605 3.47757 23.0778 2.96883C19.8319 0.858937 16.3856 0.445263 13.4829 0.719012C6.28674 1.2364 -0.493173 6.2876 0.0282496 17.1828C0.462379 26.2543 6.66052 36.5627 16.5676 44.6069C19.3936 46.9015 22.5213 49.0119 25.9031 50.8568C26.1035 50.9659 26.3235 51.0196 26.5445 51.0196C26.7654 51.0196 26.9863 50.965 27.1858 50.8568C30.5899 48.9999 33.7682 46.8918 36.6516 44.6069C46.6761 36.6634 53.1374 26.582 53.1374 17.4818C53.1374 16.8086 53.0873 16.1267 52.9898 15.4428Z" fill="#0073B4"/>
<path d="M52.99 15.3133L52.7664 15.3133V15.3133H52.99ZM52.9898 15.4428L52.7662 15.4421C52.7662 15.4529 52.7669 15.4637 52.7684 15.4744L52.9898 15.4428ZM38.967 0.496418L38.9442 0.718874L38.967 0.496418ZM32.1173 1.08687L32.1723 1.30388L32.1821 1.3009L32.1173 1.08687ZM28.9248 2.61728L29.056 2.79863L29.0639 2.79235L28.9248 2.61728ZM26.5146 5.52391L26.7185 5.61576L26.7185 5.6157L26.5146 5.52391ZM26.468 7.3296L26.5087 7.10971L26.5083 7.10964L26.468 7.3296ZM26.9081 6.75402L27.1176 6.83217C27.1596 6.71959 27.1051 6.59395 26.9942 6.54766C26.8834 6.50137 26.7557 6.55098 26.7052 6.66L26.9081 6.75402ZM26.6943 7.3321L26.9042 7.40902L26.9042 7.40899L26.6943 7.3321ZM26.4989 9.54015L26.6983 9.439V9.439L26.4989 9.54015ZM27.2993 9.02603L27.5197 9.06419V9.06419L27.2993 9.02603ZM28.0746 7.07469L28.2788 7.16569C28.3289 7.05327 28.2788 6.92153 28.1666 6.87088C28.0544 6.82024 27.9224 6.86974 27.8712 6.98164L28.0746 7.07469ZM27.6241 8.17515L27.4144 8.0975L27.6241 8.17515ZM27.6419 10.3731L27.7245 10.1653L27.6419 10.3731ZM28.2791 9.3696L28.0666 9.30017V9.30017L28.2791 9.3696ZM28.4936 8.75971L28.7006 8.84418V8.84418L28.4936 8.75971ZM29.5955 6.86745L29.792 6.97426C29.8489 6.86965 29.8138 6.73882 29.7122 6.67669C29.6106 6.61455 29.4782 6.6429 29.411 6.74117L29.5955 6.86745ZM28.7394 8.55331L28.5361 8.46017L28.536 8.46037L28.7394 8.55331ZM28.8557 9.99051L28.8738 10.2134L28.8557 9.99051ZM29.4779 9.16813L29.6828 9.25777V9.25777L29.4779 9.16813ZM29.8885 8.33097L30.0812 8.4444L30.0812 8.44432L29.8885 8.33097ZM31.4784 6.80001L31.6919 6.8663C31.7198 6.77663 31.6886 6.67912 31.614 6.62219C31.5393 6.56525 31.437 6.56102 31.3579 6.61159L31.4784 6.80001ZM31.1834 8.1605L30.9604 8.17716L30.9605 8.17743L31.1834 8.1605ZM31.7547 8.89797L31.6989 9.11452L31.6989 9.11452L31.7547 8.89797ZM32.5224 7.92459L32.3269 7.81591V7.81591L32.5224 7.92459ZM33.4321 6.47276L33.6088 6.6098L33.4321 6.47276ZM41.1876 6.40079L41.291 6.20252C41.2775 6.19545 41.2632 6.18979 41.2485 6.18563L41.1876 6.40079ZM34.667 38.1264L34.5247 37.9539L34.667 38.1264ZM26.5454 43.6767L26.4355 43.8715C26.5037 43.9099 26.587 43.9099 26.6552 43.8715L26.5454 43.6767ZM18.4926 38.1264L18.6364 37.9551L18.4926 38.1264ZM7.3494 11.3622L7.15181 11.2575C7.14863 11.2635 7.14572 11.2697 7.14309 11.2759L7.3494 11.3622ZM16.2797 7.86616L16.465 7.74101L16.2797 7.86616ZM21.1323 9.61041L21.177 9.82953L21.1323 9.61041ZM22.2793 8.75893L22.4855 8.84539H22.4855L22.2793 8.75893ZM22.3846 8.62647L22.3261 8.84232H22.3261L22.3846 8.62647ZM23.8605 7.37419L23.9497 7.16911C23.8742 7.1363 23.7868 7.14758 23.7222 7.19849C23.6575 7.24939 23.6261 7.33168 23.6402 7.41274L23.8605 7.37419ZM24.8444 6.16663L24.7112 5.98704C24.6336 6.04465 24.6017 6.14563 24.6323 6.23735L24.8444 6.16663ZM23.0778 2.96883L23.1997 2.78134L23.0778 2.96883ZM13.4829 0.719012L13.4989 0.942114L13.5039 0.941646L13.4829 0.719012ZM0.0282496 17.1828L0.251616 17.1722L0.0282496 17.1828ZM16.5676 44.6069L16.4266 44.7805L16.5676 44.6069ZM25.9031 50.8568L25.796 51.0531L25.7962 51.0531L25.9031 50.8568ZM27.1858 50.8568L27.2925 51.0533L27.2929 51.0531L27.1858 50.8568ZM36.6516 44.6069L36.7905 44.7822L36.6516 44.6069ZM52.7664 15.3133C52.7664 15.3564 52.7663 15.3994 52.7662 15.4421L53.2135 15.4435C53.2136 15.4003 53.2137 15.3569 53.2137 15.3133H52.7664ZM38.9442 0.718874C44.0309 1.24059 47.4828 3.84613 49.6673 6.84585C51.8575 9.85322 52.7664 13.2473 52.7664 15.3133L53.2137 15.3133C53.2137 13.1458 52.2705 9.66067 50.0289 6.58256C47.7816 3.49678 44.2219 0.81059 38.9898 0.273963L38.9442 0.718874ZM32.1821 1.3009C34.4299 0.620412 36.9181 0.511071 38.9442 0.718874L38.9898 0.273963C36.9183 0.0615051 34.3688 0.171633 32.0525 0.872846L32.1821 1.3009ZM29.0639 2.79235C29.8486 2.16873 30.8305 1.64348 32.1722 1.30365L32.0624 0.870097C30.6605 1.22515 29.621 1.77832 28.7857 2.44221L29.0639 2.79235ZM26.7185 5.6157C27.2464 4.44297 28.0615 3.51791 29.0559 2.79845L28.7937 2.4361C27.7444 3.1953 26.8747 4.17916 26.3107 5.43212L26.7185 5.6157ZM26.5083 7.10964C26.5052 7.10907 26.488 7.10691 26.4647 7.06547C26.4391 7.01981 26.4137 6.93663 26.4099 6.80486C26.4023 6.54205 26.4822 6.14024 26.7185 5.61576L26.3107 5.43206C26.0582 5.9925 25.9526 6.46382 25.9628 6.81778C25.9679 6.99438 26.0023 7.15548 26.0747 7.28445C26.1495 7.41762 26.2687 7.52042 26.4277 7.54956L26.5083 7.10964ZM26.7052 6.66C26.6291 6.82413 26.5566 6.95834 26.4938 7.04563C26.4618 7.09005 26.4401 7.11133 26.4302 7.1189C26.4177 7.12849 26.4491 7.09868 26.5087 7.10971L26.4273 7.54949C26.5478 7.57178 26.6452 7.51764 26.7022 7.47393C26.762 7.42817 26.8134 7.36715 26.8568 7.30685C26.9447 7.1847 27.0314 7.01986 27.111 6.84805L26.7052 6.66ZM26.9042 7.40899C26.9716 7.22506 27.0447 7.02766 27.1176 6.83217L26.6986 6.67588C26.6255 6.87193 26.552 7.07021 26.4843 7.25522L26.9042 7.40899ZM26.6983 9.439C26.6664 9.37595 26.6387 9.27133 26.6254 9.12292C26.6124 8.97769 26.6145 8.80445 26.6319 8.61393C26.6667 8.23253 26.7615 7.79855 26.9042 7.40902L26.4843 7.25519C26.3281 7.68157 26.2248 8.15361 26.1865 8.57325C26.1673 8.78326 26.164 8.98429 26.1799 9.16271C26.1956 9.33794 26.231 9.50634 26.2995 9.6413L26.6983 9.439ZM27.079 8.98788C27.0409 9.20803 26.9199 9.37829 26.8141 9.44973C26.7617 9.48511 26.7343 9.48294 26.732 9.48257C26.7319 9.48255 26.731 9.48276 26.7275 9.47992C26.7231 9.47639 26.7118 9.46555 26.6983 9.439L26.2995 9.6413C26.3746 9.78951 26.4972 9.89705 26.659 9.92381C26.8109 9.94895 26.9535 9.89525 27.0643 9.82044C27.285 9.67148 27.4638 9.38669 27.5197 9.06419L27.079 8.98788ZM27.8712 6.98164C27.7256 7.29987 27.5457 7.70269 27.3942 8.07114C27.2465 8.43034 27.1145 8.78311 27.079 8.98788L27.5197 9.06419C27.5452 8.91686 27.6557 8.61111 27.8078 8.24123C27.9561 7.8806 28.1333 7.4838 28.2779 7.16774L27.8712 6.98164ZM27.8338 8.25281C27.9855 7.84314 28.1473 7.46107 28.2788 7.16569L27.8703 6.9837C27.7361 7.28504 27.5704 7.67633 27.4144 8.0975L27.8338 8.25281ZM27.7245 10.1653C27.7243 10.1652 27.6849 10.1462 27.6464 10.0269C27.6105 9.91557 27.5893 9.75667 27.5893 9.56138C27.5893 9.17247 27.6733 8.68642 27.8338 8.25281L27.4144 8.0975C27.2362 8.57866 27.142 9.11721 27.142 9.56139C27.142 9.78266 27.1654 9.99243 27.2208 10.1642C27.2736 10.328 27.3724 10.5066 27.5593 10.5809L27.7245 10.1653ZM28.0666 9.30017C27.971 9.59287 27.8863 9.84981 27.7954 10.0222C27.7493 10.1097 27.714 10.1504 27.695 10.1649C27.688 10.1703 27.6905 10.1664 27.7018 10.1644C27.7072 10.1635 27.7127 10.1633 27.7176 10.1639C27.7224 10.1644 27.7248 10.1654 27.7245 10.1653L27.5593 10.5809C27.7119 10.6416 27.8562 10.6046 27.9666 10.5203C28.0635 10.4462 28.1354 10.3363 28.1911 10.2307C28.3037 10.017 28.4007 9.71778 28.4917 9.43903L28.0666 9.30017ZM28.2865 8.67524C28.2066 8.87116 28.1344 9.09265 28.0666 9.30017L28.4917 9.43903C28.5607 9.22785 28.6279 9.02244 28.7006 8.84418L28.2865 8.67524ZM29.5955 6.86745C29.411 6.74117 29.411 6.74119 29.4109 6.74121C29.4109 6.74122 29.4109 6.74124 29.4109 6.74127C29.4109 6.74132 29.4108 6.74138 29.4108 6.74147C29.4106 6.74164 29.4105 6.74189 29.4103 6.7422C29.4098 6.74283 29.4092 6.74375 29.4084 6.74494C29.4068 6.74734 29.4044 6.75085 29.4013 6.75542C29.3951 6.76457 29.386 6.77799 29.3743 6.79526C29.3511 6.8298 29.3177 6.87976 29.2767 6.94185C29.1948 7.06595 29.0827 7.2388 28.9614 7.43384C28.7215 7.81965 28.4368 8.307 28.2865 8.67524L28.7006 8.84418C28.8351 8.51466 29.1013 8.05587 29.3412 7.66999C29.4598 7.47918 29.5698 7.3098 29.65 7.18813C29.6901 7.12733 29.7228 7.07852 29.7454 7.04501C29.7566 7.02825 29.7654 7.01533 29.7713 7.00664C29.7742 7.0023 29.7765 6.99902 29.7779 6.99685C29.7787 6.99576 29.7792 6.99495 29.7796 6.99443C29.7798 6.99417 29.7799 6.99398 29.78 6.99386C29.78 6.9938 29.7801 6.99376 29.7801 6.99374C29.7801 6.99373 29.7801 6.99372 29.7801 6.99372C29.7801 6.99372 29.7801 6.99372 29.5955 6.86745ZM28.9427 8.64645C29.1022 8.29836 29.3141 7.88093 29.4872 7.54868C29.5735 7.38296 29.6498 7.23919 29.7045 7.13689C29.7318 7.08575 29.7538 7.045 29.7688 7.01707C29.7764 7.00311 29.7822 6.99236 29.7861 6.98512C29.7881 6.9815 29.7895 6.97876 29.7905 6.97694C29.791 6.97603 29.7914 6.97534 29.7916 6.9749C29.7918 6.97467 29.7919 6.97451 29.7919 6.9744C29.7919 6.97435 29.792 6.97431 29.792 6.97428C29.792 6.97427 29.792 6.97427 29.792 6.97426C29.792 6.97426 29.792 6.97426 29.5955 6.86745C29.3991 6.76064 29.3991 6.76064 29.399 6.76066C29.399 6.76067 29.399 6.76068 29.399 6.7607C29.399 6.76074 29.399 6.76079 29.3989 6.76085C29.3989 6.76098 29.3988 6.76117 29.3986 6.76142C29.3984 6.76192 29.398 6.76265 29.3974 6.76362C29.3964 6.76554 29.3949 6.76839 29.3928 6.77211C29.3888 6.77956 29.3829 6.79053 29.3752 6.80473C29.3599 6.83311 29.3377 6.87437 29.3101 6.92607C29.2548 7.02944 29.1778 7.17463 29.0906 7.34204C28.9166 7.67604 28.7004 8.10154 28.5361 8.46017L28.9427 8.64645ZM28.8375 9.76762C28.8126 9.76966 28.807 9.76567 28.7954 9.74944C28.7741 9.71986 28.7482 9.65338 28.7411 9.53661C28.7272 9.30692 28.7922 8.97586 28.9428 8.64626L28.536 8.46037C28.3634 8.83823 28.2753 9.24298 28.2947 9.56363C28.3043 9.72203 28.3416 9.88435 28.4322 10.0105C28.5325 10.15 28.6875 10.2286 28.8738 10.2134L28.8375 9.76762ZM29.2731 9.07849C29.1697 9.31483 29.0904 9.49421 29.0071 9.61977C28.9243 9.74455 28.8711 9.76489 28.8375 9.76762L28.8738 10.2134C29.1124 10.1939 29.2697 10.0329 29.3798 9.86696C29.4894 9.70179 29.5851 9.48106 29.6828 9.25777L29.2731 9.07849ZM29.6957 8.21754C29.5156 8.52363 29.3837 8.82558 29.2731 9.07849L29.6828 9.25777C29.7943 9.00284 29.9165 8.72427 30.0812 8.4444L29.6957 8.21754ZM31.4784 6.80001C31.3579 6.61159 31.3579 6.61162 31.3578 6.61164C31.3578 6.61165 31.3578 6.61168 31.3577 6.6117C31.3577 6.61175 31.3576 6.61181 31.3575 6.61188C31.3573 6.61202 31.357 6.6122 31.3566 6.61242C31.3559 6.61287 31.355 6.61349 31.3537 6.61428C31.3513 6.61586 31.3478 6.61812 31.3434 6.62104C31.3344 6.62687 31.3216 6.63535 31.3053 6.64633C31.2726 6.66827 31.2259 6.70023 31.1685 6.74107C31.0538 6.82265 30.896 6.94012 30.7224 7.08424C30.3793 7.36908 29.958 7.77163 29.6957 8.21762L30.0812 8.44432C30.3038 8.06579 30.6774 7.70286 31.0081 7.42835C31.1714 7.29279 31.3201 7.18211 31.4278 7.10547C31.4816 7.06719 31.525 7.03753 31.5546 7.01762C31.5694 7.00767 31.5808 7.00016 31.5883 6.99524C31.5921 6.99278 31.5948 6.99097 31.5966 6.98983C31.5975 6.98926 31.5981 6.98885 31.5985 6.98862C31.5987 6.9885 31.5988 6.98842 31.5989 6.98839C31.5989 6.98837 31.5989 6.98837 31.5989 6.98837C31.5989 6.98837 31.5989 6.98839 31.5989 6.98839C31.5988 6.9884 31.5988 6.98842 31.4784 6.80001ZM31.4065 8.14385C31.4026 8.09275 31.4126 7.99162 31.439 7.84907C31.4642 7.71307 31.5004 7.55883 31.5382 7.41188C31.5759 7.26541 31.6144 7.12873 31.6435 7.02851C31.6581 6.97847 31.6703 6.93768 31.6788 6.9095C31.683 6.89541 31.6863 6.88449 31.6886 6.87715C31.6897 6.87348 31.6906 6.8707 31.6911 6.86888C31.6914 6.86796 31.6916 6.86729 31.6918 6.86686C31.6918 6.86664 31.6919 6.86649 31.6919 6.86639C31.6919 6.86635 31.6919 6.86632 31.6919 6.8663C31.6919 6.86629 31.6919 6.86629 31.6919 6.86629C31.6919 6.86629 31.6919 6.8663 31.4784 6.80001C31.2648 6.73371 31.2648 6.73373 31.2648 6.73375C31.2648 6.73376 31.2648 6.73378 31.2648 6.73381C31.2647 6.73385 31.2647 6.73392 31.2647 6.73399C31.2647 6.73415 31.2646 6.73437 31.2645 6.73465C31.2643 6.73521 31.2641 6.73602 31.2638 6.73706C31.2631 6.73915 31.2622 6.7422 31.261 6.74615C31.2585 6.75405 31.255 6.76557 31.2506 6.78029C31.2417 6.80971 31.2291 6.85195 31.2141 6.90361C31.1841 7.00679 31.1442 7.1482 31.1051 7.30051C31.066 7.45233 31.027 7.61753 30.9992 7.76764C30.9726 7.91119 30.9519 8.06283 30.9604 8.17716L31.4065 8.14385ZM31.8106 8.68143C31.5761 8.62101 31.4263 8.40549 31.4064 8.14357L30.9605 8.17743C30.9909 8.57868 31.2335 8.99457 31.6989 9.11452L31.8106 8.68143ZM32.3269 7.81591C32.1616 8.11326 32.0262 8.35603 31.9089 8.51973C31.8498 8.60219 31.8056 8.64964 31.7757 8.67279C31.7449 8.69654 31.7639 8.66939 31.8105 8.68143L31.6989 9.11452C31.8446 9.15207 31.9683 9.08918 32.0492 9.02668C32.1308 8.96358 32.2051 8.87426 32.2725 8.78018C32.4082 8.5908 32.5576 8.32136 32.7178 8.03327L32.3269 7.81591ZM33.2554 6.33573C32.8813 6.81804 32.5755 7.36881 32.3269 7.81591L32.7178 8.03327C32.969 7.58152 33.259 7.06081 33.6088 6.6098L33.2554 6.33573ZM41.2485 6.18563C39.5292 5.69862 37.7019 5.54057 36.2343 5.59209C35.5005 5.61784 34.8503 5.69619 34.3444 5.81483C34.0917 5.8741 33.8696 5.94466 33.6891 6.02658C33.513 6.1065 33.3556 6.20647 33.2554 6.33573L33.6088 6.6098C33.6437 6.56482 33.724 6.50188 33.874 6.43384C34.0194 6.36782 34.2115 6.30538 34.4465 6.25027C34.9161 6.14014 35.5359 6.06412 36.25 6.03905C37.6781 5.98892 39.4583 6.14335 41.1266 6.61594L41.2485 6.18563ZM47.6553 17.1828C47.6553 12.3921 45.1647 8.2232 41.291 6.20252L41.0842 6.59905C44.8004 8.53757 47.208 12.5475 47.208 17.1828H47.6553ZM34.8093 38.2989C43.1112 31.4527 47.6553 23.3747 47.6553 17.1828H47.208C47.208 23.184 42.7778 31.148 34.5247 37.9539L34.8093 38.2989ZM26.6552 43.8715C29.6798 42.1655 32.4036 40.2828 34.8093 38.2989L34.5247 37.9539C32.1396 39.9208 29.4376 41.7887 26.4355 43.4819L26.6552 43.8715ZM18.3488 38.2977C20.7131 40.2821 23.4104 42.1652 26.4355 43.8715L26.6552 43.4819C23.6536 41.7889 20.9791 39.9215 18.6364 37.9551L18.3488 38.2977ZM5.97123 17.1828C5.97123 23.3696 10.1874 31.4477 18.3488 38.2977L18.6364 37.9551C10.5321 31.1531 6.41848 23.1891 6.41848 17.1828H5.97123ZM7.14309 11.2759C6.38101 13.0982 5.97123 15.1241 5.97123 17.1828H6.41848C6.41848 15.1826 6.81677 13.2154 7.55571 11.4485L7.14309 11.2759ZM16.465 7.74101C16.0728 7.16018 15.4127 6.8385 14.6427 6.73719C13.8725 6.63585 12.9726 6.75098 12.0575 7.06209C10.2272 7.68431 8.29242 9.1054 7.15181 11.2575L7.54699 11.467C8.62889 9.42561 10.4679 8.07487 12.2014 7.48553C13.0682 7.19086 13.8978 7.09027 14.5844 7.18061C15.2712 7.27097 15.7953 7.54835 16.0944 7.99131L16.465 7.74101ZM21.0877 9.39129C20.6357 9.48336 19.7483 9.48161 18.8298 9.24265C17.9122 9.00392 17.004 8.53906 16.465 7.74101L16.0944 7.99131C16.7183 8.91514 17.7449 9.42252 18.7172 9.67549C19.6886 9.92824 20.6461 9.93767 21.177 9.82953L21.0877 9.39129ZM22.073 8.67248C22.0273 8.78158 21.9706 8.9142 21.8381 9.04329C21.7067 9.17131 21.4846 9.31043 21.0877 9.39129L21.177 9.82953C21.6438 9.73444 21.9478 9.56086 22.1502 9.36365C22.3515 9.16751 22.4365 8.96237 22.4855 8.84539L22.073 8.67248ZM22.4431 8.41063C22.3804 8.39366 22.3116 8.39884 22.2492 8.43215C22.1953 8.46097 22.1625 8.50225 22.1449 8.52798C22.1127 8.57487 22.0879 8.63709 22.073 8.67248L22.4855 8.84539C22.4954 8.8218 22.5022 8.80566 22.5082 8.7926C22.5146 8.77887 22.5163 8.7772 22.5138 8.78085C22.5121 8.7832 22.4958 8.80748 22.4599 8.82665C22.4405 8.83704 22.4173 8.84482 22.3915 8.84746C22.3661 8.85006 22.3437 8.84707 22.3261 8.84232L22.4431 8.41063ZM23.6402 7.41274C23.7098 7.81027 23.6142 8.11039 23.4311 8.28136C23.251 8.44959 22.9319 8.54301 22.4431 8.41063L22.3261 8.84232C22.9107 9.00064 23.4078 8.91516 23.7364 8.6082C24.0621 8.30397 24.1678 7.8326 24.0808 7.33564L23.6402 7.41274ZM24.6323 6.23735C24.7458 6.57796 24.7397 6.91856 24.6352 7.10591C24.5886 7.1894 24.5251 7.23998 24.4355 7.25941C24.3377 7.2806 24.1819 7.2701 23.9497 7.16911L23.7713 7.57926C24.0534 7.7019 24.3086 7.74451 24.5302 7.69652C24.7598 7.64676 24.9242 7.50586 25.0258 7.32381C25.2175 6.98006 25.189 6.49325 25.0566 6.09591L24.6323 6.23735ZM22.956 3.15633C23.3462 3.41 24.1101 3.93733 24.6043 4.51774C24.8533 4.81013 25.0104 5.08929 25.0416 5.33296C25.0696 5.55194 25.0005 5.7724 24.7112 5.98704L24.9777 6.34622C25.3816 6.04653 25.5361 5.67369 25.4852 5.27614C25.4374 4.90327 25.213 4.54267 24.9448 4.22778C24.4048 3.59364 23.5921 3.0364 23.1997 2.78134L22.956 3.15633ZM13.5039 0.941646C16.3696 0.67139 19.7622 1.08037 22.956 3.15633L23.1997 2.78134C19.9015 0.637509 16.4017 0.219136 13.4619 0.496378L13.5039 0.941646ZM0.251616 17.1722C-0.0066801 11.775 1.54305 7.85078 4.02438 5.21244C6.50854 2.57107 9.94625 1.19749 13.4989 0.942059L13.4669 0.495966C9.82338 0.757926 6.27306 2.16864 3.69858 4.90603C1.12127 7.64645 -0.458244 11.6954 -0.195117 17.1935L0.251616 17.1722ZM16.7085 44.4333C6.83057 36.4127 0.681645 26.1579 0.251616 17.1722L-0.195117 17.1935C0.243113 26.3506 6.49046 36.7127 16.4266 44.7805L16.7085 44.4333ZM26.0102 50.6604C22.6404 48.8221 19.524 46.7194 16.7085 44.4333L16.4266 44.7805C19.2631 47.0837 22.4022 49.2017 25.796 51.0531L26.0102 50.6604ZM26.5445 50.7959C26.3599 50.7959 26.1768 50.7512 26.0101 50.6604L25.7962 51.0531C26.0302 51.1806 26.2871 51.2432 26.5445 51.2432V50.7959ZM27.0792 50.6602C26.9129 50.7504 26.7287 50.7959 26.5445 50.7959V51.2432C26.8022 51.2432 27.0598 51.1795 27.2925 51.0533L27.0792 50.6602ZM36.5127 44.4317C33.6394 46.7085 30.4718 48.8095 27.0787 50.6604L27.2929 51.0531C30.708 49.1902 33.8969 47.0751 36.7905 44.7822L36.5127 44.4317ZM52.9138 17.4818C52.9138 26.4835 46.513 36.5073 36.5127 44.4317L36.7905 44.7822C46.8392 36.8195 53.361 26.6806 53.361 17.4818H52.9138ZM52.7684 15.4744C52.8645 16.1484 52.9138 16.8196 52.9138 17.4818H53.361C53.361 16.7975 53.3101 16.1051 53.2112 15.4112L52.7684 15.4744Z" fill="#03486E"/>
<path d="M23.848 4.9597C23.9274 4.98142 24.3662 5.25527 24.5759 5.56284C24.9114 6.05477 24.9114 6.52123 24.9114 6.83748" stroke="#03486E" stroke-width="0.447244" stroke-linecap="round"/>
<path d="M22.8778 5.90759C22.9561 5.93328 23.3984 6.29611 23.5923 6.61385C23.7863 6.93158 23.883 7.31604 23.883 7.73196" stroke="#03486E" stroke-width="0.447244" stroke-linecap="round"/>
<path d="M21.2666 6.65858C21.7809 6.8822 22.1166 7.2088 22.2583 7.55306C22.3999 7.89733 22.4021 8.56443 22.2583 8.79095" stroke="#03486E" stroke-width="0.447244" stroke-linecap="round"/>
</svg>
