<svg width="32" height="30" viewBox="0 0 32 30" fill="none" xmlns="http://www.w3.org/2000/svg">
<path d="M16.0189 14.6857C12.572 14.8059 11.8015 18.0411 8.71115 21.0057C4.17718 25.3555 5.08514 29.0857 7.89245 29.8384C10.7016 30.5886 13.0581 27.4079 16.0988 27.4435C16.1095 27.4441 16.1178 27.443 16.1286 27.4436C16.1369 27.4425 16.1477 27.4432 16.156 27.442C19.195 27.3565 21.6066 30.4952 24.4033 29.6984C27.1975 28.8998 28.0405 25.1547 23.4328 20.8816C20.2927 17.9685 19.4678 14.7503 16.0171 14.6881L16.0189 14.6857Z" fill="#0474B5"/>
<path d="M7.67404 12.2022C9.60392 14.807 9.80517 17.9301 8.12744 19.1753C6.44734 20.4187 3.51973 19.3166 1.59165 16.7094C-0.33824 14.1046 -0.541864 10.9797 1.13824 9.73631C2.81834 8.49293 5.74595 9.59496 7.67404 12.2022Z" fill="#0474B5"/>
<path d="M24.3214 12.0604C22.4352 14.7 22.2877 17.8241 23.9884 19.0393C25.6892 20.2545 28.5962 19.1001 30.4824 16.4605C32.3686 13.8209 32.5161 10.6967 30.8153 9.48148C29.1146 8.26628 26.2075 9.42076 24.3214 12.0604Z" fill="#0474B5"/>
<path d="M15.0479 5.53894C15.6777 8.901 14.4271 11.9554 12.2616 12.3592C10.0942 12.7653 7.82694 10.3685 7.19897 7.00402C6.56919 3.64196 7.81976 0.587571 9.98533 0.183803C12.1527 -0.22234 14.4199 2.17451 15.0479 5.53894Z" fill="#0474B5"/>
<path d="M16.8327 5.52366C16.2618 8.8953 17.561 11.9271 19.7349 12.2966C21.9088 12.6661 24.1355 10.2286 24.7064 6.85698C25.2773 3.48534 23.9781 0.453491 21.8042 0.0840234C19.6303 -0.285445 17.4036 2.15201 16.8327 5.52366Z" fill="#0474B5"/>
</svg>
