<svg width="32" height="33" viewBox="0 0 32 33" fill="none" xmlns="http://www.w3.org/2000/svg">
<rect y="0.298828" width="32" height="32" rx="5" fill="#DD2E63"/>
<path d="M16 21.0488C11.73 21.0488 8.25 17.5688 8.25 13.2988C8.25 9.02883 11.73 5.54883 16 5.54883C20.27 5.54883 23.75 9.02883 23.75 13.2988C23.75 17.5688 20.27 21.0488 16 21.0488ZM16 7.04883C12.55 7.04883 9.75 9.84883 9.75 13.2988C9.75 16.7488 12.55 19.5488 16 19.5488C19.45 19.5488 22.25 16.7488 22.25 13.2988C22.25 9.84883 19.45 7.04883 16 7.04883Z" fill="white"/>
<path d="M16 27.0488C15.59 27.0488 15.25 26.7088 15.25 26.2988V20.2988C15.25 19.8888 15.59 19.5488 16 19.5488C16.41 19.5488 16.75 19.8888 16.75 20.2988V26.2988C16.75 26.7088 16.41 27.0488 16 27.0488Z" fill="white"/>
<path d="M19 24.0488H13C12.59 24.0488 12.25 23.7088 12.25 23.2988C12.25 22.8888 12.59 22.5488 13 22.5488H19C19.41 22.5488 19.75 22.8888 19.75 23.2988C19.75 23.7088 19.41 24.0488 19 24.0488Z" fill="white"/>
</svg>
