<svg width="19" height="16" viewBox="0 0 20 16" fill="none" xmlns="http://www.w3.org/2000/svg">
<path d="M14.6655 8.12918C14.6655 10.7857 12.4924 12.9392 9.81177 12.9392C7.13111 12.9392 4.95801 10.7857 4.95801 8.12918C4.95801 5.47267 5.5271 2.23154 9.81177 3.99018C13.3893 2.23154 14.6655 5.47267 14.6655 8.12918Z" fill="#CB1517"/>
<path fill-rule="evenodd" clip-rule="evenodd" d="M0.708899 5.57495C0.851017 -0.829532 7.6085 -2.00316 9.89156 3.55778C12.2342 -1.70517 19.0697 -0.568225 19.0146 5.8546C18.9917 8.72447 16.8003 10.031 14.8336 11.2046C14.3889 11.4705 13.9534 11.7319 13.5591 12.0023C11.6062 13.3364 9.92366 15.2252 9.71278 16C9.49272 15.2023 8.03945 13.3089 5.97186 11.9107C5.65095 11.6906 5.30253 11.4752 4.94495 11.2551C2.94612 10.0035 0.640132 8.56402 0.708899 5.57954V5.57495ZM11.0789 11.9382C11.5878 12.0757 12.7385 11.8419 12.5093 10.7829C12.3718 10.1548 12.2388 9.97144 12.0554 9.72388C11.9316 9.55425 11.7849 9.35255 11.6016 8.95828C11.1431 7.98638 10.7764 7.39956 9.94658 7.42706C9.11679 7.45457 8.65835 8.13765 8.287 8.96743C8.1403 9.29293 8.00277 9.48548 7.87441 9.65969C7.68186 9.92559 7.51223 10.1594 7.37011 10.8012C7.14089 11.8602 8.29159 12.0849 8.80046 11.9473C9.30934 11.8098 9.942 11.5806 9.942 11.5806C9.942 11.5806 10.5701 11.8052 11.0789 11.9428V11.9382ZM12.5551 5.62079C12.3259 6.40931 11.6337 6.89986 11.0102 6.72107C10.3867 6.54227 10.0612 5.76292 10.2904 4.97439C10.5196 4.18586 11.2119 3.69532 11.8354 3.87411C12.4589 4.0529 12.7844 4.83226 12.5551 5.62079ZM11.95 7.36287C12.2617 6.60644 12.9998 6.18927 13.6004 6.43224C14.201 6.67522 14.4394 7.48667 14.1276 8.24311C13.8159 8.99954 13.0778 9.41671 12.4772 9.17374C11.8766 8.93076 11.6383 8.11931 11.95 7.36287ZM9.59817 4.98354C9.8228 5.76748 9.50189 6.55142 8.8784 6.73022C8.25492 6.91359 7.56267 6.42308 7.33803 5.63914C7.11339 4.8552 7.4343 4.07123 8.05778 3.89244C8.68127 3.70906 9.37353 4.1996 9.59817 4.98354ZM7.9386 7.37664C8.25034 8.13307 8.01194 8.94453 7.41137 9.19209C6.81081 9.43966 6.06814 9.02705 5.76098 8.27061C5.44924 7.51418 5.68762 6.70272 6.28819 6.45516C6.88875 6.2076 7.63144 6.6202 7.9386 7.37664Z" fill="white"/>
</svg>
