<svg width="19" height="16" viewBox="0 0 19 16" fill="none" xmlns="http://www.w3.org/2000/svg">
<path d="M14.3729 8.12913C14.3729 10.7856 12.1998 12.9392 9.51917 12.9392C6.83851 12.9392 4.66541 10.7856 4.66541 8.12913C4.66541 5.47262 5.2345 2.2315 9.51917 3.99014C13.0967 2.2315 14.3729 5.47262 14.3729 8.12913Z" fill="white"/>
<path fill-rule="evenodd" clip-rule="evenodd" d="M0.416297 5.57495C0.558415 -0.829532 7.3159 -2.00316 9.59896 3.55778C11.9416 -1.70517 18.7771 -0.568225 18.722 5.8546C18.6991 8.72447 16.5077 10.031 14.541 11.2046C14.0963 11.4705 13.6608 11.7319 13.2665 12.0023C11.3135 13.3364 9.63106 15.2252 9.42017 16C9.20012 15.2023 7.74685 13.3089 5.67926 11.9107C5.35835 11.6906 5.00993 11.4752 4.65234 11.2551C2.65352 10.0035 0.34753 8.56402 0.416297 5.57954V5.57495ZM10.7863 11.9382C11.2952 12.0757 12.4459 11.8419 12.2167 10.7829C12.0792 10.1548 11.9462 9.97144 11.7628 9.72388C11.639 9.55425 11.4923 9.35255 11.309 8.95828C10.8505 7.98638 10.4838 7.39956 9.65397 7.42706C8.82419 7.45457 8.36574 8.13765 7.9944 8.96743C7.8477 9.29293 7.71017 9.48548 7.5818 9.65969C7.38926 9.92559 7.21963 10.1594 7.07751 10.8012C6.84829 11.8602 7.99898 12.0849 8.50786 11.9473C9.01673 11.8098 9.6494 11.5806 9.6494 11.5806C9.6494 11.5806 10.2775 11.8052 10.7863 11.9428V11.9382ZM12.2625 5.62079C12.0333 6.40931 11.3411 6.89986 10.7176 6.72107C10.0941 6.54227 9.76858 5.76292 9.99781 4.97439C10.227 4.18586 10.9193 3.69532 11.5428 3.87411C12.1663 4.0529 12.4918 4.83226 12.2625 5.62079ZM11.6574 7.36287C11.9691 6.60644 12.7072 6.18927 13.3078 6.43224C13.9083 6.67522 14.1468 7.48667 13.835 8.24311C13.5233 8.99954 12.7852 9.41671 12.1846 9.17374C11.584 8.93076 11.3456 8.11931 11.6574 7.36287ZM9.30556 4.98354C9.5302 5.76748 9.20929 6.55142 8.5858 6.73022C7.96231 6.91359 7.27007 6.42308 7.04543 5.63914C6.82079 4.8552 7.14169 4.07123 7.76518 3.89244C8.38866 3.70906 9.08092 4.1996 9.30556 4.98354ZM7.64599 7.37664C7.95774 8.13307 7.71933 8.94453 7.11877 9.19209C6.51821 9.43966 5.77553 9.02705 5.46838 8.27061C5.15663 7.51418 5.39502 6.70272 5.99559 6.45516C6.59615 6.2076 7.33883 6.6202 7.64599 7.37664Z" fill="#CB1517"/>
</svg>
