<svg width="22" height="19" viewBox="0 0 22 19" fill="none" xmlns="http://www.w3.org/2000/svg">
<path d="M6.40498 0.791483C5.15662 0.876478 3.9242 1.32801 2.93879 2.06375C2.14462 2.65605 1.54966 3.37054 1.11672 4.25501C0.349114 5.8221 0.349114 7.60433 1.11672 9.16876C1.50185 9.9523 1.78871 10.3109 3.21768 11.7823C4.30402 12.9059 5.74361 14.388 6.40498 15.0653C6.6759 15.3415 7.28945 15.9763 7.7702 16.473C9.14871 17.902 9.54712 18.2844 9.79679 18.4332C10.5803 18.9006 11.5578 18.8767 12.3041 18.3694C12.8646 17.9923 13.2391 17.3734 13.3055 16.7253L13.3241 16.5261L13.4834 16.5075C13.7729 16.4756 14.012 16.4066 14.2803 16.2764C14.9708 15.9391 15.4383 15.291 15.5446 14.5208L15.5738 14.287L15.8075 14.2578C16.8699 14.1117 17.6747 13.2777 17.7943 12.1967L17.8128 12.0373L18.012 12.0187C18.2777 11.9922 18.5326 11.9125 18.8089 11.7691C19.2285 11.5539 19.5526 11.2325 19.7651 10.8235C19.8262 10.7066 19.9351 10.5473 20.0041 10.4702C20.0758 10.3906 20.2166 10.2153 20.3175 10.0798C21.6057 8.36131 21.8182 6.1727 20.8806 4.25501C20.5645 3.60693 20.2007 3.1129 19.6562 2.58168C18.7451 1.69986 17.6561 1.13677 16.3918 0.897726C15.9456 0.812733 15.6428 0.786171 15.0904 0.786171C13.6986 0.788828 12.4476 1.16333 11.3267 1.91235C11.17 2.01594 11.0319 2.10624 11.0239 2.11156C11.0133 2.11687 10.8645 2.0239 10.6919 1.90969C9.7118 1.25364 8.59093 0.873821 7.39304 0.791483C6.94947 0.759611 6.86182 0.759611 6.40498 0.791483ZM7.40366 2.27623C7.76755 2.30811 8.28283 2.41701 8.63077 2.53122C8.95747 2.64012 9.47275 2.88182 9.72773 3.05181L9.90569 3.16602L9.56837 3.54053C9.3851 3.74504 8.42625 4.80748 7.44085 5.90444C6.45544 6.99874 5.6055 7.939 5.55503 7.99743L5.46207 8.10102L5.60815 8.23382C6.34123 8.89784 6.56434 9.06252 7.01588 9.28032C7.15399 9.34672 7.40632 9.44499 7.57365 9.50077C8.92029 9.94168 10.4847 9.67076 11.5684 8.81019C11.8048 8.62426 11.9031 8.52599 12.421 7.97353C12.9602 7.39716 13.3294 7.03593 13.6215 6.79954C14.2378 6.30019 14.7371 6.12489 15.186 6.24442C15.5153 6.33207 15.5578 6.36925 17.0081 7.82213C18.5539 9.37062 18.4476 9.23251 18.4503 9.6867C18.4503 9.91512 18.4423 9.94965 18.3786 10.0639C18.3361 10.1303 18.2564 10.2285 18.1953 10.2817C18.0014 10.4463 17.9377 10.457 17.0399 10.457H16.2351L16.2272 11.2989C16.2192 12.2392 16.2192 12.2418 16.0306 12.449C15.8288 12.6721 15.8288 12.6721 14.8513 12.6881L13.9881 12.7013L13.9748 13.5646C13.9589 14.542 13.9589 14.542 13.7358 14.7439C13.5286 14.9325 13.5259 14.9325 12.5883 14.9404L11.7437 14.9484V15.7532C11.7437 16.6509 11.7331 16.7147 11.5684 16.9086C11.5153 16.9697 11.417 17.0494 11.3506 17.0918C11.2364 17.1583 11.2019 17.1636 10.9602 17.1636C10.5086 17.1636 10.6414 17.2698 9.00262 15.5885C6.86448 13.3946 6.77417 13.3016 5.24958 11.7319C3.26018 9.6867 3.21237 9.63889 3.05832 9.46093C2.63069 8.9669 2.29868 8.30819 2.13931 7.62558C2.0676 7.33075 2.06494 7.27232 2.06494 6.72517C2.06494 6.17801 2.0676 6.11958 2.13931 5.82476C2.48195 4.36391 3.52579 3.20055 5.02382 2.60824C5.34255 2.48341 5.89235 2.34263 6.21905 2.30545C6.35717 2.28951 6.50856 2.27092 6.55106 2.26561C6.71574 2.24701 7.14337 2.25233 7.40366 2.27623ZM16.0465 2.33732C17.8421 2.69855 19.2578 3.89113 19.7598 5.46353C19.8899 5.87257 19.9271 6.08771 19.943 6.5419C19.9643 7.16873 19.9058 7.56715 19.7066 8.12758L19.6243 8.36397L19.5579 8.27366C19.5207 8.22585 18.862 7.55386 18.0944 6.7836C16.9682 5.65211 16.6521 5.34932 16.4662 5.22448C15.0771 4.28954 13.6481 4.61358 12.0093 6.23645C11.8553 6.38785 11.5365 6.72251 11.3001 6.98015C10.7291 7.60167 10.5617 7.73713 10.1155 7.94696C9.98006 8.00805 9.77289 8.08508 9.65336 8.11695C9.4276 8.17539 8.97606 8.22851 8.8167 8.21257C8.76889 8.20726 8.65733 8.19664 8.56968 8.18867C8.32267 8.16742 7.81801 8.02399 7.68255 7.93634C7.65334 7.91775 7.7888 7.75307 8.25627 7.23779C8.59093 6.8686 8.9256 6.4994 8.99731 6.41972C10.5432 4.7092 11.162 4.02128 11.3559 3.79551C12.0359 3.00665 13.1541 2.44622 14.3892 2.27889C14.4901 2.26561 14.8301 2.25764 15.1435 2.26295C15.6242 2.26826 15.7677 2.28154 16.0465 2.33732Z" fill="white"/>
</svg>
