<svg width="32" height="32" viewBox="0 0 32 32" fill="none" xmlns="http://www.w3.org/2000/svg">
<path d="M23.2777 15.9228C23.2795 16.2419 23.2184 16.5581 23.0977 16.8535C22.9771 17.1489 22.7993 17.4175 22.5747 17.644L12.8777 27.341C12.4212 27.7975 11.8021 28.054 11.1565 28.054C10.5109 28.054 9.89176 27.7975 9.43527 27.341C8.97878 26.8845 8.72232 26.2654 8.72232 25.6198C8.72232 24.9742 8.97878 24.3551 9.43527 23.8986L17.4353 15.9228L9.45951 7.94707C9.06236 7.4833 8.85483 6.88676 8.87839 6.27664C8.90196 5.66651 9.15489 5.08775 9.58663 4.656C10.0184 4.22426 10.5971 3.97134 11.2073 3.94777C11.8174 3.9242 12.4139 4.13173 12.8777 4.52888L22.5747 14.2259C23.0225 14.6774 23.275 15.2868 23.2777 15.9228Z" fill="white"/>
</svg>
