<svg width="24" height="25" viewBox="0 0 24 25" fill="none" xmlns="http://www.w3.org/2000/svg">
<path d="M17.4583 12.0848C17.4597 12.324 17.4138 12.5612 17.3233 12.7828C17.2328 13.0043 17.0995 13.2058 16.931 13.3757L9.65828 20.6484C9.31591 20.9908 8.85155 21.1831 8.36737 21.1831C7.88318 21.1831 7.41883 20.9908 7.07646 20.6484C6.73409 20.306 6.54175 19.8417 6.54175 19.3575C6.54175 18.8733 6.73409 18.4089 7.07646 18.0666L13.0765 12.0848L7.09464 6.10294C6.79678 5.75512 6.64113 5.30771 6.6588 4.85012C6.67648 4.39252 6.86617 3.95845 7.18998 3.63464C7.51379 3.31083 7.94786 3.12114 8.40545 3.10347C8.86305 3.08579 9.31046 3.24144 9.65828 3.5393L16.931 10.812C17.2669 11.1507 17.4563 11.6078 17.4583 12.0848Z" fill="#03486E"/>
</svg>
