<svg width="24" height="25" viewBox="0 0 24 25" fill="none" xmlns="http://www.w3.org/2000/svg">
<path d="M17.4582 12.0848C17.4596 12.324 17.4138 12.5612 17.3233 12.7828C17.2328 13.0043 17.0995 13.2058 16.931 13.3757L9.65825 20.6484C9.31588 20.9908 8.85152 21.1831 8.36734 21.1831C7.88315 21.1831 7.4188 20.9908 7.07643 20.6484C6.73406 20.306 6.54172 19.8417 6.54172 19.3575C6.54172 18.8733 6.73406 18.4089 7.07643 18.0666L13.0764 12.0848L7.09461 6.10294C6.79674 5.75512 6.6411 5.30771 6.65877 4.85012C6.67645 4.39252 6.86614 3.95845 7.18995 3.63464C7.51376 3.31083 7.94783 3.12114 8.40542 3.10347C8.86302 3.08579 9.31043 3.24144 9.65825 3.5393L16.931 10.812C17.2669 11.1507 17.4562 11.6078 17.4582 12.0848Z" fill="#CB1517"/>
</svg>
