<svg width="24" height="24" viewBox="0 0 24 24" fill="none" xmlns="http://www.w3.org/2000/svg">
<g id="Odnoklassniki (OK)">
<path id="Vector" d="M12 6.42008C12.9428 6.42008 13.7097 7.18698 13.7097 8.12979C13.7097 9.07182 12.9426 9.83871 12 9.83871C11.0578 9.83871 10.2907 9.07182 10.2907 8.12979C10.2905 7.18678 11.058 6.42008 12 6.42008ZM12 12.2576C14.2774 12.2576 16.1294 10.4062 16.1294 8.12979C16.1294 5.85222 14.2776 4 12 4C9.72285 4 7.87063 5.85242 7.87063 8.12979C7.87063 10.4062 9.72285 12.2576 12 12.2576ZM13.6706 15.6258C14.5201 15.4324 15.3308 15.0967 16.0683 14.633C16.3399 14.4622 16.5324 14.1905 16.6036 13.8777C16.6749 13.5648 16.6189 13.2366 16.448 12.965C16.3636 12.8304 16.2534 12.7138 16.1238 12.6219C15.9942 12.5299 15.8477 12.4644 15.6928 12.429C15.5378 12.3937 15.3775 12.3893 15.2208 12.416C15.0642 12.4427 14.9143 12.5001 14.7798 12.5847C13.0881 13.6483 10.9107 13.6475 9.22041 12.5847C9.08596 12.5 8.93612 12.4427 8.77949 12.416C8.62285 12.3892 8.46247 12.3937 8.30755 12.429C8.15262 12.4643 8.00618 12.5298 7.8766 12.6218C7.74702 12.7138 7.63686 12.8304 7.5524 12.965C7.38151 13.2365 7.32545 13.5647 7.39654 13.8775C7.46763 14.1903 7.66006 14.4621 7.9315 14.633C8.66904 15.0965 9.47955 15.4322 10.3289 15.6258L8.02045 17.9346C7.79359 18.1616 7.66618 18.4693 7.66624 18.7902C7.66629 19.1111 7.79381 19.4188 8.02074 19.6456C8.24768 19.8725 8.55543 19.9999 8.8763 19.9999C9.19718 19.9998 9.50489 19.8723 9.73174 19.6453L11.9996 17.3771L14.2689 19.6455C14.3811 19.7579 14.5144 19.8471 14.661 19.9079C14.8077 19.9687 14.965 20 15.1238 20C15.2826 20 15.4398 19.9687 15.5865 19.9079C15.7332 19.8471 15.8664 19.7579 15.9786 19.6455C16.0911 19.5334 16.1804 19.4001 16.2414 19.2533C16.3023 19.1065 16.3336 18.9492 16.3336 18.7903C16.3336 18.6314 16.3023 18.474 16.2414 18.3273C16.1804 18.1805 16.0911 18.0472 15.9786 17.935L13.6706 15.6258Z" fill="white"/>
</g>
</svg>
