<svg width="32" height="31" viewBox="0 0 32 31" fill="none" xmlns="http://www.w3.org/2000/svg">
<g clip-path="url(#clip0_67_4945)">
<rect x="0.462341" width="30.72" height="30.72" rx="15.36" fill="#EE8208"/>
<path d="M15.8223 8.2177C17.0291 8.2177 18.0107 9.19933 18.0107 10.4061C18.0107 11.6119 17.0288 12.5935 15.8223 12.5935C14.6162 12.5935 13.6343 11.6119 13.6343 10.4061C13.6341 9.19908 14.6165 8.2177 15.8223 8.2177ZM15.8223 15.6897C18.7373 15.6897 21.1079 13.3199 21.1079 10.4061C21.1079 7.49084 18.7376 5.12 15.8223 5.12C12.9075 5.12 10.5366 7.49109 10.5366 10.4061C10.5366 13.3199 12.9075 15.6897 15.8223 15.6897ZM17.9606 20.0011C19.0479 19.7534 20.0856 19.3238 21.0297 18.7303C21.3773 18.5116 21.6238 18.1638 21.7149 17.7634C21.806 17.363 21.7344 16.9428 21.5157 16.5952C21.4076 16.4229 21.2665 16.2737 21.1006 16.156C20.9348 16.0382 20.7473 15.9544 20.549 15.9092C20.3507 15.864 20.1454 15.8583 19.9449 15.8925C19.7444 15.9267 19.5526 16.0001 19.3804 16.1084C17.215 17.4698 14.428 17.4688 12.2644 16.1084C12.0923 16 11.9005 15.9266 11.7 15.8924C11.4995 15.8582 11.2942 15.8639 11.0959 15.9091C10.8976 15.9543 10.7101 16.0382 10.5443 16.1559C10.3784 16.2736 10.2374 16.4229 10.1293 16.5952C9.91057 16.9427 9.83881 17.3628 9.92981 17.7632C10.0208 18.1636 10.2671 18.5115 10.6146 18.7303C11.5586 19.3236 12.5961 19.7532 13.6832 20.0011L10.7284 22.9563C10.438 23.2468 10.2749 23.6407 10.275 24.0515C10.2751 24.4622 10.4383 24.856 10.7288 25.1464C11.0193 25.4368 11.4132 25.5999 11.8239 25.5998C12.2346 25.5997 12.6285 25.4365 12.9189 25.146L15.8218 22.2426L18.7264 25.1463C18.87 25.2901 19.0406 25.4042 19.2284 25.4821C19.4161 25.5599 19.6174 25.6 19.8206 25.6C20.0239 25.6 20.2252 25.5599 20.4129 25.4821C20.6007 25.4042 20.7712 25.2901 20.9149 25.1463C21.0589 25.0027 21.1732 24.8321 21.2512 24.6442C21.3291 24.4564 21.3693 24.255 21.3693 24.0516C21.3693 23.8482 21.3291 23.6468 21.2512 23.4589C21.1732 23.2711 21.0589 23.1004 20.9149 22.9568L17.9606 20.0011Z" fill="white"/>
</g>
<defs>
<clipPath id="clip0_67_4945">
<rect width="32" height="30.72" rx="15.36" fill="white"/>
</clipPath>
</defs>
</svg>
