<svg width="18" height="19" viewBox="0 0 18 19" fill="none" xmlns="http://www.w3.org/2000/svg">
<path d="M8.23455 9.28783C6.76158 10.4882 7.50053 12.1648 7.13106 14.4949C6.58917 17.9138 8.22962 19.2488 9.71244 18.6445C11.1953 18.0386 11.1706 15.8579 12.5172 14.8611C12.5221 14.8578 12.5254 14.8546 12.5303 14.8513C12.5336 14.848 12.5385 14.8447 12.5418 14.8414C13.8473 13.7921 15.9508 14.3669 16.9131 13.086C17.8737 11.8052 16.9968 9.88063 13.5517 9.53908C11.2035 9.3059 9.76991 8.16792 8.23455 9.28948V9.28783Z" fill="#CB1517"/>
<path d="M3.74507 10.976C5.45942 11.4769 6.58755 12.7807 6.26569 13.8859C5.9422 14.991 4.29025 15.482 2.57589 14.9795C0.861538 14.4787 -0.268225 13.1748 0.055269 12.0697C0.378763 10.9646 2.03071 10.4736 3.74507 10.976Z" fill="#CB1517"/>
<path d="M11.0049 5.37128C11.0558 7.15788 12.0312 8.5783 13.1823 8.54546C14.3334 8.51262 15.2251 7.03801 15.1742 5.2514C15.1233 3.4648 14.1478 2.04438 12.9967 2.07722C11.8456 2.11006 10.954 3.58467 11.0049 5.37128Z" fill="#CB1517"/>
<path d="M4.76318 5.59624C6.15897 6.86231 6.62697 8.61936 5.81085 9.51759C4.99472 10.4175 3.20154 10.1202 1.80576 8.85254C0.409968 7.58647 -0.0580324 5.82942 0.758093 4.93119C1.57422 4.03132 3.3674 4.32854 4.76318 5.59624Z" fill="#CB1517"/>
<path d="M5.54151 4.99531C6.41347 6.66533 7.99317 7.56356 9.07039 7.00196C10.1476 6.44036 10.3135 4.62912 9.4415 2.95911C8.56955 1.28909 6.98985 0.390857 5.91263 0.952456C4.83541 1.51406 4.66955 3.32529 5.54151 4.99531Z" fill="#CB1517"/>
</svg>
