<svg width="18" height="18" viewBox="0 0 18 18" fill="none" xmlns="http://www.w3.org/2000/svg">
<path d="M8.95696 8.50262C7.48399 9.70299 8.22294 11.3796 7.85347 13.7097C7.31158 17.1286 8.95203 18.4636 10.4349 17.8593C11.9177 17.2534 11.8931 15.0727 13.2396 14.0759C13.2445 14.0726 13.2478 14.0693 13.2527 14.0661C13.256 14.0628 13.2609 14.0595 13.2642 14.0562C14.5697 13.0069 16.6732 13.5816 17.6355 12.3008C18.5961 11.02 17.7192 9.09542 14.2741 8.75386C11.9259 8.52068 10.4923 7.3827 8.95696 8.50426V8.50262Z" fill="white"/>
<path d="M4.46748 10.1907C6.18184 10.6915 7.30996 11.9954 6.98811 13.1005C6.66461 14.2056 5.01266 14.6966 3.29831 14.1941C1.58395 13.6933 0.454187 12.3895 0.777681 11.2843C1.10118 10.1792 2.75313 9.68822 4.46748 10.1907Z" fill="white"/>
<path d="M11.7273 4.5862C11.7782 6.37281 12.7536 7.79323 13.9047 7.76039C15.0558 7.72754 15.9475 6.25294 15.8966 4.46633C15.8457 2.67972 14.8703 1.2593 13.7191 1.29214C12.568 1.32498 11.6764 2.79959 11.7273 4.5862Z" fill="white"/>
<path d="M5.4856 4.81116C6.88138 6.07722 7.34938 7.83428 6.53326 8.73251C5.71713 9.63238 3.92395 9.33516 2.52817 8.06745C1.13238 6.80139 0.66438 5.04434 1.4805 4.14611C2.29663 3.24624 4.08981 3.54346 5.4856 4.81116Z" fill="white"/>
<path d="M6.26392 4.21016C7.13588 5.88018 8.71558 6.77841 9.7928 6.21681C10.87 5.65521 11.0359 3.84397 10.1639 2.17395C9.29196 0.503931 7.71226 -0.3943 6.63504 0.1673C5.55782 0.728899 5.39197 2.54014 6.26392 4.21016Z" fill="white"/>
</svg>
