<svg width="32" height="32" viewBox="0 0 32 32" fill="none" xmlns="http://www.w3.org/2000/svg">
<path d="M8.72234 16.0772C8.72049 15.7581 8.78165 15.4419 8.90229 15.1465C9.02293 14.8511 9.20069 14.5825 9.42537 14.356L19.1223 4.65899C19.5788 4.2025 20.198 3.94604 20.8435 3.94604C21.4891 3.94604 22.1083 4.2025 22.5648 4.65899C23.0213 5.11549 23.2777 5.73463 23.2777 6.38021C23.2777 7.02579 23.0213 7.64492 22.5648 8.10142L14.5648 16.0772L22.5405 24.0529C22.9377 24.5167 23.1452 25.1132 23.1216 25.7234C23.0981 26.3335 22.8451 26.9123 22.4134 27.344C21.9817 27.7757 21.4029 28.0287 20.7928 28.0522C20.1826 28.0758 19.5861 27.8683 19.1223 27.4711L9.42537 17.7741C8.9775 17.3226 8.72502 16.7132 8.72234 16.0772Z" fill="white"/>
</svg>
