<svg width="24" height="25" viewBox="0 0 24 25" fill="none" xmlns="http://www.w3.org/2000/svg">
<path d="M6.54175 12.0848C6.54037 12.324 6.58623 12.5612 6.67672 12.7828C6.7672 13.0043 6.90051 13.2058 7.06903 13.3757L14.3418 20.6484C14.6841 20.9908 15.1485 21.1831 15.6327 21.1831C16.1168 21.1831 16.5812 20.9908 16.9236 20.6484C17.2659 20.306 17.4583 19.8417 17.4583 19.3575C17.4583 18.8733 17.2659 18.4089 16.9236 18.0666L10.9236 12.0848L16.9054 6.10294C17.2033 5.75512 17.3589 5.30771 17.3412 4.85012C17.3236 4.39252 17.1339 3.95845 16.81 3.63464C16.4862 3.31083 16.0522 3.12114 15.5946 3.10347C15.137 3.08579 14.6896 3.24144 14.3418 3.5393L7.06903 10.812C6.73313 11.1507 6.54376 11.6078 6.54175 12.0848Z" fill="#0474B5"/>
</svg>
