<svg width="24" height="25" viewBox="0 0 24 25" fill="none" xmlns="http://www.w3.org/2000/svg">
<path d="M6.54172 12.0848C6.54034 12.324 6.5862 12.5612 6.67669 12.7828C6.76717 13.0043 6.90048 13.2058 7.069 13.3757L14.3417 20.6484C14.6841 20.9908 15.1484 21.1831 15.6326 21.1831C16.1168 21.1831 16.5812 20.9908 16.9235 20.6484C17.2659 20.306 17.4583 19.8417 17.4583 19.3575C17.4583 18.8733 17.2659 18.4089 16.9235 18.0666L10.9235 12.0848L16.9054 6.10294C17.2032 5.75512 17.3589 5.30771 17.3412 4.85012C17.3235 4.39252 17.1338 3.95845 16.81 3.63464C16.4862 3.31083 16.0521 3.12114 15.5945 3.10347C15.137 3.08579 14.6895 3.24144 14.3417 3.5393L7.069 10.812C6.7331 11.1507 6.54373 11.6078 6.54172 12.0848Z" fill="#CB1517"/>
</svg>
