<svg width="25" height="24" viewBox="0 0 25 24" fill="none" xmlns="http://www.w3.org/2000/svg">
<g clip-path="url(#clip0_120_2363)">
<rect x="0.414795" width="24" height="24" rx="12" fill="#419FD9"/>
<path fill-rule="evenodd" clip-rule="evenodd" d="M15.0826 17.9422C15.9213 18.3091 16.2359 17.5403 16.2359 17.5403L18.4551 6.3918C18.4376 5.64041 17.4241 6.09474 17.4241 6.09474L5.00005 10.97C5.00005 10.97 4.40593 11.1797 4.45835 11.5466C4.51078 11.9136 4.98258 12.0883 4.98258 12.0883L8.11043 13.1368C8.11043 13.1368 9.05403 16.2297 9.24625 16.8238C9.42099 17.4005 9.57825 17.4179 9.57825 17.4179C9.75299 17.4878 9.91026 17.3655 9.91026 17.3655L11.9373 15.5307L15.0826 17.9422ZM15.6241 8.36634C15.6241 8.36634 16.0609 8.10423 16.0434 8.36634C16.0434 8.36634 16.1133 8.40129 15.8862 8.64593C15.6765 8.85562 10.7313 13.294 10.0673 13.8881C10.0149 13.9231 9.97993 13.9755 9.97993 14.0454L9.78771 15.688C9.75277 15.8627 9.5256 15.8802 9.47318 15.7229L8.6519 13.0319C8.61695 12.9271 8.6519 12.8048 8.75674 12.7349L15.6241 8.36634Z" fill="white"/>
</g>
<defs>
<clipPath id="clip0_120_2363">
<rect width="24" height="24" fill="white" transform="translate(0.414795)"/>
</clipPath>
</defs>
</svg>
