<svg width="134" height="14" viewBox="0 0 134 14" fill="none" xmlns="http://www.w3.org/2000/svg">
<path d="M0.0976027 0.917641C0.152474 0.85967 0.225467 0.822129 0.30454 0.811222C0.383614 0.800315 0.464044 0.816691 0.53256 0.857644C12.8823 8.08091 37.9058 6.90203 52.0584 5.90013C70.6566 4.58327 120.248 -4.15484 133.92 8.38089C133.957 8.41552 133.982 8.46021 133.994 8.50932C134.005 8.55844 134.001 8.60978 133.983 8.65686C133.968 8.69675 133.944 8.73258 133.912 8.76153C133.881 8.79047 133.843 8.81174 133.802 8.82366C133.761 8.83558 133.718 8.83783 133.676 8.83023C133.634 8.82263 133.595 8.80538 133.56 8.77984C123.409 1.43959 89.0418 5.78015 75.5551 6.03212C56.486 7.43298 37.1169 9.69175 18.0598 6.96802C11.9974 5.99312 5.35908 4.89824 0.154597 1.44858C0.112257 1.42028 0.0766461 1.38303 0.0502769 1.33946C0.0239077 1.2959 0.00742318 1.24707 0.00198764 1.19644C-0.0034479 1.1458 0.00229787 1.09459 0.0188191 1.04642C0.0353403 0.998243 0.0622343 0.954284 0.0976027 0.917641Z" fill="#CB1517"/>
<path d="M7.34608 8.78884C17.3981 11.3746 27.84 12.7874 38.195 12.0885C38.2167 12.089 38.2375 12.0973 38.2536 12.1119C38.2696 12.1264 38.2799 12.1463 38.2824 12.1679C38.285 12.1894 38.2797 12.2112 38.2675 12.2291C38.2553 12.247 38.237 12.26 38.216 12.2655C27.8073 14.2176 17.0545 13.0702 7.29208 8.96582C7.28046 8.96228 7.26965 8.95648 7.26027 8.94876C7.25089 8.94104 7.24313 8.93154 7.23742 8.92082C7.23171 8.9101 7.22817 8.89835 7.22699 8.88625C7.22582 8.87416 7.22704 8.86196 7.23059 8.85034C7.23413 8.83872 7.23993 8.82791 7.24766 8.81853C7.25538 8.80915 7.26487 8.80138 7.2756 8.79567C7.28632 8.78996 7.29807 8.78642 7.31016 8.78524C7.32225 8.78407 7.33446 8.7853 7.34608 8.78884Z" fill="#CB1517"/>
<path d="M40.7849 11.2036C41.7647 10.9574 42.7754 10.8563 43.7846 10.9036C43.8729 10.9081 43.9565 10.9448 44.0195 11.007C44.0824 11.0691 44.1203 11.1522 44.1258 11.2405C44.1314 11.3288 44.1043 11.416 44.0496 11.4856C43.995 11.5551 43.9166 11.6021 43.8295 11.6176C42.8483 11.804 41.8526 11.9043 40.8538 11.9175C40.7637 11.9184 40.6766 11.8855 40.6096 11.8253C40.5426 11.7651 40.5006 11.6819 40.4919 11.5922C40.4832 11.5025 40.5085 11.4129 40.5628 11.3409C40.617 11.269 40.6962 11.22 40.7849 11.2036Z" fill="#CB1517"/>
</svg>
