<svg width="38" height="6" viewBox="0 0 38 6" fill="none" xmlns="http://www.w3.org/2000/svg">
<path d="M0.0624584 0.0464285C0.0975718 0.0218956 0.144282 0.00600873 0.194883 0.00139316C0.245484 -0.0032224 0.296953 0.00370751 0.340798 0.0210383C20.7732 7.92415 26.6875 -3.1247 37.699 3.20478C37.7224 3.21943 37.7387 3.23835 37.7459 3.25913C37.7531 3.27992 37.7508 3.30164 37.7393 3.32157C37.7296 3.33845 37.7141 3.35361 37.694 3.36586C37.6739 3.37811 37.6498 3.38711 37.6236 3.39215C37.5973 3.3972 37.5697 3.39815 37.5428 3.39493C37.5159 3.39172 37.4905 3.38442 37.4686 3.37361C33.8125 2.37242 30.815 1.50986 26.3125 2.41375C15.8125 4.52166 10.0658 4.6399 0.0989303 0.271117C0.0718361 0.25914 0.0490478 0.243376 0.0321735 0.224939C0.0152991 0.206501 0.00475028 0.18584 0.00127194 0.164411C-0.0022064 0.142983 0.00147046 0.12131 0.0120428 0.100924C0.0226152 0.0805379 0.0398253 0.0619351 0.0624584 0.0464285Z" fill="#CB1517"/>
<path d="M4.70002 3.14473C11.1325 4.79941 17.8146 5.70353 24.441 5.25627C24.4549 5.25657 24.4682 5.26188 24.4785 5.27121C24.4888 5.28055 24.4953 5.29327 24.497 5.30706C24.4986 5.32084 24.4952 5.33475 24.4874 5.34623C24.4796 5.35771 24.4679 5.36598 24.4545 5.36952C17.7937 6.6187 10.9127 5.88449 4.66546 3.25798C4.65803 3.25571 4.65111 3.25201 4.64511 3.24706C4.63911 3.24212 4.63414 3.23605 4.63048 3.22919C4.62683 3.22232 4.62456 3.2148 4.62381 3.20706C4.62306 3.19933 4.62384 3.19152 4.62611 3.18408C4.62838 3.17665 4.63209 3.16973 4.63703 3.16373C4.64198 3.15772 4.64805 3.15275 4.65491 3.1491C4.66178 3.14544 4.66929 3.14318 4.67703 3.14243C4.68477 3.14168 4.69258 3.14246 4.70002 3.14473Z" fill="#CB1517"/>
<path d="M26.1002 4.69C26.7272 4.53244 27.3739 4.46777 28.0197 4.49804C28.0763 4.50087 28.1298 4.5244 28.1701 4.56417C28.2103 4.60393 28.2346 4.65712 28.2381 4.71361C28.2417 4.7701 28.2243 4.82592 28.1894 4.87042C28.1544 4.91492 28.1043 4.94499 28.0485 4.95489C27.4206 5.07418 26.7834 5.13841 26.1443 5.14685C26.0866 5.14744 26.0309 5.12638 25.988 5.08784C25.9451 5.04929 25.9182 4.99607 25.9127 4.93867C25.9071 4.88128 25.9233 4.8239 25.958 4.77786C25.9927 4.73181 26.0435 4.70046 26.1002 4.69Z" fill="#CB1517"/>
</svg>
