<svg width="90" height="10" viewBox="0 0 90 10" fill="none" xmlns="http://www.w3.org/2000/svg">
<path d="M0.0650686 0.945089C0.101649 0.906441 0.150312 0.881414 0.203027 0.874143C0.255743 0.866872 0.309363 0.877789 0.35504 0.905091C8.58824 5.72061 25.2706 4.93469 34.7057 4.26676C47.1045 3.38884 80.1653 -2.43657 89.2804 5.9206C89.3048 5.94368 89.3218 5.97348 89.3292 6.00622C89.3367 6.03896 89.3343 6.07319 89.3224 6.10457C89.3122 6.13117 89.2961 6.15506 89.2751 6.17436C89.2542 6.19365 89.2291 6.20783 89.2018 6.21578C89.1745 6.22372 89.1457 6.22523 89.1177 6.22016C89.0896 6.21509 89.0632 6.20359 89.0404 6.18657C82.273 1.29305 59.3613 4.18676 50.3702 4.35475C37.6574 5.28866 24.7447 6.79451 12.0399 4.97869C7.99829 4.32875 3.57273 3.59882 0.103065 1.29905C0.0748381 1.28018 0.0510975 1.25535 0.033518 1.22631C0.0159385 1.19726 0.0049488 1.16471 0.0013251 1.13095C-0.0022986 1.0972 0.00153191 1.06305 0.0125461 1.03094C0.0235602 0.998824 0.0414896 0.969518 0.0650686 0.945089Z" fill="#CB1517"/>
<path d="M4.89706 6.19257C11.5984 7.91639 18.5597 8.8583 25.4631 8.39235C25.4775 8.39266 25.4914 8.39819 25.5021 8.40792C25.5128 8.41764 25.5196 8.4309 25.5213 8.44526C25.523 8.45962 25.5195 8.47411 25.5114 8.48607C25.5032 8.49803 25.491 8.50665 25.4771 8.51034C18.5379 9.81172 11.3694 9.04682 4.86106 6.31055C4.85332 6.30819 4.84611 6.30433 4.83986 6.29918C4.8336 6.29403 4.82843 6.2877 4.82462 6.28055C4.82081 6.2734 4.81845 6.26557 4.81767 6.25751C4.81689 6.24945 4.8177 6.24131 4.82007 6.23357C4.82243 6.22582 4.8263 6.21861 4.83145 6.21236C4.83659 6.2061 4.84292 6.20093 4.85007 6.19712C4.85722 6.19331 4.86505 6.19095 4.87311 6.19017C4.88118 6.18939 4.88931 6.1902 4.89706 6.19257Z" fill="#CB1517"/>
<path d="M27.1906 7.80242C27.8438 7.63828 28.5176 7.5709 29.1904 7.60244C29.2492 7.60538 29.305 7.6299 29.347 7.67133C29.3889 7.71275 29.4142 7.76817 29.4179 7.82702C29.4216 7.88587 29.4035 7.94402 29.3671 7.99038C29.3306 8.03674 29.2784 8.06807 29.2204 8.07839C28.5662 8.20266 27.9024 8.26957 27.2365 8.27837C27.1765 8.27897 27.1184 8.25704 27.0737 8.21688C27.029 8.17673 27.001 8.12128 26.9953 8.06149C26.9895 8.0017 27.0063 7.94192 27.0425 7.89395C27.0786 7.84598 27.1315 7.81332 27.1906 7.80242Z" fill="#CB1517"/>
</svg>
