<svg width="48" height="6" viewBox="0 0 48 6" fill="none" xmlns="http://www.w3.org/2000/svg">
<path d="M0.866022 0.910156C0.885131 0.889967 0.910551 0.876893 0.938089 0.873095C0.965626 0.869296 0.993636 0.874999 1.0175 0.889261C5.31835 3.40479 14.0329 2.99424 18.9616 2.64533C25.4385 2.18672 42.7087 -0.856357 47.4703 3.50926C47.483 3.52132 47.4919 3.53688 47.4958 3.55399C47.4997 3.57109 47.4985 3.58897 47.4922 3.60537C47.4869 3.61926 47.4785 3.63174 47.4676 3.64182C47.4566 3.6519 47.4435 3.6593 47.4292 3.66346C47.415 3.66761 47.3999 3.66839 47.3853 3.66574C47.3707 3.6631 47.3568 3.65709 47.3449 3.6482C43.8098 1.09192 31.8412 2.60354 27.1444 2.69129C20.5035 3.17915 13.7581 3.96577 7.12143 3.01722C5.01018 2.67771 2.69835 2.29641 0.88587 1.09506C0.871125 1.0852 0.858724 1.07223 0.84954 1.05706C0.840357 1.04188 0.834616 1.02488 0.832723 1.00725C0.830831 0.989613 0.832831 0.971778 0.838585 0.955002C0.844339 0.938225 0.853705 0.922916 0.866022 0.910156Z" fill="#CB1517"/>
<path d="M3.39123 3.65133C6.89188 4.55182 10.5283 5.04385 14.1345 4.80045C14.142 4.80061 14.1493 4.8035 14.1549 4.80858C14.1605 4.81366 14.164 4.82059 14.1649 4.82809C14.1658 4.83559 14.164 4.84316 14.1597 4.84941C14.1555 4.85565 14.1491 4.86016 14.1418 4.86208C10.5169 5.5419 6.77224 5.14233 3.37243 3.71296C3.36838 3.71173 3.36462 3.70971 3.36135 3.70702C3.35808 3.70433 3.35538 3.70102 3.35339 3.69729C3.3514 3.69356 3.35017 3.68946 3.34976 3.68525C3.34935 3.68104 3.34978 3.67679 3.35101 3.67275C3.35225 3.6687 3.35427 3.66493 3.35696 3.66167C3.35965 3.6584 3.36295 3.6557 3.36669 3.65371C3.37042 3.65172 3.37451 3.65048 3.37872 3.65008C3.38293 3.64967 3.38718 3.65009 3.39123 3.65133Z" fill="#CB1517"/>
<path d="M15.0362 4.49228C15.3774 4.40654 15.7294 4.37134 16.0809 4.38782C16.1116 4.38936 16.1407 4.40217 16.1627 4.4238C16.1846 4.44544 16.1978 4.47439 16.1997 4.50513C16.2016 4.53587 16.1922 4.56625 16.1732 4.59047C16.1541 4.61469 16.1268 4.63105 16.0965 4.63644C15.7548 4.70136 15.408 4.73632 15.0602 4.74091C15.0288 4.74123 14.9985 4.72977 14.9752 4.70879C14.9518 4.68782 14.9372 4.65885 14.9342 4.62762C14.9312 4.59638 14.94 4.56515 14.9589 4.5401C14.9777 4.51504 15.0053 4.49798 15.0362 4.49228Z" fill="#CB1517"/>
</svg>
