<svg width="62" height="7" viewBox="0 0 62 7" fill="none" xmlns="http://www.w3.org/2000/svg">
<path d="M0.544795 0.922301C0.569979 0.895694 0.603479 0.878465 0.63977 0.873459C0.676062 0.868453 0.712975 0.875969 0.744421 0.894765C6.41241 4.20992 17.8971 3.66887 24.3925 3.20904C32.9282 2.60466 55.6883 -1.40574 61.9634 4.3476C61.9802 4.36349 61.9919 4.384 61.9971 4.40654C62.0022 4.42909 62.0006 4.45265 61.9923 4.47425C61.9854 4.49256 61.9742 4.50901 61.9598 4.52229C61.9454 4.53558 61.9281 4.54534 61.9093 4.55081C61.8905 4.55628 61.8707 4.55731 61.8514 4.55382C61.8321 4.55034 61.8139 4.54242 61.7982 4.5307C57.1394 1.16185 41.3662 3.15397 35.1764 3.26962C26.4245 3.91255 17.535 4.94922 8.78865 3.69916C6.00628 3.25172 2.95958 2.74922 0.570953 1.16598C0.551521 1.15299 0.535177 1.13589 0.523075 1.1159C0.510973 1.0959 0.503407 1.0735 0.500912 1.05026C0.498418 1.02702 0.501055 1.00351 0.508637 0.981402C0.51622 0.959293 0.528563 0.939118 0.544795 0.922301Z" fill="#CB1517"/>
<path d="M3.87321 4.53482C8.48663 5.72156 13.279 6.37 18.0315 6.04922C18.0414 6.04944 18.051 6.05325 18.0584 6.05994C18.0657 6.06663 18.0704 6.07576 18.0716 6.08565C18.0728 6.09554 18.0703 6.10551 18.0647 6.11374C18.0591 6.12198 18.0508 6.12791 18.0411 6.13045C13.264 7.02636 8.32896 6.49978 3.84843 4.61605C3.8431 4.61442 3.83814 4.61176 3.83383 4.60822C3.82953 4.60467 3.82596 4.60032 3.82334 4.5954C3.82072 4.59047 3.8191 4.58508 3.81856 4.57953C3.81802 4.57398 3.81858 4.56838 3.82021 4.56305C3.82183 4.55771 3.8245 4.55275 3.82804 4.54845C3.83159 4.54414 3.83594 4.54058 3.84086 4.53796C3.84579 4.53534 3.85118 4.53371 3.85673 4.53317C3.86228 4.53263 3.86788 4.5332 3.87321 4.53482Z" fill="#CB1517"/>
<path d="M19.2192 5.6431C19.6689 5.5301 20.1328 5.48371 20.5959 5.50543C20.6365 5.50745 20.6748 5.52434 20.7037 5.55285C20.7326 5.58137 20.75 5.61952 20.7526 5.66004C20.7551 5.70055 20.7427 5.74058 20.7176 5.7725C20.6925 5.80442 20.6565 5.82598 20.6166 5.83308C20.1662 5.91864 19.7092 5.9647 19.2509 5.97076C19.2095 5.97118 19.1695 5.95608 19.1388 5.92843C19.108 5.90079 19.0887 5.86261 19.0848 5.82145C19.0808 5.78029 19.0924 5.73913 19.1173 5.70611C19.1422 5.67309 19.1785 5.65061 19.2192 5.6431Z" fill="#CB1517"/>
</svg>
