<svg width="66" height="7" viewBox="0 0 66 7" fill="none" xmlns="http://www.w3.org/2000/svg">
<path d="M0.21336 0.925166C0.239977 0.897046 0.275384 0.878836 0.313741 0.873545C0.352097 0.868255 0.391111 0.876198 0.424347 0.896063C6.41491 4.39989 18.5532 3.82804 25.4182 3.34205C34.4397 2.70327 58.4951 -1.53537 65.1274 4.5454C65.1451 4.5622 65.1575 4.58387 65.1629 4.6077C65.1684 4.63152 65.1666 4.65643 65.1579 4.67926C65.1505 4.69862 65.1388 4.716 65.1236 4.73004C65.1083 4.74408 65.0901 4.75439 65.0702 4.76017C65.0503 4.76596 65.0294 4.76705 65.009 4.76336C64.9886 4.75967 64.9693 4.75131 64.9527 4.73892C60.0288 1.17835 43.3579 3.28384 36.8159 3.40607C27.5659 4.08559 18.1705 5.18126 8.92638 3.86005C5.98566 3.38715 2.76557 2.85605 0.241007 1.18271C0.220469 1.16899 0.203195 1.15092 0.190404 1.12978C0.177613 1.10865 0.169616 1.08497 0.16698 1.0604C0.164343 1.03584 0.16713 1.011 0.175144 0.987632C0.183158 0.964264 0.196204 0.942941 0.21336 0.925166Z" fill="#CB1517"/>
<path d="M3.7318 4.74328C8.60777 5.99756 13.6729 6.6829 18.6958 6.34386C18.7064 6.34409 18.7164 6.34812 18.7242 6.35519C18.732 6.36227 18.737 6.37191 18.7382 6.38236C18.7395 6.39281 18.7369 6.40336 18.731 6.41206C18.7251 6.42076 18.7162 6.42703 18.706 6.42971C13.657 7.37661 8.44113 6.82006 3.70561 4.82913C3.69997 4.82741 3.69473 4.8246 3.69018 4.82085C3.68563 4.81711 3.68186 4.8125 3.67909 4.8073C3.67632 4.8021 3.67461 4.7964 3.67404 4.79053C3.67347 4.78467 3.67406 4.77875 3.67578 4.77311C3.6775 4.76747 3.68031 4.76223 3.68406 4.75768C3.68781 4.75313 3.69241 4.74936 3.69761 4.74659C3.70282 4.74382 3.70851 4.7421 3.71438 4.74153C3.72024 4.74097 3.72617 4.74156 3.7318 4.74328Z" fill="#CB1517"/>
<path d="M19.9515 5.91463C20.4268 5.7952 20.9171 5.74617 21.4066 5.76912C21.4494 5.77126 21.49 5.78911 21.5205 5.81925C21.5511 5.84938 21.5694 5.88971 21.5721 5.93253C21.5748 5.97535 21.5617 6.01766 21.5352 6.05139C21.5087 6.08513 21.4707 6.10792 21.4284 6.11542C20.9524 6.20585 20.4694 6.25454 19.985 6.26093C19.9413 6.26138 19.899 6.24542 19.8665 6.2162C19.834 6.18698 19.8136 6.14663 19.8094 6.10313C19.8052 6.05962 19.8175 6.01613 19.8438 5.98123C19.8701 5.94633 19.9085 5.92256 19.9515 5.91463Z" fill="#CB1517"/>
</svg>
