<svg width="32" height="32" viewBox="0 0 32 32" fill="none" xmlns="http://www.w3.org/2000/svg">
<rect width="32" height="32" rx="5" fill="#F9F9F9"/>
<path d="M3.64795 4.02455C3.64795 4.06381 4.76812 5.20754 6.81218 7.25683L8.79081 9.24069L8.69659 9.32444C8.64424 9.37155 8.56049 9.45268 8.51338 9.50765L8.42963 9.6071L9.03421 10.2143L9.63879 10.8215L9.55765 10.9524C9.43988 11.1408 8.25166 13.1011 8.16791 13.2477L8.09462 13.3733L8.3642 13.6664C8.51076 13.8287 10.8977 16.2313 13.6693 19.0056L18.7075 24.0516L18.0924 24.6719C17.7548 25.0147 17.4512 25.3367 17.4198 25.389C17.2471 25.6717 17.3753 26.0695 17.6842 26.2134C17.8412 26.2867 18.0349 26.2946 18.15 26.237C18.3044 26.1558 18.6342 25.8444 19.9795 24.5044L21.3561 23.1382L22.8061 24.5881L24.2586 26.0407L23.9681 26.3338C23.2589 27.0588 23.1987 27.1425 23.1987 27.3938C23.2013 27.7942 23.5494 28.069 23.9341 27.9774C24.0597 27.946 24.1095 27.9094 24.4549 27.5849C24.947 27.119 28.1007 23.9469 28.2368 23.7794C28.3337 23.6616 28.3415 23.6381 28.3494 23.4601C28.3572 23.3528 28.3467 23.2298 28.3284 23.1722C28.2813 23.0283 28.1033 22.8634 27.9568 22.8267C27.6244 22.743 27.5014 22.8163 26.7895 23.5124L26.4152 23.8789L24.9653 22.4289L23.5127 20.9763L24.8161 19.6677C26.7214 17.7572 26.6796 17.8043 26.6796 17.5399C26.6796 17.1709 26.3053 16.8699 25.9546 16.9563C25.7662 17.006 25.6327 17.1133 25.0229 17.7153L24.4523 18.278L19.1472 12.9729C16.229 10.0546 13.829 7.66773 13.8159 7.66773C13.8002 7.66773 13.2113 8.01583 12.5073 8.43982L11.2248 9.2119L10.636 8.62302C10.3114 8.29848 10.0366 8.03415 10.0235 8.03415C10.0131 8.03415 9.9136 8.1179 9.80891 8.22259L9.61262 8.41103L7.47434 6.27275L5.33606 4.13709L4.598 4.06904C3.80498 3.99838 3.64795 3.99053 3.64795 4.02455ZM21.1075 16.7155L23.5677 19.1678L21.5577 21.1779L19.5476 23.1879L19.2545 22.8948C19.0922 22.7325 18.9587 22.5912 18.9587 22.5833C18.9587 22.5729 19.2336 22.2823 19.5712 21.9343C19.9088 21.5888 20.2176 21.2485 20.2595 21.1805C20.4479 20.8586 20.2412 20.4189 19.8617 20.3325C19.689 20.2933 19.5738 20.3142 19.4246 20.4136C19.3618 20.4555 19.0268 20.767 18.6813 21.1046L18.0506 21.7196L17.7915 21.4579L17.535 21.1988L17.6763 21.0496C17.7548 20.9659 17.9851 20.7277 18.1893 20.5183C18.6682 20.0237 18.82 19.8536 18.8802 19.7305C18.9744 19.5473 18.9352 19.3092 18.7782 19.1286C18.6578 18.9846 18.5164 18.9218 18.3149 18.9218C18.0898 18.9218 18.0113 18.982 17.2811 19.6991L16.6661 20.3063L16.4122 20.0525C16.2735 19.9111 16.1583 19.7803 16.1583 19.762C16.1583 19.741 16.3337 19.5473 16.5457 19.3301C17.1031 18.7622 17.3622 18.4795 17.446 18.3486C17.6161 18.0765 17.4695 17.6839 17.1476 17.5504C17.0194 17.4954 16.8048 17.4981 16.687 17.553C16.632 17.5792 16.2918 17.8933 15.9201 18.2597L15.2527 18.9192L14.9125 18.579L14.5749 18.2387L16.5666 16.2522C17.6815 15.1399 18.5766 14.2632 18.6028 14.2632C18.629 14.2632 19.7282 15.3415 21.1075 16.7155Z" fill="#03486E"/>
</svg>
