<svg width="32" height="31" viewBox="0 0 32 31" fill="none" xmlns="http://www.w3.org/2000/svg">
<g clip-path="url(#clip0_67_4949)">
<rect x="0.462341" width="30.72" height="30.72" rx="15.36" fill="#5181B8"/>
<path fill-rule="evenodd" clip-rule="evenodd" d="M25.5924 10.5823C25.7349 10.1076 25.5924 9.75873 24.9148 9.75873H22.6743C22.1046 9.75873 21.8421 10.0601 21.6997 10.3925C21.6997 10.3925 20.5602 13.1696 18.9461 14.9735C18.4239 15.4957 18.1866 15.6617 17.9017 15.6617C17.7593 15.6617 17.5531 15.4957 17.5531 15.0211V10.5823C17.5531 10.0125 17.3878 9.75873 16.913 9.75873H13.3922C13.0362 9.75873 12.8221 10.0231 12.8221 10.2737C12.8221 10.8139 13.629 10.9384 13.7122 12.4574V15.7569C13.7122 16.4803 13.5816 16.6115 13.2968 16.6115C12.5372 16.6115 10.6898 13.8218 9.59383 10.6298C9.37906 10.0093 9.16365 9.75873 8.59104 9.75873H6.35052C5.71037 9.75873 5.58234 10.0601 5.58234 10.3925C5.58234 10.9859 6.34203 13.9293 9.11916 17.8221C10.9708 20.4803 13.5791 21.9216 15.9528 21.9216C17.3771 21.9216 17.5531 21.6015 17.5531 21.0502V19.0409C17.5531 18.4007 17.688 18.273 18.1389 18.273C18.4714 18.273 19.041 18.4392 20.3704 19.7209C21.8895 21.2398 22.1398 21.9216 22.9944 21.9216H25.2349C25.8751 21.9216 26.1951 21.6015 26.0105 20.9698C25.8085 20.3402 25.0832 19.4271 24.1207 18.3443C23.5985 17.727 22.8152 17.0624 22.578 16.7301C22.2456 16.3028 22.3405 16.113 22.578 15.7334C22.578 15.7334 25.3076 11.888 25.5924 10.5824V10.5823Z" fill="white"/>
</g>
<defs>
<clipPath id="clip0_67_4949">
<rect width="32" height="30.72" rx="15.36" fill="white"/>
</clipPath>
</defs>
</svg>
