<svg width="25" height="24" viewBox="0 0 25 24" fill="none" xmlns="http://www.w3.org/2000/svg">
<g clip-path="url(#clip0_120_2362)">
<rect x="0.414795" width="24" height="24" rx="12" fill="#0DC143"/>
<path d="M17.79 6.60574C16.5035 5.28142 14.7252 4.5625 12.9089 4.5625C9.04948 4.5625 5.94677 7.70304 5.98461 11.5247C5.98461 12.7355 6.32515 13.9084 6.89272 14.9679L5.90894 18.5625L9.57921 17.6166C10.6008 18.1841 11.736 18.449 12.8711 18.449C16.6927 18.449 19.7954 15.3084 19.7954 11.4868C19.7954 9.63277 19.0765 7.89223 17.79 6.60574ZM12.9089 17.276C11.8873 17.276 10.8657 17.0111 9.99542 16.4814L9.76839 16.3679L7.5738 16.9355L8.14137 14.7787L7.99002 14.5517C6.32515 11.8652 7.11975 8.30845 9.84407 6.64358C12.5684 4.97872 16.0873 5.77331 17.7522 8.49764C19.417 11.222 18.6224 14.7409 15.8981 16.4057C15.0279 16.9733 13.9684 17.276 12.9089 17.276ZM16.2387 13.076L15.8224 12.8868C15.8224 12.8868 15.217 12.622 14.8387 12.4328C14.8008 12.4328 14.763 12.3949 14.7252 12.3949C14.6116 12.3949 14.536 12.4328 14.4603 12.4706C14.4603 12.4706 14.4224 12.5084 13.8927 13.1139C13.8549 13.1895 13.7792 13.2274 13.7035 13.2274H13.6657C13.6279 13.2274 13.5522 13.1895 13.5143 13.1517L13.3252 13.076C12.9089 12.8868 12.5306 12.6598 12.2279 12.3571C12.1522 12.2814 12.0387 12.2057 11.963 12.1301C11.6981 11.8652 11.4333 11.5625 11.2441 11.222L11.2062 11.1463C11.1684 11.1084 11.1684 11.0706 11.1306 10.9949C11.1306 10.9193 11.1306 10.8436 11.1684 10.8057C11.1684 10.8057 11.3197 10.6166 11.4333 10.503C11.5089 10.4274 11.5468 10.3139 11.6224 10.2382C11.6981 10.1247 11.736 9.97331 11.6981 9.8598C11.6603 9.67061 11.2062 8.64899 11.0927 8.42196C11.017 8.30845 10.9414 8.27061 10.8279 8.23277H10.7143C10.6387 8.23277 10.5252 8.23277 10.4116 8.23277C10.336 8.23277 10.2603 8.27061 10.1846 8.27061L10.1468 8.30845C10.0711 8.34628 9.99542 8.42196 9.91975 8.4598C9.84407 8.53547 9.80623 8.61115 9.73056 8.68682C9.46569 9.02736 9.31434 9.44358 9.31434 9.8598C9.31434 10.1625 9.39002 10.4652 9.50353 10.7301L9.54137 10.8436C9.88191 11.5625 10.336 12.2057 10.9414 12.7733L11.0927 12.9247C11.2062 13.0382 11.3197 13.1139 11.3954 13.2274C12.19 13.9084 13.0981 14.4003 14.1197 14.6652C14.2333 14.703 14.3846 14.703 14.4981 14.7409C14.6116 14.7409 14.763 14.7409 14.8765 14.7409C15.0657 14.7409 15.2927 14.6652 15.4441 14.5895C15.5576 14.5139 15.6333 14.5139 15.7089 14.4382L15.7846 14.3625C15.8603 14.2868 15.936 14.249 16.0116 14.1733C16.0873 14.0976 16.163 14.022 16.2008 13.9463C16.2765 13.7949 16.3143 13.6057 16.3522 13.4166C16.3522 13.3409 16.3522 13.2274 16.3522 13.1517C16.3522 13.1517 16.3143 13.1139 16.2387 13.076Z" fill="white"/>
</g>
<defs>
<clipPath id="clip0_120_2362">
<rect width="24" height="24" fill="white" transform="translate(0.414795)"/>
</clipPath>
</defs>
</svg>
