<svg width="32" height="31" viewBox="0 0 32 31" fill="none" xmlns="http://www.w3.org/2000/svg">
<g clip-path="url(#clip0_67_4953)">
<rect x="0.462341" width="30.72" height="30.72" rx="15.36" fill="#FF0000"/>
<path fill-rule="evenodd" clip-rule="evenodd" d="M23.3346 9.04951C24.157 9.27092 24.8055 9.91935 25.0269 10.7418C25.4381 12.2442 25.4223 15.3757 25.4223 15.3757C25.4223 15.3757 25.4223 18.4913 25.0269 19.9938C24.8055 20.8162 24.157 21.4646 23.3346 21.686C21.8322 22.0814 15.8223 22.0814 15.8223 22.0814C15.8223 22.0814 9.82827 22.0814 8.30999 21.6702C7.48758 21.4488 6.83915 20.8004 6.61774 19.978C6.22235 18.4913 6.22235 15.3599 6.22235 15.3599C6.22235 15.3599 6.22235 12.2442 6.61774 10.7418C6.83915 9.91935 7.5034 9.25511 8.30999 9.03369C9.81245 8.63831 15.8223 8.63831 15.8223 8.63831C15.8223 8.63831 21.8322 8.63831 23.3346 9.04951ZM18.9064 15.3603L13.9087 18.2387V12.4819L18.9064 15.3603Z" fill="white"/>
</g>
<defs>
<clipPath id="clip0_67_4953">
<rect width="32" height="30.72" rx="15.36" fill="white"/>
</clipPath>
</defs>
</svg>
