<svg width="24" height="25" viewBox="0 0 24 25" fill="none" xmlns="http://www.w3.org/2000/svg">
<path fill-rule="evenodd" clip-rule="evenodd" d="M17.869 7.35494C18.5115 7.52792 19.0181 8.03451 19.191 8.67701C19.5123 9.85081 19.4999 12.2973 19.4999 12.2973C19.4999 12.2973 19.4999 14.7314 19.191 15.9052C19.0181 16.5477 18.5115 17.0542 17.869 17.2272C16.6952 17.5361 12 17.5361 12 17.5361C12 17.5361 7.31712 17.5361 6.13097 17.2149C5.48846 17.0419 4.98188 16.5353 4.80889 15.8928C4.5 14.7314 4.5 12.2849 4.5 12.2849C4.5 12.2849 4.5 9.85081 4.80889 8.67701C4.98188 8.03451 5.50082 7.51557 6.13097 7.34259C7.30477 7.03369 12 7.03369 12 7.03369C12 7.03369 16.6952 7.03369 17.869 7.35494ZM14.4094 12.2852L10.505 14.534V10.0365L14.4094 12.2852Z" fill="white"/>
</svg>
