<svg width="180" height="368" viewBox="0 0 180 368" fill="none" xmlns="http://www.w3.org/2000/svg">
<path d="M120.671 161.869C133.195 164.194 143.498 172.103 149.083 183.69C152.032 189.83 153.315 197.323 152.587 204.192C152.171 208.182 150.679 214.426 149.187 218.416C143.22 234.408 127.193 251.198 102.25 267.572C93.1268 273.574 78.9382 281.726 77.5853 281.726C77.3425 281.726 74.9488 280.512 72.2429 279.055C40.2579 261.571 16.8416 241.103 8.27294 223.099C6.19149 218.693 5.11607 215.571 3.8672 210.09C2.68771 204.886 2.54895 197.983 3.55499 193.265C6.74655 177.792 19.2699 165.547 34.7074 162.875C39.0784 162.112 47.1614 162.355 51.0468 163.396C61.7663 166.24 70.8553 173.664 76.0242 183.725L77.2037 186.014L78.2791 183.655C82.5808 174.497 91.1841 166.761 100.828 163.361C106.344 161.418 114.809 160.794 120.671 161.869Z" fill="#03486E"/>
<path d="M79.0603 23.1914L56.7965 114.102M56.7965 114.102L3.91992 29.6851M56.7965 114.102L40.0986 59.3702" stroke="#03486E" stroke-width="3.71064"/>
<path d="M85.9619 70.7771L112.929 180.894M112.929 180.894L176.977 78.6426M112.929 180.894L133.155 114.599" stroke="#03486E" stroke-width="3.71064"/>
<path d="M8.26488 214.289L76.0451 362.715M76.0451 362.715L145.301 219.325M76.0451 362.715L77.9462 265.538" stroke="#03486E" stroke-width="3.71064"/>
<path d="M158.798 45.234C166.838 46.7262 173.453 51.8042 177.039 59.2429C178.932 63.185 179.756 67.9956 179.288 72.4054C179.021 74.9667 178.063 78.9755 177.106 81.5368C173.275 91.804 162.985 102.583 146.972 113.096C141.115 116.949 132.006 122.182 131.137 122.182C130.981 122.182 129.444 121.403 127.707 120.468C107.173 109.243 92.1393 96.1024 86.6382 84.5434C85.3019 81.715 84.6115 79.7105 83.8097 76.1916C83.0525 72.8508 82.9634 68.4188 83.6093 65.3899C85.6583 55.4567 93.6983 47.5948 103.609 45.8799C106.415 45.3899 111.605 45.5458 114.099 46.214C120.981 48.0403 126.816 52.8064 130.135 59.2652L130.892 60.7351L131.582 59.2206C134.344 53.3409 139.867 48.3743 146.059 46.1917C149.6 44.9445 155.034 44.5436 158.798 45.234Z" fill="#03486E"/>
<path d="M63.8002 0.283363C70.5835 1.54232 76.1642 5.8265 79.1894 12.1025C80.7866 15.4284 81.4818 19.4871 81.0872 23.2075C80.8618 25.3684 80.0538 28.7507 79.2458 30.9116C76.0139 39.5739 67.3327 48.6684 53.8225 57.5374C48.8807 60.7882 41.1954 65.2039 40.4626 65.2039C40.3311 65.2039 39.0345 64.5462 37.5689 63.757C20.2442 54.2867 7.56077 43.2004 2.91956 33.4483C1.79214 31.0619 1.20965 29.3708 0.533195 26.4019C-0.105676 23.5833 -0.180836 19.8441 0.364083 17.2886C2.09279 8.90811 8.87609 2.27514 17.2378 0.828285C19.6054 0.414894 23.9835 0.546425 26.088 1.11014C31.8942 2.65094 36.8173 6.67207 39.617 12.1213L40.2559 13.3614L40.8384 12.0837C43.1684 7.12303 47.8284 2.9328 53.0521 1.09135C56.0398 0.039093 60.6246 -0.299133 63.8002 0.283363Z" fill="#03486E"/>
</svg>
