<svg width="259" height="231" viewBox="0 0 259 231" fill="none" xmlns="http://www.w3.org/2000/svg">
<path fill-rule="evenodd" clip-rule="evenodd" d="M70.7916 0.20694C72.0146 0.140823 72.993 0.0879364 73.4292 0.0614929C76.5471 -0.123459 100.195 0.140778 104.212 0.431427C135.761 2.51881 153.015 7.06352 156.872 14.2769C157.427 15.3338 157.454 15.7038 157.533 25.1367C157.612 35.4416 157.559 36.0757 156.423 37.7668C155.921 38.5066 155.71 39.3257 155.446 41.7038C154.996 45.4822 154.996 57.5574 155.419 62.1286C156.397 72.5392 158.431 84.2444 162.025 100.442L162.5 102.529L169.899 102.476C197.114 102.185 222.612 107.681 233.974 116.322C237.277 118.832 239.549 121.738 240.395 124.513C240.569 125.088 242.493 130.934 245.201 139.165L245.212 139.197L245.218 139.215L245.234 139.267L245.246 139.301C246.631 143.51 248.218 148.335 249.88 153.393L258.891 180.688L258.6 182.088C257.543 187.029 252.126 192.287 243.645 196.594C242.112 197.387 240.712 198.074 240.527 198.127C240.263 198.206 240.448 198.84 241.187 200.452C242.799 203.992 243.275 206.344 243.116 209.938C242.958 213.716 242.508 215.381 240.765 218.948C239.576 221.431 239.126 222.013 236.748 224.391C234.37 226.769 233.763 227.218 231.305 228.407C227.342 230.362 225.862 230.706 221.397 230.706C218.2 230.706 217.354 230.6 215.135 229.992C213.734 229.596 211.805 228.935 210.854 228.486C205.913 226.267 199.994 221.299 194.049 214.482L191.063 211.021H139.988H88.9394L86.6142 213.716C80.2463 221.088 73.6406 226.584 68.6203 228.698C64.7361 230.336 62.9394 230.706 58.6325 230.706C55.1975 230.706 54.4049 230.627 52.6874 230.098C43.0431 227.059 36.8337 218.842 36.8337 209.066C36.8337 205.314 37.415 203.358 40.2158 197.73C40.2687 197.625 39.5024 197.545 38.4983 197.545C32.3418 197.545 24.8642 195.564 19.1305 192.472C12.1813 188.694 6.36826 183.118 3.35606 177.305C0.66094 172.127 0.000370815 167.978 0.000370815 155.929C-0.026052 140.789 1.34793 131.383 7.87436 101.763C12.4455 80.9416 14.1101 71.0066 14.9028 59.8826C15.2199 55.1001 15.2463 48.0188 14.9028 44.029C14.8423 43.267 14.7819 42.4662 14.729 41.7661L14.7288 41.7642L14.7288 41.7639C14.6663 40.9355 14.6144 40.2484 14.5857 39.9335C14.5593 39.2729 14.2422 38.4802 13.8195 37.8725C12.604 36.1814 12.4719 34.9396 12.5776 24.8725L12.5782 24.8023C12.6569 15.7821 12.6585 15.5949 13.291 14.3826C16.8845 7.11638 35.9618 2.1489 66.6914 0.431427C68.1041 0.352203 69.5696 0.272995 70.7912 0.206955L70.7916 0.20694ZM135.655 11.5818C126.328 9.62654 115.072 8.3054 101.569 7.56557C97.289 7.32776 74.1426 7.27492 70.5227 7.45987C56.6772 8.25255 49.5959 8.96597 41.3256 10.3664C30.9679 12.1367 22.9353 14.5412 20.7158 16.5757C19.8439 17.3948 19.8439 17.4213 20.3459 17.7912C20.6101 18.029 21.6935 18.5839 22.7239 19.0859L24.6 19.9578L29.1975 18.3989C36.9922 15.7302 43.5979 14.2241 51.8947 13.1936C55.039 12.7973 57.6548 12.718 66.6914 12.718C79.1894 12.7444 86.4292 13.1143 87.6447 13.8542C90.2341 15.3603 90.1813 18.5839 87.539 20.1164C86.5613 20.6977 86.3235 20.6977 77.9211 20.2485C71.4475 19.905 60.0593 19.905 55.9902 20.2485C50.3357 20.7241 44.1264 21.7282 40.0309 22.8643L38.3134 23.34L40.7971 23.7627C54.9069 26.1936 74.6447 27.3298 93.9597 26.8542C112.086 26.3786 127.279 24.6611 138.588 21.8339C143.872 20.5127 148.655 18.5839 149.791 17.342L150.319 16.7607L149.527 16.1265C147.889 14.8054 142.208 12.9558 135.655 11.5818ZM80.6955 51.6123C57.2057 51.2424 36.4109 48.7058 25.2077 44.8481C23.9658 44.4253 22.7768 44.0026 22.5654 43.9233C22.2219 43.7912 22.1691 44.7688 22.1691 51.8765C22.1691 66.9375 20.6894 77.4802 14.8764 104.141C8.61419 132.783 7.42517 140.974 7.39875 155.401C7.37232 169.062 8.05931 172.179 12.3662 177.649C16.0918 182.352 22.6183 186.633 29.1711 188.667C31.6548 189.433 35.7239 190.147 37.7321 190.147C38.8418 190.147 38.974 190.094 38.8154 189.671C37.2036 185.629 36.9922 184.492 36.9922 180.899C36.9922 176.883 37.3357 175.192 38.8418 171.968C41.1935 166.842 45.6589 162.667 50.8378 160.738C54.0349 159.523 56.413 159.153 59.7687 159.312C67.6691 159.655 73.667 162.958 82.3073 171.73L85.1345 174.61L88.8601 163.407C90.9211 157.251 92.5857 152.151 92.5857 152.072C92.5857 151.966 92.0837 151.702 91.476 151.438C90.0491 150.883 87.1426 148.954 86.1914 147.95L85.4516 147.183L83.8134 148.742C78.1325 154.053 69.2016 154.82 62.7016 150.566C59.0552 148.188 56.1487 144.145 55.1975 140.181C54.2463 136.112 55.0126 130.669 57.1792 126.019C61.6975 116.322 73.1914 108.21 84.0248 107.047C89.7849 106.413 98.9272 110.033 105.295 115.45L107.065 116.929L108.228 116.057C115.917 110.165 132.986 105.171 151.35 103.427C153.385 103.216 154.785 102.978 154.864 102.793C154.917 102.635 154.441 99.9924 153.781 96.9802C149.527 77.2952 147.968 65.0615 147.994 51.3745V43.7912L146.647 44.3196C134.281 49.0229 107.25 52.0087 80.6955 51.6123ZM224.832 119.096C216.218 114.868 204.407 112.015 189.029 110.456C184.352 109.98 165.803 109.742 159.303 110.086C139.539 111.09 120.99 115.82 112.72 121.95C108.069 125.385 107.33 127.868 109.919 131.066L110.5 131.753L112.958 129.903C121.096 123.773 135.311 119.625 154.019 117.881C160.096 117.326 170.929 116.956 172.092 117.273C173.889 117.775 175.104 119.809 174.655 121.58C174.549 121.95 174.1 122.69 173.598 123.218C172.752 124.143 172.673 124.169 170.11 124.381C168.683 124.486 166.12 124.592 164.429 124.618C151.059 124.671 132.986 128.027 123.13 132.307C120.911 133.285 117.08 135.478 116.763 135.98C116.683 136.086 118.084 136.799 119.854 137.566L123.078 138.913L126.248 137.856C134.175 135.214 145.167 133.179 156.397 132.281C162.025 131.805 171.114 131.568 172.092 131.832C173.889 132.307 175.104 134.342 174.655 136.086C174.443 136.958 173.228 138.358 172.435 138.649C172.092 138.781 168.868 139.019 165.301 139.151C158.511 139.442 152.513 139.917 147.624 140.604C143.317 141.185 137.24 142.401 137.24 142.639C137.24 142.744 137.346 142.85 137.478 142.85C137.61 142.85 139.486 143.141 141.626 143.511C150.478 144.964 157.269 145.492 169.476 145.677C180.468 145.836 186.889 145.492 195.899 144.277C216.244 141.555 231.807 135.188 233.71 128.846C234.608 125.807 231.411 122.32 224.832 119.096ZM70.3114 170.673C67.537 168.718 65.8723 167.872 63.3886 167.159C60.6142 166.34 57.4699 166.234 55.1183 166.895C52.5024 167.608 50.7849 168.559 48.6711 170.568C46.6366 172.47 45.0248 175.297 44.4963 177.913C44.0207 180.185 44.2849 183.594 45.0776 185.576C46.2138 188.403 48.7504 191.627 51.8683 194.19L52.7931 194.956L51.604 195.907C50.9699 196.435 49.6487 197.625 48.6711 198.549C41.5634 205.34 43.1487 217.125 51.789 221.643C57.6548 224.734 64.0227 223.809 70.7077 218.921C73.4292 216.913 80.3784 209.938 83.2057 206.344L85.3195 203.649H140.015L194.71 203.622L196.612 205.948C202.822 213.478 209.057 219.265 213.391 221.484C215.584 222.594 218.992 223.44 221.37 223.44C225.572 223.44 228.584 222.198 231.596 219.212C235.639 215.196 236.933 210.122 235.242 204.996C234.37 202.354 231.939 198.919 229.482 196.832L227.342 195.035L228.61 193.978C232.679 190.57 234.185 188.614 235.295 185.391C236.061 183.171 236.114 179.366 235.427 177.068C233.551 170.7 228.108 166.604 221.529 166.551C215.584 166.498 210.907 169.035 203.799 176.116C201.527 178.389 198.515 181.639 197.114 183.33L194.551 186.448H140.067H85.5837L83.2057 183.462C79.9292 179.393 73.165 172.681 70.3114 170.673ZM82.493 68.5757C80.5906 69.3419 79.5337 70.0818 78.054 71.6935C76.4951 73.3846 75.4646 75.3135 74.5662 78.1143C74.0377 79.8318 73.9585 80.6245 73.9849 83.7952C73.9849 87.0452 74.0906 87.7586 74.6983 89.6082C76.0459 93.7037 78.4503 96.7688 81.489 98.2748C82.9951 99.0147 83.4443 99.1204 85.4524 99.1204C87.4605 99.1204 87.9097 99.0411 89.4686 98.2484C92.5865 96.7159 95.2816 93.0167 96.4442 88.6834C97.0784 86.3053 97.0784 80.9944 96.4442 78.6427C95.2816 74.3094 92.5865 70.6102 89.5215 69.1041C87.302 67.9944 84.4219 67.783 82.493 68.5757ZM42.5941 86.2527C43.7038 83.0291 45.712 80.7303 48.3014 79.6998C49.3847 79.2771 50.1246 79.1714 52.0534 79.2507C54.2465 79.3299 54.6693 79.4092 56.5189 80.334C61.8563 82.9763 65.9254 89.5027 66.3217 96.1348C66.6916 101.842 64.3928 106.572 60.403 108.448C59.1083 109.056 58.5534 109.161 56.5189 109.161C54.3258 109.161 53.9823 109.082 52.1591 108.21C48.5656 106.493 46.0555 103.903 44.1002 99.9133C42.4355 96.584 42.0128 94.7344 41.9863 91.0616C41.9863 88.5779 42.092 87.7059 42.5941 86.2527ZM115.944 79.6469C109.444 81.9456 104.477 89.5554 104.477 97.218C104.477 104.035 108.07 108.844 113.46 109.24C120.462 109.742 127.57 102.397 128.786 93.4131C129.605 87.5209 127.253 81.9985 123.052 79.9375C121.308 79.092 117.873 78.9599 115.944 79.6469ZM182.863 161.505C181.783 159.265 179.791 157.736 177.37 157.286C176.237 157.078 174.6 157.199 173.534 157.575C171.67 158.232 170.006 159.728 169.175 161.498L168.967 161.954L168.739 161.511C167.74 159.567 165.983 158.131 163.91 157.581C163.159 157.38 161.597 157.333 160.752 157.481C157.767 157.997 155.346 160.365 154.729 163.356C154.535 164.268 154.562 165.602 154.79 166.608C155.031 167.668 155.239 168.271 155.641 169.123C157.298 172.604 161.825 176.561 168.008 179.941C168.531 180.222 168.994 180.457 169.041 180.457C169.302 180.457 172.045 178.881 173.809 177.721C178.631 174.555 181.729 171.309 182.883 168.218C183.171 167.447 183.459 166.239 183.54 165.468C183.681 164.14 183.433 162.692 182.863 161.505Z" fill="#03486E"/>
</svg>
