<svg width="431" height="496" viewBox="0 0 431 496" fill="none" xmlns="http://www.w3.org/2000/svg">
<path d="M133.629 58.0901C131.87 65.2488 133.551 72.5725 141.077 89.5988C154.45 119.991 172.979 166.476 173.509 171.16C174.773 182.148 162.532 181.997 156.735 170.761C155.242 167.866 147.613 157.144 139.995 146.848C132.376 136.552 121.44 120.639 115.693 111.532C109.947 102.426 102.943 93.3216 99.9589 91.1965C95.5221 87.881 93.7579 87.7134 88.4579 90.4477C72.7511 98.551 87.401 121.79 93.125 132.013C108.864 159.675 140.082 203.926 142.897 202.473C144.057 201.875 145.108 200.255 145.078 198.977C145.465 194.035 152.05 188.913 158.326 188.478C165.099 187.786 168.735 189.143 176.673 195.179C181.197 198.665 182.251 200.708 183.932 208.031C185.702 215.525 186.931 217.909 193.017 223.607C201.501 231.516 202.537 236.371 198.871 247.962C195.418 257.935 188.384 261.779 177.184 259.582C170.448 258.315 167.193 258.916 159.575 262.847C151.128 267.205 149.373 267.463 141.263 264.749C129.516 260.679 124.013 251.231 127.027 240.407C128.806 234.101 128.532 233.164 124.613 230.444C114.55 223.133 103.242 219.914 89.1687 220.276C74.1695 220.47 66.5205 223.123 60.5603 229.862C57.8626 232.763 57.6593 234.808 59.7672 238.894C61.9629 243.15 65.7849 245.274 77.7852 249.429C86.1493 252.227 93.4319 255.368 93.9588 256.39C94.398 257.241 97.723 259.621 101.369 261.404C108.662 264.971 119.957 278.328 126.544 291.096C130.233 298.246 132.886 300.542 145.122 307.594C153.107 312.097 160.507 316.685 161.872 317.706C163.238 318.726 170.033 322.549 177.072 326.03C184.111 329.512 194.232 335.715 199.439 339.711C209.776 347.958 239.199 464.725 261.047 459.92C273.725 457.259 326.008 410.244 331.316 404.273C333.439 401.884 296.929 307.953 295.784 302.077C294.924 297.563 294.821 289.641 295.714 284.869C296.442 280.182 296.751 275.496 296.224 274.475C295.697 273.453 295.06 267.746 294.666 261.699C294.272 255.651 290.771 238.703 286.99 224.056C279.818 197.148 278.011 177.386 281.171 165.625C285.308 150.31 287.67 132.374 288.896 116.373C289.832 102.741 289.225 98.3123 285.8 91.6728C282.462 85.2035 280.746 83.5024 277.227 83.5931C269.762 83.3492 266.032 88.722 264.102 102.867C262.376 114.966 257.76 136.101 252.006 158.685C250.47 164.651 248.61 167.55 245.531 168.492C239.88 170.545 236.407 165.439 236.322 154.706C236.211 150.02 234.713 139.8 233.022 132.05C231.243 124.13 228.779 112.037 227.526 105.139C226.44 98.1548 224.769 91.2571 223.89 89.5547C223.1 88.0225 221.604 81.4651 220.616 75.0774C218.335 60.0875 215.183 54.3847 208.427 52.2655C202.267 50.4861 197.122 52.7091 194.65 58.0799C192.733 62.0868 194.253 76.8224 197.24 82.6107C198.206 84.4833 199.204 91.297 199.686 97.5151C200.002 103.819 201.287 115.658 202.657 124.005C203.861 132.437 204.715 140.187 204.326 141.466C204.024 142.915 204.416 145.299 205.294 147.002C206.963 150.236 204.973 161.825 202.654 163.022C200.832 163.962 195.64 153.491 191.402 140.805C189.507 135.1 180.779 113.305 171.984 92.1914C156.805 56.2649 155.399 53.541 150.641 50.8223C144.694 47.424 135.311 51.187 133.629 58.0901ZM217.527 193.071C232.118 193.303 241.518 200.956 238.21 209.991C233.804 222.18 214.041 226.556 199.358 218.826L190.613 214.069L193.531 206.313C197.072 196.51 203.444 193.007 217.527 193.071ZM234.842 230.698C249.942 234.763 258.271 243.184 256.055 252.303C253.605 262.189 235.381 264.262 221.449 256.361C212.44 251.093 209.845 247.689 209.772 241.045C209.78 237.808 211.582 236.016 218.041 232.683C224.832 229.18 227.59 228.835 234.842 230.698ZM174.13 268.702C182.474 270.648 187.613 275.326 193.146 286.051C197.801 295.074 198.368 297.799 196.647 302.999C194.313 310.669 189.851 313.402 182.754 311.028C171.855 307.382 161.419 294.875 161.353 284.993C161.326 273.152 166.127 267.011 174.13 268.702ZM215.235 263.015C217.858 264.033 221.416 265.647 223.025 266.326C224.633 267.005 228.739 270.491 232.172 273.893C238.004 279.507 238.618 280.698 238.945 287.428C239.271 294.157 238.463 295.436 232.997 298.256C227.697 300.991 225.348 300.909 218.562 297.512C207.204 292.163 199.109 282.975 197.651 274.458C195.997 264.749 205.574 258.515 215.235 263.015Z" fill="#03486E"/>
</svg>
