<svg width="287" height="269" viewBox="0 0 287 269" fill="none" xmlns="http://www.w3.org/2000/svg">
<path d="M54.7219 77.2099L54.8494 154.42H44.326H33.8026V138.445V122.471H27.1058H20.4091V138.445V154.42H10.2045H0V211.514V268.607H143.501H287.003V170.394V72.1809H249.374H211.744L211.617 60.2296L211.425 48.3375L201.54 45.261L191.654 42.1844L191.463 22.3051L191.335 2.36658H184.32H177.304V20.0568V37.8062L170.607 35.6763L163.911 33.6055V17.9861V2.36658H157.086H150.198L150.389 15.6786C150.517 26.2691 150.389 28.9907 149.752 28.9907C149.305 28.9907 127.812 22.4826 102.045 14.4953C76.279 6.50812 55.0408 0 54.8494 0C54.6581 0 54.5943 34.7297 54.7219 77.2099ZM133.743 37.6879L198.351 57.6855V156.609V255.591H181.131H163.911V245.829V236.067L165.696 235.416C180.046 230.446 187.445 217.075 183.044 204.059C180.684 196.959 175.518 191.516 167.992 188.321C163.018 186.191 154.344 185.718 149.178 187.256C144.522 188.676 140.249 191.279 136.805 194.77C123.539 208.437 130.108 229.795 149.433 235.712C150.389 236.008 150.517 237.014 150.517 245.829V255.591H133.297H116.077V205.005V154.42H92.1598H68.2429V86.0846C68.2429 48.515 68.4342 17.7494 68.6893 17.7494C69.0082 17.7494 98.2825 26.7424 133.743 37.6879ZM259.578 107.088V116.554H245.866H232.153V107.088V97.6217H245.866H259.578V107.088ZM259.578 138.445V147.912H245.866H232.153V138.445V128.979H245.866H259.578V138.445ZM259.578 170.394V179.861H245.866H232.153V170.394V160.928H245.866H259.578V170.394ZM47.8338 186.073V192.285H37.6293H27.4247V186.073V179.861H37.6293H47.8338V186.073ZM88.652 186.073V192.285H78.4474H68.2429V186.073V179.861H78.4474H88.652V186.073ZM259.578 201.751V211.218H245.866H232.153V201.751V192.285H245.866H259.578V201.751ZM47.8338 211.514V217.726H37.6293H27.4247V211.514V205.301H37.6293H47.8338V211.514ZM88.652 211.514V217.726H78.4474H68.2429V211.514V205.301H78.4474H88.652V211.514ZM259.578 233.7V243.167H245.866H232.153V233.7V224.234H245.866H259.578V233.7ZM47.8338 236.954V243.167H37.6293H27.4247V236.954V230.742H37.6293H47.8338V236.954ZM88.652 236.954V243.167H78.4474H68.2429V236.954V230.742H78.4474H88.652V236.954Z" fill="#03486E"/>
<path d="M81.6367 59.4605V65.6728H102.365H123.093V59.4605V53.2482H102.365H81.6367V59.4605Z" fill="#03486E"/>
<path d="M82.0832 78.5115C81.8281 78.689 81.6367 81.6472 81.6367 85.0196V91.1136H132.978H184.32V84.6055V78.0974H133.425C105.426 78.0974 82.2745 78.2749 82.0832 78.5115Z" fill="#03486E"/>
<path d="M81.6367 110.046V116.554H109.061H136.486V110.046V103.538H109.061H81.6367V110.046Z" fill="#03486E"/>
<path d="M150.454 108.33C150.391 111.052 150.327 113.951 150.263 114.779L150.199 116.258L167.292 116.436L184.321 116.554V110.342V104.13H178.772C175.647 104.13 168.057 103.952 161.871 103.716L150.518 103.361L150.454 108.33Z" fill="#03486E"/>
<path d="M81.7656 135.31L81.9569 141.699L133.171 141.877L184.321 141.995V135.487V128.979H132.98H81.5742L81.7656 135.31Z" fill="#03486E"/>
<path d="M129.471 160.632V166.844L156.895 166.963L184.32 167.14V160.75V154.42H156.895H129.471V160.632Z" fill="#03486E"/>
</svg>
