<svg width="255" height="252" viewBox="0 0 255 252" fill="none" xmlns="http://www.w3.org/2000/svg">
<path d="M119.488 0.110832C118.977 0.16349 117.04 0.347816 115.184 0.505806C108.512 1.05877 98.4764 3.03365 92.396 5.00853C84.1903 7.6417 75.8231 12.7237 71.8682 17.4634L70.2539 19.3856V42.0046C70.2539 56.6713 70.3615 64.9395 70.5229 65.5715C71.0341 67.362 72.8367 68.0993 74.5048 67.2567C74.9083 67.046 76.4957 65.8085 78.0561 64.4655C87.3649 56.5397 97.6692 52.4319 112.897 50.5887C117.955 49.9831 134.609 49.9041 139.801 50.4571C155.836 52.1686 166.571 56.3027 175.799 64.3075C177.386 65.7031 179.054 67.0197 179.485 67.2304C181.233 68.0993 183.009 67.3884 183.52 65.5715C183.682 64.9395 183.789 56.6713 183.789 42.0046V19.412L182.283 17.6214C179.7 14.5406 174.507 10.6962 169.799 8.37899C161.163 4.13958 148.814 1.19043 135.362 0.216156C132.053 -0.0208282 121.748 -0.073494 119.488 0.110832ZM133.102 6.11446C138.025 7.66803 142.895 12.0654 145.397 17.2528L146.258 19.0433V24.4413V29.8393L145.397 31.6036C141.819 39.0291 134.743 43.6635 127.022 43.6635C124.035 43.6635 121.13 42.9525 118.143 41.5043C116.287 40.609 115.372 39.9244 113.301 37.8705C111.121 35.764 110.529 34.974 109.453 32.8675C107.974 29.971 107.651 28.4701 107.651 24.1517C107.651 20.2809 107.947 18.7273 109.157 16.3312C111.767 11.0912 116.744 7.1414 122.556 5.69315C125.38 5.00853 130.169 5.19285 133.102 6.11446Z" fill="#03486E"/>
<path d="M125.435 9.37959C124.063 10.0379 123.848 10.9595 123.821 16.1732L123.794 20.6759L119.166 20.8076C112.844 20.9919 111.875 21.3869 111.499 24.0464C111.284 25.6263 111.768 26.6532 112.979 27.2325C113.786 27.6275 114.889 27.7328 118.897 27.8118L123.794 27.9171V32.8412C123.794 36.8699 123.875 37.8705 124.224 38.3445C125.247 39.7927 127.776 40.1877 129.013 39.0554C129.39 38.7131 129.847 38.1075 129.982 37.7389C130.143 37.3439 130.251 34.974 130.251 32.4462V27.8645H134.421C138.887 27.8645 140.932 27.5748 141.874 26.8112C142.385 26.4162 142.492 26.0739 142.492 24.7573C142.492 21.4922 141.551 20.9919 134.905 20.8076L130.305 20.7022L130.197 15.7519C130.116 10.9068 130.09 10.7752 129.471 10.1169C128.906 9.51125 127.453 8.90562 126.619 8.90562C126.484 8.90562 125.946 9.11628 125.435 9.37959Z" fill="#03486E"/>
<path d="M116.931 54.2224C107.918 54.8281 98.8248 57.1189 91.3723 60.6737C86.5834 62.9382 82.9244 65.4661 79.3731 68.9155C75.8486 72.365 75.0953 73.5236 75.0953 75.5775C75.0953 77.684 74.6918 78.7109 73.3735 79.9485C71.0328 82.1604 70.1719 85.3202 70.1719 91.5871C70.1719 101.699 73.8308 111.178 80.9604 119.578C83.7047 122.79 84.1889 123.633 85.6149 127.398C89.516 137.852 96.0268 146.278 104.421 151.781C112.223 156.863 120.187 158.786 130.652 158.18C136.195 157.838 139.854 156.916 144.912 154.546C155.781 149.464 163.691 140.485 168.614 127.53C169.959 123.975 170.847 122.553 173.645 119.314C178.031 114.285 182.281 106.07 183.385 100.382C183.949 97.6171 184.192 89.5859 183.815 86.5841C183.438 83.5823 182.712 81.9497 180.99 80.0802C179.564 78.5529 179.214 77.6313 179.214 75.5775C179.214 73.6816 178.622 72.6546 175.932 69.9688C167.054 61.095 156.696 56.5923 140.472 54.5384C136.733 54.0908 122.016 53.8801 116.931 54.2224Z" fill="#03486E"/>
<path d="M81.4186 142.091C80.8267 142.302 75.4997 144.461 69.5808 146.831C32.8836 161.577 24.6778 166.738 15.0192 181.115C9.82671 188.857 5.1723 199.547 2.5626 209.606C0.840732 216.373 0.0336073 222.14 0.0067032 228.275C-0.0471051 234.068 0.0605113 234.2 6.81345 236.649C29.1977 244.759 58.7923 249.288 102 251.21C111.551 251.631 142.921 251.631 152.311 251.184C182.901 249.814 205.904 247.208 225.302 242.995C233.023 241.309 242.521 238.518 248.762 236.096C253.982 234.068 254.036 233.963 254.036 227.959C253.955 211.238 246.018 188.962 235.579 176.112C231.517 171.135 224.925 165.527 219.437 162.42C212.227 158.338 198.801 152.44 179.995 145.067C172.139 142.012 170.418 141.433 170.095 141.749C169.96 141.907 168.723 146.094 167.377 151.097C159.629 179.772 153.845 195.492 143.971 214.688C135.98 230.197 129.981 240.282 127.936 241.599C127.29 242.02 127.183 241.994 126.375 241.573C124.842 240.783 122.905 237.939 118.223 229.697C107.3 210.475 100.601 195.834 94.6555 178.087C91.8574 169.766 87.2837 153.835 85.1852 145.12C84.8086 143.566 84.3781 142.17 84.2167 141.96C83.8131 141.512 82.7638 141.565 81.4186 142.091Z" fill="#03486E"/>
<path d="M116.959 167.423C115.345 167.633 114.914 167.923 114.914 168.924C114.914 169.635 115.963 175.586 117.147 181.51L118.035 185.987H127.021H136.007L137.029 180.852C138.563 173.163 139.209 169.082 139.02 168.397C138.939 168.028 138.59 167.66 138.267 167.554C137.406 167.265 118.896 167.159 116.959 167.423Z" fill="#03486E"/>
<path d="M120.214 190.568C119.649 190.673 119.084 190.884 118.95 191.016C118.573 191.384 117.551 195.123 115.856 202.101L114.322 208.474L117.013 213.687C119.434 218.401 122.878 224.589 125.595 229.17C126.16 230.118 126.752 230.882 126.913 230.882C127.451 230.882 134.07 219.428 138.025 211.712L139.693 208.474L138.159 202.101C135.953 192.78 135.361 191.016 134.473 190.726C133.639 190.436 121.452 190.331 120.214 190.568Z" fill="#03486E"/>
</svg>
