<svg width="251" height="241" viewBox="0 0 251 241" fill="none" xmlns="http://www.w3.org/2000/svg">
<path fill-rule="evenodd" clip-rule="evenodd" d="M198.422 0.251183C210.858 2.39909 214.271 4.66632 214.271 10.8714C214.271 14.8092 211.833 16.5991 210.004 13.7352C208.541 11.468 201.348 12.4226 198.665 15.2865C195.252 18.747 195.252 22.4462 198.544 27.6966C201.47 32.2311 200.494 34.379 195.252 35.6916C192.569 36.4076 192.204 37.0042 192.813 39.7487C193.179 41.5387 194.154 47.5051 195.008 53.1135C195.835 59.372 196.152 61.7688 195.5 63.8641C195.096 65.1645 194.318 66.3487 193.057 68.2679L193.057 68.268C187.936 75.7858 183.791 76.1438 182.084 69.2227C181.109 65.2849 179.158 65.4042 177.451 69.4614C172.818 80.5589 169.16 87.7186 167.941 87.7186C167.21 87.7186 165.503 85.8093 164.162 83.5421C162.698 81.2749 161.235 79.3656 160.748 79.3656C160.26 79.3656 157.7 81.5135 155.139 84.258C146.727 92.611 143.679 92.8497 143.557 85.0933C143.557 80.4396 141.85 80.0816 136.729 83.5421C134.169 85.2127 130.999 86.5253 129.536 86.2866C127.341 85.9286 127.097 85.0933 127.097 76.8597C127.219 68.7454 127.707 66.5975 131.73 58.7219C136.241 49.8916 146.361 39.0328 152.823 36.1689C155.505 34.8563 158.187 30.5605 158.187 27.2193C158.187 18.1504 167.088 6.81422 176.841 3.23438C183.669 0.728493 193.423 -0.584114 198.422 0.251183ZM189.887 10.752C191.594 12.7806 194.276 13.1386 195.252 11.468C195.739 10.8714 194.886 10.6327 193.545 10.9907C191.96 11.3487 190.862 10.8714 190.375 9.67809C189.887 8.60414 189.277 7.88818 188.912 8.24615C188.546 8.60414 189.034 9.67809 189.887 10.752ZM209.883 17.1956C215.369 23.162 214.638 33.3048 208.176 39.3906L204.518 42.8511V38.6746C204.518 36.288 203.177 31.7536 201.47 28.5317C198.178 22.088 197.691 18.5082 199.885 16.3603C202.08 14.2124 207.566 14.6897 209.883 17.1956ZM176.841 122.085C185.741 108.959 194.764 86.0478 194.764 76.7402C194.764 74.473 194.642 74.473 191.228 76.8595C186.961 79.8427 184.156 79.962 181.23 77.4562C179.28 75.7856 179.036 75.9049 177.695 79.962C175.866 85.4511 169.648 92.4915 166.722 92.4915C165.502 92.4915 163.308 91.0595 161.967 89.3889L159.528 86.2864L154.286 90.5822C146.604 97.0259 142.947 96.4293 138.07 87.957C137.948 87.8377 135.875 88.5537 133.315 89.5083C130.013 90.8817 127.438 90.9424 125.438 89.6532C125.424 89.6766 125.409 89.6998 125.395 89.7227C124.357 91.4149 124.703 91.7533 128.161 92.3174C133.694 93.2199 140.033 97.2811 140.84 100.553C142.684 107.66 136.806 112.962 124.934 114.541C121.015 115.105 113.522 116.685 108.566 117.926C106.239 118.495 103.984 119.017 102.137 119.415C101.77 119.819 101.392 120.233 101.006 120.653C97.8258 124.064 94.8914 128.136 92.5869 132.206C96.4033 132.72 101.952 133.098 109.604 133.435C135.686 134.456 148.111 136.929 157.282 144.058C164.569 137.393 171.929 129.323 176.841 122.085ZM187.814 113.613C188.302 113.971 188.668 116.596 188.668 119.34C188.668 124.113 188.912 124.471 192.569 125.187C196.227 125.903 204.518 132.347 204.518 134.376C204.518 134.972 201.835 134.972 198.543 134.614C190.618 133.779 185.01 135.808 179.036 141.655L174.037 146.428V141.774C174.037 139.268 174.891 136.046 175.866 134.614C177.085 132.944 177.207 131.87 176.354 131.631C175.622 131.392 177.695 127.216 180.987 121.966C184.4 116.954 187.449 113.135 187.814 113.613ZM108.619 83.0187C110.954 85.205 111.868 89.379 110.548 91.4659C109.634 92.9566 109.939 93.2548 112.985 93.7517C117.859 94.5467 123.443 98.1244 124.154 101.006C125.779 107.267 120.6 111.938 110.142 113.329C106.689 113.826 100.089 115.218 95.723 116.311C91.2552 117.404 87.0921 118.298 86.2798 118.298C85.569 118.298 81.812 119.69 78.055 121.379L71.0488 124.361L71.7595 128.833C71.8189 129.196 71.8717 129.53 71.9205 129.839C72.2066 131.649 72.3535 132.579 72.856 133.237C73.3863 133.931 74.3128 134.323 76.2171 135.129C76.413 135.212 76.6193 135.299 76.8365 135.392C79.2735 136.485 85.3659 137.081 96.6369 137.578C124.56 138.671 134.714 141.653 143.548 151.591C147.61 155.963 152.992 165.703 152.992 168.386C152.992 169.181 153.601 172.262 154.413 175.243C155.226 178.125 156.139 183.889 156.546 188.063C157.256 195.417 157.358 195.616 160.303 196.212C161.927 196.51 164.669 198.2 166.293 199.889C168.832 202.473 169.238 203.765 169.238 208.336C169.238 211.715 168.629 214.697 167.613 216.287C164.06 221.554 156.342 223.045 147.915 220.163C145.478 219.368 143.345 218.771 143.142 218.97C142.533 219.666 142.533 224.237 143.244 229.703C144.665 240.337 139.284 242.225 115.117 239.144C103.339 237.654 100.495 237.654 80.6951 239.045C50.4361 241.231 44.1406 240.138 46.5776 233.48C48.913 227.02 62.2148 222.349 83.4366 220.759C89.0213 220.262 92.1691 219.865 90.3414 219.765C85.6705 219.566 74.0949 213.305 69.6272 208.635C56.1223 194.324 68.8149 170.771 88.0059 174.547C90.7475 175.144 93.083 175.342 93.083 174.945C93.083 173.355 87.3967 171.964 81.2028 171.964C75.7196 171.964 73.7903 172.46 70.2364 174.647C67.7995 176.237 64.6517 179.318 63.1286 181.703C60.5901 185.579 60.387 186.672 60.5901 194.622C60.6087 195.297 60.627 195.927 60.6441 196.517C60.8063 202.12 60.863 204.081 60.138 205.689C59.7478 206.554 59.1311 207.318 58.1825 208.492C58.0444 208.663 57.8994 208.842 57.747 209.032C56.2239 210.92 54.0915 214.001 52.9746 215.79C51.8577 217.579 50.233 220.063 49.4207 221.256C48.6084 222.349 46.6791 225.032 45.2576 227.219C43.7345 229.306 40.5867 233.281 38.2513 235.865L33.9866 240.635L21.091 240.337L8.29695 240.039L7.99233 236.362C7.6877 233.38 8.19541 232.088 10.4293 230.101C11.8508 228.809 14.7955 227.417 16.8263 227.119C18.8571 226.821 22.1064 226.225 24.0357 225.827L27.5896 225.132L28.1988 217.181C28.5034 212.709 29.8235 206.051 31.1435 202.274C33.8851 194.125 34.2912 179.715 31.8543 171.069L30.4327 165.603L22.6141 164.311C18.2479 163.616 13.8817 162.522 12.8663 162.026C11.8508 161.429 10.1247 161.032 9.10927 161.032C7.99233 161.032 5.75846 159.541 3.93073 157.752C0.884525 154.671 0.68143 153.976 0.68143 147.516C0.68143 141.553 1.18914 139.566 4.13379 134C9.82004 123.069 14.5924 117.702 24.0357 111.541C29.5188 108.062 29.8235 107.963 40.3836 107.764L51.1469 107.466L59.067 100.013C67.5477 91.7124 97.6262 72.2601 108.619 83.0187ZM22.208 128.535C20.6848 129.727 20.5833 133.603 22.0049 136.286C24.5434 140.858 33.7835 136.286 32.4635 131.218C31.3465 127.243 25.8634 125.851 22.208 128.535ZM146.796 232.311C153.929 233.621 161.942 234.211 165.343 233.335L168.685 232.55L165.477 228.364C164.014 226.491 163.001 224.665 162.497 223.178C159.223 223.651 155.474 223.198 151.577 221.758C149.083 220.878 146.901 220.219 146.693 220.439C146.069 221.208 146.069 226.265 146.796 232.311ZM165.111 222.569C166.839 226.256 175.628 232.832 182.587 235.298C188.201 237.26 193.415 238.045 201.702 238.045C213.466 238.045 215.872 236.344 206.515 234.644C200.098 233.597 196.89 230.719 196.89 226.14C196.89 222.215 200.633 218.944 208.921 215.804C211.461 214.757 217.209 211.748 221.753 209.132C226.165 206.515 231.913 203.899 234.452 203.375L238.997 202.329L235.388 201.151C229.373 199.189 231.111 197.488 238.062 198.404C244.211 199.058 244.745 198.927 247.686 194.871C249.424 192.516 250.761 188.984 250.761 187.022C250.761 178.387 227.501 153.791 214.936 149.212C206.381 146.072 205.713 145.941 206.916 147.773C207.317 148.427 207.45 149.604 207.049 150.258C206.648 150.782 203.841 149.081 200.9 146.334C196.489 142.147 194.484 141.231 190.206 141.231C186.063 141.231 184.859 141.755 184.191 143.979C182.587 148.819 186.196 157.977 191.142 162.033C193.816 164.126 195.152 166.089 194.35 166.612C192.078 168.051 184.057 159.94 182.453 154.707C180.983 149.866 180.582 149.604 175.235 149.604C173.69 149.572 172.211 149.54 170.794 149.51L170.791 149.51C161.211 149.307 154.492 149.164 149.536 149.146C153.132 154.493 156.773 162.067 156.773 164.481C156.773 165.36 157.397 168.768 158.228 172.066C159.059 175.254 159.995 181.631 160.41 186.248C161.138 194.383 161.242 194.603 164.255 195.263C165.918 195.593 168.724 197.462 170.387 199.331C172.985 202.189 173.4 203.618 173.4 208.675C173.4 212.413 172.777 215.711 171.738 217.47C170.201 219.932 167.903 221.649 165.111 222.569ZM221.085 173.939C222.957 173.939 223.625 173.023 223.625 170.668C223.625 168.313 222.957 167.397 220.951 167.397C218.011 167.397 216.139 170.275 217.61 172.63C218.011 173.284 219.615 173.939 221.085 173.939Z" fill="#03486E"/>
</svg>
