<svg width="263" height="326" viewBox="0 0 263 326" fill="none" xmlns="http://www.w3.org/2000/svg">
<path fill-rule="evenodd" clip-rule="evenodd" d="M109.854 132.199C114.943 128.858 121.09 126.709 127.551 126.046C134.04 125.357 142.56 126.789 148.649 129.627C152.308 131.35 155.196 133.472 169.204 144.611C176.179 150.177 189.732 160.971 200.91 169.873L204.654 172.855C209.424 176.654 214.587 180.765 219.403 184.6C226.422 190.188 232.703 195.189 235.958 197.784C239.011 200.205 242.633 203.098 245.861 205.675C248.466 207.755 250.813 209.629 252.397 210.885C255.999 213.749 259.372 216.667 260.058 217.515C261.516 219.319 262.374 221.281 262.774 223.8C263.66 229.37 260.001 235.363 254.055 238.042L251.853 239.023H240.418H228.954V271.617C228.954 302.145 228.976 305.464 228.01 308.465C227.87 308.9 227.709 309.329 227.525 309.833C224.38 318.319 217.09 324.154 208.313 325.214C206.655 325.427 183.784 325.48 131.039 325.427C58.4434 325.335 54.7255 325.499 51.793 324.061C51.3164 323.828 50.8606 323.552 50.1332 323.225C45.3303 321.077 41.7568 317.63 39.1266 312.617C37.6686 309.833 37.0111 307.764 36.5536 304.502C36.4107 303.335 36.2678 289.518 36.2678 270.795V239.076L24.3464 238.944C11.4244 238.838 11.1099 238.811 7.73647 237.273C5.4208 236.212 2.76207 233.666 1.56136 231.359C-0.611368 227.142 -0.525603 223.217 1.87583 218.947L3.24808 216.507L17.428 205.289C25.6638 198.773 36.0622 190.535 46.8027 182.019V129.842C46.8027 128.305 48.0487 127.059 49.5857 127.059H71.0608C72.5978 127.059 73.8438 128.305 73.8438 129.842V160.568C84.3587 152.223 93.5408 144.93 99.2768 140.367C104.137 136.495 108.911 132.836 109.854 132.199ZM192.647 225.339C188.044 216.481 179.553 210.434 169.233 208.657C164.401 207.835 157.426 208.313 152.88 209.798C144.933 212.397 137.843 218.311 134.298 225.312L133.411 227.116L132.439 225.365C128.18 217.674 120.69 211.999 111.856 209.824C108.654 209.029 101.993 208.843 98.3905 209.426C85.6686 211.469 75.3482 220.83 72.7181 232.658C71.889 236.265 72.0034 241.543 72.9754 245.521C74.0045 249.711 74.8908 252.098 76.6061 255.466C83.6674 269.23 102.965 284.877 129.323 298.243C131.553 299.357 133.526 300.285 133.726 300.285C134.841 300.285 146.534 294.053 154.052 289.465C174.607 276.947 187.815 264.111 192.732 251.886C193.962 248.836 195.191 244.062 195.534 241.012C196.135 235.761 195.077 230.033 192.647 225.339Z" fill="#03486E"/>
<path d="M79.7037 83.5251C83.5347 84.1847 86.6864 86.4292 88.395 89.7172C89.297 91.4596 89.6896 93.586 89.4668 95.5352C89.3394 96.6673 88.8831 98.4393 88.4268 99.5714C86.6015 104.11 81.6988 108.874 74.0687 113.521C71.2778 115.224 66.9374 117.537 66.5236 117.537C66.4493 117.537 65.7171 117.193 64.8893 116.779C55.105 111.818 47.9419 106.01 45.3207 100.9C44.684 99.6501 44.355 98.7641 43.973 97.2087C43.6122 95.7321 43.5697 93.7731 43.8775 92.4342C44.8538 88.0436 48.6847 84.5686 53.4071 83.8106C54.7442 83.594 57.2168 83.6629 58.4054 83.9582C61.6845 84.7655 64.4648 86.8722 66.046 89.727L66.4068 90.3768L66.7358 89.7073C68.0517 87.1084 70.6835 84.9131 73.6336 83.9484C75.3209 83.3971 77.9103 83.2199 79.7037 83.5251Z" fill="#03486E"/>
<path d="M88.208 38.9294C90.2831 39.2867 91.9902 40.5024 92.9157 42.2834C93.4042 43.2272 93.6169 44.3789 93.4962 45.4347C93.4272 46.0479 93.1801 47.0077 92.9329 47.6209C91.9443 50.079 89.2887 52.6598 85.1559 55.1766C83.6441 56.0991 81.2932 57.3521 81.069 57.3521C81.0288 57.3521 80.6322 57.1655 80.1838 56.9416C74.8842 54.2541 71.0043 51.1081 69.5845 48.3407C69.2396 47.6635 69.0614 47.1836 68.8545 46.3412C68.6591 45.5413 68.6361 44.4802 68.8028 43.755C69.3316 41.3769 71.4066 39.4946 73.9645 39.084C74.6887 38.9667 76.028 39.0041 76.6718 39.164C78.4479 39.6013 79.9539 40.7424 80.8104 42.2887L81.0058 42.6406L81.184 42.278C81.8967 40.8703 83.3222 39.6813 84.9202 39.1587C85.8341 38.8601 87.2366 38.7641 88.208 38.9294Z" fill="#03486E"/>
<path d="M59.1319 0.0803833C61.2069 0.437639 62.9141 1.65338 63.8395 3.43433C64.3281 4.37813 64.5407 5.52988 64.42 6.58566C64.3511 7.19886 64.1039 8.15866 63.8567 8.77186C62.8681 11.23 60.2125 13.8108 56.0797 16.3276C54.568 17.25 52.217 18.5031 51.9929 18.5031C51.9526 18.5031 51.556 18.3165 51.1077 18.0925C45.808 15.4051 41.9281 12.2591 40.5083 9.4917C40.1635 8.81452 39.9853 8.33462 39.7783 7.49213C39.5829 6.6923 39.5599 5.6312 39.7266 4.90602C40.2554 2.52786 42.3305 0.645596 44.8883 0.235016C45.6126 0.117708 46.9519 0.155033 47.5956 0.314999C49.3718 0.752239 50.8777 1.89333 51.7342 3.43966L51.9296 3.79159L52.1078 3.429C52.8206 2.0213 54.2461 0.832224 55.844 0.309668C56.7579 0.0110664 58.1605 -0.0849152 59.1319 0.0803833Z" fill="#03486E"/>
</svg>
