<svg width="493" height="434" viewBox="0 0 493 434" fill="none" xmlns="http://www.w3.org/2000/svg">
<g clip-path="url(#clip0_56_52)">
<g clip-path="url(#clip1_56_52)">
<rect width="246.25" height="434" fill="#0474B5"/>
<path d="M151.357 460C284.052 458.142 395.287 367.533 428.373 244.831L402.173 218.055C402.173 218.055 358.422 154.126 311.308 108.069C258.717 56.6628 232.037 74.8231 213.62 53.3318C195.204 31.8406 122.179 -20.3662 132.268 8.49167C132.908 10.3814 133.517 12.175 134.061 14.0006C130.858 11.5024 127.335 9.29239 124.421 8.84398C117.278 7.72298 140.211 47.951 130.89 81.2608C119.808 83.8872 44.5731 103.681 41.7225 157.681C38.6478 216.006 10.0141 240.636 1.8148 248.226C-11.0287 260.109 47.872 323.43 66.2565 329.579C84.673 335.729 116.894 314.237 116.894 314.237C165.994 306.551 153.727 338.803 153.727 338.803C139.762 392.355 143.83 432.968 151.293 460H151.357Z" fill="#03486E"/>
</g>
<g clip-path="url(#clip2_56_52)">
<rect width="246.25" height="434" transform="translate(246.25)" fill="#03486E"/>
<path d="M665.796 236.102C581.254 88.2147 572.612 104.468 556.996 92.7632C541.318 80.9977 526.429 83.3933 526.429 83.3933C526.429 83.3933 525.641 79.4209 522.518 72.3555C519.394 65.2902 501.352 55.1015 491.952 41.8805C482.551 28.6594 488.01 -2.9073 469.179 0.216013C450.348 3.33933 443.313 83.3326 443.313 83.3326C429.212 84.121 419.782 76.2673 402.528 61.3784C385.274 46.4896 369.809 39.5152 369.809 39.5152C353.737 19.6837 343.549 0.0037485 340.577 0.216013C337.636 0.428277 336.362 13.8009 337.029 23.8683C339.455 61.3481 363.32 121.752 363.32 121.752C346.854 140.583 335.877 165.661 327.265 187.615C318.653 209.569 334.33 238.862 334.33 238.862C334.33 238.862 325.718 256.601 313.953 276.22C302.157 295.809 241.783 324.04 246.514 340.506C251.214 356.972 280.233 367.949 280.233 367.949C302.187 391.48 368.838 381.291 368.838 381.291L412.383 391.328L457.656 444C561.059 420.742 642.447 339.414 665.826 236.072L665.796 236.102Z" fill="#0073B4"/>
</g>
</g>
<defs>
<clipPath id="clip0_56_52">
<rect width="493" height="434" fill="white"/>
</clipPath>
<clipPath id="clip1_56_52">
<rect width="246.25" height="434" fill="white"/>
</clipPath>
<clipPath id="clip2_56_52">
<rect width="246.25" height="434" fill="white" transform="translate(246.25)"/>
</clipPath>
</defs>
</svg>
