<svg width="188" height="211" viewBox="0 0 188 211" fill="none" xmlns="http://www.w3.org/2000/svg">
<g clip-path="url(#clip0_2128_20659)">
<rect width="93.75" height="210" transform="translate(0.5 0.298828)" fill="#0474B5"/>
<path d="M79.1397 239.299C148.083 238.334 205.877 191.256 223.068 127.505L209.455 113.593C209.455 113.593 186.724 80.3774 162.245 56.4476C134.92 29.7389 121.058 39.1743 111.49 28.0082C101.921 16.8421 63.9797 -10.2827 69.2217 4.7108C69.5545 5.69262 69.8707 6.62452 70.1535 7.57305C68.4894 6.27506 66.6589 5.12683 65.1446 4.89385C61.4337 4.31142 73.3486 25.2125 68.5061 42.5191C62.7483 43.8837 23.6586 54.1678 22.1776 82.2245C20.58 112.528 5.703 125.325 1.4429 129.269C-5.23013 135.442 25.3727 168.342 34.9246 171.537C44.4931 174.732 61.234 163.566 61.234 163.566C86.7446 159.572 80.3711 176.329 80.3711 176.329C73.1156 204.153 75.229 225.254 79.1064 239.299H79.1397Z" fill="#03486E"/>
</g>
<g clip-path="url(#clip1_2128_20659)">
<rect width="93.75" height="210" transform="translate(94.25 0.298828)" fill="#03486E"/>
<path d="M312.232 122.969C268.307 46.1321 263.816 54.5768 255.703 48.4954C247.557 42.3824 239.822 43.6271 239.822 43.6271C239.822 43.6271 239.412 41.5632 237.789 37.8923C236.166 34.2213 226.792 28.9276 221.908 22.0585C217.024 15.1893 219.86 -1.21171 210.076 0.411061C200.292 2.03383 196.637 43.5956 196.637 43.5956C189.311 44.0052 184.411 39.9247 175.446 32.1889C166.482 24.4532 158.447 20.8296 158.447 20.8296C150.097 10.5258 144.803 0.300776 143.259 0.411061C141.731 0.521346 141.069 7.46931 141.416 12.7C142.676 32.1732 155.075 63.5572 155.075 63.5572C146.52 73.341 140.817 86.3705 136.343 97.7771C131.868 109.184 140.013 124.403 140.013 124.403C140.013 124.403 135.539 133.62 129.426 143.813C123.297 153.991 91.9291 168.659 94.3869 177.214C96.8289 185.769 111.906 191.472 111.906 191.472C123.313 203.698 157.943 198.404 157.943 198.404L180.567 203.619L204.089 230.986C257.814 218.902 300.1 176.647 312.247 122.954L312.232 122.969Z" fill="#0073B4"/>
</g>
<defs>
<clipPath id="clip0_2128_20659">
<rect width="93.75" height="210" fill="white" transform="translate(0.5 0.298828)"/>
</clipPath>
<clipPath id="clip1_2128_20659">
<rect width="93.75" height="210" fill="white" transform="translate(94.25 0.298828)"/>
</clipPath>
</defs>
</svg>
