<svg width="247" height="434" viewBox="0 0 247 434" fill="none" xmlns="http://www.w3.org/2000/svg">
<g clip-path="url(#clip0_57_71)">
<rect width="246.25" height="434" transform="translate(0.25)" fill="#03486E"/>
<path d="M419.796 236.102C335.254 88.2147 326.612 104.468 310.996 92.7632C295.318 80.9977 280.429 83.3933 280.429 83.3933C280.429 83.3933 279.641 79.4209 276.518 72.3555C273.394 65.2902 255.352 55.1015 245.952 41.8805C236.551 28.6594 242.01 -2.9073 223.179 0.216013C204.348 3.33933 197.313 83.3326 197.313 83.3326C183.212 84.121 173.782 76.2673 156.528 61.3784C139.274 46.4896 123.809 39.5152 123.809 39.5152C107.737 19.6837 97.5486 0.0037485 94.5769 0.216013C91.6355 0.428277 90.362 13.8009 91.0291 23.8683C93.4549 61.3481 117.32 121.752 117.32 121.752C100.854 140.583 89.8768 165.661 81.2649 187.615C72.653 209.569 88.3303 238.862 88.3303 238.862C88.3303 238.862 79.7184 256.601 67.9529 276.22C56.1571 295.809 -4.21695 324.04 0.513513 340.506C5.21365 356.972 34.2332 367.949 34.2332 367.949C56.1874 391.48 122.838 381.291 122.838 381.291L166.383 391.328L211.656 444C315.059 420.742 396.447 339.414 419.826 236.072L419.796 236.102Z" fill="#0073B4"/>
</g>
<defs>
<clipPath id="clip0_57_71">
<rect width="246.25" height="434" fill="white" transform="translate(0.25)"/>
</clipPath>
</defs>
</svg>
