<svg width="247" height="434" viewBox="0 0 247 434" fill="none" xmlns="http://www.w3.org/2000/svg">
<g clip-path="url(#clip0_57_70)">
<rect width="246.25" height="434" fill="#0474B5"/>
<path d="M151.357 460C284.052 458.142 395.287 367.533 428.373 244.831L402.173 218.055C402.173 218.055 358.422 154.126 311.308 108.069C258.717 56.6628 232.037 74.8231 213.62 53.3318C195.204 31.8406 122.179 -20.3662 132.268 8.49167C132.908 10.3814 133.517 12.175 134.061 14.0006C130.858 11.5024 127.335 9.29239 124.421 8.84398C117.278 7.72298 140.211 47.951 130.89 81.2608C119.808 83.8872 44.5731 103.681 41.7225 157.681C38.6478 216.006 10.0141 240.636 1.8148 248.226C-11.0287 260.109 47.872 323.43 66.2565 329.579C84.673 335.729 116.894 314.237 116.894 314.237C165.994 306.551 153.727 338.803 153.727 338.803C139.762 392.355 143.83 432.968 151.293 460H151.357Z" fill="#03486E"/>
</g>
<defs>
<clipPath id="clip0_57_70">
<rect width="246.25" height="434" fill="white"/>
</clipPath>
</defs>
</svg>
