<svg width="210" height="66" viewBox="0 0 210 66" fill="none" xmlns="http://www.w3.org/2000/svg">
<g clip-path="url(#clip0_10_3)">
<g clip-path="url(#clip1_10_3)">
<path d="M39.5516 24.748C39.5516 31.9267 33.6792 37.7462 26.4352 37.7462C19.1912 37.7462 13.3188 31.9267 13.3188 24.748C13.3188 17.5693 14.8567 8.81074 26.4352 13.5631C36.1027 8.81074 39.5516 17.5693 39.5516 24.748Z" fill="white"/>
<path fill-rule="evenodd" clip-rule="evenodd" d="M1.83638 17.8458C2.22042 0.538879 20.4812 -2.63264 26.6508 12.3948C32.9814 -1.82738 51.4528 1.24501 51.3042 18.6015C51.2422 26.3568 45.3204 34.9861 40.0057 38.1576C38.804 38.8761 37.6271 39.5822 36.5617 40.3132C31.2841 43.9183 26.7375 43.9238 26.1676 46.0175C25.573 43.8619 20.0381 41.4919 14.4508 37.7133C13.5836 37.1187 12.6421 36.5364 11.6758 35.9418C6.27433 32.5597 1.65055 25.9232 1.83638 17.8582V17.8458ZM29.8594 35.0412C31.2346 35.4129 34.3441 34.781 33.7247 31.9192C33.3531 30.222 32.9938 29.7265 32.4982 29.0575C32.1637 28.5991 31.7673 28.054 31.2718 26.9886C30.0329 24.3622 29.0418 22.7764 26.7994 22.8508C24.5571 22.9251 23.3182 24.771 22.3148 27.0133C21.9183 27.8929 21.5467 28.4132 21.1998 28.884C20.6795 29.6026 20.2211 30.2344 19.837 31.9688C19.2176 34.8305 22.3272 35.4376 23.7023 35.0659C25.0774 34.6943 26.7871 34.0749 26.7871 34.0749C26.7871 34.0749 28.4843 34.6819 29.8594 35.0536V35.0412ZM33.8486 17.9696C33.2291 20.1005 31.3585 21.4261 29.6736 20.9429C27.9888 20.4598 27.1092 18.3537 27.7286 16.2229C28.348 14.092 30.2187 12.7664 31.9036 13.2496C33.5884 13.7327 34.468 15.8388 33.8486 17.9696ZM32.2133 22.6773C33.0557 20.6332 35.0503 19.5059 36.6732 20.1625C38.2961 20.819 38.9403 23.0119 38.0979 25.056C37.2555 27.1001 35.2609 28.2274 33.638 27.5708C32.0151 26.9142 31.3709 24.7214 32.2133 22.6773ZM25.8579 16.2476C26.465 18.3661 25.5978 20.4845 23.9129 20.9677C22.2281 21.4632 20.3574 20.1377 19.7504 18.0192C19.1433 15.9008 20.0105 13.7823 21.6953 13.2991C23.3802 12.8036 25.2509 14.1292 25.8579 16.2476ZM21.3733 22.7145C22.2157 24.7586 21.5714 26.9514 19.9485 27.6204C18.3256 28.2894 16.3187 27.1744 15.4887 25.1303C14.6462 23.0862 15.2904 20.8934 16.9133 20.2244C18.5363 19.5554 20.5432 20.6704 21.3733 22.7145Z" fill="#CB1517"/>
<path fill-rule="evenodd" clip-rule="evenodd" d="M52.9898 16.4428C52.99 16.3999 52.99 16.3567 52.99 16.3133C52.9901 12.0799 49.2859 2.55476 38.967 1.49642C36.9182 1.28629 34.3993 1.39602 32.1173 2.08687C30.7455 2.43432 29.7348 2.97353 28.9248 3.61728C27.903 4.35661 27.0605 5.31106 26.5146 6.52391C26.0258 7.60884 26.1436 8.27017 26.468 8.3296C26.5897 8.35212 26.7524 8.08997 26.9081 7.75402C26.8351 7.94979 26.7618 8.14763 26.6943 8.3321C26.3954 9.14801 26.2981 10.1441 26.4989 10.5401C26.6997 10.9361 27.2054 10.5687 27.2993 10.026C27.3603 9.67394 27.7843 8.70898 28.0746 8.07469C27.9417 8.37306 27.7779 8.75973 27.6241 9.17515C27.2854 10.0899 27.2677 11.2243 27.6419 11.3731C27.9158 11.482 28.0925 10.9411 28.2791 10.3696C28.3475 10.1602 28.4172 9.9468 28.4936 9.75971C28.7782 9.06194 29.5955 7.86745 29.5955 7.86745C29.5955 7.86745 29.0632 8.84659 28.7394 9.55331C28.4161 10.2608 28.4332 11.0249 28.8557 10.9905C29.1278 10.9683 29.2768 10.6278 29.4779 10.1681C29.589 9.91421 29.716 9.62395 29.8885 9.33097C30.3733 8.50645 31.4784 7.80001 31.4784 7.80001C31.4784 7.80001 31.1587 8.82967 31.1834 9.1605C31.2086 9.49208 31.4048 9.80779 31.7547 9.89797C31.9527 9.94899 32.1968 9.51003 32.5224 8.92459C32.7723 8.47517 33.0702 7.93942 33.4321 7.47276C33.9725 6.77582 37.7999 6.44119 41.1876 7.40079C44.9826 9.38038 47.4317 13.4698 47.4317 18.1828C47.4317 24.2794 42.9445 32.3004 34.667 39.1264C32.2716 41.1018 29.5587 42.9771 26.5454 44.6767C23.532 42.9771 20.8461 41.1018 18.4926 39.1264C10.3598 32.3004 6.19485 24.2794 6.19485 18.1828C6.19485 16.1534 6.59889 14.1568 7.3494 12.3622C9.57191 8.16877 14.8969 6.81859 16.2797 8.86616C17.4426 10.588 20.1495 10.8106 21.1323 10.6104C21.9961 10.4345 22.1845 9.98501 22.2793 9.75893C22.317 9.66895 22.3399 9.61436 22.3846 9.62647C23.458 9.91718 24.017 9.26868 23.8605 8.37419C24.8892 8.82143 25.0904 7.90458 24.8444 7.16663C26.2309 6.13797 23.8605 4.47757 23.0778 3.96883C19.8319 1.85894 16.3856 1.44526 13.4829 1.71901C6.28674 2.2364 -0.493173 7.2876 0.0282496 18.1828C0.462379 27.2543 6.66052 37.5627 16.5676 45.6069C19.3936 47.9015 22.5213 50.0119 25.9031 51.8568C26.1035 51.9659 26.3235 52.0196 26.5445 52.0196C26.7654 52.0196 26.9863 51.965 27.1858 51.8568C30.5899 49.9999 33.7682 47.8918 36.6516 45.6069C46.6761 37.6634 53.1374 27.582 53.1374 18.4818C53.1374 17.8086 53.0873 17.1267 52.9898 16.4428Z" fill="#0073B4"/>
<path d="M52.99 16.3133L52.7664 16.3133V16.3133H52.99ZM52.9898 16.4428L52.7662 16.4421C52.7662 16.4529 52.7669 16.4637 52.7684 16.4744L52.9898 16.4428ZM38.967 1.49642L38.9442 1.71887L38.967 1.49642ZM32.1173 2.08687L32.1723 2.30388L32.1821 2.3009L32.1173 2.08687ZM28.9248 3.61728L29.056 3.79863L29.0639 3.79235L28.9248 3.61728ZM26.5146 6.52391L26.7185 6.61576L26.7185 6.6157L26.5146 6.52391ZM26.468 8.3296L26.5087 8.10971L26.5083 8.10964L26.468 8.3296ZM26.9081 7.75402L27.1176 7.83217C27.1596 7.71959 27.1051 7.59395 26.9942 7.54766C26.8834 7.50137 26.7557 7.55098 26.7052 7.66L26.9081 7.75402ZM26.6943 8.3321L26.9042 8.40902L26.9042 8.40899L26.6943 8.3321ZM26.4989 10.5401L26.6983 10.439V10.439L26.4989 10.5401ZM27.2993 10.026L27.5197 10.0642V10.0642L27.2993 10.026ZM28.0746 8.07469L28.2788 8.16569C28.3289 8.05327 28.2788 7.92153 28.1666 7.87088C28.0544 7.82024 27.9224 7.86974 27.8712 7.98164L28.0746 8.07469ZM27.6241 9.17515L27.4144 9.0975L27.6241 9.17515ZM27.6419 11.3731L27.7245 11.1653L27.6419 11.3731ZM28.2791 10.3696L28.0666 10.3002V10.3002L28.2791 10.3696ZM28.4936 9.75971L28.7006 9.84418V9.84418L28.4936 9.75971ZM29.5955 7.86745L29.792 7.97426C29.8489 7.86965 29.8138 7.73882 29.7122 7.67669C29.6106 7.61455 29.4782 7.6429 29.411 7.74117L29.5955 7.86745ZM28.7394 9.55331L28.5361 9.46017L28.536 9.46037L28.7394 9.55331ZM28.8557 10.9905L28.8738 11.2134L28.8557 10.9905ZM29.4779 10.1681L29.6828 10.2578V10.2578L29.4779 10.1681ZM29.8885 9.33097L30.0812 9.4444L30.0812 9.44432L29.8885 9.33097ZM31.4784 7.80001L31.6919 7.8663C31.7198 7.77663 31.6886 7.67912 31.614 7.62219C31.5393 7.56525 31.437 7.56102 31.3579 7.61159L31.4784 7.80001ZM31.1834 9.1605L30.9604 9.17716L30.9605 9.17743L31.1834 9.1605ZM31.7547 9.89797L31.6989 10.1145L31.6989 10.1145L31.7547 9.89797ZM32.5224 8.92459L32.3269 8.81591V8.81591L32.5224 8.92459ZM33.4321 7.47276L33.6088 7.6098L33.4321 7.47276ZM41.1876 7.40079L41.291 7.20252C41.2775 7.19545 41.2632 7.18979 41.2485 7.18563L41.1876 7.40079ZM34.667 39.1264L34.5247 38.9539L34.667 39.1264ZM26.5454 44.6767L26.4355 44.8715C26.5037 44.9099 26.587 44.9099 26.6552 44.8715L26.5454 44.6767ZM18.4926 39.1264L18.6364 38.9551L18.4926 39.1264ZM7.3494 12.3622L7.15181 12.2575C7.14863 12.2635 7.14572 12.2697 7.14309 12.2759L7.3494 12.3622ZM16.2797 8.86616L16.465 8.74101L16.2797 8.86616ZM21.1323 10.6104L21.177 10.8295L21.1323 10.6104ZM22.2793 9.75893L22.4855 9.84539H22.4855L22.2793 9.75893ZM22.3846 9.62647L22.3261 9.84232H22.3261L22.3846 9.62647ZM23.8605 8.37419L23.9497 8.16911C23.8742 8.1363 23.7868 8.14758 23.7222 8.19849C23.6575 8.24939 23.6261 8.33168 23.6402 8.41274L23.8605 8.37419ZM24.8444 7.16663L24.7112 6.98704C24.6336 7.04465 24.6017 7.14563 24.6323 7.23735L24.8444 7.16663ZM23.0778 3.96883L23.1997 3.78134L23.0778 3.96883ZM13.4829 1.71901L13.4989 1.94211L13.5039 1.94165L13.4829 1.71901ZM0.0282496 18.1828L0.251616 18.1722L0.0282496 18.1828ZM16.5676 45.6069L16.4266 45.7805L16.5676 45.6069ZM25.9031 51.8568L25.796 52.0531L25.7962 52.0531L25.9031 51.8568ZM27.1858 51.8568L27.2925 52.0533L27.2929 52.0531L27.1858 51.8568ZM36.6516 45.6069L36.7905 45.7822L36.6516 45.6069ZM52.7664 16.3133C52.7664 16.3564 52.7663 16.3994 52.7662 16.4421L53.2135 16.4435C53.2136 16.4003 53.2137 16.3569 53.2137 16.3133H52.7664ZM38.9442 1.71887C44.0309 2.24059 47.4828 4.84613 49.6673 7.84585C51.8575 10.8532 52.7664 14.2473 52.7664 16.3133L53.2137 16.3133C53.2137 14.1458 52.2705 10.6607 50.0289 7.58256C47.7816 4.49678 44.2219 1.81059 38.9898 1.27396L38.9442 1.71887ZM32.1821 2.3009C34.4299 1.62041 36.9181 1.51107 38.9442 1.71887L38.9898 1.27396C36.9183 1.06151 34.3688 1.17163 32.0525 1.87285L32.1821 2.3009ZM29.0639 3.79235C29.8486 3.16873 30.8305 2.64348 32.1722 2.30365L32.0624 1.8701C30.6605 2.22515 29.621 2.77832 28.7857 3.44221L29.0639 3.79235ZM26.7185 6.6157C27.2464 5.44297 28.0615 4.51791 29.0559 3.79845L28.7937 3.4361C27.7444 4.1953 26.8747 5.17916 26.3107 6.43212L26.7185 6.6157ZM26.5083 8.10964C26.5052 8.10907 26.488 8.10691 26.4647 8.06547C26.4391 8.01981 26.4137 7.93663 26.4099 7.80486C26.4023 7.54205 26.4822 7.14024 26.7185 6.61576L26.3107 6.43206C26.0582 6.9925 25.9526 7.46382 25.9628 7.81778C25.9679 7.99438 26.0023 8.15548 26.0747 8.28445C26.1495 8.41762 26.2687 8.52042 26.4277 8.54956L26.5083 8.10964ZM26.7052 7.66C26.6291 7.82413 26.5566 7.95834 26.4938 8.04563C26.4618 8.09005 26.4401 8.11133 26.4302 8.1189C26.4177 8.12849 26.4491 8.09868 26.5087 8.10971L26.4273 8.54949C26.5478 8.57178 26.6452 8.51764 26.7022 8.47393C26.762 8.42817 26.8134 8.36715 26.8568 8.30685C26.9447 8.1847 27.0314 8.01986 27.111 7.84805L26.7052 7.66ZM26.9042 8.40899C26.9716 8.22506 27.0447 8.02766 27.1176 7.83217L26.6986 7.67588C26.6255 7.87193 26.552 8.07021 26.4843 8.25522L26.9042 8.40899ZM26.6983 10.439C26.6664 10.376 26.6387 10.2713 26.6254 10.1229C26.6124 9.97769 26.6145 9.80445 26.6319 9.61393C26.6667 9.23253 26.7615 8.79855 26.9042 8.40902L26.4843 8.25519C26.3281 8.68157 26.2248 9.15361 26.1865 9.57325C26.1673 9.78326 26.164 9.98429 26.1799 10.1627C26.1956 10.3379 26.231 10.5063 26.2995 10.6413L26.6983 10.439ZM27.079 9.98788C27.0409 10.208 26.9199 10.3783 26.8141 10.4497C26.7617 10.4851 26.7343 10.4829 26.732 10.4826C26.7319 10.4825 26.731 10.4828 26.7275 10.4799C26.7231 10.4764 26.7118 10.4656 26.6983 10.439L26.2995 10.6413C26.3746 10.7895 26.4972 10.897 26.659 10.9238C26.8109 10.949 26.9535 10.8953 27.0643 10.8204C27.285 10.6715 27.4638 10.3867 27.5197 10.0642L27.079 9.98788ZM27.8712 7.98164C27.7256 8.29987 27.5457 8.70269 27.3942 9.07114C27.2465 9.43034 27.1145 9.78311 27.079 9.98788L27.5197 10.0642C27.5452 9.91686 27.6557 9.61111 27.8078 9.24123C27.9561 8.8806 28.1333 8.4838 28.2779 8.16774L27.8712 7.98164ZM27.8338 9.25281C27.9855 8.84314 28.1473 8.46107 28.2788 8.16569L27.8703 7.9837C27.7361 8.28504 27.5704 8.67633 27.4144 9.0975L27.8338 9.25281ZM27.7245 11.1653C27.7243 11.1652 27.6849 11.1462 27.6464 11.0269C27.6105 10.9156 27.5893 10.7567 27.5893 10.5614C27.5893 10.1725 27.6733 9.68642 27.8338 9.25281L27.4144 9.0975C27.2362 9.57866 27.142 10.1172 27.142 10.5614C27.142 10.7827 27.1654 10.9924 27.2208 11.1642C27.2736 11.328 27.3724 11.5066 27.5593 11.5809L27.7245 11.1653ZM28.0666 10.3002C27.971 10.5929 27.8863 10.8498 27.7954 11.0222C27.7493 11.1097 27.714 11.1504 27.695 11.1649C27.688 11.1703 27.6905 11.1664 27.7018 11.1644C27.7072 11.1635 27.7127 11.1633 27.7176 11.1639C27.7224 11.1644 27.7248 11.1654 27.7245 11.1653L27.5593 11.5809C27.7119 11.6416 27.8562 11.6046 27.9666 11.5203C28.0635 11.4462 28.1354 11.3363 28.1911 11.2307C28.3037 11.017 28.4007 10.7178 28.4917 10.439L28.0666 10.3002ZM28.2865 9.67524C28.2066 9.87116 28.1344 10.0926 28.0666 10.3002L28.4917 10.439C28.5607 10.2278 28.6279 10.0224 28.7006 9.84418L28.2865 9.67524ZM29.5955 7.86745C29.411 7.74117 29.411 7.74119 29.4109 7.74121C29.4109 7.74122 29.4109 7.74124 29.4109 7.74127C29.4109 7.74132 29.4108 7.74138 29.4108 7.74147C29.4106 7.74164 29.4105 7.74189 29.4103 7.7422C29.4098 7.74283 29.4092 7.74375 29.4084 7.74494C29.4068 7.74734 29.4044 7.75085 29.4013 7.75542C29.3951 7.76457 29.386 7.77799 29.3743 7.79526C29.3511 7.8298 29.3177 7.87976 29.2767 7.94185C29.1948 8.06595 29.0827 8.2388 28.9614 8.43384C28.7215 8.81965 28.4368 9.307 28.2865 9.67524L28.7006 9.84418C28.8351 9.51466 29.1013 9.05587 29.3412 8.66999C29.4598 8.47918 29.5698 8.3098 29.65 8.18813C29.6901 8.12733 29.7228 8.07852 29.7454 8.04501C29.7566 8.02825 29.7654 8.01533 29.7713 8.00664C29.7742 8.0023 29.7765 7.99902 29.7779 7.99685C29.7787 7.99576 29.7792 7.99495 29.7796 7.99443C29.7798 7.99417 29.7799 7.99398 29.78 7.99386C29.78 7.9938 29.7801 7.99376 29.7801 7.99374C29.7801 7.99373 29.7801 7.99372 29.7801 7.99372C29.7801 7.99372 29.7801 7.99372 29.5955 7.86745ZM28.9427 9.64645C29.1022 9.29836 29.3141 8.88093 29.4872 8.54868C29.5735 8.38296 29.6498 8.23919 29.7045 8.13689C29.7318 8.08575 29.7538 8.045 29.7688 8.01707C29.7764 8.00311 29.7822 7.99236 29.7861 7.98512C29.7881 7.9815 29.7895 7.97876 29.7905 7.97694C29.791 7.97603 29.7914 7.97534 29.7916 7.9749C29.7918 7.97467 29.7919 7.97451 29.7919 7.9744C29.7919 7.97435 29.792 7.97431 29.792 7.97428C29.792 7.97427 29.792 7.97427 29.792 7.97426C29.792 7.97426 29.792 7.97426 29.5955 7.86745C29.3991 7.76064 29.3991 7.76064 29.399 7.76066C29.399 7.76067 29.399 7.76068 29.399 7.7607C29.399 7.76074 29.399 7.76079 29.3989 7.76085C29.3989 7.76098 29.3988 7.76117 29.3986 7.76142C29.3984 7.76192 29.398 7.76265 29.3974 7.76362C29.3964 7.76554 29.3949 7.76839 29.3928 7.77211C29.3888 7.77956 29.3829 7.79053 29.3752 7.80473C29.3599 7.83311 29.3377 7.87437 29.3101 7.92607C29.2548 8.02944 29.1778 8.17463 29.0906 8.34204C28.9166 8.67604 28.7004 9.10154 28.5361 9.46017L28.9427 9.64645ZM28.8375 10.7676C28.8126 10.7697 28.807 10.7657 28.7954 10.7494C28.7741 10.7199 28.7482 10.6534 28.7411 10.5366C28.7272 10.3069 28.7922 9.97586 28.9428 9.64626L28.536 9.46037C28.3634 9.83823 28.2753 10.243 28.2947 10.5636C28.3043 10.722 28.3416 10.8844 28.4322 11.0105C28.5325 11.15 28.6875 11.2286 28.8738 11.2134L28.8375 10.7676ZM29.2731 10.0785C29.1697 10.3148 29.0904 10.4942 29.0071 10.6198C28.9243 10.7446 28.8711 10.7649 28.8375 10.7676L28.8738 11.2134C29.1124 11.1939 29.2697 11.0329 29.3798 10.867C29.4894 10.7018 29.5851 10.4811 29.6828 10.2578L29.2731 10.0785ZM29.6957 9.21754C29.5156 9.52363 29.3837 9.82558 29.2731 10.0785L29.6828 10.2578C29.7943 10.0028 29.9165 9.72427 30.0812 9.4444L29.6957 9.21754ZM31.4784 7.80001C31.3579 7.61159 31.3579 7.61162 31.3578 7.61164C31.3578 7.61165 31.3578 7.61168 31.3577 7.6117C31.3577 7.61175 31.3576 7.61181 31.3575 7.61188C31.3573 7.61202 31.357 7.6122 31.3566 7.61242C31.3559 7.61287 31.355 7.61349 31.3537 7.61428C31.3513 7.61586 31.3478 7.61812 31.3434 7.62104C31.3344 7.62687 31.3216 7.63535 31.3053 7.64633C31.2726 7.66827 31.2259 7.70023 31.1685 7.74107C31.0538 7.82265 30.896 7.94012 30.7224 8.08424C30.3793 8.36908 29.958 8.77163 29.6957 9.21762L30.0812 9.44432C30.3038 9.06579 30.6774 8.70286 31.0081 8.42835C31.1714 8.29279 31.3201 8.18211 31.4278 8.10547C31.4816 8.06719 31.525 8.03753 31.5546 8.01762C31.5694 8.00767 31.5808 8.00016 31.5883 7.99524C31.5921 7.99278 31.5948 7.99097 31.5966 7.98983C31.5975 7.98926 31.5981 7.98885 31.5985 7.98862C31.5987 7.9885 31.5988 7.98842 31.5989 7.98839C31.5989 7.98837 31.5989 7.98837 31.5989 7.98837C31.5989 7.98837 31.5989 7.98839 31.5989 7.98839C31.5988 7.9884 31.5988 7.98842 31.4784 7.80001ZM31.4065 9.14385C31.4026 9.09275 31.4126 8.99162 31.439 8.84907C31.4642 8.71307 31.5004 8.55883 31.5382 8.41188C31.5759 8.26541 31.6144 8.12873 31.6435 8.02851C31.6581 7.97847 31.6703 7.93768 31.6788 7.9095C31.683 7.89541 31.6863 7.88449 31.6886 7.87715C31.6897 7.87348 31.6906 7.8707 31.6911 7.86888C31.6914 7.86796 31.6916 7.86729 31.6918 7.86686C31.6918 7.86664 31.6919 7.86649 31.6919 7.86639C31.6919 7.86635 31.6919 7.86632 31.6919 7.8663C31.6919 7.86629 31.6919 7.86629 31.6919 7.86629C31.6919 7.86629 31.6919 7.8663 31.4784 7.80001C31.2648 7.73371 31.2648 7.73373 31.2648 7.73375C31.2648 7.73376 31.2648 7.73378 31.2648 7.73381C31.2647 7.73385 31.2647 7.73392 31.2647 7.73399C31.2647 7.73415 31.2646 7.73437 31.2645 7.73465C31.2643 7.73521 31.2641 7.73602 31.2638 7.73706C31.2631 7.73915 31.2622 7.7422 31.261 7.74615C31.2585 7.75405 31.255 7.76557 31.2506 7.78029C31.2417 7.80971 31.2291 7.85195 31.2141 7.90361C31.1841 8.00679 31.1442 8.1482 31.1051 8.30051C31.066 8.45233 31.027 8.61753 30.9992 8.76764C30.9726 8.91119 30.9519 9.06283 30.9604 9.17716L31.4065 9.14385ZM31.8106 9.68143C31.5761 9.62101 31.4263 9.40549 31.4064 9.14357L30.9605 9.17743C30.9909 9.57868 31.2335 9.99457 31.6989 10.1145L31.8106 9.68143ZM32.3269 8.81591C32.1616 9.11326 32.0262 9.35603 31.9089 9.51973C31.8498 9.60219 31.8056 9.64964 31.7757 9.67279C31.7449 9.69654 31.7639 9.66939 31.8105 9.68143L31.6989 10.1145C31.8446 10.1521 31.9683 10.0892 32.0492 10.0267C32.1308 9.96358 32.2051 9.87426 32.2725 9.78018C32.4082 9.5908 32.5576 9.32136 32.7178 9.03327L32.3269 8.81591ZM33.2554 7.33573C32.8813 7.81804 32.5755 8.36881 32.3269 8.81591L32.7178 9.03327C32.969 8.58152 33.259 8.06081 33.6088 7.6098L33.2554 7.33573ZM41.2485 7.18563C39.5292 6.69862 37.7019 6.54057 36.2343 6.59209C35.5005 6.61784 34.8503 6.69619 34.3444 6.81483C34.0917 6.8741 33.8696 6.94466 33.6891 7.02658C33.513 7.1065 33.3556 7.20647 33.2554 7.33573L33.6088 7.6098C33.6437 7.56482 33.724 7.50188 33.874 7.43384C34.0194 7.36782 34.2115 7.30538 34.4465 7.25027C34.9161 7.14014 35.5359 7.06412 36.25 7.03905C37.6781 6.98892 39.4583 7.14335 41.1266 7.61594L41.2485 7.18563ZM47.6553 18.1828C47.6553 13.3921 45.1647 9.2232 41.291 7.20252L41.0842 7.59905C44.8004 9.53757 47.208 13.5475 47.208 18.1828H47.6553ZM34.8093 39.2989C43.1112 32.4527 47.6553 24.3747 47.6553 18.1828H47.208C47.208 24.184 42.7778 32.148 34.5247 38.9539L34.8093 39.2989ZM26.6552 44.8715C29.6798 43.1655 32.4036 41.2828 34.8093 39.2989L34.5247 38.9539C32.1396 40.9208 29.4376 42.7887 26.4355 44.4819L26.6552 44.8715ZM18.3488 39.2977C20.7131 41.2821 23.4104 43.1652 26.4355 44.8715L26.6552 44.4819C23.6536 42.7889 20.9791 40.9215 18.6364 38.9551L18.3488 39.2977ZM5.97123 18.1828C5.97123 24.3696 10.1874 32.4477 18.3488 39.2977L18.6364 38.9551C10.5321 32.1531 6.41848 24.1891 6.41848 18.1828H5.97123ZM7.14309 12.2759C6.38101 14.0982 5.97123 16.1241 5.97123 18.1828H6.41848C6.41848 16.1826 6.81677 14.2154 7.55571 12.4485L7.14309 12.2759ZM16.465 8.74101C16.0728 8.16018 15.4127 7.8385 14.6427 7.73719C13.8725 7.63585 12.9726 7.75098 12.0575 8.06209C10.2272 8.68431 8.29242 10.1054 7.15181 12.2575L7.54699 12.467C8.62889 10.4256 10.4679 9.07487 12.2014 8.48553C13.0682 8.19086 13.8978 8.09027 14.5844 8.18061C15.2712 8.27097 15.7953 8.54835 16.0944 8.99131L16.465 8.74101ZM21.0877 10.3913C20.6357 10.4834 19.7483 10.4816 18.8298 10.2427C17.9122 10.0039 17.004 9.53906 16.465 8.74101L16.0944 8.99131C16.7183 9.91514 17.7449 10.4225 18.7172 10.6755C19.6886 10.9282 20.6461 10.9377 21.177 10.8295L21.0877 10.3913ZM22.073 9.67248C22.0273 9.78158 21.9706 9.9142 21.8381 10.0433C21.7067 10.1713 21.4846 10.3104 21.0877 10.3913L21.177 10.8295C21.6438 10.7344 21.9478 10.5609 22.1502 10.3636C22.3515 10.1675 22.4365 9.96237 22.4855 9.84539L22.073 9.67248ZM22.4431 9.41063C22.3804 9.39366 22.3116 9.39884 22.2492 9.43215C22.1953 9.46097 22.1625 9.50225 22.1449 9.52798C22.1127 9.57487 22.0879 9.63709 22.073 9.67248L22.4855 9.84539C22.4954 9.8218 22.5022 9.80566 22.5082 9.7926C22.5146 9.77887 22.5163 9.7772 22.5138 9.78085C22.5121 9.7832 22.4958 9.80748 22.4599 9.82665C22.4405 9.83704 22.4173 9.84482 22.3915 9.84746C22.3661 9.85006 22.3437 9.84707 22.3261 9.84232L22.4431 9.41063ZM23.6402 8.41274C23.7098 8.81027 23.6142 9.11039 23.4311 9.28136C23.251 9.44959 22.9319 9.54301 22.4431 9.41063L22.3261 9.84232C22.9107 10.0006 23.4078 9.91516 23.7364 9.6082C24.0621 9.30397 24.1678 8.8326 24.0808 8.33564L23.6402 8.41274ZM24.6323 7.23735C24.7458 7.57796 24.7397 7.91856 24.6352 8.10591C24.5886 8.1894 24.5251 8.23998 24.4355 8.25941C24.3377 8.2806 24.1819 8.2701 23.9497 8.16911L23.7713 8.57926C24.0534 8.7019 24.3086 8.74451 24.5302 8.69652C24.7598 8.64676 24.9242 8.50586 25.0258 8.32381C25.2175 7.98006 25.189 7.49325 25.0566 7.09591L24.6323 7.23735ZM22.956 4.15633C23.3462 4.41 24.1101 4.93733 24.6043 5.51774C24.8533 5.81013 25.0104 6.08929 25.0416 6.33296C25.0696 6.55194 25.0005 6.7724 24.7112 6.98704L24.9777 7.34622C25.3816 7.04653 25.5361 6.67369 25.4852 6.27614C25.4374 5.90327 25.213 5.54267 24.9448 5.22778C24.4048 4.59364 23.5921 4.0364 23.1997 3.78134L22.956 4.15633ZM13.5039 1.94165C16.3696 1.67139 19.7622 2.08037 22.956 4.15633L23.1997 3.78134C19.9015 1.63751 16.4017 1.21914 13.4619 1.49638L13.5039 1.94165ZM0.251616 18.1722C-0.0066801 12.775 1.54305 8.85078 4.02438 6.21244C6.50854 3.57107 9.94625 2.19749 13.4989 1.94206L13.4669 1.49597C9.82338 1.75793 6.27306 3.16864 3.69858 5.90603C1.12127 8.64645 -0.458244 12.6954 -0.195117 18.1935L0.251616 18.1722ZM16.7085 45.4333C6.83057 37.4127 0.681645 27.1579 0.251616 18.1722L-0.195117 18.1935C0.243113 27.3506 6.49046 37.7127 16.4266 45.7805L16.7085 45.4333ZM26.0102 51.6604C22.6404 49.8221 19.524 47.7194 16.7085 45.4333L16.4266 45.7805C19.2631 48.0837 22.4022 50.2017 25.796 52.0531L26.0102 51.6604ZM26.5445 51.7959C26.3599 51.7959 26.1768 51.7512 26.0101 51.6604L25.7962 52.0531C26.0302 52.1806 26.2871 52.2432 26.5445 52.2432V51.7959ZM27.0792 51.6602C26.9129 51.7504 26.7287 51.7959 26.5445 51.7959V52.2432C26.8022 52.2432 27.0598 52.1795 27.2925 52.0533L27.0792 51.6602ZM36.5127 45.4317C33.6394 47.7085 30.4718 49.8095 27.0787 51.6604L27.2929 52.0531C30.708 50.1902 33.8969 48.0751 36.7905 45.7822L36.5127 45.4317ZM52.9138 18.4818C52.9138 27.4835 46.513 37.5073 36.5127 45.4317L36.7905 45.7822C46.8392 37.8195 53.361 27.6806 53.361 18.4818H52.9138ZM52.7684 16.4744C52.8645 17.1484 52.9138 17.8196 52.9138 18.4818H53.361C53.361 17.7975 53.3101 17.1051 53.2112 16.4112L52.7684 16.4744Z" fill="#03486E"/>
<path d="M23.8482 5.9597C23.9276 5.98142 24.3664 6.25527 24.5761 6.56284C24.9115 7.05477 24.9115 7.52123 24.9115 7.83748" stroke="#03486E" stroke-width="0.447244" stroke-linecap="round"/>
<path d="M22.8776 6.90759C22.9558 6.93328 23.3982 7.29611 23.5921 7.61385C23.7861 7.93158 23.8828 8.31604 23.8828 8.73196" stroke="#03486E" stroke-width="0.447244" stroke-linecap="round"/>
<path d="M21.2664 7.65858C21.7808 7.8822 22.1165 8.2088 22.2581 8.55306C22.3998 8.89733 22.402 9.56443 22.2581 9.79095" stroke="#03486E" stroke-width="0.447244" stroke-linecap="round"/>
<path d="M94.8195 0.990234V2.34591C91.1592 2.34591 89.329 6.55803 89.329 10.6379V46.174C89.329 47.8008 89.442 49.0436 89.6679 49.9021C89.939 50.7156 90.4361 51.2804 91.1592 51.5967C91.8822 51.8679 92.9215 52.0035 94.2772 52.0035H96.3785C96.1978 53.811 96.0622 55.5508 95.9718 57.2228C95.9266 58.94 95.904 60.2279 95.904 61.0865C95.904 61.9903 95.9266 62.8037 95.9718 63.5267C96.017 64.2949 96.0622 64.9728 96.1074 65.5602H94.5484C94.0061 62.4422 93.1475 60.002 91.9726 58.2396C90.7976 56.4772 89.3742 55.618 87.7022 54.8497C86.0754 54.1267 84.2452 53.7652 82.2117 53.7652C74.4626 53.7652 51.9593 53.8969 50.8014 54.4437C49.1746 55.2119 47.7737 56.4772 46.5988 58.2396C45.4238 60.002 44.5652 62.4422 44.023 65.5602H42.4639C42.5543 64.9728 42.5995 64.2949 42.5995 63.5267C42.6447 62.8037 42.6673 61.9903 42.6673 61.0865C42.6673 60.2279 42.6221 58.94 42.5317 57.2228C42.4865 55.5508 42.3736 53.811 42.1928 52.0035H71.5696C73.106 52.0035 74.2584 51.8679 75.0266 51.5967C75.84 51.2804 76.3823 50.7156 76.6534 49.9021C76.9245 49.0436 77.0601 47.8008 77.0601 46.174V8.17533C77.0601 6.50333 76.9019 5.26062 76.5856 4.44722C76.3145 3.63381 75.84 3.09154 75.1621 2.8204C74.4843 2.54926 66.694 2.4141 65.8814 2.8204C65.0688 3.2267 65.4129 5.73054 65.831 8.17533C68.8019 25.5472 61.3498 44.9055 45.4433 53.2913L44.6311 52.0035C60.9595 42.5892 67.0234 23.7003 64.272 8.17533C63.9198 6.18835 63.3703 3.89935 61.8256 3.29861C61.0121 2.98228 59.7694 2.80152 58.0974 2.75634V1.40066C68.8703 1.40066 81.0417 1.1258 91.6336 1.1258C92.9441 1.08061 94.0061 1.03542 94.8195 0.990234Z" fill="#0073B4"/>
<path d="M113.772 16.0723C113.772 19.5703 110.91 22.4061 107.38 22.4061C103.851 22.4061 100.989 19.5703 100.989 16.0723C100.989 12.5743 101.739 8.30645 107.38 10.6222C112.091 8.30645 113.772 12.5743 113.772 16.0723Z" fill="white"/>
<path fill-rule="evenodd" clip-rule="evenodd" d="M95.394 12.709C95.5812 4.27577 104.479 2.73036 107.486 10.0529C110.57 3.12275 119.571 4.61985 119.499 13.0773C119.468 16.8562 116.583 18.5767 113.993 20.1221C113.408 20.4722 112.834 20.8163 112.315 21.1725C109.743 22.9291 107.528 25.4163 107.25 26.4365C106.96 25.3861 105.047 22.8929 102.324 21.0518C101.902 20.762 101.443 20.4783 100.972 20.1885C98.34 18.5405 95.3035 16.645 95.394 12.7151V12.709ZM109.049 21.088C109.719 21.2691 111.234 20.9612 110.933 19.5667C110.751 18.7397 110.576 18.4982 110.335 18.1722C110.172 17.9489 109.979 17.6833 109.737 17.1641C109.134 15.8843 108.651 15.1116 107.558 15.1478C106.465 15.1841 105.862 16.0835 105.373 17.1762C105.18 17.6048 104.998 17.8583 104.829 18.0877C104.576 18.4378 104.352 18.7457 104.165 19.5908C103.864 20.9853 105.379 21.2811 106.049 21.1C106.719 20.9189 107.552 20.6171 107.552 20.6171C107.552 20.6171 108.379 20.9129 109.049 21.094V21.088ZM110.993 12.7694C110.691 13.8077 109.779 14.4536 108.958 14.2182C108.138 13.9828 107.709 12.9565 108.011 11.9182C108.313 10.8799 109.224 10.234 110.045 10.4694C110.866 10.7048 111.295 11.7311 110.993 12.7694ZM110.196 15.0633C110.607 14.0673 111.578 13.5179 112.369 13.8379C113.16 14.1578 113.474 15.2263 113.063 16.2224C112.653 17.2185 111.681 17.7678 110.89 17.4478C110.099 17.1279 109.786 16.0594 110.196 15.0633ZM107.099 11.9303C107.395 12.9626 106.972 13.9948 106.151 14.2303C105.33 14.4717 104.419 13.8258 104.123 12.7936C103.827 11.7613 104.25 10.729 105.071 10.4935C105.892 10.2521 106.803 10.898 107.099 11.9303ZM104.914 15.0815C105.324 16.0775 105.01 17.146 104.22 17.472C103.429 17.798 102.451 17.2547 102.046 16.2586C101.636 15.2626 101.95 14.1941 102.741 13.8681C103.532 13.5421 104.509 14.0854 104.914 15.0815Z" fill="#CB1517"/>
<path d="M137.65 5.36808C137.571 6.3005 137.511 7.20316 137.472 8.07607C137.452 8.94898 137.442 9.61358 137.442 10.0699C137.442 10.4666 137.452 10.8535 137.472 11.2304C137.492 11.5875 137.511 11.895 137.531 12.1529H136.847C136.549 10.6055 136.143 9.38543 135.627 8.49269C135.111 7.59994 134.516 6.97502 133.841 6.61792C133.167 6.24098 132.443 6.05251 131.669 6.05251H131.044C130.489 6.05251 130.072 6.10211 129.794 6.20131C129.516 6.28066 129.328 6.45921 129.229 6.73695C129.149 7.0147 129.11 7.45115 129.11 8.04631V23.2825C129.11 23.9372 129.149 24.453 129.229 24.8299C129.308 25.2069 129.457 25.4747 129.675 25.6334C129.913 25.7723 130.26 25.8417 130.717 25.8417C131.57 25.8417 132.234 25.6334 132.71 25.2168C133.206 24.7803 133.554 24.1554 133.752 23.342C133.95 22.5088 134.05 21.5169 134.05 20.3662C134.05 19.2354 133.94 18.2236 133.722 17.3309C133.524 16.4381 133.137 15.7438 132.562 15.2478C132.006 14.732 131.183 14.4741 130.092 14.4741C129.794 14.4741 129.467 14.4741 129.11 14.4741C128.772 14.4741 128.425 14.4741 128.068 14.4741C127.731 14.4741 127.414 14.4741 127.116 14.4741V13.9087C127.711 13.9087 128.306 13.9087 128.901 13.9087C129.497 13.8888 130.042 13.8789 130.538 13.8789C132.304 13.8789 133.772 14.0674 134.942 14.4443C136.113 14.8014 137.035 15.2875 137.71 15.9025C138.404 16.4976 138.9 17.1722 139.198 17.926C139.495 18.6601 139.644 19.4239 139.644 20.2174C139.644 21.0903 139.475 21.9037 139.138 22.6576C138.801 23.4115 138.275 24.0761 137.561 24.6514C136.847 25.2069 135.944 25.6433 134.853 25.9607C133.762 26.2583 132.462 26.4071 130.955 26.4071C130.479 26.4071 129.844 26.3972 129.05 26.3774C128.276 26.3575 127.324 26.3476 126.193 26.3476C125.42 26.3476 124.586 26.3575 123.694 26.3774C122.801 26.3774 122.087 26.3972 121.551 26.4369V25.8417C122.166 25.802 122.622 25.7227 122.92 25.6036C123.237 25.4846 123.446 25.2465 123.545 24.8895C123.664 24.5324 123.723 23.9967 123.723 23.2825V8.52244C123.723 7.78841 123.664 7.25276 123.545 6.9155C123.446 6.5584 123.237 6.32034 122.92 6.20131C122.622 6.06243 122.166 5.98308 121.551 5.96324V5.36808C122.384 5.38791 123.277 5.40775 124.229 5.42759C125.182 5.42759 126.124 5.43751 127.056 5.45735C127.989 5.45735 128.852 5.45735 129.645 5.45735C130.439 5.45735 131.094 5.45735 131.609 5.45735C132.482 5.45735 133.484 5.45735 134.615 5.45735C135.746 5.43751 136.758 5.40775 137.65 5.36808Z" fill="#0073B4"/>
<path d="M141.696 5.36808C142.232 5.38791 142.946 5.40775 143.839 5.42759C144.732 5.44743 145.624 5.45735 146.517 5.45735C147.489 5.45735 148.422 5.44743 149.314 5.42759C150.227 5.40775 150.872 5.39783 151.249 5.39783C154.145 5.39783 156.298 5.9434 157.706 7.03453C159.135 8.12567 159.849 9.53422 159.849 11.2602C159.849 11.9744 159.7 12.7283 159.402 13.5218C159.125 14.2955 158.639 15.0196 157.944 15.6942C157.27 16.3488 156.327 16.8845 155.117 17.3011C153.927 17.7177 152.419 17.926 150.594 17.926H147.499V17.3309H150.296C151.387 17.3309 152.211 17.063 152.766 16.5274C153.342 15.9917 153.728 15.2875 153.927 14.4146C154.145 13.5417 154.254 12.5993 154.254 11.5875C154.254 9.70285 154.006 8.2943 153.51 7.36187C153.014 6.42945 152.171 5.96324 150.981 5.96324C150.247 5.96324 149.771 6.13187 149.552 6.46913C149.354 6.80639 149.255 7.49083 149.255 8.52244V23.0444C149.255 23.838 149.334 24.4332 149.493 24.8299C149.652 25.2069 149.969 25.4549 150.445 25.5739C150.921 25.6929 151.606 25.7624 152.498 25.7822V26.4369C151.844 26.417 151.001 26.3972 149.969 26.3774C148.937 26.3575 147.856 26.3476 146.725 26.3476C145.833 26.3476 144.95 26.3575 144.077 26.3774C143.224 26.3972 142.43 26.417 141.696 26.4369V25.8417C142.311 25.802 142.768 25.7227 143.065 25.6036C143.383 25.4846 143.591 25.2465 143.69 24.8895C143.809 24.5324 143.869 23.9967 143.869 23.2825V8.52244C143.869 7.78841 143.809 7.25276 143.69 6.9155C143.591 6.5584 143.383 6.32034 143.065 6.20131C142.768 6.06243 142.311 5.98308 141.696 5.96324V5.36808Z" fill="#0073B4"/>
<path d="M171.751 5.36808V5.96324C171.096 5.98308 170.6 6.06243 170.263 6.20131C169.946 6.32034 169.727 6.5584 169.608 6.9155C169.509 7.25276 169.459 7.78841 169.459 8.52244V23.2825C169.459 23.957 169.499 24.4828 169.578 24.8597C169.658 25.2168 169.817 25.4747 170.055 25.6334C170.293 25.7723 170.64 25.8417 171.096 25.8417C171.949 25.8417 172.614 25.6334 173.09 25.2168C173.566 24.7803 173.903 24.1554 174.102 23.342C174.3 22.5088 174.399 21.5169 174.399 20.3662C174.399 19.2552 174.29 18.2534 174.072 17.3606C173.874 16.4679 173.497 15.7636 172.941 15.2478C172.386 14.732 171.572 14.4741 170.501 14.4741C170.164 14.4741 169.817 14.4741 169.459 14.4741C169.102 14.4741 168.755 14.4741 168.418 14.4741C168.081 14.4741 167.763 14.4741 167.466 14.4741V13.9087C168.061 13.9087 168.656 13.9087 169.251 13.9087C169.846 13.8888 170.392 13.8789 170.888 13.8789C172.654 13.8789 174.122 14.0475 175.292 14.3848C176.463 14.7022 177.385 15.1387 178.06 15.6942C178.754 16.2497 179.25 16.8944 179.547 17.6285C179.845 18.3426 179.994 19.1064 179.994 19.9198C179.994 20.8126 179.825 21.6557 179.488 22.4493C179.151 23.2428 178.625 23.9372 177.911 24.5324C177.197 25.1077 176.294 25.564 175.203 25.9012C174.112 26.2385 172.812 26.4071 171.304 26.4071C170.848 26.4071 170.213 26.3972 169.4 26.3774C168.606 26.3575 167.674 26.3476 166.603 26.3476C165.789 26.3476 164.936 26.3575 164.043 26.3774C163.151 26.3774 162.437 26.3972 161.901 26.4369V25.8417C162.516 25.802 162.972 25.7227 163.27 25.6036C163.587 25.4846 163.795 25.2465 163.895 24.8895C164.014 24.5324 164.073 23.9967 164.073 23.2825V8.52244C164.073 7.78841 164.014 7.25276 163.895 6.9155C163.795 6.5584 163.587 6.32034 163.27 6.20131C162.972 6.06243 162.516 5.98308 161.901 5.96324V5.36808C162.437 5.38791 163.151 5.40775 164.043 5.42759C164.936 5.44743 165.888 5.45735 166.9 5.45735C167.813 5.45735 168.706 5.44743 169.578 5.42759C170.451 5.40775 171.176 5.38791 171.751 5.36808ZM191.094 5.36808V5.96324C190.479 5.98308 190.012 6.06243 189.695 6.20131C189.378 6.32034 189.169 6.5584 189.07 6.9155C188.971 7.25276 188.921 7.78841 188.921 8.52244V23.2825C188.921 23.9967 188.971 24.5324 189.07 24.8895C189.189 25.2465 189.397 25.4846 189.695 25.6036C190.012 25.7227 190.479 25.802 191.094 25.8417V26.4369C190.538 26.3972 189.824 26.3774 188.951 26.3774C188.098 26.3575 187.235 26.3476 186.362 26.3476C185.35 26.3476 184.398 26.3575 183.505 26.3774C182.613 26.3774 181.898 26.3972 181.363 26.4369V25.8417C181.978 25.802 182.434 25.7227 182.732 25.6036C183.049 25.4846 183.257 25.2465 183.357 24.8895C183.476 24.5324 183.535 23.9967 183.535 23.2825V8.52244C183.535 7.78841 183.476 7.25276 183.357 6.9155C183.257 6.5584 183.049 6.32034 182.732 6.20131C182.434 6.06243 181.978 5.98308 181.363 5.96324V5.36808C181.898 5.38791 182.613 5.40775 183.505 5.42759C184.398 5.44743 185.35 5.45735 186.362 5.45735C187.235 5.45735 188.098 5.44743 188.951 5.42759C189.824 5.40775 190.538 5.38791 191.094 5.36808Z" fill="#0073B4"/>
<path d="M209.423 5.36808C209.344 6.3005 209.285 7.20316 209.245 8.07607C209.225 8.94898 209.215 9.61358 209.215 10.0699C209.215 10.4666 209.225 10.8535 209.245 11.2304C209.265 11.6074 209.285 11.9149 209.304 12.1529H208.62C208.402 10.6055 208.045 9.38543 207.549 8.49269C207.073 7.59994 206.477 6.97502 205.763 6.61792C205.069 6.24098 204.295 6.05251 203.442 6.05251H202.639C202.103 6.05251 201.686 6.10211 201.389 6.20131C201.111 6.28066 200.923 6.45921 200.823 6.73695C200.744 7.0147 200.704 7.45115 200.704 8.04631V23.7586C200.704 24.334 200.744 24.7704 200.823 25.068C200.923 25.3457 201.111 25.5342 201.389 25.6334C201.686 25.7128 202.103 25.7524 202.639 25.7524H203.859C204.632 25.7524 205.366 25.5541 206.061 25.1573C206.775 24.7407 207.41 24.0463 207.965 23.0742C208.521 22.0823 208.937 20.7431 209.215 19.0568H209.9C209.84 19.7314 209.81 20.6043 209.81 21.6756C209.81 22.1517 209.82 22.8262 209.84 23.6991C209.86 24.572 209.919 25.4846 210.019 26.4369C209.007 26.3972 207.866 26.3774 206.596 26.3774C205.327 26.3575 204.196 26.3476 203.204 26.3476C202.688 26.3476 202.034 26.3476 201.24 26.3476C200.446 26.3476 199.583 26.3575 198.651 26.3774C197.719 26.3774 196.776 26.3873 195.824 26.4071C194.872 26.4071 193.979 26.417 193.146 26.4369V25.8417C193.761 25.802 194.217 25.7227 194.515 25.6036C194.832 25.4846 195.04 25.2465 195.14 24.8895C195.259 24.5324 195.318 23.9967 195.318 23.2825V8.52244C195.318 7.78841 195.259 7.25276 195.14 6.9155C195.04 6.5584 194.832 6.32034 194.515 6.20131C194.217 6.06243 193.761 5.98308 193.146 5.96324V5.36808C193.999 5.38791 194.892 5.40775 195.824 5.42759C196.776 5.42759 197.709 5.43751 198.621 5.45735C199.554 5.45735 200.417 5.45735 201.21 5.45735C202.024 5.45735 202.688 5.45735 203.204 5.45735C204.117 5.45735 205.148 5.45735 206.299 5.45735C207.469 5.43751 208.511 5.40775 209.423 5.36808ZM204.93 15.5454C204.93 15.5454 204.93 15.6446 204.93 15.843C204.93 16.0413 204.93 16.1405 204.93 16.1405H199.812C199.812 16.1405 199.812 16.0413 199.812 15.843C199.812 15.6446 199.812 15.5454 199.812 15.5454H204.93ZM205.793 11.6173C205.714 12.7481 205.674 13.6111 205.674 14.2063C205.694 14.8014 205.704 15.347 205.704 15.843C205.704 16.3389 205.714 16.8845 205.733 17.4797C205.753 18.0748 205.803 18.9378 205.882 20.0686H205.198C205.099 19.3544 204.89 18.6997 204.573 18.1046C204.255 17.5094 203.829 17.0333 203.293 16.6762C202.758 16.3191 202.103 16.1405 201.329 16.1405V15.5454C201.905 15.5454 202.41 15.4263 202.847 15.1883C203.283 14.9304 203.65 14.603 203.948 14.2063C204.265 13.8095 204.523 13.3829 204.722 12.9267C204.92 12.4704 205.049 12.0339 205.109 11.6173H205.793Z" fill="#0073B4"/>
<path d="M153.601 30.9515L160.803 49.5504C161.1 50.2448 161.408 50.7308 161.725 51.0086C162.063 51.2863 162.36 51.4351 162.618 51.4549V52.0501C161.983 52.0104 161.22 51.9906 160.327 51.9906C159.454 51.9707 158.561 51.9608 157.649 51.9608C156.696 51.9608 155.794 51.9707 154.941 51.9906C154.087 51.9906 153.403 52.0104 152.887 52.0501V51.4549C153.899 51.4152 154.544 51.2466 154.822 50.949C155.099 50.6316 155.04 49.967 154.643 48.9552L149.703 35.445L150.298 34.5523L145.954 45.7711C145.497 46.9614 145.22 47.9236 145.12 48.6577C145.021 49.3917 145.071 49.9571 145.269 50.3539C145.468 50.7506 145.775 51.0284 146.192 51.1871C146.628 51.3458 147.144 51.4351 147.739 51.4549V52.0501C147.045 52.0104 146.4 51.9906 145.805 51.9906C145.229 51.9707 144.605 51.9608 143.93 51.9608C143.533 51.9608 143.127 51.9707 142.71 51.9906C142.313 51.9906 141.966 52.0104 141.668 52.0501V51.4549C142.105 51.3756 142.541 51.0978 142.978 50.6217C143.434 50.1456 143.88 49.3223 144.317 48.1518L151.012 30.9515C151.409 30.9912 151.836 31.011 152.292 31.011C152.768 31.011 153.205 30.9912 153.601 30.9515ZM155.149 43.4797V44.0749H146.281L146.578 43.4797H155.149Z" fill="#0073B4"/>
<path d="M139.419 30.9813V31.5765C138.744 31.5963 138.229 31.6756 137.871 31.8145C137.534 31.9336 137.306 32.1716 137.187 32.5287C137.068 32.866 137.009 33.4016 137.009 34.1357V48.8957C137.009 49.6099 137.068 50.1456 137.187 50.5027C137.306 50.8598 137.534 51.0978 137.871 51.2169C138.229 51.3359 138.744 51.4153 139.419 51.4549V52.0501C138.863 52.0104 138.119 51.9906 137.187 51.9906C136.255 51.9707 135.273 51.9608 134.241 51.9608C133.249 51.9608 132.287 51.9707 131.354 51.9906C130.442 51.9906 129.688 52.0104 129.093 52.0501V51.4549C129.807 51.4153 130.343 51.3359 130.7 51.2169C131.077 51.0978 131.325 50.8598 131.444 50.5027C131.563 50.1456 131.622 49.6099 131.622 48.8957V34.1357C131.622 33.4016 131.553 32.8561 131.414 32.499C131.295 32.1419 131.087 31.9038 130.789 31.7848C130.511 31.6459 130.144 31.5765 129.688 31.5765H129.539C129.162 31.5765 128.835 31.6459 128.557 31.7848C128.279 31.9038 128.061 32.1518 127.902 32.5287C127.764 32.8858 127.664 33.4215 127.605 34.1357C127.506 35.3061 127.407 36.5659 127.307 37.915C127.228 39.264 127.119 40.6229 126.98 41.9918C126.861 43.3607 126.672 44.6701 126.415 45.9199C126.157 47.1697 125.819 48.2906 125.403 49.2826C124.986 50.2547 124.451 51.0284 123.796 51.6037C123.141 52.179 122.338 52.4667 121.385 52.4667C120.413 52.4667 119.6 52.189 118.945 51.6335C118.291 51.0582 117.963 50.334 117.963 49.4611C117.963 48.6081 118.251 47.9236 118.826 47.4078C119.421 46.892 120.136 46.6341 120.969 46.6341C121.703 46.6341 122.288 46.8127 122.725 47.1697C123.161 47.5268 123.379 48.0228 123.379 48.6577C123.379 49.4512 123.121 50.1158 122.606 50.6515C122.09 51.1871 121.445 51.5343 120.671 51.693C120.751 51.7724 120.85 51.8319 120.969 51.8715C121.108 51.8914 121.247 51.9013 121.385 51.9013C122.298 51.9013 123.062 51.5541 123.677 50.8598C124.292 50.1654 124.788 49.2231 125.165 48.0327C125.562 46.8226 125.869 45.4537 126.087 43.9261C126.305 42.3985 126.474 40.8015 126.593 39.135C126.712 37.4487 126.821 35.7823 126.92 34.1357C126.98 33.4413 126.95 32.9156 126.831 32.5585C126.732 32.2014 126.494 31.9534 126.117 31.8145C125.76 31.6756 125.224 31.5963 124.51 31.5765V30.9813C124.927 31.0011 125.423 31.021 125.998 31.0408C126.573 31.0606 127.099 31.0706 127.575 31.0706C128.031 31.0706 128.468 31.0606 128.885 31.0408C129.321 31.0011 129.757 30.9813 130.194 30.9813C130.948 30.9813 131.632 31.0011 132.247 31.0408C132.862 31.0606 133.596 31.0706 134.449 31.0706C135.005 31.0706 135.59 31.0706 136.205 31.0706C136.84 31.0507 137.445 31.0408 138.02 31.0408C138.596 31.021 139.062 31.0011 139.419 30.9813Z" fill="#0073B4"/>
<path d="M115.119 30.9813C115.039 31.9137 114.98 32.8164 114.94 33.6893C114.92 34.5622 114.91 35.2268 114.91 35.6831C114.91 36.0799 114.92 36.4667 114.94 36.8437C114.96 37.2206 114.98 37.5281 115 37.7662H114.315C114.097 36.2187 113.74 34.9986 113.244 34.1059C112.768 33.2132 112.173 32.5882 111.458 32.2311C110.764 31.8542 109.99 31.6657 109.137 31.6657H108.334C107.798 31.6657 107.382 31.7153 107.084 31.8145C106.806 31.8939 106.618 32.0724 106.519 32.3502C106.439 32.6279 106.4 33.0644 106.4 33.6595V49.3719C106.4 49.9472 106.439 50.3836 106.519 50.6812C106.618 50.959 106.806 51.1474 107.084 51.2466C107.382 51.326 107.798 51.3657 108.334 51.3657H109.554C110.328 51.3657 111.062 51.1673 111.756 50.7705C112.47 50.3539 113.105 49.6595 113.661 48.6874C114.216 47.6955 114.633 46.3564 114.91 44.6701H115.595C115.535 45.3446 115.506 46.2175 115.506 47.2888C115.506 47.7649 115.515 48.4394 115.535 49.3123C115.555 50.1852 115.615 51.0978 115.714 52.0501C114.702 52.0104 113.561 51.9906 112.292 51.9906C111.022 51.9707 109.891 51.9608 108.899 51.9608C108.383 51.9608 107.729 51.9608 106.935 51.9608C106.142 51.9608 105.279 51.9707 104.346 51.9906C103.414 51.9906 102.471 52.0005 101.519 52.0203C100.567 52.0203 99.6742 52.0303 98.841 52.0501V51.4549C99.456 51.4153 99.9123 51.3359 100.21 51.2169C100.527 51.0978 100.736 50.8598 100.835 50.5027C100.954 50.1456 101.013 49.6099 101.013 48.8957V34.1357C101.013 33.4016 100.954 32.866 100.835 32.5287C100.736 32.1716 100.527 31.9336 100.21 31.8145C99.9123 31.6756 99.456 31.5963 98.841 31.5765V30.9813C99.694 31.0011 100.587 31.021 101.519 31.0408C102.471 31.0408 103.404 31.0507 104.316 31.0706C105.249 31.0706 106.112 31.0706 106.905 31.0706C107.719 31.0706 108.383 31.0706 108.899 31.0706C109.812 31.0706 110.843 31.0706 111.994 31.0706C113.165 31.0507 114.206 31.021 115.119 30.9813ZM110.625 41.1586C110.625 41.1586 110.625 41.2578 110.625 41.4562C110.625 41.6546 110.625 41.7538 110.625 41.7538H105.507C105.507 41.7538 105.507 41.6546 105.507 41.4562C105.507 41.2578 105.507 41.1586 105.507 41.1586H110.625ZM111.488 37.2305C111.409 38.3613 111.369 39.2243 111.369 39.8195C111.389 40.4146 111.399 40.9602 111.399 41.4562C111.399 41.9521 111.409 42.4977 111.429 43.0929C111.449 43.688 111.498 44.551 111.577 45.6818H110.893C110.794 44.9676 110.586 44.313 110.268 43.7178C109.951 43.1226 109.524 42.6465 108.989 42.2894C108.453 41.9323 107.798 41.7538 107.024 41.7538V41.1586C107.6 41.1586 108.106 41.0396 108.542 40.8015C108.979 40.5436 109.346 40.2163 109.643 39.8195C109.961 39.4227 110.219 38.9962 110.417 38.5399C110.615 38.0836 110.744 37.6471 110.804 37.2305H111.488Z" fill="#0073B4"/>
</g>
</g>
<defs>
<clipPath id="clip0_10_3">
<rect width="210" height="65.1205" fill="white" transform="translate(0 0.439739)"/>
</clipPath>
<clipPath id="clip1_10_3">
<rect width="210" height="65.1205" fill="white" transform="translate(0 0.439739)"/>
</clipPath>
</defs>
</svg>
