<svg width="300" height="302" viewBox="0 0 300 302" fill="none" xmlns="http://www.w3.org/2000/svg">
<g clip-path="url(#clip0_131_10209)">
<path d="M82.028 0.702148H72.6572V10.0729H82.028V0.702148Z" fill="black"/>
<path d="M100.181 0.702148H90.8101V10.0729H100.181V0.702148Z" fill="black"/>
<path d="M118.379 0.702148H109.009V10.0729H118.379V0.702148Z" fill="black"/>
<path d="M127.433 0.702148H118.063V10.0729H127.433V0.702148Z" fill="black"/>
<path d="M163.784 0.702148H154.414V10.0729H163.784V0.702148Z" fill="black"/>
<path d="M172.839 0.702148H163.468V10.0729H172.839V0.702148Z" fill="black"/>
<path d="M218.244 0.702148H208.873V10.0729H218.244V0.702148Z" fill="black"/>
<path d="M227.343 0.702148H217.972V10.0729H227.343V0.702148Z" fill="black"/>
<path d="M82.028 9.80078H72.6572V19.1715H82.028V9.80078Z" fill="black"/>
<path d="M100.181 9.80078H90.8101V19.1715H100.181V9.80078Z" fill="black"/>
<path d="M109.28 9.80078H99.9092V19.1715H109.28V9.80078Z" fill="black"/>
<path d="M118.379 9.80078H109.009V19.1715H118.379V9.80078Z" fill="black"/>
<path d="M136.533 9.80078H127.162V19.1715H136.533V9.80078Z" fill="black"/>
<path d="M145.587 9.80078H136.216V19.1715H145.587V9.80078Z" fill="black"/>
<path d="M163.784 9.80078H154.414V19.1715H163.784V9.80078Z" fill="black"/>
<path d="M172.839 9.80078H163.468V19.1715H172.839V9.80078Z" fill="black"/>
<path d="M181.937 9.80078H172.567V19.1715H181.937V9.80078Z" fill="black"/>
<path d="M200.09 9.80078H190.72V19.1715H200.09V9.80078Z" fill="black"/>
<path d="M209.19 9.80078H199.819V19.1715H209.19V9.80078Z" fill="black"/>
<path d="M227.343 9.80078H217.972V19.1715H227.343V9.80078Z" fill="black"/>
<path d="M82.028 18.8555H72.6572V28.2262H82.028V18.8555Z" fill="black"/>
<path d="M100.181 18.8555H90.8101V28.2262H100.181V18.8555Z" fill="black"/>
<path d="M109.28 18.8555H99.9092V28.2262H109.28V18.8555Z" fill="black"/>
<path d="M127.433 18.8555H118.063V28.2262H127.433V18.8555Z" fill="black"/>
<path d="M145.587 18.8555H136.216V28.2262H145.587V18.8555Z" fill="black"/>
<path d="M163.784 18.8555H154.414V28.2262H163.784V18.8555Z" fill="black"/>
<path d="M191.036 18.8555H181.666V28.2262H191.036V18.8555Z" fill="black"/>
<path d="M200.09 18.8555H190.72V28.2262H200.09V18.8555Z" fill="black"/>
<path d="M209.19 18.8555H199.819V28.2262H209.19V18.8555Z" fill="black"/>
<path d="M218.244 18.8555H208.873V28.2262H218.244V18.8555Z" fill="black"/>
<path d="M227.343 18.8555H217.972V28.2262H227.343V18.8555Z" fill="black"/>
<path d="M127.433 27.9541H118.063V37.3249H127.433V27.9541Z" fill="black"/>
<path d="M172.839 27.9541H163.468V37.3249H172.839V27.9541Z" fill="black"/>
<path d="M181.937 27.9541H172.567V37.3249H181.937V27.9541Z" fill="black"/>
<path d="M209.19 27.9541H199.819V37.3249H209.19V27.9541Z" fill="black"/>
<path d="M218.244 27.9541H208.873V37.3249H218.244V27.9541Z" fill="black"/>
<path d="M100.181 37.0537H90.8101V46.4245H100.181V37.0537Z" fill="black"/>
<path d="M127.433 37.0537H118.063V46.4245H127.433V37.0537Z" fill="black"/>
<path d="M136.533 37.0537H127.162V46.4245H136.533V37.0537Z" fill="black"/>
<path d="M145.587 37.0537H136.216V46.4245H145.587V37.0537Z" fill="black"/>
<path d="M154.685 37.0537H145.314V46.4245H154.685V37.0537Z" fill="black"/>
<path d="M163.784 37.0537H154.414V46.4245H163.784V37.0537Z" fill="black"/>
<path d="M172.839 37.0537H163.468V46.4245H172.839V37.0537Z" fill="black"/>
<path d="M191.036 37.0537H181.666V46.4245H191.036V37.0537Z" fill="black"/>
<path d="M200.09 37.0537H190.72V46.4245H200.09V37.0537Z" fill="black"/>
<path d="M227.343 37.0537H217.972V46.4245H227.343V37.0537Z" fill="black"/>
<path d="M82.028 46.1055H72.6572V55.4762H82.028V46.1055Z" fill="black"/>
<path d="M91.1271 46.1055H81.7563V55.4762H91.1271V46.1055Z" fill="black"/>
<path d="M154.685 46.1055H145.314V55.4762H154.685V46.1055Z" fill="black"/>
<path d="M181.937 46.1055H172.567V55.4762H181.937V46.1055Z" fill="black"/>
<path d="M200.09 46.1055H190.72V55.4762H200.09V46.1055Z" fill="black"/>
<path d="M209.19 46.1055H199.819V55.4762H209.19V46.1055Z" fill="black"/>
<path d="M82.028 55.207H72.6572V64.5778H82.028V55.207Z" fill="black"/>
<path d="M100.181 55.207H90.8101V64.5778H100.181V55.207Z" fill="black"/>
<path d="M118.379 55.207H109.009V64.5778H118.379V55.207Z" fill="black"/>
<path d="M136.533 55.207H127.162V64.5778H136.533V55.207Z" fill="black"/>
<path d="M154.685 55.207H145.314V64.5778H154.685V55.207Z" fill="black"/>
<path d="M172.839 55.207H163.468V64.5778H172.839V55.207Z" fill="black"/>
<path d="M191.036 55.207H181.666V64.5778H191.036V55.207Z" fill="black"/>
<path d="M209.19 55.207H199.819V64.5778H209.19V55.207Z" fill="black"/>
<path d="M227.343 55.207H217.972V64.5778H227.343V55.207Z" fill="black"/>
<path d="M82.028 64.2598H72.6572V73.6305H82.028V64.2598Z" fill="black"/>
<path d="M181.937 64.2598H172.567V73.6305H181.937V64.2598Z" fill="black"/>
<path d="M191.036 64.2598H181.666V73.6305H191.036V64.2598Z" fill="black"/>
<path d="M200.09 64.2598H190.72V73.6305H200.09V64.2598Z" fill="black"/>
<path d="M227.343 64.2598H217.972V73.6305H227.343V64.2598Z" fill="black"/>
<path d="M27.5238 73.3594H18.1531V82.7301H27.5238V73.3594Z" fill="black"/>
<path d="M36.6227 73.3594H27.252V82.7301H36.6227V73.3594Z" fill="black"/>
<path d="M45.7218 73.3594H36.3511V82.7301H45.7218V73.3594Z" fill="black"/>
<path d="M63.8751 73.3594H54.5044V82.7301H63.8751V73.3594Z" fill="black"/>
<path d="M82.028 73.3594H72.6572V82.7301H82.028V73.3594Z" fill="black"/>
<path d="M91.1271 73.3594H81.7563V82.7301H91.1271V73.3594Z" fill="black"/>
<path d="M100.181 73.3594H90.8101V82.7301H100.181V73.3594Z" fill="black"/>
<path d="M118.379 73.3594H109.009V82.7301H118.379V73.3594Z" fill="black"/>
<path d="M163.784 73.3594H154.414V82.7301H163.784V73.3594Z" fill="black"/>
<path d="M227.343 73.3594H217.972V82.7301H227.343V73.3594Z" fill="black"/>
<path d="M236.441 73.3594H227.071V82.7301H236.441V73.3594Z" fill="black"/>
<path d="M245.496 73.3594H236.125V82.7301H245.496V73.3594Z" fill="black"/>
<path d="M254.595 73.3594H245.224V82.7301H254.595V73.3594Z" fill="black"/>
<path d="M281.847 73.3594H272.476V82.7301H281.847V73.3594Z" fill="black"/>
<path d="M290.901 73.3594H281.53V82.7301H290.901V73.3594Z" fill="black"/>
<path d="M300 73.3594H290.629V82.7301H300V73.3594Z" fill="black"/>
<path d="M27.5238 82.459H18.1531V91.8297H27.5238V82.459Z" fill="black"/>
<path d="M54.7758 82.459H45.405V91.8297H54.7758V82.459Z" fill="black"/>
<path d="M100.181 82.459H90.8101V91.8297H100.181V82.459Z" fill="black"/>
<path d="M118.379 82.459H109.009V91.8297H118.379V82.459Z" fill="black"/>
<path d="M127.433 82.459H118.063V91.8297H127.433V82.459Z" fill="black"/>
<path d="M136.533 82.459H127.162V91.8297H136.533V82.459Z" fill="black"/>
<path d="M145.587 82.459H136.216V91.8297H145.587V82.459Z" fill="black"/>
<path d="M154.685 82.459H145.314V91.8297H154.685V82.459Z" fill="black"/>
<path d="M172.839 82.459H163.468V91.8297H172.839V82.459Z" fill="black"/>
<path d="M218.244 82.459H208.873V91.8297H218.244V82.459Z" fill="black"/>
<path d="M236.441 82.459H227.071V91.8297H236.441V82.459Z" fill="black"/>
<path d="M245.496 82.459H236.125V91.8297H245.496V82.459Z" fill="black"/>
<path d="M272.748 82.459H263.377V91.8297H272.748V82.459Z" fill="black"/>
<path d="M300 82.459H290.629V91.8297H300V82.459Z" fill="black"/>
<path d="M45.7218 91.5122H36.3511V100.883H45.7218V91.5122Z" fill="black"/>
<path d="M63.8751 91.5122H54.5044V100.883H63.8751V91.5122Z" fill="black"/>
<path d="M72.9289 91.5122H63.5581V100.883H72.9289V91.5122Z" fill="black"/>
<path d="M118.379 91.5122H109.009V100.883H118.379V91.5122Z" fill="black"/>
<path d="M127.433 91.5122H118.063V100.883H127.433V91.5122Z" fill="black"/>
<path d="M136.533 91.5122H127.162V100.883H136.533V91.5122Z" fill="black"/>
<path d="M145.587 91.5122H136.216V100.883H145.587V91.5122Z" fill="black"/>
<path d="M163.784 91.5122H154.414V100.883H163.784V91.5122Z" fill="black"/>
<path d="M209.19 91.5122H199.819V100.883H209.19V91.5122Z" fill="black"/>
<path d="M227.343 91.5122H217.972V100.883H227.343V91.5122Z" fill="black"/>
<path d="M254.595 91.5122H245.224V100.883H254.595V91.5122Z" fill="black"/>
<path d="M281.847 91.5122H272.476V100.883H281.847V91.5122Z" fill="black"/>
<path d="M290.901 91.5122H281.53V100.883H290.901V91.5122Z" fill="black"/>
<path d="M9.37076 100.612H0V109.983H9.37076V100.612Z" fill="black"/>
<path d="M18.4699 100.612H9.09912V109.983H18.4699V100.612Z" fill="black"/>
<path d="M72.9289 100.612H63.5581V109.983H72.9289V100.612Z" fill="black"/>
<path d="M91.1271 100.612H81.7563V109.983H91.1271V100.612Z" fill="black"/>
<path d="M100.181 100.612H90.8101V109.983H100.181V100.612Z" fill="black"/>
<path d="M127.433 100.612H118.063V109.983H127.433V100.612Z" fill="black"/>
<path d="M136.533 100.612H127.162V109.983H136.533V100.612Z" fill="black"/>
<path d="M163.784 100.612H154.414V109.983H163.784V100.612Z" fill="black"/>
<path d="M181.937 100.612H172.567V109.983H181.937V100.612Z" fill="black"/>
<path d="M191.036 100.612H181.666V109.983H191.036V100.612Z" fill="black"/>
<path d="M218.244 100.612H208.873V109.983H218.244V100.612Z" fill="black"/>
<path d="M245.496 100.612H236.125V109.983H245.496V100.612Z" fill="black"/>
<path d="M272.748 100.612H263.377V109.983H272.748V100.612Z" fill="black"/>
<path d="M281.847 100.612H272.476V109.983H281.847V100.612Z" fill="black"/>
<path d="M18.4699 109.711H9.09912V119.082H18.4699V109.711Z" fill="black"/>
<path d="M63.8751 109.711H54.5044V119.082H63.8751V109.711Z" fill="black"/>
<path d="M82.028 109.711H72.6572V119.082H82.028V109.711Z" fill="black"/>
<path d="M200.09 109.711H190.72V119.082H200.09V109.711Z" fill="black"/>
<path d="M209.19 109.711H199.819V119.082H209.19V109.711Z" fill="black"/>
<path d="M218.244 109.711H208.873V119.082H218.244V109.711Z" fill="black"/>
<path d="M227.343 109.711H217.972V119.082H227.343V109.711Z" fill="black"/>
<path d="M236.441 109.711H227.071V119.082H236.441V109.711Z" fill="black"/>
<path d="M254.595 109.711H245.224V119.082H254.595V109.711Z" fill="black"/>
<path d="M290.901 109.711H281.53V119.082H290.901V109.711Z" fill="black"/>
<path d="M9.37076 118.764H0V128.135H9.37076V118.764Z" fill="black"/>
<path d="M45.7218 118.764H36.3511V128.135H45.7218V118.764Z" fill="black"/>
<path d="M72.9289 118.764H63.5581V128.135H72.9289V118.764Z" fill="black"/>
<path d="M100.181 118.764H90.8101V128.135H100.181V118.764Z" fill="black"/>
<path d="M109.28 118.764H99.9092V128.135H109.28V118.764Z" fill="black"/>
<path d="M218.244 118.764H208.873V128.135H218.244V118.764Z" fill="black"/>
<path d="M227.343 118.764H217.972V128.135H227.343V118.764Z" fill="black"/>
<path d="M236.441 118.764H227.071V128.135H236.441V118.764Z" fill="black"/>
<path d="M245.496 118.764H236.125V128.135H245.496V118.764Z" fill="black"/>
<path d="M263.694 118.764H254.323V128.135H263.694V118.764Z" fill="black"/>
<path d="M272.748 118.764H263.377V128.135H272.748V118.764Z" fill="black"/>
<path d="M281.847 118.764H272.476V128.135H281.847V118.764Z" fill="black"/>
<path d="M300 118.764H290.629V128.135H300V118.764Z" fill="black"/>
<path d="M36.6227 127.863H27.252V137.234H36.6227V127.863Z" fill="black"/>
<path d="M63.8751 127.863H54.5044V137.234H63.8751V127.863Z" fill="black"/>
<path d="M91.1271 127.863H81.7563V137.234H91.1271V127.863Z" fill="black"/>
<path d="M100.181 127.863H90.8101V137.234H100.181V127.863Z" fill="black"/>
<path d="M209.19 127.863H199.819V137.234H209.19V127.863Z" fill="black"/>
<path d="M236.441 127.863H227.071V137.234H236.441V127.863Z" fill="black"/>
<path d="M254.595 127.863H245.224V137.234H254.595V127.863Z" fill="black"/>
<path d="M263.694 127.863H254.323V137.234H263.694V127.863Z" fill="black"/>
<path d="M272.748 127.863H263.377V137.234H272.748V127.863Z" fill="black"/>
<path d="M281.847 127.863H272.476V137.234H281.847V127.863Z" fill="black"/>
<path d="M290.901 127.863H281.53V137.234H290.901V127.863Z" fill="black"/>
<path d="M27.5238 136.917H18.1531V146.288H27.5238V136.917Z" fill="black"/>
<path d="M45.7218 136.917H36.3511V146.288H45.7218V136.917Z" fill="black"/>
<path d="M54.7758 136.917H45.405V146.288H54.7758V136.917Z" fill="black"/>
<path d="M72.9289 136.917H63.5581V146.288H72.9289V136.917Z" fill="black"/>
<path d="M82.028 136.917H72.6572V146.288H82.028V136.917Z" fill="black"/>
<path d="M100.181 136.917H90.8101V146.288H100.181V136.917Z" fill="black"/>
<path d="M200.09 136.917H190.72V146.288H200.09V136.917Z" fill="black"/>
<path d="M209.19 136.917H199.819V146.288H209.19V136.917Z" fill="black"/>
<path d="M245.496 136.917H236.125V146.288H245.496V136.917Z" fill="black"/>
<path d="M263.694 136.917H254.323V146.288H263.694V136.917Z" fill="black"/>
<path d="M281.847 136.917H272.476V146.288H281.847V136.917Z" fill="black"/>
<path d="M18.4699 146.016H9.09912V155.386H18.4699V146.016Z" fill="black"/>
<path d="M27.5238 146.016H18.1531V155.386H27.5238V146.016Z" fill="black"/>
<path d="M54.7758 146.016H45.405V155.386H54.7758V146.016Z" fill="black"/>
<path d="M63.8751 146.016H54.5044V155.386H63.8751V146.016Z" fill="black"/>
<path d="M91.1271 146.016H81.7563V155.386H91.1271V146.016Z" fill="black"/>
<path d="M236.441 146.016H227.071V155.386H236.441V146.016Z" fill="black"/>
<path d="M254.595 146.016H245.224V155.386H254.595V146.016Z" fill="black"/>
<path d="M263.694 146.016H254.323V155.386H263.694V146.016Z" fill="black"/>
<path d="M290.901 146.016H281.53V155.386H290.901V146.016Z" fill="black"/>
<path d="M300 146.016H290.629V155.386H300V146.016Z" fill="black"/>
<path d="M9.37076 155.116H0V164.487H9.37076V155.116Z" fill="black"/>
<path d="M18.4699 155.116H9.09912V164.487H18.4699V155.116Z" fill="black"/>
<path d="M27.5238 155.116H18.1531V164.487H27.5238V155.116Z" fill="black"/>
<path d="M36.6227 155.116H27.252V164.487H36.6227V155.116Z" fill="black"/>
<path d="M54.7758 155.116H45.405V164.487H54.7758V155.116Z" fill="black"/>
<path d="M72.9289 155.116H63.5581V164.487H72.9289V155.116Z" fill="black"/>
<path d="M82.028 155.116H72.6572V164.487H82.028V155.116Z" fill="black"/>
<path d="M91.1271 155.116H81.7563V164.487H91.1271V155.116Z" fill="black"/>
<path d="M109.28 155.116H99.9092V164.487H109.28V155.116Z" fill="black"/>
<path d="M200.09 155.116H190.72V164.487H200.09V155.116Z" fill="black"/>
<path d="M218.244 155.116H208.873V164.487H218.244V155.116Z" fill="black"/>
<path d="M227.343 155.116H217.972V164.487H227.343V155.116Z" fill="black"/>
<path d="M245.496 155.116H236.125V164.487H245.496V155.116Z" fill="black"/>
<path d="M290.901 155.116H281.53V164.487H290.901V155.116Z" fill="black"/>
<path d="M300 155.116H290.629V164.487H300V155.116Z" fill="black"/>
<path d="M27.5238 164.168H18.1531V173.539H27.5238V164.168Z" fill="black"/>
<path d="M54.7758 164.168H45.405V173.539H54.7758V164.168Z" fill="black"/>
<path d="M63.8751 164.168H54.5044V173.539H63.8751V164.168Z" fill="black"/>
<path d="M72.9289 164.168H63.5581V173.539H72.9289V164.168Z" fill="black"/>
<path d="M82.028 164.168H72.6572V173.539H82.028V164.168Z" fill="black"/>
<path d="M91.1271 164.168H81.7563V173.539H91.1271V164.168Z" fill="black"/>
<path d="M200.09 164.168H190.72V173.539H200.09V164.168Z" fill="black"/>
<path d="M209.19 164.168H199.819V173.539H209.19V164.168Z" fill="black"/>
<path d="M281.847 164.168H272.476V173.539H281.847V164.168Z" fill="black"/>
<path d="M290.901 164.168H281.53V173.539H290.901V164.168Z" fill="black"/>
<path d="M9.37076 173.27H0V182.64H9.37076V173.27Z" fill="black"/>
<path d="M18.4699 173.27H9.09912V182.64H18.4699V173.27Z" fill="black"/>
<path d="M27.5238 173.27H18.1531V182.64H27.5238V173.27Z" fill="black"/>
<path d="M45.7218 173.27H36.3511V182.64H45.7218V173.27Z" fill="black"/>
<path d="M72.9289 173.27H63.5581V182.64H72.9289V173.27Z" fill="black"/>
<path d="M100.181 173.27H90.8101V182.64H100.181V173.27Z" fill="black"/>
<path d="M109.28 173.27H99.9092V182.64H109.28V173.27Z" fill="black"/>
<path d="M200.09 173.27H190.72V182.64H200.09V173.27Z" fill="black"/>
<path d="M218.244 173.27H208.873V182.64H218.244V173.27Z" fill="black"/>
<path d="M227.343 173.27H217.972V182.64H227.343V173.27Z" fill="black"/>
<path d="M236.441 173.27H227.071V182.64H236.441V173.27Z" fill="black"/>
<path d="M263.694 173.27H254.323V182.64H263.694V173.27Z" fill="black"/>
<path d="M272.748 173.27H263.377V182.64H272.748V173.27Z" fill="black"/>
<path d="M281.847 173.27H272.476V182.64H281.847V173.27Z" fill="black"/>
<path d="M300 173.27H290.629V182.64H300V173.27Z" fill="black"/>
<path d="M18.4699 182.368H9.09912V191.738H18.4699V182.368Z" fill="black"/>
<path d="M27.5238 182.368H18.1531V191.738H27.5238V182.368Z" fill="black"/>
<path d="M54.7758 182.368H45.405V191.738H54.7758V182.368Z" fill="black"/>
<path d="M63.8751 182.368H54.5044V191.738H63.8751V182.368Z" fill="black"/>
<path d="M72.9289 182.368H63.5581V191.738H72.9289V182.368Z" fill="black"/>
<path d="M82.028 182.368H72.6572V191.738H82.028V182.368Z" fill="black"/>
<path d="M91.1271 182.368H81.7563V191.738H91.1271V182.368Z" fill="black"/>
<path d="M100.181 182.368H90.8101V191.738H100.181V182.368Z" fill="black"/>
<path d="M109.28 182.368H99.9092V191.738H109.28V182.368Z" fill="black"/>
<path d="M209.19 182.368H199.819V191.738H209.19V182.368Z" fill="black"/>
<path d="M227.343 182.368H217.972V191.738H227.343V182.368Z" fill="black"/>
<path d="M263.694 182.368H254.323V191.738H263.694V182.368Z" fill="black"/>
<path d="M272.748 182.368H263.377V191.738H272.748V182.368Z" fill="black"/>
<path d="M9.37076 191.422H0V200.793H9.37076V191.422Z" fill="black"/>
<path d="M45.7218 191.422H36.3511V200.793H45.7218V191.422Z" fill="black"/>
<path d="M54.7758 191.422H45.405V200.793H54.7758V191.422Z" fill="black"/>
<path d="M72.9289 191.422H63.5581V200.793H72.9289V191.422Z" fill="black"/>
<path d="M82.028 191.422H72.6572V200.793H82.028V191.422Z" fill="black"/>
<path d="M91.1271 191.422H81.7563V200.793H91.1271V191.422Z" fill="black"/>
<path d="M100.181 191.422H90.8101V200.793H100.181V191.422Z" fill="black"/>
<path d="M109.28 191.422H99.9092V200.793H109.28V191.422Z" fill="black"/>
<path d="M145.587 191.422H136.216V200.793H145.587V191.422Z" fill="black"/>
<path d="M154.685 191.422H145.314V200.793H154.685V191.422Z" fill="black"/>
<path d="M172.839 191.422H163.468V200.793H172.839V191.422Z" fill="black"/>
<path d="M236.441 191.422H227.071V200.793H236.441V191.422Z" fill="black"/>
<path d="M272.748 191.422H263.377V200.793H272.748V191.422Z" fill="black"/>
<path d="M300 191.422H290.629V200.793H300V191.422Z" fill="black"/>
<path d="M9.37076 200.521H0V209.891H9.37076V200.521Z" fill="black"/>
<path d="M63.8751 200.521H54.5044V209.891H63.8751V200.521Z" fill="black"/>
<path d="M109.28 200.521H99.9092V209.891H109.28V200.521Z" fill="black"/>
<path d="M181.937 200.521H172.567V209.891H181.937V200.521Z" fill="black"/>
<path d="M209.19 200.521H199.819V209.891H209.19V200.521Z" fill="black"/>
<path d="M218.244 200.521H208.873V209.891H218.244V200.521Z" fill="black"/>
<path d="M227.343 200.521H217.972V209.891H227.343V200.521Z" fill="black"/>
<path d="M254.595 200.521H245.224V209.891H254.595V200.521Z" fill="black"/>
<path d="M263.694 200.521H254.323V209.891H263.694V200.521Z" fill="black"/>
<path d="M272.748 200.521H263.377V209.891H272.748V200.521Z" fill="black"/>
<path d="M290.901 200.521H281.53V209.891H290.901V200.521Z" fill="black"/>
<path d="M9.37076 209.575H0V218.946H9.37076V209.575Z" fill="black"/>
<path d="M91.1271 209.575H81.7563V218.946H91.1271V209.575Z" fill="black"/>
<path d="M100.181 209.575H90.8101V218.946H100.181V209.575Z" fill="black"/>
<path d="M127.433 209.575H118.063V218.946H127.433V209.575Z" fill="black"/>
<path d="M136.533 209.575H127.162V218.946H136.533V209.575Z" fill="black"/>
<path d="M145.587 209.575H136.216V218.946H145.587V209.575Z" fill="black"/>
<path d="M163.784 209.575H154.414V218.946H163.784V209.575Z" fill="black"/>
<path d="M172.839 209.575H163.468V218.946H172.839V209.575Z" fill="black"/>
<path d="M181.937 209.575H172.567V218.946H181.937V209.575Z" fill="black"/>
<path d="M200.09 209.575H190.72V218.946H200.09V209.575Z" fill="black"/>
<path d="M218.244 209.575H208.873V218.946H218.244V209.575Z" fill="black"/>
<path d="M254.595 209.575H245.224V218.946H254.595V209.575Z" fill="black"/>
<path d="M272.748 209.575H263.377V218.946H272.748V209.575Z" fill="black"/>
<path d="M281.847 209.575H272.476V218.946H281.847V209.575Z" fill="black"/>
<path d="M290.901 209.575H281.53V218.946H290.901V209.575Z" fill="black"/>
<path d="M9.37076 218.674H0V228.045H9.37076V218.674Z" fill="black"/>
<path d="M36.6227 218.674H27.252V228.045H36.6227V218.674Z" fill="black"/>
<path d="M63.8751 218.674H54.5044V228.045H63.8751V218.674Z" fill="black"/>
<path d="M100.181 218.674H90.8101V228.045H100.181V218.674Z" fill="black"/>
<path d="M118.379 218.674H109.009V228.045H118.379V218.674Z" fill="black"/>
<path d="M127.433 218.674H118.063V228.045H127.433V218.674Z" fill="black"/>
<path d="M145.587 218.674H136.216V228.045H145.587V218.674Z" fill="black"/>
<path d="M163.784 218.674H154.414V228.045H163.784V218.674Z" fill="black"/>
<path d="M172.839 218.674H163.468V228.045H172.839V218.674Z" fill="black"/>
<path d="M181.937 218.674H172.567V228.045H181.937V218.674Z" fill="black"/>
<path d="M191.036 218.674H181.666V228.045H191.036V218.674Z" fill="black"/>
<path d="M209.19 218.674H199.819V228.045H209.19V218.674Z" fill="black"/>
<path d="M218.244 218.674H208.873V228.045H218.244V218.674Z" fill="black"/>
<path d="M227.343 218.674H217.972V228.045H227.343V218.674Z" fill="black"/>
<path d="M236.441 218.674H227.071V228.045H236.441V218.674Z" fill="black"/>
<path d="M245.496 218.674H236.125V228.045H245.496V218.674Z" fill="black"/>
<path d="M254.595 218.674H245.224V228.045H254.595V218.674Z" fill="black"/>
<path d="M263.694 218.674H254.323V228.045H263.694V218.674Z" fill="black"/>
<path d="M290.901 218.674H281.53V228.045H290.901V218.674Z" fill="black"/>
<path d="M82.028 227.772H72.6572V237.143H82.028V227.772Z" fill="black"/>
<path d="M100.181 227.772H90.8101V237.143H100.181V227.772Z" fill="black"/>
<path d="M109.28 227.772H99.9092V237.143H109.28V227.772Z" fill="black"/>
<path d="M118.379 227.772H109.009V237.143H118.379V227.772Z" fill="black"/>
<path d="M172.839 227.772H163.468V237.143H172.839V227.772Z" fill="black"/>
<path d="M200.09 227.772H190.72V237.143H200.09V227.772Z" fill="black"/>
<path d="M209.19 227.772H199.819V237.143H209.19V227.772Z" fill="black"/>
<path d="M227.343 227.772H217.972V237.143H227.343V227.772Z" fill="black"/>
<path d="M263.694 227.772H254.323V237.143H263.694V227.772Z" fill="black"/>
<path d="M281.847 227.772H272.476V237.143H281.847V227.772Z" fill="black"/>
<path d="M300 227.772H290.629V237.143H300V227.772Z" fill="black"/>
<path d="M91.1271 236.827H81.7563V246.198H91.1271V236.827Z" fill="black"/>
<path d="M136.533 236.827H127.162V246.198H136.533V236.827Z" fill="black"/>
<path d="M154.685 236.827H145.314V246.198H154.685V236.827Z" fill="black"/>
<path d="M172.839 236.827H163.468V246.198H172.839V236.827Z" fill="black"/>
<path d="M200.09 236.827H190.72V246.198H200.09V236.827Z" fill="black"/>
<path d="M218.244 236.827H208.873V246.198H218.244V236.827Z" fill="black"/>
<path d="M227.343 236.827H217.972V246.198H227.343V236.827Z" fill="black"/>
<path d="M245.496 236.827H236.125V246.198H245.496V236.827Z" fill="black"/>
<path d="M263.694 236.827H254.323V246.198H263.694V236.827Z" fill="black"/>
<path d="M272.748 236.827H263.377V246.198H272.748V236.827Z" fill="black"/>
<path d="M281.847 236.827H272.476V246.198H281.847V236.827Z" fill="black"/>
<path d="M290.901 236.827H281.53V246.198H290.901V236.827Z" fill="black"/>
<path d="M91.1271 245.926H81.7563V255.297H91.1271V245.926Z" fill="black"/>
<path d="M109.28 245.926H99.9092V255.297H109.28V245.926Z" fill="black"/>
<path d="M145.587 245.926H136.216V255.297H145.587V245.926Z" fill="black"/>
<path d="M163.784 245.926H154.414V255.297H163.784V245.926Z" fill="black"/>
<path d="M172.839 245.926H163.468V255.297H172.839V245.926Z" fill="black"/>
<path d="M181.937 245.926H172.567V255.297H181.937V245.926Z" fill="black"/>
<path d="M200.09 245.926H190.72V255.297H200.09V245.926Z" fill="black"/>
<path d="M209.19 245.926H199.819V255.297H209.19V245.926Z" fill="black"/>
<path d="M218.244 245.926H208.873V255.297H218.244V245.926Z" fill="black"/>
<path d="M227.343 245.926H217.972V255.297H227.343V245.926Z" fill="black"/>
<path d="M263.694 245.926H254.323V255.297H263.694V245.926Z" fill="black"/>
<path d="M281.847 245.926H272.476V255.297H281.847V245.926Z" fill="black"/>
<path d="M290.901 245.926H281.53V255.297H290.901V245.926Z" fill="black"/>
<path d="M300 245.926H290.629V255.297H300V245.926Z" fill="black"/>
<path d="M82.028 255.026H72.6572V264.397H82.028V255.026Z" fill="black"/>
<path d="M136.533 255.026H127.162V264.397H136.533V255.026Z" fill="black"/>
<path d="M172.839 255.026H163.468V264.397H172.839V255.026Z" fill="black"/>
<path d="M191.036 255.026H181.666V264.397H191.036V255.026Z" fill="black"/>
<path d="M200.09 255.026H190.72V264.397H200.09V255.026Z" fill="black"/>
<path d="M227.343 255.026H217.972V264.397H227.343V255.026Z" fill="black"/>
<path d="M236.441 255.026H227.071V264.397H236.441V255.026Z" fill="black"/>
<path d="M245.496 255.026H236.125V264.397H245.496V255.026Z" fill="black"/>
<path d="M254.595 255.026H245.224V264.397H254.595V255.026Z" fill="black"/>
<path d="M263.694 255.026H254.323V264.397H263.694V255.026Z" fill="black"/>
<path d="M290.901 255.026H281.53V264.397H290.901V255.026Z" fill="black"/>
<path d="M300 255.026H290.629V264.397H300V255.026Z" fill="black"/>
<path d="M82.028 264.078H72.6572V273.449H82.028V264.078Z" fill="black"/>
<path d="M91.1271 264.078H81.7563V273.449H91.1271V264.078Z" fill="black"/>
<path d="M118.379 264.078H109.009V273.449H118.379V264.078Z" fill="black"/>
<path d="M127.433 264.078H118.063V273.449H127.433V264.078Z" fill="black"/>
<path d="M136.533 264.078H127.162V273.449H136.533V264.078Z" fill="black"/>
<path d="M145.587 264.078H136.216V273.449H145.587V264.078Z" fill="black"/>
<path d="M154.685 264.078H145.314V273.449H154.685V264.078Z" fill="black"/>
<path d="M181.937 264.078H172.567V273.449H181.937V264.078Z" fill="black"/>
<path d="M209.19 264.078H199.819V273.449H209.19V264.078Z" fill="black"/>
<path d="M218.244 264.078H208.873V273.449H218.244V264.078Z" fill="black"/>
<path d="M236.441 264.078H227.071V273.449H236.441V264.078Z" fill="black"/>
<path d="M263.694 264.078H254.323V273.449H263.694V264.078Z" fill="black"/>
<path d="M272.748 264.078H263.377V273.449H272.748V264.078Z" fill="black"/>
<path d="M290.901 264.078H281.53V273.449H290.901V264.078Z" fill="black"/>
<path d="M82.028 273.179H72.6572V282.55H82.028V273.179Z" fill="black"/>
<path d="M91.1271 273.179H81.7563V282.55H91.1271V273.179Z" fill="black"/>
<path d="M100.181 273.179H90.8101V282.55H100.181V273.179Z" fill="black"/>
<path d="M109.28 273.179H99.9092V282.55H109.28V273.179Z" fill="black"/>
<path d="M145.587 273.179H136.216V282.55H145.587V273.179Z" fill="black"/>
<path d="M181.937 273.179H172.567V282.55H181.937V273.179Z" fill="black"/>
<path d="M218.244 273.179H208.873V282.55H218.244V273.179Z" fill="black"/>
<path d="M236.441 273.179H227.071V282.55H236.441V273.179Z" fill="black"/>
<path d="M245.496 273.179H236.125V282.55H245.496V273.179Z" fill="black"/>
<path d="M272.748 273.179H263.377V282.55H272.748V273.179Z" fill="black"/>
<path d="M100.181 282.231H90.8101V291.602H100.181V282.231Z" fill="black"/>
<path d="M109.28 282.231H99.9092V291.602H109.28V282.231Z" fill="black"/>
<path d="M127.433 282.231H118.063V291.602H127.433V282.231Z" fill="black"/>
<path d="M136.533 282.231H127.162V291.602H136.533V282.231Z" fill="black"/>
<path d="M145.587 282.231H136.216V291.602H145.587V282.231Z" fill="black"/>
<path d="M154.685 282.231H145.314V291.602H154.685V282.231Z" fill="black"/>
<path d="M172.839 282.231H163.468V291.602H172.839V282.231Z" fill="black"/>
<path d="M181.937 282.231H172.567V291.602H181.937V282.231Z" fill="black"/>
<path d="M200.09 282.231H190.72V291.602H200.09V282.231Z" fill="black"/>
<path d="M209.19 282.231H199.819V291.602H209.19V282.231Z" fill="black"/>
<path d="M245.496 282.231H236.125V291.602H245.496V282.231Z" fill="black"/>
<path d="M254.595 282.231H245.224V291.602H254.595V282.231Z" fill="black"/>
<path d="M281.847 282.231H272.476V291.602H281.847V282.231Z" fill="black"/>
<path d="M91.1271 291.332H81.7563V300.702H91.1271V291.332Z" fill="black"/>
<path d="M100.181 291.332H90.8101V300.702H100.181V291.332Z" fill="black"/>
<path d="M109.28 291.332H99.9092V300.702H109.28V291.332Z" fill="black"/>
<path d="M118.379 291.332H109.009V300.702H118.379V291.332Z" fill="black"/>
<path d="M127.433 291.332H118.063V300.702H127.433V291.332Z" fill="black"/>
<path d="M136.533 291.332H127.162V300.702H136.533V291.332Z" fill="black"/>
<path d="M145.587 291.332H136.216V300.702H145.587V291.332Z" fill="black"/>
<path d="M172.839 291.332H163.468V300.702H172.839V291.332Z" fill="black"/>
<path d="M181.937 291.332H172.567V300.702H181.937V291.332Z" fill="black"/>
<path d="M209.19 291.332H199.819V300.702H209.19V291.332Z" fill="black"/>
<path d="M218.244 291.332H208.873V300.702H218.244V291.332Z" fill="black"/>
<path d="M227.343 291.332H217.972V300.702H227.343V291.332Z" fill="black"/>
<path d="M236.441 291.332H227.071V300.702H236.441V291.332Z" fill="black"/>
<path d="M281.847 291.332H272.476V300.702H281.847V291.332Z" fill="black"/>
<path d="M290.901 291.332H281.53V300.702H290.901V291.332Z" fill="black"/>
<path d="M0 0.702148V64.2603H63.5582V0.702148H0ZM54.5043 55.2065H9.09914V9.80129H54.5043V55.2065Z" fill="black"/>
<path d="M236.125 0.702148V64.2603H299.683V0.702148H236.125ZM290.629 55.2065H245.224V9.80129H290.629V55.2065Z" fill="black"/>
<path d="M0 236.827V300.385H63.5582V236.827H0ZM54.5043 291.331H9.09914V245.926H54.5043V291.331Z" fill="black"/>
<path d="M45.4052 18.8555H18.1531V46.1076H45.4052V18.8555Z" fill="#C32E1D"/>
<path d="M281.575 18.8555H254.323V46.1076H281.575V18.8555Z" fill="#C32E1D"/>
<path d="M45.4052 255.026H18.1531V282.279H45.4052V255.026Z" fill="#C32E1D"/>
<path d="M149.78 131.278L149.804 131.288L149.826 131.277C153.4 129.52 156.392 129.015 158.871 129.405C161.348 129.795 163.318 131.081 164.844 132.919C167.899 136.597 169.176 142.484 169.176 147.796C169.176 158.399 160.502 166.995 149.802 166.995C139.101 166.995 130.427 158.399 130.427 147.796C130.427 145.139 130.57 142.338 131.05 139.74C131.531 137.143 132.35 134.753 133.7 132.916C135.048 131.081 136.928 129.796 139.538 129.405C142.15 129.015 145.497 129.521 149.78 131.278Z" fill="white" stroke="#0073B4" stroke-width="0.112446"/>
<path d="M169.876 167.612C168.096 168.677 166.351 169.724 164.771 170.808C161.028 173.364 157.534 174.697 154.813 175.735C154.697 175.779 154.582 175.823 154.469 175.866C153.087 176.394 151.916 176.855 151.039 177.378C150.226 177.863 149.657 178.407 149.405 179.117C149.136 178.357 148.474 177.585 147.522 176.779C146.497 175.911 145.128 174.996 143.53 174.007C142.483 173.359 141.338 172.68 140.127 171.961C137.636 170.484 134.863 168.838 132.08 166.956C130.794 166.074 129.398 165.211 127.967 164.33C119.98 159.329 113.143 149.515 113.418 137.591H113.418V137.589V137.572C113.702 124.773 120.593 117.217 128.538 115.626C136.484 114.036 145.508 118.407 150.069 129.517L150.119 129.639L150.172 129.519C154.852 119.006 164.013 114.894 171.969 116.606C179.924 118.317 186.696 125.856 186.586 138.69C186.54 144.421 184.329 150.479 181.144 155.693C177.958 160.906 173.803 165.269 169.876 167.612L169.876 167.612ZM150.313 161.676L150.323 161.672L150.333 161.676L150.416 161.705C150.489 161.731 150.595 161.768 150.729 161.815C150.997 161.908 151.375 162.037 151.817 162.184C152.701 162.478 153.84 162.841 154.86 163.117L154.931 163.136V163.117C155.967 163.372 157.597 163.264 158.872 162.577C159.526 162.226 160.089 161.721 160.43 161.033C160.771 160.344 160.887 159.478 160.655 158.407L160.655 158.407C160.379 157.148 160.108 156.331 159.812 155.704C159.515 155.077 159.196 154.642 158.829 154.147C158.334 153.469 157.749 152.665 157.018 151.091L157.017 151.091C156.1 149.146 155.271 147.578 154.252 146.511C153.23 145.44 152.017 144.873 150.339 144.929C146.98 145.04 145.133 147.808 143.647 151.129C143.062 152.426 142.514 153.193 142.001 153.889L142.001 153.89L141.997 153.894C141.613 154.425 141.249 154.927 140.91 155.619C140.571 156.312 140.258 157.192 139.972 158.48L139.972 158.481C139.741 159.551 139.857 160.415 140.198 161.1C140.539 161.785 141.102 162.285 141.756 162.633C143.061 163.325 144.736 163.414 145.768 163.135C146.788 162.859 147.932 162.492 148.82 162.193C149.264 162.044 149.645 161.912 149.914 161.818C150.049 161.77 150.156 161.732 150.229 161.706L150.313 161.676ZM154.584 142.213C157.12 142.94 159.915 140.944 160.838 137.77C161.761 134.596 160.455 131.436 157.918 130.708C155.381 129.981 152.586 131.977 151.664 135.151C150.741 138.326 152.047 141.486 154.584 142.213ZM164.989 140.951C162.546 139.962 159.564 141.662 158.309 144.707C157.054 147.752 158.007 151.041 160.451 152.03C162.894 153.018 165.876 151.318 167.131 148.273C168.386 145.228 167.433 141.939 164.989 140.951ZM146.081 142.25C148.618 141.522 149.905 138.343 149.001 135.188C148.096 132.032 145.301 130.036 142.764 130.782C140.228 131.509 138.941 134.688 139.845 137.843C140.749 140.999 143.544 142.996 146.081 142.25ZM140.214 152.103C142.657 151.096 143.61 147.807 142.355 144.762C141.118 141.717 138.118 140.035 135.675 141.043C133.232 142.05 132.279 145.338 133.534 148.383C134.77 151.429 137.771 153.11 140.214 152.103Z" fill="#CB1517" stroke="#0073B4" stroke-width="0.112446"/>
<path fill-rule="evenodd" clip-rule="evenodd" d="M189.14 135.494C189.14 135.43 189.14 135.366 189.14 135.302C189.14 129.031 183.653 114.92 168.366 113.352C165.329 113.041 161.594 113.204 158.212 114.229C156.187 114.743 154.693 115.54 153.496 116.49C151.979 117.586 150.729 119.001 149.919 120.8C149.195 122.407 149.37 123.387 149.851 123.475C150.031 123.508 150.272 123.12 150.502 122.622C150.394 122.912 150.286 123.205 150.186 123.479C149.743 124.687 149.599 126.163 149.896 126.75C150.194 127.336 150.943 126.792 151.082 125.988C151.172 125.466 151.8 124.037 152.23 123.097C152.034 123.539 151.791 124.112 151.563 124.727C151.061 126.083 151.035 127.763 151.59 127.984C151.995 128.145 152.257 127.343 152.534 126.497C152.635 126.187 152.738 125.871 152.851 125.593C153.273 124.56 154.484 122.79 154.484 122.79C154.484 122.79 153.695 124.241 153.215 125.288C152.736 126.336 152.762 127.468 153.388 127.417C153.791 127.384 154.011 126.879 154.309 126.198C154.474 125.822 154.662 125.392 154.918 124.958C155.636 123.737 157.273 122.69 157.273 122.69C157.273 122.69 156.799 124.216 156.836 124.706C156.873 125.197 157.164 125.665 157.682 125.798C157.975 125.874 158.337 125.224 158.819 124.356C159.19 123.691 159.631 122.897 160.167 122.206C160.968 121.173 166.636 120.678 171.654 122.099C177.277 125.031 180.906 131.089 180.906 138.072C180.906 147.103 174.259 158.985 161.996 169.097C158.448 172.024 154.429 174.802 149.965 177.32C145.501 174.802 141.522 172.024 138.036 169.097C125.988 158.985 119.818 147.103 119.818 138.072C119.818 135.064 120.417 132.104 121.53 129.444C124.824 123.235 132.71 121.237 134.758 124.269C136.48 126.82 140.49 127.15 141.946 126.853C143.226 126.593 143.505 125.927 143.645 125.592C143.701 125.458 143.735 125.378 143.801 125.396C145.391 125.826 146.22 124.866 145.988 123.54C147.512 124.203 147.81 122.845 147.445 121.752C149.499 120.228 145.988 117.768 144.828 117.014C140.005 113.879 134.883 113.272 130.575 113.685C119.929 114.468 109.911 121.952 110.683 138.072C111.326 151.51 120.508 166.781 135.184 178.698C139.371 182.097 144.004 185.223 149.014 187.956C149.311 188.118 149.637 188.197 149.964 188.197C150.291 188.197 150.618 188.116 150.914 187.956C155.957 185.205 160.665 182.082 164.936 178.698C179.787 166.93 189.358 151.996 189.358 138.515C189.358 137.517 189.284 136.507 189.14 135.494Z" fill="#0073B4"/>
<path d="M189.14 135.302L188.859 135.302V135.302H189.14ZM189.14 135.494L188.859 135.493C188.858 135.507 188.859 135.52 188.861 135.534L189.14 135.494ZM168.366 113.352L168.395 113.073L168.366 113.352ZM158.212 114.229L158.281 114.502L158.293 114.498L158.212 114.229ZM153.496 116.49L153.66 116.718L153.67 116.71L153.496 116.49ZM149.919 120.8L150.176 120.915L150.176 120.915L149.919 120.8ZM149.851 123.475L149.902 123.198L149.901 123.198L149.851 123.475ZM150.502 122.622L150.766 122.72C150.819 122.579 150.75 122.421 150.611 122.363C150.471 122.305 150.311 122.367 150.247 122.504L150.502 122.622ZM150.186 123.479L150.45 123.575L150.45 123.575L150.186 123.479ZM151.082 125.988L151.359 126.036V126.036L151.082 125.988ZM152.23 123.097L152.487 123.212C152.55 123.07 152.487 122.905 152.346 122.841C152.205 122.777 152.039 122.84 151.975 122.98L152.23 123.097ZM151.563 124.727L151.3 124.63L151.563 124.727ZM151.59 127.984L151.693 127.722L151.59 127.984ZM152.534 126.497L152.801 126.584V126.584L152.534 126.497ZM152.851 125.593L152.591 125.487V125.487L152.851 125.593ZM154.484 122.79L154.731 122.925C154.802 122.793 154.758 122.629 154.63 122.55C154.503 122.472 154.336 122.508 154.252 122.632L154.484 122.79ZM153.215 125.288L152.96 125.171L152.96 125.171L153.215 125.288ZM153.388 127.417L153.365 127.137L153.388 127.417ZM154.309 126.198L154.052 126.086H154.052L154.309 126.198ZM154.918 124.958L155.16 125.101L155.16 125.101L154.918 124.958ZM157.273 122.69L157.541 122.774C157.576 122.661 157.537 122.538 157.443 122.467C157.349 122.395 157.221 122.39 157.121 122.454L157.273 122.69ZM156.836 124.706L156.556 124.727L156.556 124.727L156.836 124.706ZM157.682 125.798L157.752 125.526L157.682 125.798ZM158.819 124.356L158.574 124.22L158.819 124.356ZM160.167 122.206L159.945 122.033L160.167 122.206ZM171.654 122.099L171.784 121.849C171.767 121.84 171.749 121.833 171.731 121.828L171.654 122.099ZM161.996 169.097L162.175 169.314L161.996 169.097ZM149.965 177.32L149.827 177.564C149.913 177.613 150.018 177.613 150.103 177.564L149.965 177.32ZM138.036 169.097L137.855 169.313L138.036 169.097ZM121.53 129.444L121.282 129.313C121.278 129.32 121.274 129.328 121.271 129.336L121.53 129.444ZM134.758 124.269L134.991 124.112L134.758 124.269ZM141.946 126.853L142.002 127.129L141.946 126.853ZM143.645 125.592L143.905 125.7V125.7L143.645 125.592ZM143.801 125.396L143.875 125.124V125.124L143.801 125.396ZM145.988 123.54L146.1 123.283C146.005 123.241 145.895 123.256 145.814 123.32C145.733 123.384 145.693 123.487 145.711 123.589L145.988 123.54ZM147.445 121.752L147.278 121.526C147.18 121.598 147.14 121.725 147.179 121.84L147.445 121.752ZM144.828 117.014L144.675 117.25L144.828 117.014ZM130.575 113.685L130.595 113.966L130.602 113.965L130.575 113.685ZM110.683 138.072L110.964 138.058V138.058L110.683 138.072ZM135.184 178.698L135.361 178.479L135.184 178.698ZM149.014 187.956L148.879 188.203L148.879 188.203L149.014 187.956ZM150.914 187.956L151.048 188.203L151.049 188.203L150.914 187.956ZM164.936 178.698L165.111 178.918V178.918L164.936 178.698ZM188.859 135.302C188.859 135.366 188.859 135.43 188.859 135.493L189.421 135.495C189.421 135.431 189.421 135.367 189.421 135.302H188.859ZM168.338 113.632C175.889 114.406 181.015 118.275 184.258 122.729C187.509 127.192 188.859 132.23 188.859 135.302L189.421 135.302C189.421 132.102 188.028 126.95 184.713 122.398C181.391 117.836 176.13 113.866 168.395 113.073L168.338 113.632ZM158.293 114.498C161.633 113.486 165.329 113.323 168.338 113.632L168.395 113.073C165.329 112.758 161.556 112.922 158.13 113.96L158.293 114.498ZM153.67 116.71C154.836 115.785 156.293 115.006 158.281 114.502L158.142 113.957C156.08 114.48 154.55 115.294 153.321 116.27L153.67 116.71ZM150.176 120.915C150.963 119.167 152.179 117.789 153.66 116.718L153.331 116.262C151.78 117.383 150.496 118.835 149.663 120.685L150.176 120.915ZM149.901 123.198C149.879 123.194 149.842 123.18 149.802 123.108C149.759 123.031 149.72 122.899 149.714 122.699C149.703 122.299 149.824 121.696 150.176 120.915L149.663 120.685C149.291 121.511 149.137 122.201 149.152 122.715C149.16 122.972 149.21 123.202 149.312 123.383C149.417 123.57 149.582 123.711 149.8 123.751L149.901 123.198ZM150.247 122.504C150.134 122.748 150.025 122.95 149.929 123.084C149.881 123.151 149.845 123.187 149.825 123.203C149.801 123.221 149.834 123.186 149.902 123.198L149.799 123.751C149.958 123.781 150.087 123.71 150.167 123.649C150.25 123.585 150.323 123.499 150.386 123.412C150.513 123.235 150.64 122.994 150.758 122.74L150.247 122.504ZM150.45 123.575C150.549 123.303 150.658 123.01 150.766 122.72L150.239 122.524C150.131 122.814 150.022 123.108 149.922 123.382L150.45 123.575ZM150.147 126.622C150.096 126.521 150.054 126.359 150.034 126.136C150.014 125.917 150.017 125.657 150.043 125.373C150.095 124.804 150.237 124.156 150.45 123.575L149.922 123.382C149.692 124.009 149.54 124.704 149.483 125.322C149.455 125.631 149.45 125.925 149.474 126.186C149.497 126.443 149.548 126.685 149.646 126.877L150.147 126.622ZM150.805 125.94C150.747 126.278 150.561 126.543 150.391 126.657C150.307 126.714 150.254 126.717 150.233 126.714C150.226 126.712 150.19 126.707 150.147 126.622L149.646 126.877C149.751 127.085 149.921 127.232 150.142 127.268C150.35 127.303 150.548 127.23 150.706 127.123C151.02 126.911 151.278 126.502 151.359 126.036L150.805 125.94ZM151.975 122.98C151.759 123.452 151.493 124.048 151.269 124.592C151.05 125.126 150.856 125.643 150.805 125.94L151.359 126.036C151.398 125.811 151.564 125.353 151.789 124.806C152.009 124.271 152.272 123.683 152.486 123.214L151.975 122.98ZM151.827 124.825C152.052 124.217 152.292 123.65 152.487 123.212L151.974 122.983C151.775 123.429 151.53 124.007 151.3 124.63L151.827 124.825ZM151.693 127.722C151.672 127.714 151.607 127.668 151.548 127.486C151.493 127.314 151.461 127.073 151.461 126.781C151.461 126.199 151.587 125.473 151.827 124.825L151.3 124.63C151.038 125.337 150.899 126.129 150.899 126.781C150.899 127.106 150.933 127.411 151.013 127.659C151.09 127.896 151.23 128.143 151.486 128.245L151.693 127.722ZM152.266 126.41C152.125 126.842 151.998 127.227 151.861 127.487C151.792 127.619 151.736 127.687 151.699 127.715C151.683 127.727 151.68 127.725 151.687 127.724C151.696 127.722 151.7 127.725 151.693 127.722L151.486 128.245C151.693 128.327 151.888 128.278 152.04 128.162C152.175 128.059 152.277 127.904 152.359 127.749C152.523 127.437 152.665 126.999 152.801 126.584L152.266 126.41ZM152.591 125.487C152.473 125.776 152.367 126.102 152.266 126.41L152.801 126.584C152.903 126.272 153.003 125.966 153.111 125.7L152.591 125.487ZM154.484 122.79C154.252 122.632 154.252 122.632 154.252 122.632C154.252 122.632 154.252 122.632 154.251 122.632C154.251 122.632 154.251 122.632 154.251 122.632C154.251 122.632 154.251 122.633 154.251 122.633C154.25 122.634 154.249 122.635 154.248 122.637C154.245 122.641 154.242 122.646 154.237 122.652C154.228 122.666 154.215 122.686 154.198 122.711C154.163 122.762 154.114 122.836 154.053 122.928C153.932 123.112 153.766 123.367 153.587 123.656C153.231 124.227 152.812 124.946 152.591 125.487L153.111 125.7C153.312 125.207 153.709 124.524 154.064 123.953C154.24 123.67 154.403 123.418 154.522 123.238C154.582 123.147 154.63 123.075 154.664 123.025C154.681 123 154.694 122.981 154.702 122.968C154.707 122.962 154.71 122.957 154.712 122.954C154.713 122.952 154.714 122.951 154.715 122.95C154.715 122.95 154.715 122.949 154.715 122.949C154.715 122.949 154.716 122.949 154.716 122.949C154.716 122.949 154.716 122.949 154.716 122.949C154.716 122.949 154.716 122.949 154.484 122.79ZM153.471 125.405C153.708 124.888 154.022 124.269 154.279 123.776C154.407 123.531 154.52 123.317 154.601 123.166C154.641 123.09 154.674 123.03 154.696 122.988C154.707 122.967 154.716 122.951 154.722 122.941C154.725 122.935 154.727 122.931 154.728 122.929C154.729 122.927 154.73 122.926 154.73 122.926C154.73 122.925 154.73 122.925 154.73 122.925C154.73 122.925 154.731 122.925 154.731 122.925C154.731 122.925 154.731 122.925 154.731 122.925C154.731 122.925 154.731 122.925 154.484 122.79C154.237 122.656 154.237 122.656 154.237 122.656C154.237 122.656 154.237 122.656 154.237 122.656C154.237 122.656 154.236 122.656 154.236 122.656C154.236 122.657 154.236 122.657 154.236 122.657C154.236 122.658 154.235 122.659 154.234 122.66C154.233 122.663 154.23 122.667 154.227 122.673C154.221 122.684 154.213 122.7 154.201 122.721C154.179 122.763 154.146 122.824 154.105 122.901C154.023 123.054 153.909 123.269 153.78 123.516C153.522 124.011 153.203 124.641 152.96 125.171L153.471 125.405ZM153.365 127.137C153.31 127.141 153.285 127.127 153.258 127.089C153.218 127.034 153.179 126.925 153.168 126.747C153.147 126.397 153.245 125.898 153.471 125.405L152.96 125.171C152.706 125.725 152.578 126.317 152.607 126.781C152.62 127.011 152.674 127.241 152.801 127.417C152.94 127.61 153.153 127.718 153.41 127.697L153.365 127.137ZM154.052 126.086C153.899 126.434 153.78 126.705 153.654 126.895C153.528 127.085 153.437 127.131 153.365 127.137L153.41 127.697C153.741 127.67 153.962 127.447 154.122 127.206C154.282 126.966 154.422 126.643 154.567 126.311L154.052 126.086ZM154.675 124.816C154.41 125.266 154.216 125.711 154.052 126.086L154.567 126.311C154.732 125.934 154.914 125.518 155.16 125.101L154.675 124.816ZM157.273 122.69C157.121 122.454 157.121 122.454 157.121 122.454C157.121 122.454 157.121 122.454 157.121 122.454C157.121 122.454 157.121 122.454 157.121 122.454C157.12 122.454 157.12 122.454 157.12 122.455C157.119 122.455 157.117 122.456 157.115 122.457C157.112 122.46 157.107 122.463 157.1 122.467C157.087 122.476 157.068 122.488 157.044 122.504C156.996 122.537 156.927 122.584 156.843 122.644C156.674 122.764 156.441 122.937 156.185 123.15C155.678 123.571 155.059 124.163 154.675 124.816L155.16 125.101C155.494 124.532 156.053 123.99 156.544 123.583C156.787 123.381 157.008 123.216 157.169 123.102C157.249 123.045 157.314 123.001 157.358 122.971C157.38 122.956 157.397 122.945 157.408 122.938C157.414 122.934 157.418 122.931 157.421 122.929C157.422 122.929 157.423 122.928 157.424 122.928C157.424 122.927 157.424 122.927 157.424 122.927C157.424 122.927 157.424 122.927 157.424 122.927C157.424 122.927 157.424 122.927 157.424 122.927C157.424 122.927 157.424 122.927 157.273 122.69ZM157.116 124.685C157.11 124.602 157.126 124.447 157.165 124.235C157.203 124.032 157.257 123.803 157.313 123.584C157.369 123.367 157.426 123.164 157.469 123.015C157.491 122.941 157.509 122.88 157.522 122.838C157.528 122.817 157.533 122.801 157.536 122.79C157.538 122.784 157.539 122.78 157.54 122.778C157.54 122.776 157.541 122.775 157.541 122.775C157.541 122.774 157.541 122.774 157.541 122.774C157.541 122.774 157.541 122.774 157.541 122.774C157.541 122.774 157.541 122.774 157.541 122.774C157.541 122.774 157.541 122.774 157.273 122.69C157.004 122.607 157.004 122.607 157.004 122.607C157.004 122.607 157.004 122.607 157.004 122.607C157.004 122.607 157.004 122.607 157.004 122.607C157.004 122.608 157.004 122.608 157.004 122.608C157.004 122.609 157.003 122.61 157.003 122.612C157.002 122.615 157 122.619 156.999 122.625C156.995 122.637 156.99 122.654 156.983 122.676C156.97 122.719 156.952 122.782 156.929 122.858C156.885 123.01 156.826 123.219 156.768 123.444C156.711 123.669 156.653 123.912 156.612 124.133C156.573 124.345 156.543 124.564 156.556 124.727L157.116 124.685ZM157.752 125.526C157.379 125.43 157.147 125.088 157.116 124.685L156.556 124.727C156.6 125.306 156.948 125.899 157.612 126.07L157.752 125.526ZM158.574 124.22C158.329 124.659 158.127 125.022 157.951 125.267C157.863 125.391 157.794 125.466 157.744 125.504C157.693 125.544 157.705 125.514 157.752 125.526L157.612 126.07C157.806 126.121 157.974 126.037 158.088 125.949C158.203 125.86 158.31 125.733 158.408 125.595C158.607 125.317 158.827 124.921 159.065 124.493L158.574 124.22ZM159.945 122.033C159.393 122.744 158.942 123.557 158.574 124.22L159.065 124.493C159.437 123.824 159.868 123.049 160.389 122.378L159.945 122.033ZM171.731 121.828C169.19 121.108 166.489 120.875 164.319 120.951C163.235 120.989 162.275 121.105 161.53 121.28C161.157 121.367 160.832 121.471 160.568 121.59C160.311 121.707 160.086 121.851 159.945 122.033L160.389 122.378C160.448 122.302 160.576 122.204 160.801 122.102C161.02 122.003 161.308 121.909 161.658 121.827C162.358 121.663 163.279 121.55 164.339 121.513C166.459 121.439 169.101 121.668 171.578 122.369L171.731 121.828ZM181.187 138.072C181.187 130.992 177.506 124.833 171.784 121.849L171.524 122.348C177.048 125.228 180.625 131.187 180.625 138.072H181.187ZM162.175 169.314C174.468 159.177 181.187 147.223 181.187 138.072H180.625C180.625 146.983 174.049 158.794 161.818 168.88L162.175 169.314ZM150.103 177.564C154.581 175.039 158.614 172.251 162.175 169.314L161.818 168.88C158.282 171.796 154.277 174.565 149.827 177.075L150.103 177.564ZM137.855 169.313C141.355 172.25 145.348 175.038 149.827 177.564L150.103 177.075C145.654 174.565 141.69 171.797 138.217 168.882L137.855 169.313ZM119.537 138.072C119.537 147.217 125.771 159.171 137.855 169.313L138.217 168.882C126.205 158.8 120.099 146.99 120.099 138.072H119.537ZM121.271 129.336C120.143 132.03 119.537 135.027 119.537 138.072H120.099C120.099 135.1 120.691 132.178 121.79 129.553L121.271 129.336ZM134.991 124.112C134.42 123.267 133.458 122.796 132.327 122.647C131.196 122.498 129.871 122.666 128.521 123.125C125.821 124.042 122.966 126.139 121.282 129.313L121.779 129.576C123.389 126.541 126.123 124.533 128.702 123.657C129.991 123.219 131.227 123.069 132.253 123.204C133.28 123.339 134.071 123.755 134.525 124.427L134.991 124.112ZM141.89 126.578C141.212 126.716 139.889 126.712 138.523 126.357C137.157 126.002 135.799 125.308 134.991 124.112L134.525 124.427C135.439 125.781 136.947 126.528 138.381 126.901C139.814 127.274 141.225 127.287 142.002 127.129L141.89 126.578ZM143.386 125.483C143.318 125.646 143.231 125.85 143.027 126.049C142.824 126.246 142.486 126.456 141.89 126.578L142.002 127.129C142.686 126.989 143.127 126.736 143.419 126.452C143.71 126.169 143.832 125.873 143.905 125.7L143.386 125.483ZM143.875 125.124C143.794 125.102 143.705 125.109 143.624 125.152C143.555 125.189 143.512 125.243 143.488 125.278C143.444 125.342 143.409 125.429 143.386 125.483L143.905 125.7C143.919 125.666 143.93 125.641 143.939 125.621C143.949 125.599 143.953 125.594 143.951 125.596C143.951 125.596 143.932 125.625 143.889 125.648C143.866 125.66 143.838 125.67 143.807 125.673C143.776 125.676 143.749 125.673 143.728 125.667L143.875 125.124ZM145.711 123.589C145.816 124.189 145.673 124.653 145.386 124.921C145.102 125.186 144.61 125.323 143.875 125.124L143.728 125.667C144.583 125.899 145.3 125.771 145.77 125.332C146.236 124.896 146.392 124.217 146.265 123.492L145.711 123.589ZM147.179 121.84C147.349 122.351 147.344 122.872 147.179 123.167C147.104 123.302 146.999 123.387 146.85 123.419C146.691 123.454 146.45 123.435 146.1 123.283L145.876 123.798C146.288 123.977 146.655 124.037 146.969 123.969C147.294 123.899 147.526 123.7 147.67 123.441C147.944 122.95 147.906 122.245 147.712 121.663L147.179 121.84ZM144.675 117.25C145.253 117.626 146.39 118.411 147.128 119.276C147.499 119.712 147.739 120.135 147.787 120.51C147.831 120.855 147.719 121.198 147.278 121.526L147.613 121.977C148.198 121.543 148.418 121.008 148.345 120.439C148.276 119.901 147.951 119.376 147.556 118.912C146.761 117.979 145.563 117.156 144.982 116.779L144.675 117.25ZM130.602 113.965C134.863 113.557 139.918 114.158 144.675 117.25L144.982 116.779C140.092 113.601 134.903 112.988 130.548 113.405L130.602 113.965ZM110.964 138.058C110.581 130.062 112.874 124.239 116.552 120.319C120.234 116.396 125.33 114.353 130.595 113.966L130.554 113.405C125.174 113.8 119.938 115.89 116.142 119.935C112.344 123.982 110.013 129.962 110.402 138.085L110.964 138.058ZM135.361 178.479C120.722 166.592 111.602 151.389 110.964 138.058L110.402 138.085C111.05 151.631 120.294 166.969 135.007 178.916L135.361 178.479ZM149.148 187.709C144.154 184.984 139.534 181.868 135.361 178.479L135.007 178.916C139.207 182.326 143.854 185.462 148.879 188.203L149.148 187.709ZM149.964 187.916C149.682 187.916 149.403 187.848 149.148 187.709L148.879 188.203C149.218 188.388 149.591 188.478 149.964 188.478V187.916ZM150.78 187.709C150.526 187.847 150.245 187.916 149.964 187.916V188.478C150.337 188.478 150.711 188.386 151.048 188.203L150.78 187.709ZM164.762 178.477C160.503 181.852 155.808 184.966 150.779 187.709L151.049 188.203C156.105 185.444 160.827 182.313 165.111 178.918L164.762 178.477ZM189.077 138.515C189.077 151.872 179.581 166.734 164.762 178.477L165.111 178.918C179.992 167.126 189.639 152.12 189.639 138.515H189.077ZM188.861 135.534C189.004 136.534 189.077 137.531 189.077 138.515H189.639C189.639 137.503 189.564 136.48 189.418 135.454L188.861 135.534Z" fill="#0073B4"/>
<path d="M145.97 119.962C146.087 119.995 146.737 120.4 147.048 120.856C147.545 121.585 147.545 122.276 147.545 122.744" stroke="black" stroke-width="0.562232" stroke-linecap="round"/>
<path d="M144.532 121.367C144.648 121.405 145.303 121.943 145.591 122.413C145.878 122.884 146.021 123.453 146.021 124.07" stroke="black" stroke-width="0.562232" stroke-linecap="round"/>
<path d="M142.146 122.48C142.908 122.811 143.405 123.295 143.615 123.805C143.825 124.315 143.828 125.303 143.615 125.639" stroke="black" stroke-width="0.562232" stroke-linecap="round"/>
</g>
<defs>
<clipPath id="clip0_131_10209">
<rect width="300" height="300.875" fill="white" transform="translate(0 0.5625)"/>
</clipPath>
</defs>
</svg>
