<svg width="165" height="167" viewBox="0 0 165 167" fill="none" xmlns="http://www.w3.org/2000/svg">
<g clip-path="url(#clip0_2104_7647)">
<path d="M45.1149 0.621582H39.9609V5.7755H45.1149V0.621582Z" fill="white"/>
<path d="M55.099 0.621582H49.9451V5.7755H55.099V0.621582Z" fill="white"/>
<path d="M65.1096 0.621582H59.9557V5.7755H65.1096V0.621582Z" fill="white"/>
<path d="M70.0884 0.621582H64.9345V5.7755H70.0884V0.621582Z" fill="white"/>
<path d="M90.0811 0.621582H84.9272V5.7755H90.0811V0.621582Z" fill="white"/>
<path d="M95.0619 0.621582H89.908V5.7755H95.0619V0.621582Z" fill="white"/>
<path d="M120.033 0.621582H114.88V5.7755H120.033V0.621582Z" fill="white"/>
<path d="M125.039 0.621582H119.885V5.7755H125.039V0.621582Z" fill="white"/>
<path d="M45.1149 5.62598H39.9609V10.7799H45.1149V5.62598Z" fill="white"/>
<path d="M55.099 5.62598H49.9451V10.7799H55.099V5.62598Z" fill="white"/>
<path d="M60.1043 5.62598H54.9504V10.7799H60.1043V5.62598Z" fill="white"/>
<path d="M65.1096 5.62598H59.9557V10.7799H65.1096V5.62598Z" fill="white"/>
<path d="M75.0937 5.62598H69.9398V10.7799H75.0937V5.62598Z" fill="white"/>
<path d="M80.0725 5.62598H74.9186V10.7799H80.0725V5.62598Z" fill="white"/>
<path d="M90.0811 5.62598H84.9272V10.7799H90.0811V5.62598Z" fill="white"/>
<path d="M95.0619 5.62598H89.908V10.7799H95.0619V5.62598Z" fill="white"/>
<path d="M100.065 5.62598H94.9113V10.7799H100.065V5.62598Z" fill="white"/>
<path d="M110.049 5.62598H104.895V10.7799H110.049V5.62598Z" fill="white"/>
<path d="M115.055 5.62598H109.901V10.7799H115.055V5.62598Z" fill="white"/>
<path d="M125.039 5.62598H119.885V10.7799H125.039V5.62598Z" fill="white"/>
<path d="M45.1149 10.606H39.9609V15.7599H45.1149V10.606Z" fill="white"/>
<path d="M55.099 10.606H49.9451V15.7599H55.099V10.606Z" fill="white"/>
<path d="M60.1043 10.606H54.9504V15.7599H60.1043V10.606Z" fill="white"/>
<path d="M70.0884 10.606H64.9345V15.7599H70.0884V10.606Z" fill="white"/>
<path d="M80.0725 10.606H74.9186V15.7599H80.0725V10.606Z" fill="white"/>
<path d="M90.0811 10.606H84.9272V15.7599H90.0811V10.606Z" fill="white"/>
<path d="M105.071 10.606H99.9166V15.7599H105.071V10.606Z" fill="white"/>
<path d="M110.049 10.606H104.895V15.7599H110.049V10.606Z" fill="white"/>
<path d="M115.055 10.606H109.901V15.7599H115.055V10.606Z" fill="white"/>
<path d="M120.033 10.606H114.88V15.7599H120.033V10.606Z" fill="white"/>
<path d="M125.039 10.606H119.885V15.7599H125.039V10.606Z" fill="white"/>
<path d="M70.0884 15.6099H64.9345V20.7638H70.0884V15.6099Z" fill="white"/>
<path d="M95.0619 15.6099H89.908V20.7638H95.0619V15.6099Z" fill="white"/>
<path d="M100.065 15.6099H94.9113V20.7638H100.065V15.6099Z" fill="white"/>
<path d="M115.055 15.6099H109.901V20.7638H115.055V15.6099Z" fill="white"/>
<path d="M120.033 15.6099H114.88V20.7638H120.033V15.6099Z" fill="white"/>
<path d="M55.099 20.6147H49.9451V25.7687H55.099V20.6147Z" fill="white"/>
<path d="M70.0884 20.6147H64.9345V25.7687H70.0884V20.6147Z" fill="white"/>
<path d="M75.0937 20.6147H69.9398V25.7687H75.0937V20.6147Z" fill="white"/>
<path d="M80.0725 20.6147H74.9186V25.7687H80.0725V20.6147Z" fill="white"/>
<path d="M85.0778 20.6147H79.9239V25.7687H85.0778V20.6147Z" fill="white"/>
<path d="M90.0811 20.6147H84.9272V25.7687H90.0811V20.6147Z" fill="white"/>
<path d="M95.0619 20.6147H89.908V25.7687H95.0619V20.6147Z" fill="white"/>
<path d="M105.071 20.6147H99.9166V25.7687H105.071V20.6147Z" fill="white"/>
<path d="M110.049 20.6147H104.895V25.7687H110.049V20.6147Z" fill="white"/>
<path d="M125.039 20.6147H119.885V25.7687H125.039V20.6147Z" fill="white"/>
<path d="M45.1149 25.5938H39.9609V30.7477H45.1149V25.5938Z" fill="white"/>
<path d="M50.1202 25.5938H44.9662V30.7477H50.1202V25.5938Z" fill="white"/>
<path d="M85.0778 25.5938H79.9239V30.7477H85.0778V25.5938Z" fill="white"/>
<path d="M100.065 25.5938H94.9113V30.7477H100.065V25.5938Z" fill="white"/>
<path d="M110.049 25.5938H104.895V30.7477H110.049V25.5938Z" fill="white"/>
<path d="M115.055 25.5938H109.901V30.7477H115.055V25.5938Z" fill="white"/>
<path d="M45.1149 30.5991H39.9609V35.753H45.1149V30.5991Z" fill="white"/>
<path d="M55.099 30.5991H49.9451V35.753H55.099V30.5991Z" fill="white"/>
<path d="M65.1096 30.5991H59.9557V35.753H65.1096V30.5991Z" fill="white"/>
<path d="M75.0937 30.5991H69.9398V35.753H75.0937V30.5991Z" fill="white"/>
<path d="M85.0778 30.5991H79.9239V35.753H85.0778V30.5991Z" fill="white"/>
<path d="M95.0619 30.5991H89.908V35.753H95.0619V30.5991Z" fill="white"/>
<path d="M105.071 30.5991H99.9166V35.753H105.071V30.5991Z" fill="white"/>
<path d="M115.055 30.5991H109.901V35.753H115.055V30.5991Z" fill="white"/>
<path d="M125.039 30.5991H119.885V35.753H125.039V30.5991Z" fill="white"/>
<path d="M45.1149 35.5786H39.9609V40.7325H45.1149V35.5786Z" fill="white"/>
<path d="M100.065 35.5786H94.9113V40.7325H100.065V35.5786Z" fill="white"/>
<path d="M105.071 35.5786H99.9166V40.7325H105.071V35.5786Z" fill="white"/>
<path d="M110.049 35.5786H104.895V40.7325H110.049V35.5786Z" fill="white"/>
<path d="M125.039 35.5786H119.885V40.7325H125.039V35.5786Z" fill="white"/>
<path d="M15.138 40.583H9.98413V45.7369H15.138V40.583Z" fill="white"/>
<path d="M20.1434 40.583H14.9894V45.7369H20.1434V40.583Z" fill="white"/>
<path d="M25.1466 40.583H19.9927V45.7369H25.1466V40.583Z" fill="white"/>
<path d="M35.1307 40.583H29.9768V45.7369H35.1307V40.583Z" fill="white"/>
<path d="M45.1149 40.583H39.9609V45.7369H45.1149V40.583Z" fill="white"/>
<path d="M50.1202 40.583H44.9662V45.7369H50.1202V40.583Z" fill="white"/>
<path d="M55.099 40.583H49.9451V45.7369H55.099V40.583Z" fill="white"/>
<path d="M65.1096 40.583H59.9557V45.7369H65.1096V40.583Z" fill="white"/>
<path d="M90.0811 40.583H84.9272V45.7369H90.0811V40.583Z" fill="white"/>
<path d="M125.039 40.583H119.885V45.7369H125.039V40.583Z" fill="white"/>
<path d="M130.042 40.583H124.888V45.7369H130.042V40.583Z" fill="white"/>
<path d="M135.023 40.583H129.869V45.7369H135.023V40.583Z" fill="white"/>
<path d="M140.026 40.583H134.872V45.7369H140.026V40.583Z" fill="white"/>
<path d="M155.016 40.583H149.862V45.7369H155.016V40.583Z" fill="white"/>
<path d="M159.996 40.583H154.843V45.7369H159.996V40.583Z" fill="white"/>
<path d="M165 40.583H159.846V45.7369H165V40.583Z" fill="white"/>
<path d="M15.138 45.5879H9.98413V50.7418H15.138V45.5879Z" fill="white"/>
<path d="M30.1275 45.5879H24.9735V50.7418H30.1275V45.5879Z" fill="white"/>
<path d="M55.099 45.5879H49.9451V50.7418H55.099V45.5879Z" fill="white"/>
<path d="M65.1096 45.5879H59.9557V50.7418H65.1096V45.5879Z" fill="white"/>
<path d="M70.0884 45.5879H64.9345V50.7418H70.0884V45.5879Z" fill="white"/>
<path d="M75.0937 45.5879H69.9398V50.7418H75.0937V45.5879Z" fill="white"/>
<path d="M80.0725 45.5879H74.9186V50.7418H80.0725V45.5879Z" fill="white"/>
<path d="M85.0778 45.5879H79.9239V50.7418H85.0778V45.5879Z" fill="white"/>
<path d="M95.0619 45.5879H89.908V50.7418H95.0619V45.5879Z" fill="white"/>
<path d="M120.033 45.5879H114.88V50.7418H120.033V45.5879Z" fill="white"/>
<path d="M130.042 45.5879H124.888V50.7418H130.042V45.5879Z" fill="white"/>
<path d="M135.023 45.5879H129.869V50.7418H135.023V45.5879Z" fill="white"/>
<path d="M150.012 45.5879H144.858V50.7418H150.012V45.5879Z" fill="white"/>
<path d="M165 45.5879H159.846V50.7418H165V45.5879Z" fill="white"/>
<path d="M25.1466 50.5674H19.9927V55.7213H25.1466V50.5674Z" fill="white"/>
<path d="M35.1307 50.5674H29.9768V55.7213H35.1307V50.5674Z" fill="white"/>
<path d="M40.1116 50.5674H34.9577V55.7213H40.1116V50.5674Z" fill="white"/>
<path d="M65.1096 50.5674H59.9557V55.7213H65.1096V50.5674Z" fill="white"/>
<path d="M70.0884 50.5674H64.9345V55.7213H70.0884V50.5674Z" fill="white"/>
<path d="M75.0937 50.5674H69.9398V55.7213H75.0937V50.5674Z" fill="white"/>
<path d="M80.0725 50.5674H74.9186V55.7213H80.0725V50.5674Z" fill="white"/>
<path d="M90.0811 50.5674H84.9272V55.7213H90.0811V50.5674Z" fill="white"/>
<path d="M115.055 50.5674H109.901V55.7213H115.055V50.5674Z" fill="white"/>
<path d="M125.039 50.5674H119.885V55.7213H125.039V50.5674Z" fill="white"/>
<path d="M140.026 50.5674H134.872V55.7213H140.026V50.5674Z" fill="white"/>
<path d="M155.016 50.5674H149.862V55.7213H155.016V50.5674Z" fill="white"/>
<path d="M159.996 50.5674H154.843V55.7213H159.996V50.5674Z" fill="white"/>
<path d="M5.15392 55.5723H0V60.7262H5.15392V55.5723Z" fill="white"/>
<path d="M10.1592 55.5723H5.00531V60.7262H10.1592V55.5723Z" fill="white"/>
<path d="M40.1116 55.5723H34.9577V60.7262H40.1116V55.5723Z" fill="white"/>
<path d="M50.1202 55.5723H44.9662V60.7262H50.1202V55.5723Z" fill="white"/>
<path d="M55.099 55.5723H49.9451V60.7262H55.099V55.5723Z" fill="white"/>
<path d="M70.0884 55.5723H64.9345V60.7262H70.0884V55.5723Z" fill="white"/>
<path d="M75.0937 55.5723H69.9398V60.7262H75.0937V55.5723Z" fill="white"/>
<path d="M90.0811 55.5723H84.9272V60.7262H90.0811V55.5723Z" fill="white"/>
<path d="M100.065 55.5723H94.9113V60.7262H100.065V55.5723Z" fill="white"/>
<path d="M105.071 55.5723H99.9166V60.7262H105.071V55.5723Z" fill="white"/>
<path d="M120.033 55.5723H114.88V60.7262H120.033V55.5723Z" fill="white"/>
<path d="M135.023 55.5723H129.869V60.7262H135.023V55.5723Z" fill="white"/>
<path d="M150.012 55.5723H144.858V60.7262H150.012V55.5723Z" fill="white"/>
<path d="M155.016 55.5723H149.862V60.7262H155.016V55.5723Z" fill="white"/>
<path d="M10.1592 60.5762H5.00531V65.7301H10.1592V60.5762Z" fill="white"/>
<path d="M35.1307 60.5762H29.9768V65.7301H35.1307V60.5762Z" fill="white"/>
<path d="M45.1149 60.5762H39.9609V65.7301H45.1149V60.5762Z" fill="white"/>
<path d="M110.049 60.5762H104.895V65.7301H110.049V60.5762Z" fill="white"/>
<path d="M115.055 60.5762H109.901V65.7301H115.055V60.5762Z" fill="white"/>
<path d="M120.033 60.5762H114.88V65.7301H120.033V60.5762Z" fill="white"/>
<path d="M125.039 60.5762H119.885V65.7301H125.039V60.5762Z" fill="white"/>
<path d="M130.042 60.5762H124.888V65.7301H130.042V60.5762Z" fill="white"/>
<path d="M140.026 60.5762H134.872V65.7301H140.026V60.5762Z" fill="white"/>
<path d="M159.996 60.5762H154.843V65.7301H159.996V60.5762Z" fill="white"/>
<path d="M5.15392 65.5557H0V70.7096H5.15392V65.5557Z" fill="white"/>
<path d="M25.1466 65.5557H19.9927V70.7096H25.1466V65.5557Z" fill="white"/>
<path d="M40.1116 65.5557H34.9577V70.7096H40.1116V65.5557Z" fill="white"/>
<path d="M55.099 65.5557H49.9451V70.7096H55.099V65.5557Z" fill="white"/>
<path d="M60.1043 65.5557H54.9504V70.7096H60.1043V65.5557Z" fill="white"/>
<path d="M120.033 65.5557H114.88V70.7096H120.033V65.5557Z" fill="white"/>
<path d="M125.039 65.5557H119.885V70.7096H125.039V65.5557Z" fill="white"/>
<path d="M130.042 65.5557H124.888V70.7096H130.042V65.5557Z" fill="white"/>
<path d="M135.023 65.5557H129.869V70.7096H135.023V65.5557Z" fill="white"/>
<path d="M145.031 65.5557H139.878V70.7096H145.031V65.5557Z" fill="white"/>
<path d="M150.012 65.5557H144.858V70.7096H150.012V65.5557Z" fill="white"/>
<path d="M155.016 65.5557H149.862V70.7096H155.016V65.5557Z" fill="white"/>
<path d="M165 65.5557H159.846V70.7096H165V65.5557Z" fill="white"/>
<path d="M20.1434 70.5601H14.9894V75.714H20.1434V70.5601Z" fill="white"/>
<path d="M35.1307 70.5601H29.9768V75.714H35.1307V70.5601Z" fill="white"/>
<path d="M50.1202 70.5601H44.9662V75.714H50.1202V70.5601Z" fill="white"/>
<path d="M55.099 70.5601H49.9451V75.714H55.099V70.5601Z" fill="white"/>
<path d="M115.055 70.5601H109.901V75.714H115.055V70.5601Z" fill="white"/>
<path d="M130.042 70.5601H124.888V75.714H130.042V70.5601Z" fill="white"/>
<path d="M140.026 70.5601H134.872V75.714H140.026V70.5601Z" fill="white"/>
<path d="M145.031 70.5601H139.878V75.714H145.031V70.5601Z" fill="white"/>
<path d="M150.012 70.5601H144.858V75.714H150.012V70.5601Z" fill="white"/>
<path d="M155.016 70.5601H149.862V75.714H155.016V70.5601Z" fill="white"/>
<path d="M159.996 70.5601H154.843V75.714H159.996V70.5601Z" fill="white"/>
<path d="M15.138 75.54H9.98413V80.694H15.138V75.54Z" fill="white"/>
<path d="M25.1466 75.54H19.9927V80.694H25.1466V75.54Z" fill="white"/>
<path d="M30.1275 75.54H24.9735V80.694H30.1275V75.54Z" fill="white"/>
<path d="M40.1116 75.54H34.9577V80.694H40.1116V75.54Z" fill="white"/>
<path d="M45.1149 75.54H39.9609V80.694H45.1149V75.54Z" fill="white"/>
<path d="M55.099 75.54H49.9451V80.694H55.099V75.54Z" fill="white"/>
<path d="M110.049 75.54H104.895V80.694H110.049V75.54Z" fill="white"/>
<path d="M115.055 75.54H109.901V80.694H115.055V75.54Z" fill="white"/>
<path d="M135.023 75.54H129.869V80.694H135.023V75.54Z" fill="white"/>
<path d="M145.031 75.54H139.878V80.694H145.031V75.54Z" fill="white"/>
<path d="M155.016 75.54H149.862V80.694H155.016V75.54Z" fill="white"/>
<path d="M10.1592 80.5439H5.00531V85.6979H10.1592V80.5439Z" fill="white"/>
<path d="M15.138 80.5439H9.98413V85.6979H15.138V80.5439Z" fill="white"/>
<path d="M30.1275 80.5439H24.9735V85.6979H30.1275V80.5439Z" fill="white"/>
<path d="M35.1307 80.5439H29.9768V85.6979H35.1307V80.5439Z" fill="white"/>
<path d="M50.1202 80.5439H44.9662V85.6979H50.1202V80.5439Z" fill="white"/>
<path d="M130.042 80.5439H124.888V85.6979H130.042V80.5439Z" fill="white"/>
<path d="M140.026 80.5439H134.872V85.6979H140.026V80.5439Z" fill="white"/>
<path d="M145.031 80.5439H139.878V85.6979H145.031V80.5439Z" fill="white"/>
<path d="M159.996 80.5439H154.843V85.6979H159.996V80.5439Z" fill="white"/>
<path d="M165 80.5439H159.846V85.6979H165V80.5439Z" fill="white"/>
<path d="M5.15392 85.5493H0V90.7032H5.15392V85.5493Z" fill="white"/>
<path d="M10.1592 85.5493H5.00531V90.7032H10.1592V85.5493Z" fill="white"/>
<path d="M15.138 85.5493H9.98413V90.7032H15.138V85.5493Z" fill="white"/>
<path d="M20.1434 85.5493H14.9894V90.7032H20.1434V85.5493Z" fill="white"/>
<path d="M30.1275 85.5493H24.9735V90.7032H30.1275V85.5493Z" fill="white"/>
<path d="M40.1116 85.5493H34.9577V90.7032H40.1116V85.5493Z" fill="white"/>
<path d="M45.1149 85.5493H39.9609V90.7032H45.1149V85.5493Z" fill="white"/>
<path d="M50.1202 85.5493H44.9662V90.7032H50.1202V85.5493Z" fill="white"/>
<path d="M60.1043 85.5493H54.9504V90.7032H60.1043V85.5493Z" fill="white"/>
<path d="M110.049 85.5493H104.895V90.7032H110.049V85.5493Z" fill="white"/>
<path d="M120.033 85.5493H114.88V90.7032H120.033V85.5493Z" fill="white"/>
<path d="M125.039 85.5493H119.885V90.7032H125.039V85.5493Z" fill="white"/>
<path d="M135.023 85.5493H129.869V90.7032H135.023V85.5493Z" fill="white"/>
<path d="M159.996 85.5493H154.843V90.7032H159.996V85.5493Z" fill="white"/>
<path d="M165 85.5493H159.846V90.7032H165V85.5493Z" fill="white"/>
<path d="M15.138 90.5283H9.98413V95.6822H15.138V90.5283Z" fill="white"/>
<path d="M30.1275 90.5283H24.9735V95.6822H30.1275V90.5283Z" fill="white"/>
<path d="M35.1307 90.5283H29.9768V95.6822H35.1307V90.5283Z" fill="white"/>
<path d="M40.1116 90.5283H34.9577V95.6822H40.1116V90.5283Z" fill="white"/>
<path d="M45.1149 90.5283H39.9609V95.6822H45.1149V90.5283Z" fill="white"/>
<path d="M50.1202 90.5283H44.9662V95.6822H50.1202V90.5283Z" fill="white"/>
<path d="M110.049 90.5283H104.895V95.6822H110.049V90.5283Z" fill="white"/>
<path d="M115.055 90.5283H109.901V95.6822H115.055V90.5283Z" fill="white"/>
<path d="M155.016 90.5283H149.862V95.6822H155.016V90.5283Z" fill="white"/>
<path d="M159.996 90.5283H154.843V95.6822H159.996V90.5283Z" fill="white"/>
<path d="M5.15392 95.5337H0V100.688H5.15392V95.5337Z" fill="white"/>
<path d="M10.1592 95.5337H5.00531V100.688H10.1592V95.5337Z" fill="white"/>
<path d="M15.138 95.5337H9.98413V100.688H15.138V95.5337Z" fill="white"/>
<path d="M25.1466 95.5337H19.9927V100.688H25.1466V95.5337Z" fill="white"/>
<path d="M40.1116 95.5337H34.9577V100.688H40.1116V95.5337Z" fill="white"/>
<path d="M55.099 95.5337H49.9451V100.688H55.099V95.5337Z" fill="white"/>
<path d="M60.1043 95.5337H54.9504V100.688H60.1043V95.5337Z" fill="white"/>
<path d="M110.049 95.5337H104.895V100.688H110.049V95.5337Z" fill="white"/>
<path d="M120.033 95.5337H114.88V100.688H120.033V95.5337Z" fill="white"/>
<path d="M125.039 95.5337H119.885V100.688H125.039V95.5337Z" fill="white"/>
<path d="M130.042 95.5337H124.888V100.688H130.042V95.5337Z" fill="white"/>
<path d="M145.031 95.5337H139.878V100.688H145.031V95.5337Z" fill="white"/>
<path d="M150.012 95.5337H144.858V100.688H150.012V95.5337Z" fill="white"/>
<path d="M155.016 95.5337H149.862V100.688H155.016V95.5337Z" fill="white"/>
<path d="M165 95.5337H159.846V100.688H165V95.5337Z" fill="white"/>
<path d="M10.1592 100.538H5.00531V105.692H10.1592V100.538Z" fill="white"/>
<path d="M15.138 100.538H9.98413V105.692H15.138V100.538Z" fill="white"/>
<path d="M30.1275 100.538H24.9735V105.692H30.1275V100.538Z" fill="white"/>
<path d="M35.1307 100.538H29.9768V105.692H35.1307V100.538Z" fill="white"/>
<path d="M40.1116 100.538H34.9577V105.692H40.1116V100.538Z" fill="white"/>
<path d="M45.1149 100.538H39.9609V105.692H45.1149V100.538Z" fill="white"/>
<path d="M50.1202 100.538H44.9662V105.692H50.1202V100.538Z" fill="white"/>
<path d="M55.099 100.538H49.9451V105.692H55.099V100.538Z" fill="white"/>
<path d="M60.1043 100.538H54.9504V105.692H60.1043V100.538Z" fill="white"/>
<path d="M115.055 100.538H109.901V105.692H115.055V100.538Z" fill="white"/>
<path d="M125.039 100.538H119.885V105.692H125.039V100.538Z" fill="white"/>
<path d="M145.031 100.538H139.878V105.692H145.031V100.538Z" fill="white"/>
<path d="M150.012 100.538H144.858V105.692H150.012V100.538Z" fill="white"/>
<path d="M5.15392 105.518H0V110.671H5.15392V105.518Z" fill="white"/>
<path d="M25.1466 105.518H19.9927V110.671H25.1466V105.518Z" fill="white"/>
<path d="M30.1275 105.518H24.9735V110.671H30.1275V105.518Z" fill="white"/>
<path d="M40.1116 105.518H34.9577V110.671H40.1116V105.518Z" fill="white"/>
<path d="M45.1149 105.518H39.9609V110.671H45.1149V105.518Z" fill="white"/>
<path d="M50.1202 105.518H44.9662V110.671H50.1202V105.518Z" fill="white"/>
<path d="M55.099 105.518H49.9451V110.671H55.099V105.518Z" fill="white"/>
<path d="M60.1043 105.518H54.9504V110.671H60.1043V105.518Z" fill="white"/>
<path d="M80.0725 105.518H74.9186V110.671H80.0725V105.518Z" fill="white"/>
<path d="M85.0778 105.518H79.9239V110.671H85.0778V105.518Z" fill="white"/>
<path d="M95.0619 105.518H89.908V110.671H95.0619V105.518Z" fill="white"/>
<path d="M130.042 105.518H124.888V110.671H130.042V105.518Z" fill="white"/>
<path d="M150.012 105.518H144.858V110.671H150.012V105.518Z" fill="white"/>
<path d="M165 105.518H159.846V110.671H165V105.518Z" fill="white"/>
<path d="M5.15392 110.522H0V115.676H5.15392V110.522Z" fill="white"/>
<path d="M35.1307 110.522H29.9768V115.676H35.1307V110.522Z" fill="white"/>
<path d="M60.1043 110.522H54.9504V115.676H60.1043V110.522Z" fill="white"/>
<path d="M100.065 110.522H94.9113V115.676H100.065V110.522Z" fill="white"/>
<path d="M115.055 110.522H109.901V115.676H115.055V110.522Z" fill="white"/>
<path d="M120.033 110.522H114.88V115.676H120.033V110.522Z" fill="white"/>
<path d="M125.039 110.522H119.885V115.676H125.039V110.522Z" fill="white"/>
<path d="M140.026 110.522H134.872V115.676H140.026V110.522Z" fill="white"/>
<path d="M145.031 110.522H139.878V115.676H145.031V110.522Z" fill="white"/>
<path d="M150.012 110.522H144.858V115.676H150.012V110.522Z" fill="white"/>
<path d="M159.996 110.522H154.843V115.676H159.996V110.522Z" fill="white"/>
<path d="M5.15392 115.502H0V120.656H5.15392V115.502Z" fill="white"/>
<path d="M50.1202 115.502H44.9662V120.656H50.1202V115.502Z" fill="white"/>
<path d="M55.099 115.502H49.9451V120.656H55.099V115.502Z" fill="white"/>
<path d="M70.0884 115.502H64.9345V120.656H70.0884V115.502Z" fill="white"/>
<path d="M75.0937 115.502H69.9398V120.656H75.0937V115.502Z" fill="white"/>
<path d="M80.0725 115.502H74.9186V120.656H80.0725V115.502Z" fill="white"/>
<path d="M90.0811 115.502H84.9272V120.656H90.0811V115.502Z" fill="white"/>
<path d="M95.0619 115.502H89.908V120.656H95.0619V115.502Z" fill="white"/>
<path d="M100.065 115.502H94.9113V120.656H100.065V115.502Z" fill="white"/>
<path d="M110.049 115.502H104.895V120.656H110.049V115.502Z" fill="white"/>
<path d="M120.033 115.502H114.88V120.656H120.033V115.502Z" fill="white"/>
<path d="M140.026 115.502H134.872V120.656H140.026V115.502Z" fill="white"/>
<path d="M150.012 115.502H144.858V120.656H150.012V115.502Z" fill="white"/>
<path d="M155.016 115.502H149.862V120.656H155.016V115.502Z" fill="white"/>
<path d="M159.996 115.502H154.843V120.656H159.996V115.502Z" fill="white"/>
<path d="M5.15392 120.506H0V125.66H5.15392V120.506Z" fill="white"/>
<path d="M20.1434 120.506H14.9894V125.66H20.1434V120.506Z" fill="white"/>
<path d="M35.1307 120.506H29.9768V125.66H35.1307V120.506Z" fill="white"/>
<path d="M55.099 120.506H49.9451V125.66H55.099V120.506Z" fill="white"/>
<path d="M65.1096 120.506H59.9557V125.66H65.1096V120.506Z" fill="white"/>
<path d="M70.0884 120.506H64.9345V125.66H70.0884V120.506Z" fill="white"/>
<path d="M80.0725 120.506H74.9186V125.66H80.0725V120.506Z" fill="white"/>
<path d="M90.0811 120.506H84.9272V125.66H90.0811V120.506Z" fill="white"/>
<path d="M95.0619 120.506H89.908V125.66H95.0619V120.506Z" fill="white"/>
<path d="M100.065 120.506H94.9113V125.66H100.065V120.506Z" fill="white"/>
<path d="M105.071 120.506H99.9166V125.66H105.071V120.506Z" fill="white"/>
<path d="M115.055 120.506H109.901V125.66H115.055V120.506Z" fill="white"/>
<path d="M120.033 120.506H114.88V125.66H120.033V120.506Z" fill="white"/>
<path d="M125.039 120.506H119.885V125.66H125.039V120.506Z" fill="white"/>
<path d="M130.042 120.506H124.888V125.66H130.042V120.506Z" fill="white"/>
<path d="M135.023 120.506H129.869V125.66H135.023V120.506Z" fill="white"/>
<path d="M140.026 120.506H134.872V125.66H140.026V120.506Z" fill="white"/>
<path d="M145.031 120.506H139.878V125.66H145.031V120.506Z" fill="white"/>
<path d="M159.996 120.506H154.843V125.66H159.996V120.506Z" fill="white"/>
<path d="M45.1149 125.51H39.9609V130.664H45.1149V125.51Z" fill="white"/>
<path d="M55.099 125.51H49.9451V130.664H55.099V125.51Z" fill="white"/>
<path d="M60.1043 125.51H54.9504V130.664H60.1043V125.51Z" fill="white"/>
<path d="M65.1096 125.51H59.9557V130.664H65.1096V125.51Z" fill="white"/>
<path d="M95.0619 125.51H89.908V130.664H95.0619V125.51Z" fill="white"/>
<path d="M110.049 125.51H104.895V130.664H110.049V125.51Z" fill="white"/>
<path d="M115.055 125.51H109.901V130.664H115.055V125.51Z" fill="white"/>
<path d="M125.039 125.51H119.885V130.664H125.039V125.51Z" fill="white"/>
<path d="M145.031 125.51H139.878V130.664H145.031V125.51Z" fill="white"/>
<path d="M155.016 125.51H149.862V130.664H155.016V125.51Z" fill="white"/>
<path d="M165 125.51H159.846V130.664H165V125.51Z" fill="white"/>
<path d="M50.1202 130.49H44.9662V135.644H50.1202V130.49Z" fill="white"/>
<path d="M75.0937 130.49H69.9398V135.644H75.0937V130.49Z" fill="white"/>
<path d="M85.0778 130.49H79.9239V135.644H85.0778V130.49Z" fill="white"/>
<path d="M95.0619 130.49H89.908V135.644H95.0619V130.49Z" fill="white"/>
<path d="M110.049 130.49H104.895V135.644H110.049V130.49Z" fill="white"/>
<path d="M120.033 130.49H114.88V135.644H120.033V130.49Z" fill="white"/>
<path d="M125.039 130.49H119.885V135.644H125.039V130.49Z" fill="white"/>
<path d="M135.023 130.49H129.869V135.644H135.023V130.49Z" fill="white"/>
<path d="M145.031 130.49H139.878V135.644H145.031V130.49Z" fill="white"/>
<path d="M150.012 130.49H144.858V135.644H150.012V130.49Z" fill="white"/>
<path d="M155.016 130.49H149.862V135.644H155.016V130.49Z" fill="white"/>
<path d="M159.996 130.49H154.843V135.644H159.996V130.49Z" fill="white"/>
<path d="M50.1202 135.495H44.9662V140.649H50.1202V135.495Z" fill="white"/>
<path d="M60.1043 135.495H54.9504V140.649H60.1043V135.495Z" fill="white"/>
<path d="M80.0725 135.495H74.9186V140.649H80.0725V135.495Z" fill="white"/>
<path d="M90.0811 135.495H84.9272V140.649H90.0811V135.495Z" fill="white"/>
<path d="M95.0619 135.495H89.908V140.649H95.0619V135.495Z" fill="white"/>
<path d="M100.065 135.495H94.9113V140.649H100.065V135.495Z" fill="white"/>
<path d="M110.049 135.495H104.895V140.649H110.049V135.495Z" fill="white"/>
<path d="M115.055 135.495H109.901V140.649H115.055V135.495Z" fill="white"/>
<path d="M120.033 135.495H114.88V140.649H120.033V135.495Z" fill="white"/>
<path d="M125.039 135.495H119.885V140.649H125.039V135.495Z" fill="white"/>
<path d="M145.031 135.495H139.878V140.649H145.031V135.495Z" fill="white"/>
<path d="M155.016 135.495H149.862V140.649H155.016V135.495Z" fill="white"/>
<path d="M159.996 135.495H154.843V140.649H159.996V135.495Z" fill="white"/>
<path d="M165 135.495H159.846V140.649H165V135.495Z" fill="white"/>
<path d="M45.1149 140.5H39.9609V145.653H45.1149V140.5Z" fill="white"/>
<path d="M75.0937 140.5H69.9398V145.653H75.0937V140.5Z" fill="white"/>
<path d="M95.0619 140.5H89.908V145.653H95.0619V140.5Z" fill="white"/>
<path d="M105.071 140.5H99.9166V145.653H105.071V140.5Z" fill="white"/>
<path d="M110.049 140.5H104.895V145.653H110.049V140.5Z" fill="white"/>
<path d="M125.039 140.5H119.885V145.653H125.039V140.5Z" fill="white"/>
<path d="M130.042 140.5H124.888V145.653H130.042V140.5Z" fill="white"/>
<path d="M135.023 140.5H129.869V145.653H135.023V140.5Z" fill="white"/>
<path d="M140.026 140.5H134.872V145.653H140.026V140.5Z" fill="white"/>
<path d="M145.031 140.5H139.878V145.653H145.031V140.5Z" fill="white"/>
<path d="M159.996 140.5H154.843V145.653H159.996V140.5Z" fill="white"/>
<path d="M165 140.5H159.846V145.653H165V140.5Z" fill="white"/>
<path d="M45.1149 145.479H39.9609V150.632H45.1149V145.479Z" fill="white"/>
<path d="M50.1202 145.479H44.9662V150.632H50.1202V145.479Z" fill="white"/>
<path d="M65.1096 145.479H59.9557V150.632H65.1096V145.479Z" fill="white"/>
<path d="M70.0884 145.479H64.9345V150.632H70.0884V145.479Z" fill="white"/>
<path d="M75.0937 145.479H69.9398V150.632H75.0937V145.479Z" fill="white"/>
<path d="M80.0725 145.479H74.9186V150.632H80.0725V145.479Z" fill="white"/>
<path d="M85.0778 145.479H79.9239V150.632H85.0778V145.479Z" fill="white"/>
<path d="M100.065 145.479H94.9113V150.632H100.065V145.479Z" fill="white"/>
<path d="M115.055 145.479H109.901V150.632H115.055V145.479Z" fill="white"/>
<path d="M120.033 145.479H114.88V150.632H120.033V145.479Z" fill="white"/>
<path d="M130.042 145.479H124.888V150.632H130.042V145.479Z" fill="white"/>
<path d="M145.031 145.479H139.878V150.632H145.031V145.479Z" fill="white"/>
<path d="M150.012 145.479H144.858V150.632H150.012V145.479Z" fill="white"/>
<path d="M159.996 145.479H154.843V150.632H159.996V145.479Z" fill="white"/>
<path d="M45.1149 150.484H39.9609V155.638H45.1149V150.484Z" fill="white"/>
<path d="M50.1202 150.484H44.9662V155.638H50.1202V150.484Z" fill="white"/>
<path d="M55.099 150.484H49.9451V155.638H55.099V150.484Z" fill="white"/>
<path d="M60.1043 150.484H54.9504V155.638H60.1043V150.484Z" fill="white"/>
<path d="M80.0725 150.484H74.9186V155.638H80.0725V150.484Z" fill="white"/>
<path d="M100.065 150.484H94.9113V155.638H100.065V150.484Z" fill="white"/>
<path d="M120.033 150.484H114.88V155.638H120.033V150.484Z" fill="white"/>
<path d="M130.042 150.484H124.888V155.638H130.042V150.484Z" fill="white"/>
<path d="M135.023 150.484H129.869V155.638H135.023V150.484Z" fill="white"/>
<path d="M150.012 150.484H144.858V155.638H150.012V150.484Z" fill="white"/>
<path d="M55.099 155.463H49.9451V160.617H55.099V155.463Z" fill="white"/>
<path d="M60.1043 155.463H54.9504V160.617H60.1043V155.463Z" fill="white"/>
<path d="M70.0884 155.463H64.9345V160.617H70.0884V155.463Z" fill="white"/>
<path d="M75.0937 155.463H69.9398V160.617H75.0937V155.463Z" fill="white"/>
<path d="M80.0725 155.463H74.9186V160.617H80.0725V155.463Z" fill="white"/>
<path d="M85.0778 155.463H79.9239V160.617H85.0778V155.463Z" fill="white"/>
<path d="M95.0619 155.463H89.908V160.617H95.0619V155.463Z" fill="white"/>
<path d="M100.065 155.463H94.9113V160.617H100.065V155.463Z" fill="white"/>
<path d="M110.049 155.463H104.895V160.617H110.049V155.463Z" fill="white"/>
<path d="M115.055 155.463H109.901V160.617H115.055V155.463Z" fill="white"/>
<path d="M135.023 155.463H129.869V160.617H135.023V155.463Z" fill="white"/>
<path d="M140.026 155.463H134.872V160.617H140.026V155.463Z" fill="white"/>
<path d="M155.016 155.463H149.862V160.617H155.016V155.463Z" fill="white"/>
<path d="M50.1202 160.468H44.9662V165.622H50.1202V160.468Z" fill="white"/>
<path d="M55.099 160.468H49.9451V165.622H55.099V160.468Z" fill="white"/>
<path d="M60.1043 160.468H54.9504V165.622H60.1043V160.468Z" fill="white"/>
<path d="M65.1096 160.468H59.9557V165.622H65.1096V160.468Z" fill="white"/>
<path d="M70.0884 160.468H64.9345V165.622H70.0884V160.468Z" fill="white"/>
<path d="M75.0937 160.468H69.9398V165.622H75.0937V160.468Z" fill="white"/>
<path d="M80.0725 160.468H74.9186V165.622H80.0725V160.468Z" fill="white"/>
<path d="M95.0619 160.468H89.908V165.622H95.0619V160.468Z" fill="white"/>
<path d="M100.065 160.468H94.9113V165.622H100.065V160.468Z" fill="white"/>
<path d="M115.055 160.468H109.901V165.622H115.055V160.468Z" fill="white"/>
<path d="M120.033 160.468H114.88V165.622H120.033V160.468Z" fill="white"/>
<path d="M125.039 160.468H119.885V165.622H125.039V160.468Z" fill="white"/>
<path d="M130.042 160.468H124.888V165.622H130.042V160.468Z" fill="white"/>
<path d="M155.016 160.468H149.862V165.622H155.016V160.468Z" fill="white"/>
<path d="M159.996 160.468H154.843V165.622H159.996V160.468Z" fill="white"/>
<path d="M0 0.621582V35.5786H34.957V0.621582H0ZM29.9774 30.599H5.00453V5.62611H29.9774V30.599Z" fill="white"/>
<path d="M129.869 0.621582V35.5786H164.826V0.621582H129.869ZM159.846 30.599H134.873V5.62611H159.846V30.599Z" fill="white"/>
<path d="M0 130.49V165.447H34.957V130.49H0ZM29.9774 160.468H5.00453V135.495H29.9774V160.468Z" fill="white"/>
<path d="M24.9728 10.606H9.98413V25.5946H24.9728V10.606Z" fill="#C32E1D"/>
<path d="M154.866 10.606H139.878V25.5946H154.866V10.606Z" fill="#C32E1D"/>
<path d="M24.9728 140.5H9.98413V155.488H24.9728V140.5Z" fill="#C32E1D"/>
<path d="M93.0772 81.5229C93.0772 87.3718 88.2926 92.1134 82.3905 92.1134C76.4883 92.1134 71.7037 87.3718 71.7037 81.5229C71.7037 75.6739 72.9567 68.5378 82.3905 72.4098C90.2672 68.5378 93.0772 75.6739 93.0772 81.5229Z" fill="white"/>
<path fill-rule="evenodd" clip-rule="evenodd" d="M62.3481 75.8991C62.661 61.7981 77.5393 59.2141 82.566 71.4578C87.724 59.8702 102.774 62.3734 102.653 76.5148C102.602 82.8336 97.7774 89.8644 93.4471 92.4484C92.468 93.0339 91.5091 93.6092 90.6411 94.2048C86.3411 97.1421 82.6367 97.1466 82.1724 98.8524C81.6879 97.0961 77.1782 95.1651 72.6259 92.0865C71.9193 91.602 71.1522 91.1276 70.3649 90.6431C65.964 87.8875 62.1967 82.4803 62.3481 75.9092V75.8991ZM85.1803 89.9093C86.3007 90.2122 88.8343 89.6974 88.3296 87.3657C88.0268 85.9828 87.734 85.5791 87.3303 85.034C87.0578 84.6606 86.7348 84.2164 86.331 83.3484C85.3216 81.2085 84.5141 79.9165 82.6871 79.977C80.8602 80.0376 79.8508 81.5415 79.0332 83.3685C78.7102 84.0852 78.4074 84.5091 78.1248 84.8927C77.7008 85.4781 77.3273 85.9929 77.0144 87.406C76.5097 89.7377 79.0433 90.2323 80.1637 89.9295C81.2841 89.6267 82.6771 89.122 82.6771 89.122C82.6771 89.122 84.0599 89.6166 85.1803 89.9195V89.9093ZM88.4305 76.0001C87.9258 77.7362 86.4017 78.8162 85.0289 78.4226C83.6562 78.0289 82.9395 76.313 83.4442 74.5769C83.9489 72.8407 85.4731 71.7607 86.8458 72.1543C88.2186 72.548 88.9352 74.2639 88.4305 76.0001ZM87.0982 79.8357C87.7845 78.1702 89.4096 77.2517 90.7319 77.7867C92.0542 78.3216 92.5791 80.1083 91.8927 81.7737C91.2063 83.4392 89.5812 84.3577 88.2589 83.8228C86.9367 83.2878 86.4118 81.5012 87.0982 79.8357ZM81.92 74.597C82.4146 76.323 81.7081 78.0491 80.3353 78.4427C78.9625 78.8465 77.4384 77.7665 76.9438 76.0405C76.4492 74.3144 77.1557 72.5883 78.5285 72.1947C79.9013 71.7909 81.4254 72.871 81.92 74.597ZM78.2661 79.866C78.9525 81.5315 78.4276 83.3181 77.1053 83.8632C75.783 84.4082 74.1478 83.4998 73.4715 81.8343C72.7851 80.1688 73.31 78.3822 74.6323 77.8371C75.9546 77.2921 77.5898 78.2005 78.2661 79.866Z" fill="#CB1517"/>
<path fill-rule="evenodd" clip-rule="evenodd" d="M104.026 74.7549C104.026 74.7203 104.026 74.6856 104.026 74.6507C104.026 71.2015 101.008 63.4408 92.6007 62.5785C90.9303 62.4072 88.8763 62.4968 87.016 63.0607C85.9027 63.3433 85.0815 63.7809 84.423 64.3033C83.5885 64.9062 82.9005 65.6848 82.4549 66.6747C82.0567 67.5587 82.1527 68.0975 82.417 68.1459C82.5161 68.1643 82.6487 67.9507 82.7755 67.677C82.716 67.8365 82.6563 67.9977 82.6013 68.148C82.3578 68.8127 82.2785 69.6244 82.4421 69.947C82.6058 70.2697 83.0177 69.9703 83.0943 69.5281C83.144 69.2413 83.4894 68.455 83.7259 67.9382C83.6176 68.1813 83.4842 68.4964 83.3589 68.8349C83.0829 69.5802 83.0685 70.5045 83.3734 70.6257C83.5966 70.7144 83.7405 70.2737 83.8926 69.8081C83.9483 69.6375 84.0051 69.4636 84.0673 69.3111C84.2992 68.7426 84.9651 67.7694 84.9651 67.7694C84.9651 67.7694 84.5314 68.5672 84.2676 69.143C84.0042 69.7194 84.0181 70.342 84.3623 70.3139C84.5841 70.2959 84.7055 70.0184 84.8693 69.6439C84.9598 69.437 85.0633 69.2005 85.2038 68.9618C85.5989 68.29 86.4992 67.7144 86.4992 67.7144C86.4992 67.7144 86.2388 68.5534 86.2589 68.8229C86.2794 69.0931 86.4393 69.3503 86.7244 69.4238C86.8857 69.4654 87.0846 69.1077 87.3498 68.6307C87.5534 68.2645 87.7962 67.828 88.091 67.4478C88.5314 66.88 91.6497 66.6073 94.4099 67.3892C97.502 69.002 99.4976 72.334 99.4976 76.1741C99.4976 81.1414 95.8416 87.6766 89.0974 93.2382C87.1457 94.8477 84.9354 96.3756 82.4802 97.7604C80.025 96.3756 77.8367 94.8477 75.9191 93.2382C69.2927 87.6766 65.8993 81.1414 65.8993 76.1741C65.8993 74.5188 66.2293 72.8902 66.8421 71.4269C68.6543 68.0136 72.9897 66.9152 74.1158 68.5827C75.0633 69.9857 77.2688 70.167 78.0696 70.0039C78.7733 69.8605 78.9268 69.4944 79.004 69.3102C79.0348 69.2368 79.0534 69.1924 79.0899 69.2022C79.9644 69.4391 80.4199 68.9107 80.2924 68.1819C81.1305 68.5463 81.2945 67.7993 81.0941 67.198C82.2237 66.3599 80.2924 65.0071 79.6547 64.5926C77.0015 62.868 74.1841 62.5343 71.8144 62.7617C65.9598 63.1923 60.4507 67.3087 60.875 76.1741C61.2287 83.5652 66.2787 91.9642 74.3507 98.5183C76.6532 100.388 79.2015 102.107 81.9569 103.61C82.1202 103.699 82.2995 103.743 82.4795 103.743C82.6595 103.743 82.8395 103.699 83.002 103.61C85.7755 102.098 88.3651 100.38 90.7144 98.5183C98.882 92.0462 104.146 83.8323 104.146 76.4178C104.146 75.8687 104.106 75.3126 104.026 74.7549Z" fill="white"/>
<path d="M104.026 74.6507L103.872 74.6507V74.6507H104.026ZM104.026 74.7549L103.871 74.7544C103.871 74.7618 103.872 74.7693 103.873 74.7767L104.026 74.7549ZM92.6007 62.5785L92.6165 62.4247L92.6007 62.5785ZM87.016 63.0607L87.0541 63.2108L87.0609 63.2087L87.016 63.0607ZM84.423 64.3033L84.5136 64.4288L84.5191 64.4245L84.423 64.3033ZM82.4549 66.6747L82.5959 66.7382L82.5959 66.7382L82.4549 66.6747ZM82.417 68.1459L82.4451 67.9939L82.4448 67.9939L82.417 68.1459ZM82.7755 67.677L82.9204 67.731C82.9494 67.6532 82.9117 67.5663 82.8351 67.5343C82.7584 67.5023 82.6702 67.5366 82.6352 67.612L82.7755 67.677ZM82.6013 68.148L82.7465 68.2012L82.7465 68.2011L82.6013 68.148ZM82.4421 69.947L82.58 69.8771V69.8771L82.4421 69.947ZM83.0943 69.5281L82.9419 69.5017V69.5017L83.0943 69.5281ZM83.7259 67.9382L83.8672 68.0012C83.9018 67.9234 83.8671 67.8323 83.7895 67.7973C83.712 67.7623 83.6207 67.7965 83.5853 67.8739L83.7259 67.9382ZM83.3589 68.8349L83.2139 68.7812L83.3589 68.8349ZM83.3734 70.6257L83.3163 70.7694L83.3734 70.6257ZM83.8926 69.8081L83.7456 69.7601V69.7601L83.8926 69.8081ZM84.0673 69.3111L83.9241 69.2527L83.9241 69.2527L84.0673 69.3111ZM84.9651 67.7694L85.101 67.8432C85.1403 67.7709 85.116 67.6805 85.0458 67.6375C84.9756 67.5945 84.884 67.6141 84.8375 67.6821L84.9651 67.7694ZM84.2676 69.143L84.1271 69.0786L84.127 69.0787L84.2676 69.143ZM84.3623 70.3139L84.3749 70.4681L84.3623 70.3139ZM84.8693 69.6439L84.7277 69.5819V69.5819L84.8693 69.6439ZM85.2038 68.9618L85.3371 69.0402L85.3371 69.0402L85.2038 68.9618ZM86.4992 67.7144L86.6469 67.7603C86.6661 67.6983 86.6446 67.6309 86.593 67.5915C86.5413 67.5521 86.4706 67.5492 86.4159 67.5842L86.4992 67.7144ZM86.2589 68.8229L86.1047 68.8344L86.1047 68.8346L86.2589 68.8229ZM86.7244 69.4238L86.6858 69.5735L86.7244 69.4238ZM87.3498 68.6307L87.2147 68.5556L87.3498 68.6307ZM88.091 67.4478L87.9688 67.3531L88.091 67.4478ZM94.4099 67.3892L94.4814 67.2521C94.472 67.2472 94.4622 67.2433 94.452 67.2404L94.4099 67.3892ZM89.0974 93.2382L89.1958 93.3575L89.0974 93.2382ZM82.4802 97.7604L82.4042 97.8951C82.4514 97.9217 82.509 97.9217 82.5562 97.8951L82.4802 97.7604ZM75.9191 93.2382L75.8197 93.3566L75.9191 93.2382ZM66.8421 71.4269L66.7055 71.3543C66.7033 71.3585 66.7013 71.3628 66.6994 71.3671L66.8421 71.4269ZM74.1158 68.5827L74.244 68.4962L74.1158 68.5827ZM78.0696 70.0039L78.0387 69.8524L78.0696 70.0039ZM79.004 69.3102L78.8615 69.2504L79.004 69.3102ZM79.0899 69.2022L79.1303 69.053L79.0899 69.2022ZM80.2924 68.1819L80.354 68.0401C80.3019 68.0174 80.2414 68.0252 80.1967 68.0604C80.152 68.0956 80.1303 68.1525 80.1401 68.2086L80.2924 68.1819ZM81.0941 67.198L81.0019 67.0739C80.9483 67.1137 80.9262 67.1835 80.9474 67.2469L81.0941 67.198ZM79.6547 64.5926L79.5704 64.7222L79.6547 64.5926ZM71.8144 62.7617L71.8257 62.9159L71.8292 62.9156L71.8144 62.7617ZM60.875 76.1741L61.0294 76.1668H61.0294L60.875 76.1741ZM74.3507 98.5183L74.2532 98.6383L74.3507 98.5183ZM81.9569 103.61L81.8829 103.746L81.883 103.746L81.9569 103.61ZM83.002 103.61L83.0758 103.746L83.0761 103.746L83.002 103.61ZM90.7144 98.5183L90.6184 98.3971L90.7144 98.5183ZM103.872 74.6507C103.872 74.6855 103.871 74.72 103.871 74.7544L104.181 74.7554C104.181 74.7207 104.181 74.6858 104.181 74.6507H103.872ZM92.5849 62.7323C96.7384 63.1583 99.5575 65.2862 101.341 67.7356C103.129 70.1902 103.872 72.9612 103.872 74.6507L104.181 74.6507C104.181 72.891 103.414 70.0571 101.591 67.5535C99.7641 65.0446 96.8704 62.861 92.6165 62.4247L92.5849 62.7323ZM87.0609 63.2087C88.8975 62.652 90.9302 62.5626 92.5849 62.7323L92.6165 62.4247C90.9303 62.2518 88.8551 62.3417 86.9711 62.9128L87.0609 63.2087ZM84.5191 64.4245C85.1601 63.9159 85.9614 63.4879 87.054 63.2106L86.978 62.9109C85.8439 63.1987 85.0029 63.6459 84.3269 64.1822L84.5191 64.4245ZM82.5959 66.7382C83.029 65.7761 83.6981 65.0178 84.5136 64.4287L84.3325 64.178C83.479 64.7946 82.772 65.5936 82.3139 66.6113L82.5959 66.7382ZM82.4448 67.9939C82.4327 67.9916 82.4123 67.9837 82.3902 67.9442C82.3664 67.9019 82.3452 67.8293 82.342 67.7192C82.3357 67.4994 82.4023 67.1678 82.5959 66.7382L82.3139 66.6112C82.1092 67.0656 82.0248 67.4454 82.0329 67.7281C82.037 67.8692 82.0645 67.9957 82.1206 68.0956C82.1783 68.1985 82.2691 68.276 82.3891 68.298L82.4448 67.9939ZM82.6352 67.612C82.573 67.7462 82.5131 67.8574 82.4604 67.9307C82.4336 67.9678 82.4141 67.9876 82.4029 67.9962C82.39 68.0061 82.4076 67.987 82.4451 67.9939L82.3888 68.298C82.4759 68.3141 82.5473 68.2751 82.591 68.2416C82.6366 68.2067 82.6767 68.1594 82.7114 68.1113C82.7814 68.0139 82.8511 67.8815 82.9158 67.742L82.6352 67.612ZM82.7465 68.2011C82.8014 68.0512 82.861 67.8903 82.9204 67.731L82.6307 67.6229C82.5711 67.7826 82.5113 67.9441 82.4561 68.0948L82.7465 68.2011ZM82.58 69.8771C82.5517 69.8213 82.5287 69.7321 82.5177 69.6095C82.507 69.4891 82.5087 69.3463 82.523 69.1899C82.5516 68.8767 82.6294 68.5208 82.7465 68.2012L82.4561 68.0948C82.3297 68.4399 82.2461 68.8222 82.215 69.1617C82.1995 69.3316 82.1969 69.4937 82.2097 69.637C82.2223 69.7782 82.2507 69.9114 82.3042 70.0169L82.58 69.8771ZM82.9419 69.5017C82.9098 69.6874 82.8077 69.8332 82.7144 69.8962C82.6681 69.9275 82.6386 69.9291 82.6275 69.9273C82.6232 69.9266 82.6037 69.9237 82.58 69.8771L82.3042 70.0169C82.3624 70.1316 82.4557 70.2123 82.5771 70.2324C82.6916 70.2513 82.8007 70.211 82.8874 70.1525C83.0601 70.0359 83.2022 69.811 83.2466 69.5545L82.9419 69.5017ZM83.5853 67.8739C83.4667 68.1331 83.3203 68.4609 83.1971 68.7606C83.0764 69.0539 82.9702 69.3385 82.9419 69.5017L83.2466 69.5545C83.268 69.4309 83.3594 69.1789 83.483 68.8782C83.6041 68.5839 83.7486 68.2602 83.8665 68.0026L83.5853 67.8739ZM83.5039 68.8886C83.6278 68.5541 83.7598 68.2422 83.8672 68.0012L83.5847 67.8753C83.4755 68.1205 83.3407 68.4387 83.2139 68.7812L83.5039 68.8886ZM83.4305 70.482C83.4188 70.4774 83.3831 70.452 83.3508 70.3521C83.3204 70.2576 83.3029 70.125 83.3029 69.9643C83.3029 69.644 83.372 69.2448 83.5039 68.8886L83.2139 68.7812C83.0698 69.1703 82.9937 69.6058 82.9937 69.9643C82.9937 70.143 83.0126 70.3108 83.0565 70.447C83.0987 70.5777 83.1755 70.7134 83.3163 70.7694L83.4305 70.482ZM83.7456 69.7601C83.668 69.9977 83.5982 70.2096 83.5229 70.3527C83.4847 70.4251 83.4537 70.4624 83.4334 70.478C83.425 70.4844 83.423 70.4835 83.4269 70.4828C83.4319 70.4819 83.4342 70.4835 83.4305 70.482L83.3163 70.7694C83.4302 70.8147 83.5377 70.7875 83.6212 70.7237C83.6954 70.667 83.7517 70.5817 83.7964 70.4968C83.8869 70.3253 83.9651 70.084 84.0396 69.8561L83.7456 69.7601ZM83.9241 69.2527C83.8595 69.4113 83.8009 69.5907 83.7456 69.7601L84.0396 69.8561C84.0957 69.6842 84.1508 69.5159 84.2105 69.3695L83.9241 69.2527ZM84.9651 67.7694C84.8375 67.6821 84.8375 67.6821 84.8375 67.6821C84.8375 67.6821 84.8375 67.6821 84.8375 67.6822C84.8375 67.6822 84.8374 67.6822 84.8374 67.6823C84.8373 67.6825 84.8371 67.6826 84.837 67.6829C84.8366 67.6834 84.8361 67.6841 84.8355 67.6851C84.8341 67.6871 84.8322 67.6899 84.8297 67.6936C84.8246 67.701 84.8173 67.7119 84.8078 67.726C84.7889 67.7541 84.7617 67.7947 84.7284 67.8452C84.6618 67.9462 84.5705 68.0868 84.4719 68.2454C84.2764 68.5598 84.0456 68.9551 83.9241 69.2527L84.2105 69.3695C84.321 69.0987 84.539 68.7231 84.7345 68.4087C84.8313 68.253 84.921 68.1148 84.9865 68.0155C85.0193 67.9659 85.0459 67.926 85.0643 67.8987C85.0735 67.885 85.0807 67.8744 85.0855 67.8673C85.0879 67.8638 85.0898 67.8611 85.091 67.8593C85.0916 67.8584 85.092 67.8577 85.0923 67.8573C85.0925 67.8571 85.0926 67.8569 85.0927 67.8568C85.0927 67.8568 85.0927 67.8567 85.0927 67.8567C85.0927 67.8567 85.0927 67.8567 85.0927 67.8567C85.0927 67.8567 85.0927 67.8567 84.9651 67.7694ZM84.4082 69.2074C84.5384 68.9231 84.7113 68.5825 84.8524 68.3117C84.9228 68.1766 84.985 68.0593 85.0296 67.9759C85.0519 67.9342 85.0698 67.901 85.0821 67.8782C85.0882 67.8668 85.0929 67.858 85.0961 67.8521C85.0977 67.8492 85.099 67.8469 85.0998 67.8454C85.1002 67.8447 85.1005 67.8441 85.1007 67.8438C85.1008 67.8436 85.1009 67.8434 85.1009 67.8434C85.1009 67.8433 85.1009 67.8433 85.101 67.8433C85.101 67.8433 85.101 67.8432 85.101 67.8432C85.101 67.8432 85.101 67.8432 84.9651 67.7694C84.8293 67.6955 84.8293 67.6955 84.8293 67.6956C84.8293 67.6956 84.8293 67.6956 84.8293 67.6956C84.8293 67.6956 84.8292 67.6957 84.8292 67.6957C84.8291 67.6958 84.8291 67.696 84.829 67.6962C84.8287 67.6966 84.8284 67.6972 84.828 67.698C84.8271 67.6995 84.8259 67.7018 84.8242 67.7049C84.821 67.7109 84.8161 67.7198 84.8099 67.7314C84.7974 67.7545 84.7794 67.7881 84.7569 67.8302C84.7119 67.9143 84.6492 68.0325 84.5782 68.1688C84.4365 68.4408 84.2606 68.787 84.1271 69.0786L84.4082 69.2074ZM84.3498 70.1598C84.3195 70.1623 84.3058 70.1545 84.2908 70.1336C84.2692 70.1036 84.2474 70.0435 84.2414 69.9458C84.2298 69.753 84.2842 69.4788 84.4082 69.2072L84.127 69.0787C83.9877 69.3836 83.9173 69.7088 83.9328 69.9645C83.9404 70.091 83.9701 70.2173 84.0397 70.3141C84.1159 70.4202 84.2331 70.4796 84.3749 70.4681L84.3498 70.1598ZM84.7277 69.5819C84.6438 69.7737 84.5782 69.9224 84.5087 70.0271C84.4396 70.1313 84.3898 70.1566 84.3498 70.1598L84.3749 70.4681C84.5566 70.4532 84.6784 70.3307 84.7664 70.198C84.854 70.0659 84.931 69.8886 85.011 69.7059L84.7277 69.5819ZM85.0706 68.8834C84.9247 69.1312 84.8179 69.3757 84.7277 69.5819L85.011 69.7059C85.1018 69.4983 85.2019 69.2699 85.3371 69.0402L85.0706 68.8834ZM86.4992 67.7144C86.4159 67.5842 86.4159 67.5842 86.4159 67.5842C86.4159 67.5842 86.4158 67.5842 86.4158 67.5843C86.4157 67.5843 86.4157 67.5843 86.4156 67.5844C86.4154 67.5845 86.4152 67.5846 86.4149 67.5848C86.4144 67.5852 86.4136 67.5857 86.4126 67.5863C86.4107 67.5875 86.4079 67.5894 86.4043 67.5917C86.3971 67.5964 86.3868 67.6033 86.3735 67.6121C86.3471 67.6299 86.3092 67.6558 86.2627 67.6889C86.1697 67.7551 86.0417 67.8504 85.9009 67.9672C85.6221 68.1987 85.2818 68.5242 85.0705 68.8834L85.3371 69.0402C85.5209 68.7276 85.8282 68.4295 86.0984 68.2052C86.2321 68.0942 86.3538 68.0036 86.442 67.9408C86.486 67.9095 86.5216 67.8852 86.5459 67.8688C86.5581 67.8607 86.5675 67.8545 86.5737 67.8504C86.5768 67.8484 86.5791 67.8469 86.5806 67.8459C86.5813 67.8455 86.5819 67.8451 86.5822 67.8449C86.5823 67.8448 86.5824 67.8447 86.5825 67.8447C86.5825 67.8447 86.5825 67.8447 86.5825 67.8447C86.5825 67.8447 86.5825 67.8447 86.5825 67.8447C86.5825 67.8447 86.5825 67.8447 86.4992 67.7144ZM86.4131 68.8114C86.4097 68.7659 86.4185 68.6804 86.44 68.5642C86.4607 68.4525 86.4904 68.3261 86.5213 68.2061C86.552 68.0864 86.5835 67.9748 86.6073 67.8929C86.6192 67.852 86.6291 67.8187 86.6361 67.7957C86.6395 67.7842 86.6423 67.7752 86.6441 67.7692C86.645 67.7662 86.6457 67.7639 86.6462 67.7624C86.6464 67.7617 86.6466 67.7611 86.6467 67.7608C86.6468 67.7606 86.6468 67.7604 86.6468 67.7604C86.6469 67.7603 86.6469 67.7603 86.6469 67.7603C86.6469 67.7603 86.6469 67.7603 86.6469 67.7603C86.6469 67.7603 86.6469 67.7603 86.4992 67.7144C86.3515 67.6686 86.3515 67.6686 86.3515 67.6686C86.3515 67.6686 86.3515 67.6687 86.3515 67.6687C86.3515 67.6687 86.3515 67.6688 86.3515 67.6688C86.3514 67.6689 86.3514 67.6691 86.3513 67.6693C86.3512 67.6698 86.351 67.6704 86.3507 67.6713C86.3502 67.673 86.3494 67.6754 86.3485 67.6786C86.3465 67.685 86.3436 67.6944 86.34 67.7063C86.3328 67.7302 86.3226 67.7646 86.3104 67.8066C86.286 67.8904 86.2536 68.0054 86.2218 68.1291C86.19 68.2525 86.1584 68.3864 86.1359 68.5079C86.1143 68.6248 86.0981 68.7452 86.1047 68.8344L86.4131 68.8114ZM86.763 69.2741C86.5577 69.2212 86.4299 69.0332 86.4131 68.8112L86.1047 68.8346C86.1289 69.153 86.3208 69.4795 86.6858 69.5735L86.763 69.2741ZM87.2147 68.5556C87.0803 68.7973 86.9691 68.9967 86.8724 69.1317C86.8238 69.1996 86.7859 69.2408 86.7583 69.2621C86.7302 69.2839 86.7368 69.2673 86.763 69.2741L86.6858 69.5735C86.7926 69.601 86.8846 69.5554 86.9474 69.5068C87.0107 69.4579 87.0694 69.3877 87.1238 69.3118C87.2332 69.159 87.3541 68.9412 87.4849 68.7059L87.2147 68.5556ZM87.9688 67.3531C87.6656 67.7441 87.4174 68.191 87.2147 68.5556L87.4849 68.7059C87.6894 68.3381 87.9267 67.912 88.2132 67.5426L87.9688 67.3531ZM94.452 67.2404C93.0543 66.8445 91.5684 66.7159 90.3751 66.7578C89.7785 66.7788 89.2506 66.8425 88.8407 66.9386C88.6358 66.9867 88.4568 67.0436 88.3119 67.1094C88.17 67.1738 88.0465 67.253 87.9688 67.3531L88.2132 67.5426C88.2456 67.5007 88.3159 67.4472 88.4396 67.391C88.5603 67.3362 88.7187 67.2848 88.9113 67.2397C89.2961 67.1494 89.8029 67.0873 90.3859 67.0669C91.5519 67.0259 93.0053 67.152 94.3677 67.5379L94.452 67.2404ZM99.6522 76.1741C99.6522 72.2803 97.628 68.8933 94.4814 67.2521L94.3384 67.5262C97.3761 69.1107 99.343 72.3877 99.343 76.1741H99.6522ZM89.1958 93.3575C95.9569 87.7819 99.6522 81.2072 99.6522 76.1741H99.343C99.343 81.0755 95.7263 87.5713 88.999 93.1189L89.1958 93.3575ZM82.5562 97.8951C85.0191 96.5059 87.237 94.9728 89.1958 93.3575L88.999 93.1189C87.0545 94.7225 84.8517 96.2453 82.4042 97.6257L82.5562 97.8951ZM75.8197 93.3566C77.7447 94.9724 79.9409 96.5057 82.4042 97.8951L82.5562 97.6257C80.1091 96.2455 77.9286 94.723 76.0185 93.1198L75.8197 93.3566ZM65.7447 76.1741C65.7447 81.2038 69.1736 87.7785 75.8197 93.3566L76.0185 93.1198C69.4119 87.5748 66.0539 81.0789 66.0539 76.1741H65.7447ZM66.6994 71.3671C66.0786 72.8497 65.7447 74.4985 65.7447 76.1741H66.0539C66.0539 74.539 66.3799 72.9308 66.9847 71.4866L66.6994 71.3671ZM74.244 68.4962C73.9303 68.0317 73.4012 67.7723 72.7793 67.6904C72.1572 67.6084 71.4288 67.701 70.6865 67.9531C69.2019 68.4573 67.6319 69.6095 66.7055 71.3543L66.9786 71.4994C67.8644 69.831 69.3682 68.7274 70.7859 68.2459C71.4948 68.0052 72.1746 67.9225 72.7388 67.9969C73.3032 68.0713 73.7383 68.3 73.9877 68.6693L74.244 68.4962ZM78.0387 69.8524C77.6656 69.9284 76.9382 69.9265 76.1866 69.731C75.4356 69.5356 74.6883 69.1542 74.244 68.4962L73.9877 68.6693C74.4908 69.4142 75.3199 69.825 76.1088 70.0302C76.897 70.2353 77.6728 70.2425 78.1004 70.1554L78.0387 69.8524ZM78.8615 69.2504C78.824 69.3398 78.7761 69.4523 78.6639 69.5616C78.5524 69.6702 78.3664 69.7856 78.0387 69.8524L78.1004 70.1554C78.4765 70.0788 78.7191 69.9395 78.8797 69.7831C79.0394 69.6274 79.1069 69.4648 79.1466 69.3699L78.8615 69.2504ZM79.1303 69.053C79.0856 69.0409 79.0368 69.0446 78.9926 69.0682C78.9541 69.0888 78.9305 69.1183 78.9173 69.1376C78.8931 69.1729 78.874 69.2204 78.8615 69.2504L79.1466 69.3699C79.1546 69.3508 79.1604 69.3372 79.1656 69.326C79.171 69.3143 79.1731 69.3113 79.1723 69.3124C79.1722 69.3126 79.162 69.3283 79.1383 69.341C79.1254 69.3479 79.1099 69.3531 79.0927 69.3548C79.0757 69.3566 79.0609 69.3546 79.0495 69.3515L79.1303 69.053ZM80.1401 68.2086C80.1978 68.5386 80.1193 68.7937 79.9614 68.9412C79.8055 69.0868 79.5345 69.1625 79.1303 69.053L79.0495 69.3515C79.5198 69.4789 79.9139 69.4087 80.1725 69.1672C80.429 68.9275 80.5145 68.554 80.4447 68.1553L80.1401 68.2086ZM80.9474 67.2469C81.0411 67.5279 81.0382 67.8145 80.9477 67.9768C80.9063 68.0509 80.8484 68.0977 80.7667 68.1154C80.6794 68.1343 80.5464 68.1237 80.354 68.0401L80.2307 68.3237C80.4575 68.4223 80.6593 68.455 80.8322 68.4176C81.0106 68.3789 81.1383 68.2697 81.2177 68.1274C81.3686 67.857 81.3475 67.4694 81.2407 67.1491L80.9474 67.2469ZM79.5704 64.7222C79.8885 64.929 80.5139 65.3605 80.9194 65.8367C81.1235 66.0763 81.2556 66.3088 81.282 66.5153C81.3063 66.7047 81.2447 66.8937 81.0019 67.0739L81.1862 67.3222C81.5082 67.0833 81.6288 66.7889 81.5888 66.476C81.5509 66.1802 81.3721 65.8914 81.1548 65.6362C80.7177 65.1228 80.0585 64.6707 79.739 64.463L79.5704 64.7222ZM71.8292 62.9156C74.1733 62.6907 76.9535 63.0212 79.5704 64.7222L79.739 64.463C77.0496 62.7148 74.195 62.378 71.7996 62.6078L71.8292 62.9156ZM61.0294 76.1668C60.819 71.7689 62.0799 68.5665 64.1029 66.4106C66.1278 64.2527 68.9298 63.1289 71.8257 62.9159L71.803 62.6075C68.8444 62.8251 65.9646 63.9747 63.8774 66.1991C61.7882 68.4254 60.5068 71.714 60.7206 76.1815L61.0294 76.1668ZM74.4481 98.3983C66.3963 91.8605 61.3803 83.4986 61.0294 76.1668L60.7206 76.1815C61.0771 83.6318 66.1612 92.0679 74.2532 98.6383L74.4481 98.3983ZM82.031 103.475C79.2839 101.976 76.7433 100.262 74.4481 98.3983L74.2532 98.6383C76.563 100.514 79.1192 102.239 81.8829 103.746L82.031 103.475ZM82.4795 103.588C82.3246 103.588 82.1708 103.551 82.0309 103.475L81.883 103.746C82.0695 103.848 82.2743 103.898 82.4795 103.898V103.588ZM82.9283 103.475C82.7887 103.55 82.6341 103.588 82.4795 103.588V103.898C82.6849 103.898 82.8903 103.847 83.0758 103.746L82.9283 103.475ZM90.6184 98.3971C88.2761 100.253 85.6939 101.966 82.928 103.475L83.0761 103.746C85.8572 102.229 88.4541 100.507 90.8104 98.6395L90.6184 98.3971ZM103.992 76.4178C103.992 83.7641 98.7692 91.9383 90.6184 98.3971L90.8104 98.6395C98.9947 92.1541 104.301 83.9004 104.301 76.4178H103.992ZM103.873 74.7767C103.952 75.3276 103.992 75.8763 103.992 76.4178H104.301C104.301 75.861 104.26 75.2977 104.179 74.733L103.873 74.7767Z" fill="white"/>
<path d="M80.2844 66.2146C80.3491 66.2323 80.7066 66.4555 80.8775 66.7061C81.1508 67.1069 81.1508 67.4869 81.1508 67.7446" stroke="white" stroke-width="0.309228" stroke-linecap="round"/>
<path d="M79.4931 66.987C79.5568 67.0079 79.9172 67.3036 80.0752 67.5624C80.2333 67.8213 80.3121 68.1346 80.3121 68.4734" stroke="white" stroke-width="0.309228" stroke-linecap="round"/>
<path d="M78.1799 67.5991C78.599 67.7813 78.8725 68.0474 78.988 68.3279C79.1034 68.6084 79.1052 69.1519 78.988 69.3365" stroke="white" stroke-width="0.309228" stroke-linecap="round"/>
</g>
<defs>
<clipPath id="clip0_2104_7647">
<rect width="165" height="165.481" fill="white" transform="translate(0 0.544434)"/>
</clipPath>
</defs>
</svg>
