<svg width="60" height="56" viewBox="0 0 60 56" fill="none" xmlns="http://www.w3.org/2000/svg">
<path d="M30.0344 27.4228C23.7044 27.6436 22.2895 33.5848 16.6144 39.0289C8.28819 47.017 9.95556 53.8672 15.1109 55.2493C20.2696 56.6271 24.5971 50.786 30.1811 50.8513C30.2008 50.8525 30.2161 50.8504 30.2358 50.8516C30.2511 50.8495 30.2708 50.8507 30.2862 50.8486C35.867 50.6917 40.2957 56.4555 45.4315 54.9923C50.5629 53.5257 52.1109 46.6481 43.6494 38.8011C37.8828 33.4515 36.3679 27.5415 30.031 27.4272L30.0344 27.4228Z" fill="#0474B5"/>
<path d="M14.7098 22.8622C18.2539 27.6457 18.6235 33.3809 15.5425 35.6676C12.4571 37.9509 7.08084 35.9272 3.54009 31.1392C-0.00395775 26.3557 -0.377895 20.6171 2.70745 18.3338C5.7928 16.0504 11.1691 18.0742 14.7098 22.8622Z" fill="#0474B5"/>
<path d="M45.2811 22.6017C41.8173 27.4491 41.5464 33.1863 44.6696 35.4179C47.7929 37.6495 53.1315 35.5294 56.5953 30.6821C60.0591 25.8347 60.3299 20.0974 57.2066 17.8658C54.0834 15.6342 48.7449 17.7543 45.2811 22.6017Z" fill="#0474B5"/>
<path d="M28.2513 10.6257C29.4078 16.7998 27.1112 22.4089 23.1344 23.1504C19.1542 23.8962 14.9906 19.4947 13.8374 13.3162C12.6809 7.1421 14.9774 1.533 18.9543 0.791514C22.9345 0.045671 27.0981 4.44725 28.2513 10.6257Z" fill="#0474B5"/>
<path d="M31.5289 10.5976C30.4805 16.7894 32.8664 22.3571 36.8586 23.0355C40.8507 23.714 44.9398 19.2379 45.9882 13.0462C47.0366 6.85447 44.6507 1.28677 40.6585 0.608279C36.6664 -0.0702145 32.5773 4.40595 31.5289 10.5976Z" fill="#0474B5"/>
</svg>
